<?xml version="1.0" standalone="no"?>
<!DOCTYPE svg
  PUBLIC '-//W3C//DTD SVG 1.1//EN'
  'http://www.w3.org/Graphics/SVG/1.1/DTD/svg11.dtd'><svg version="1.1" xmlns="http://www.w3.org/2000/svg"><defs><font horiz-adv-x="0" id="font"><font-face ascent="750" bbox="-50 -307 1415 1058" cap-height="800" descent="-250" font-family="Bendicion" font-stretch="normal" font-style="normal" font-weight="800" units-per-em="1000" x-height="800" /><missing-glyph d="M641 0 89 0V800H641ZM209 684 209 116H521V684Z" horiz-adv-x="730" /><glyph d="" glyph-name=".null" horiz-adv-x="0" unicode="" /><glyph d="" glyph-name="CR" horiz-adv-x="0" unicode="" /><glyph d="" glyph-name="space" horiz-adv-x="323" unicode=" " /><glyph d="" glyph-name="uni00A0" horiz-adv-x="323" unicode=" " /><glyph d="M425 -12Q262 -12 155.5 104Q49 220 49 400Q49 578 155.5 695Q262 812 424 812Q508 812 576.5 778.5Q645 745 692 681V800H813V0H692V118Q645 55 576.5 21.5Q508 -12 425 -12ZM181 400Q181 272 251.5 190.5Q322 109 433 109Q543 109 614 190.5Q685 272 685 400Q685 527 614 609Q543 691 433 691Q322 691 251.5 609.5Q181 528 181 400Z" glyph-name="A" horiz-adv-x="900" unicode="A" /><glyph d="M198 0 86 0V800H506V406H694V0H582V1H198ZM198 691 198 406H394V691ZM198 296 198 110H582V296Z" glyph-name="B" horiz-adv-x="740" unicode="B" /><glyph d="M46 400Q46 574 156.5 687Q267 800 436 800H603V682H444Q325 682 251.5 604Q178 526 178 400Q178 274 251.5 196Q325 118 444 118H601V0H436Q267 0 156.5 113Q46 226 46 400Z" glyph-name="C" horiz-adv-x="652" unicode="C" /><glyph d="M629 0 89 0V703L68 729L162 816L731 112ZM205 559 205 114H564Z" glyph-name="D" horiz-adv-x="731" unicode="D" /><glyph d="M209 116 555 116V0H89V553Q89 673 158 742.5Q227 812 346 812Q466 812 535 742.5Q604 673 604 553V311H209ZM347 694Q281 694 245 655.5Q209 617 209 546V419H486V547Q486 618 450 656Q414 694 347 694Z" glyph-name="E" horiz-adv-x="663" unicode="E" /><glyph d="M209 0 89 0V273L58 268L35 382L89 392V800H503V682H209V413L449 455L470 339L209 294Z" glyph-name="F" horiz-adv-x="534" unicode="F" /><glyph d="M49 400Q49 573 159 686.5Q269 800 437 800H623V682H447Q328 682 254.5 604Q181 526 181 400Q181 275 255 196.5Q329 118 447 118H592V431H712V0H437Q269 0 159 113.5Q49 227 49 400Z" glyph-name="G" horiz-adv-x="758" unicode="G" /><glyph d="M209 0 89 0V292L69 288L46 405L89 413V800H209V434L528 490V800H648V511L667 514L690 397L648 390V0H528V369L209 313Z" glyph-name="H" horiz-adv-x="737" unicode="H" /><glyph d="M411 0 49 0V116H169V684H49V800H411V684H290V116H411Z" glyph-name="I" horiz-adv-x="460" unicode="I" /><glyph d="M589 0 72 0V416H192V116H469V800H589Z" glyph-name="J" horiz-adv-x="678" unicode="J" /><glyph d="M209 0 89 0V800H209V437H334Q393 437 427 472Q461 507 461 568V800H581V561Q581 509 564 468Q547 427 513 399Q582 377 618.5 325.5Q655 274 655 198V0H535V191Q535 252 501.5 286.5Q468 321 408 321H209Z" glyph-name="K" horiz-adv-x="711" unicode="K" /><glyph d="M539 0 89 0V800H209V116H539Z" glyph-name="L" horiz-adv-x="552" unicode="L" /><glyph d="M500 0 384 0V686H205V0H89V800H795V0H679V686H500Z" glyph-name="M" horiz-adv-x="884" unicode="M" /><glyph d="M216 0 100 0V671L58 729L153 812L531 288V800H647V127L686 73L591 -12L216 509Z" glyph-name="N" horiz-adv-x="741" unicode="N" /><glyph d="M62 190 62 610L237 800H593L767 610V190L593 0H237ZM185 494 185 306Q185 218 230 168Q275 118 353 118H475Q554 118 599 168Q644 218 644 306V494Q644 582 599 632Q554 682 475 682H353Q275 682 230 632Q185 582 185 494Z" glyph-name="O" horiz-adv-x="829" unicode="O" /><glyph d="M209 0 89 0V800H605V257H209ZM207 684 207 373H487V684Z" glyph-name="P" horiz-adv-x="665" unicode="P" /><glyph d="M502 0 502 -66H733V-172H510Q451 -172 417 -136Q383 -100 383 -38V0H237L62 190V610L237 800H593L767 610V190L593 0ZM185 494 185 306Q185 218 230 168Q275 118 353 118H475Q554 118 599 168Q644 218 644 306V494Q644 582 599 632Q554 682 475 682H353Q275 682 230 632Q185 582 185 494Z" glyph-name="Q" horiz-adv-x="829" unicode="Q" /><glyph d="M209 0 89 0V800H522V389H671V0H555V273H209ZM409 689 202 689V385H409Z" glyph-name="R" horiz-adv-x="726" unicode="R" /><glyph d="M313 97Q369 97 405.5 127.5Q442 158 442 204Q442 243 412.5 273.5Q383 304 311 335L231 368Q143 406 102.5 458Q62 510 62 583Q62 682 132 747Q202 812 308 812Q422 812 494 746.5Q566 681 566 576V532H450V561Q450 627 411.5 665Q373 703 309 703Q254 703 217 670.5Q180 638 180 589Q180 549 207.5 518.5Q235 488 301 460L379 428Q473 388 516.5 335Q560 282 560 210Q560 113 490.5 50.5Q421 -12 313 -12Q198 -12 127 53Q56 118 56 224V268H172V239Q172 173 210 135Q248 97 313 97Z" glyph-name="S" horiz-adv-x="622" unicode="S" /><glyph d="M354 0 234 0V684H26V800H564V684H354Z" glyph-name="T" horiz-adv-x="590" unicode="T" /><glyph d="M394 106Q482 106 531.5 160Q581 214 581 309V800H699V303Q699 158 616.5 73Q534 -12 394 -12Q253 -12 170 73Q87 158 87 303V800H207V309Q207 214 256.5 160Q306 106 394 106Z" glyph-name="U" horiz-adv-x="787" unicode="U" /><glyph d="M715 389 746 358L400 -12L53 358L85 390V800H205V375L400 170L594 375V800H715Z" glyph-name="V" horiz-adv-x="800" unicode="V" /><glyph d="M793 0 89 0V800H205V114H383V800H499V114H677V800H793Z" glyph-name="W" horiz-adv-x="882" unicode="W" /><glyph d="M27 729 119 812L355 507L591 812L683 729L433 408L698 73L606 -12L356 312L105 -12L13 73L278 408Z" glyph-name="X" horiz-adv-x="711" unicode="X" /><glyph d="M419 0 299 0V259H85V800H205V375H513V800H633V259H419Z" glyph-name="Y" horiz-adv-x="718" unicode="Y" /><glyph d="M596 0 77 0V58L41 93L458 684H70V800H596V738L624 711L204 116H596Z" glyph-name="Z" horiz-adv-x="661" unicode="Z" /><glyph d="M186 0 66 0V337H144V800H877V684H584V435L824 477L845 362L584 316V116H882V0H464V221H186ZM260 684 260 337H464V684Z" glyph-name="AE" horiz-adv-x="925" unicode="Æ" /><glyph d="M62 190 62 610L237 800H901V684H608V435L848 477L869 362L608 316V116H906V0H237ZM353 118 488 118V682H353Q275 682 230 632Q185 582 185 494V306Q185 218 230 168Q275 118 353 118Z" glyph-name="OE" horiz-adv-x="949" unicode="Œ" /><glyph d="M539 0 89 0V339L19 327L10 379L89 393V800H209V413L377 442L387 390L209 360V116H539Z" glyph-name="Lslash" horiz-adv-x="560" unicode="Ł" /><glyph d="M334 0 304 -108L246 -92L272 0H237L62 190V610L237 800H495L525 909L582 890L557 800H593L767 610V190L593 0ZM185 494 185 306Q185 233 216.5 185Q248 137 306 123L462 682H353Q275 682 230 632Q185 582 185 494ZM644 306 644 494Q644 567 612.5 615Q581 663 523 677L367 118H475Q554 118 599 168Q644 218 644 306Z" glyph-name="Oslash" horiz-adv-x="829" unicode="Ø" /><glyph d="M629 0 89 0V227H15V284H89V703L68 729L162 816L731 112ZM347 284 347 227H205V114H564L205 559V284Z" glyph-name="Eth" horiz-adv-x="731" unicode="Ð" /><glyph d="M209 0 89 0V800H209V683H592V141H209ZM207 567 207 257H474V567Z" glyph-name="Thorn" horiz-adv-x="652" unicode="Þ" /><glyph d="M182 0 66 0V337H144V800H584V337H662V0H547V221H182ZM256 684 256 337H472V684Z" glyph-name="a" horiz-adv-x="728" unicode="a" /><glyph d="M403 0 93 0V800H371Q487 800 552.5 743Q618 686 618 586Q618 525 594 481Q570 437 523 412Q594 390 630 342Q666 294 666 221Q666 117 596 58Q526 -1 403 0ZM494 575Q494 629 462 656.5Q430 684 368 684H214V456H368Q430 456 462 486.5Q494 517 494 575ZM543 234Q543 291 506 321Q469 351 400 351H214V116H400Q469 116 506 146.5Q543 177 543 234Z" glyph-name="b" horiz-adv-x="698" unicode="b" /><glyph d="M585 0 89 0V800H586V684H209V116H585Z" glyph-name="c" horiz-adv-x="628" unicode="c" /><glyph d="M350 0 89 0V800H350Q524 800 621 694.5Q718 589 718 401Q718 212 620.5 106Q523 0 350 0ZM587 401Q587 540 525.5 611Q464 682 345 682H209V118H345Q465 118 526 189.5Q587 261 587 401Z" glyph-name="d" horiz-adv-x="761" unicode="d" /><glyph d="M507 0 89 0V295L58 290L35 405L89 414V800H503V684H209V435L449 477L470 362L209 316V116H507Z" glyph-name="e" horiz-adv-x="551" unicode="e" /><glyph d="M537 562 537 460H419V556Q419 622 390.5 658.5Q362 695 310 695Q260 695 231 657.5Q202 620 202 555V343H460V227H202V0H82V562Q82 676 144 744Q206 812 310 812Q414 812 475.5 744Q537 676 537 562Z" glyph-name="f" horiz-adv-x="574" unicode="f" /><glyph d="M701 0 89 0V800H564V684H209V116H611V333L417 297L397 411L763 478L783 364L731 354V1H701Z" glyph-name="g" horiz-adv-x="818" unicode="g" /><glyph d="M376 555Q296 555 252.5 502Q209 449 209 350V0H89V800H209V606Q241 639 285.5 656Q330 673 384 673Q514 673 589.5 589Q665 505 665 358V0H545V352Q545 449 501 502Q457 555 376 555Z" glyph-name="h" horiz-adv-x="729" unicode="h" /><glyph d="M209 0 89 0V800H209Z" glyph-name="i" horiz-adv-x="298" unicode="i" /><glyph d="M339 105Q412 105 453.5 150.5Q495 196 495 277V684H300V800H615V271Q615 140 540.5 64Q466 -12 339 -12Q213 -12 138.5 64Q64 140 64 271V398H184V277Q184 196 225 150.5Q266 105 339 105Z" glyph-name="j" horiz-adv-x="694" unicode="j" /><glyph d="M209 0 89 0V800H209V418H404V800H524V418H659V0H539V302H209Z" glyph-name="k" horiz-adv-x="715" unicode="k" /><glyph d="M202 800 202 287Q202 208 242.5 162.5Q283 117 353 117H532V0H347Q225 0 153.5 76Q82 152 82 281V800Z" glyph-name="l" horiz-adv-x="565" unicode="l" /><glyph d="M210 0 90 0V675L47 729L138 812L426 437L714 812L805 729L762 675V0H642V522L427 250L210 524Z" glyph-name="m" horiz-adv-x="852" unicode="m" /><glyph d="M209 0 89 0V800H637V0H517V684H209Z" glyph-name="n" horiz-adv-x="726" unicode="n" /><glyph d="M448 -12Q275 -12 160.5 105Q46 222 46 400Q46 579 160 695.5Q274 812 448 812Q621 812 735 695.5Q849 579 849 400Q849 222 735 105Q621 -12 448 -12ZM172 400Q172 273 249.5 191.5Q327 110 448 110Q568 110 645.5 191.5Q723 273 723 400Q723 527 645.5 609Q568 691 448 691Q327 691 249.5 609.5Q172 528 172 400Z" glyph-name="o" horiz-adv-x="895" unicode="o" /><glyph d="M209 0 89 0V800H372Q501 800 571.5 730.5Q642 661 642 535Q642 408 571 338Q500 268 372 268H209ZM519 535Q519 608 480.5 646Q442 684 367 684H209V384H367Q442 384 480.5 422.5Q519 461 519 535Z" glyph-name="p" horiz-adv-x="682" unicode="p" /><glyph d="M448 -12Q275 -12 160.5 105Q46 222 46 400Q46 579 160 695.5Q274 812 448 812Q621 812 735 695.5Q849 579 849 400Q849 326 827 259Q805 192 763 137L837 60L746 -31L668 50Q621 19 565 3.5Q509 -12 448 -12ZM172 400Q172 273 249.5 191.5Q327 110 448 110Q485 110 518 118Q551 126 580 142L434 295L526 384L675 229Q699 265 711 308Q723 351 723 400Q723 527 645.5 609Q568 691 448 691Q327 691 249.5 609.5Q172 528 172 400Z" glyph-name="q" horiz-adv-x="895" unicode="q" /><glyph d="M209 0 89 0V800H365Q493 800 564 737Q635 674 635 559Q635 451 569 390.5Q503 330 382 325L653 91L571 -7L209 314ZM512 559Q512 622 474 653Q436 684 360 684H209V432H360Q436 432 474 464Q512 496 512 559Z" glyph-name="r" horiz-adv-x="687" unicode="r" /><glyph d="M454 0 79 0V116H404L52 695L83 718V800H515V684H200L561 98Z" glyph-name="s" horiz-adv-x="598" unicode="s" /><glyph d="M232 582 232 274Q232 201 270 158.5Q308 116 372 116H509V0H366Q249 0 180.5 72.5Q112 145 112 268V582H23V698H112V800H232V698H525V582Z" glyph-name="t" horiz-adv-x="572" unicode="t" /><glyph d="M89 0 89 800H209V116H536V800H656V0Z" glyph-name="u" horiz-adv-x="745" unicode="u" /><glyph d="M206 800 206 298Q206 216 250.5 167Q295 118 370 118H536V800H654V0H364Q237 0 161.5 79Q86 158 86 292V800Z" glyph-name="v" horiz-adv-x="743" unicode="v" /><glyph d="M471 160 306 -12L57 256L84 282V800H204V272L312 157L410 257V700H531V257L629 157L737 273V800H857V281L884 256L635 -12Z" glyph-name="w" horiz-adv-x="941" unicode="w" /><glyph d="M656 0 595 0Q515 0 451 43.5Q387 87 349 167Q312 87 249 43.5Q186 0 106 0H46V118H98Q184 118 235 195Q286 272 286 401Q286 530 235 607Q184 684 98 684H46V800H106Q186 800 248.5 757Q311 714 349 634Q387 714 450.5 757Q514 800 595 800H656V684H603Q515 684 463 607Q411 530 411 401Q411 273 463.5 195.5Q516 118 603 118H656Z" glyph-name="x" horiz-adv-x="701" unicode="x" /><glyph d="M26 729 118 812L379 477L615 812L709 730L458 375L505 315L417 226L384 269L189 -7L97 76L304 371Z" glyph-name="y" horiz-adv-x="711" unicode="y" /><glyph d="M50 128Q50 162 67 194.5Q84 227 116 253L409 628Q418 636 422.5 644Q427 652 427 660Q427 670 419 676Q411 682 398 682H64V800H409Q476 800 518 764Q560 728 560 672Q560 638 542.5 605.5Q525 573 493 547L200 171Q191 163 186.5 155Q182 147 182 140Q182 129 190 123Q198 117 212 117H550V0H200Q133 0 91.5 36Q50 72 50 128Z" glyph-name="z" horiz-adv-x="615" unicode="z" /><glyph d="M186 0 66 0V337H144V800H584V780Q611 796 644.5 804Q678 812 716 812Q834 812 902 742Q970 672 970 552V311H584V116H921V0H464V221H186ZM717 693Q653 693 618.5 654.5Q584 616 584 545V419H852V546Q852 617 817 655Q782 693 717 693ZM260 684 260 337H464V684Z" glyph-name="ae" horiz-adv-x="1028" unicode="æ" /><glyph d="M408 -12Q252 -12 149 105Q46 222 46 400Q46 578 149 695Q252 812 408 812Q490 812 558.5 776Q627 740 674 673Q702 740 760 776Q818 812 899 812Q1019 812 1088 742Q1157 672 1157 552V311H762V116H1108V0H652V98Q605 45 542.5 16.5Q480 -12 408 -12ZM900 693Q834 693 798 654.5Q762 616 762 545V419H1039V546Q1039 617 1003 655Q967 693 900 693ZM172 400Q172 273 240 191.5Q308 110 413 110Q514 110 579.5 192Q645 274 645 400Q645 527 579.5 609Q514 691 413 691Q307 691 239.5 609.5Q172 528 172 400Z" glyph-name="oe" horiz-adv-x="1235" unicode="œ" /><glyph d="M82 338 19 327L10 379L82 391V800H202V412L377 442L387 390L202 358V287Q202 208 242.5 162.5Q283 117 353 117H532V0H347Q225 0 153.5 76Q82 152 82 281Z" glyph-name="lslash" horiz-adv-x="565" unicode="ł" /><glyph d="M367 -5 338 -108L280 -92L309 11Q188 53 117 158Q46 263 46 400Q46 579 160 695.5Q274 812 448 812Q468 812 488.5 810Q509 808 530 804L559 909L616 890L588 789Q708 747 778.5 642Q849 537 849 400Q849 222 735 105Q621 -12 448 -12Q430 -12 410.5 -10.5Q391 -9 367 -5ZM448 691Q327 691 249.5 609.5Q172 528 172 400Q172 305 217.5 233Q263 161 342 129L497 687Q486 689 474 690Q462 691 448 691ZM448 110Q568 110 645.5 191.5Q723 273 723 400Q723 495 678 567Q633 639 555 671L400 114Q410 112 422 111Q434 110 448 110Z" glyph-name="oslash" horiz-adv-x="895" unicode="ø" /><glyph d="M350 0 89 0V371H15V428H89V800H350Q524 800 621 694.5Q718 589 718 401Q718 212 620.5 106Q523 0 350 0ZM587 401Q587 540 525.5 611Q464 682 345 682H209V428H364V371H209V118H345Q465 118 526 189.5Q587 261 587 401Z" glyph-name="eth" horiz-adv-x="758" unicode="ð" /><glyph d="M209 0 89 0V800H209V666H372Q501 666 571.5 596.5Q642 527 642 401Q642 274 571 204Q500 134 372 134H209ZM519 401Q519 474 480.5 512Q442 550 367 550H209V250H367Q442 250 480.5 288.5Q519 327 519 401Z" glyph-name="thorn" horiz-adv-x="682" unicode="þ" /><glyph d="M655 220Q655 116 587 57.5Q519 -1 399 0H284V116H394Q464 116 500.5 146Q537 176 537 233Q537 290 500 320Q463 350 394 350H307V454H362Q423 454 455.5 484Q488 514 488 571Q488 627 453.5 658.5Q419 690 359 690Q287 690 248 643Q209 596 209 509V0H89V513Q89 647 161.5 727Q234 807 358 807Q471 807 539.5 746Q608 685 608 584Q608 528 585.5 486Q563 444 515 411Q585 384 620 336Q655 288 655 220Z" glyph-name="germandbls" horiz-adv-x="691" unicode="ß" /><glyph d="M407 0 44 0V116H165V684H44V800H407V684H285V116H407Z" glyph-name="dotlessi" horiz-adv-x="451" unicode="ı" /><glyph d="M349 105Q422 105 463.5 150.5Q505 196 505 277V684H309V800H625V271Q625 140 550.5 64Q476 -12 349 -12Q223 -12 148.5 64Q74 140 74 271V398H194V277Q194 196 235 150.5Q276 105 349 105Z" glyph-name="dotlessj" horiz-adv-x="704" unicode="ȷ" /><glyph d="M785 0 665 0V800H785ZM537 562 537 460H419V556Q419 622 390.5 658.5Q362 695 310 695Q260 695 231 657.5Q202 620 202 555V343H460V227H202V0H82V562Q82 676 144 744Q206 812 310 812Q414 812 475.5 744Q537 676 537 562Z" glyph-name="fi" horiz-adv-x="943" unicode="ﬁ" /><glyph d="M778 800 778 287Q778 208 818.5 162.5Q859 117 929 117H1108V0H923Q801 0 729.5 76Q658 152 658 281V800ZM537 562 537 460H419V556Q419 622 390.5 658.5Q362 695 310 695Q260 695 231 657.5Q202 620 202 555V343H460V227H202V0H82V562Q82 676 144 744Q206 812 310 812Q414 812 475.5 744Q537 676 537 562Z" glyph-name="fl" horiz-adv-x="1142" unicode="ﬂ" /><glyph d="M425 -12Q262 -12 155.5 104Q49 220 49 400Q49 578 155.5 695Q262 812 424 812Q508 812 576.5 778.5Q645 745 692 681V800H813V0H692V118Q645 55 576.5 21.5Q508 -12 425 -12ZM181 400Q181 272 251.5 190.5Q322 109 433 109Q543 109 614 190.5Q685 272 685 400Q685 527 614 609Q543 691 433 691Q322 691 251.5 609.5Q181 528 181 400ZM288 919 559 990L576 934L305 864Z" glyph-name="Aacute" horiz-adv-x="897" unicode="Á" /><glyph d="M425 -12Q262 -12 155.5 104Q49 220 49 400Q49 578 155.5 695Q262 812 424 812Q508 812 576.5 778.5Q645 745 692 681V800H813V0H692V118Q645 55 576.5 21.5Q508 -12 425 -12ZM181 400Q181 272 251.5 190.5Q322 109 433 109Q543 109 614 190.5Q685 272 685 400Q685 527 614 609Q543 691 433 691Q322 691 251.5 609.5Q181 528 181 400ZM606 916 583 869L431 941L282 868L258 915L431 1001Z" glyph-name="Acircumflex" horiz-adv-x="897" unicode="Â" /><glyph d="M425 -12Q262 -12 155.5 104Q49 220 49 400Q49 578 155.5 695Q262 812 424 812Q508 812 576.5 778.5Q645 745 692 681V800H813V0H692V118Q645 55 576.5 21.5Q508 -12 425 -12ZM181 400Q181 272 251.5 190.5Q322 109 433 109Q543 109 614 190.5Q685 272 685 400Q685 527 614 609Q543 691 433 691Q322 691 251.5 609.5Q181 528 181 400ZM403 937Q403 915 389 901.5Q375 888 352 888Q330 888 317 901.5Q304 915 304 937Q304 960 317 974Q330 988 352 988Q375 988 389 974Q403 960 403 937ZM560 937Q560 915 546 901.5Q532 888 509 888Q487 888 474 901.5Q461 915 461 937Q461 960 474 974Q487 988 509 988Q532 988 546 974Q560 960 560 937Z" glyph-name="Adieresis" horiz-adv-x="897" unicode="Ä" /><glyph d="M425 -12Q262 -12 155.5 104Q49 220 49 400Q49 578 155.5 695Q262 812 424 812Q508 812 576.5 778.5Q645 745 692 681V800H813V0H692V118Q645 55 576.5 21.5Q508 -12 425 -12ZM181 400Q181 272 251.5 190.5Q322 109 433 109Q543 109 614 190.5Q685 272 685 400Q685 527 614 609Q543 691 433 691Q322 691 251.5 609.5Q181 528 181 400ZM576 920 559 864L288 935L305 990Z" glyph-name="Agrave" horiz-adv-x="897" unicode="À" /><glyph d="M425 -12Q262 -12 155.5 104Q49 220 49 400Q49 578 155.5 695Q262 812 424 812Q508 812 576.5 778.5Q645 745 692 681V800H813V0H692V118Q645 55 576.5 21.5Q508 -12 425 -12ZM181 400Q181 272 251.5 190.5Q322 109 433 109Q543 109 614 190.5Q685 272 685 400Q685 527 614 609Q543 691 433 691Q322 691 251.5 609.5Q181 528 181 400ZM538 937Q538 892 510.5 868.5Q483 845 430 845Q379 845 352 868.5Q325 892 325 937Q325 983 352 1007.5Q379 1032 430 1032Q483 1032 510.5 1007.5Q538 983 538 937ZM370 937Q370 912 385.5 898.5Q401 885 430 885Q461 885 477 898.5Q493 912 493 937Q493 964 477 978Q461 992 430 992Q401 992 385.5 978Q370 964 370 937Z" glyph-name="Aring" horiz-adv-x="897" unicode="Å" /><glyph d="M425 -12Q262 -12 155.5 104Q49 220 49 400Q49 578 155.5 695Q262 812 424 812Q508 812 576.5 778.5Q645 745 692 681V800H813V0H692V118Q645 55 576.5 21.5Q508 -12 425 -12ZM181 400Q181 272 251.5 190.5Q322 109 433 109Q543 109 614 190.5Q685 272 685 400Q685 527 614 609Q543 691 433 691Q322 691 251.5 609.5Q181 528 181 400ZM448 958Q467 942 476 937.5Q485 933 493 933Q508 933 516.5 948.5Q525 964 526 993L574 989Q572 938 551.5 910.5Q531 883 496 883Q477 883 459 891Q441 899 412 922Q394 937 386 941Q378 945 371 945Q358 945 349 929.5Q340 914 338 885L290 889Q293 940 314 967.5Q335 995 368 995Q385 995 402.5 987.5Q420 980 448 958Z" glyph-name="Atilde" horiz-adv-x="897" unicode="Ã" /><glyph d="M425 -12Q262 -12 155.5 104Q49 220 49 400Q49 578 155.5 695Q262 812 424 812Q508 812 576.5 778.5Q645 745 692 681V800H813V0H692V118Q645 55 576.5 21.5Q508 -12 425 -12ZM181 400Q181 272 251.5 190.5Q322 109 433 109Q543 109 614 190.5Q685 272 685 400Q685 527 614 609Q543 691 433 691Q322 691 251.5 609.5Q181 528 181 400ZM548 1006 548 978Q548 921 517.5 890.5Q487 860 430 860Q374 860 344.5 890.5Q315 921 315 978V1006H360V981Q360 942 378 921Q396 900 430 900Q466 900 484.5 921Q503 942 503 981V1006Z" glyph-name="Abreve" horiz-adv-x="897" unicode="Ă" /><glyph d="M425 -12Q262 -12 155.5 104Q49 220 49 400Q49 578 155.5 695Q262 812 424 812Q508 812 576.5 778.5Q645 745 692 681V800H813V0H692V118Q645 55 576.5 21.5Q508 -12 425 -12ZM181 400Q181 272 251.5 190.5Q322 109 433 109Q543 109 614 190.5Q685 272 685 400Q685 527 614 609Q543 691 433 691Q322 691 251.5 609.5Q181 528 181 400ZM293 963 571 963V906H293Z" glyph-name="Amacron" horiz-adv-x="897" unicode="Ā" /><glyph d="M425 -12Q262 -12 155.5 104Q49 220 49 400Q49 578 155.5 695Q262 812 424 812Q508 812 576.5 778.5Q645 745 692 681V800H813V0H812L740 -40Q687 -70 667.5 -88.5Q648 -107 648 -128Q648 -145 662 -154.5Q676 -164 701 -164Q713 -164 726.5 -161.5Q740 -159 754 -155L762 -198Q747 -204 731 -207Q715 -210 700 -210Q654 -210 624.5 -188Q595 -166 595 -130Q595 -96 623.5 -65.5Q652 -35 714 0H692V118Q645 55 576.5 21.5Q508 -12 425 -12ZM181 400Q181 272 251.5 190.5Q322 109 433 109Q543 109 614 190.5Q685 272 685 400Q685 527 614 609Q543 691 433 691Q322 691 251.5 609.5Q181 528 181 400Z" glyph-name="Aogonek" horiz-adv-x="897" unicode="Ą" /><glyph d="M370 -83Q360 -83 349.5 -84.5Q339 -86 328 -89L352 8Q214 36 130 143.5Q46 251 46 400Q46 574 156.5 687Q267 800 436 800H603V682H444Q325 682 251.5 604Q178 526 178 400Q178 274 251.5 196Q325 118 444 118H601V0H436Q429 0 420 0.5Q411 1 394 2L384 -44Q437 -44 464.5 -65Q492 -86 492 -125Q492 -166 459 -188Q426 -210 365 -210Q343 -210 320 -205.5Q297 -201 278 -193L288 -151Q304 -158 324 -161.5Q344 -165 365 -165Q405 -165 424.5 -155Q444 -145 444 -125Q444 -105 424.5 -94Q405 -83 370 -83Z" glyph-name="Ccedilla" horiz-adv-x="657" unicode="Ç" /><glyph d="M241 919 512 990L529 934L258 864ZM46 400Q46 574 156.5 687Q267 800 436 800H603V682H444Q325 682 251.5 604Q178 526 178 400Q178 274 251.5 196Q325 118 444 118H601V0H436Q267 0 156.5 113Q46 226 46 400Z" glyph-name="Cacute" horiz-adv-x="657" unicode="Ć" /><glyph d="M384 928 536 1000L559 953L384 868L211 954L235 1001ZM46 400Q46 574 156.5 687Q267 800 436 800H603V682H444Q325 682 251.5 604Q178 526 178 400Q178 274 251.5 196Q325 118 444 118H601V0H436Q267 0 156.5 113Q46 226 46 400Z" glyph-name="Ccaron" horiz-adv-x="657" unicode="Č" /><glyph d="M559 916 536 869L384 941L235 868L211 915L384 1001ZM46 400Q46 574 156.5 687Q267 800 436 800H603V682H444Q325 682 251.5 604Q178 526 178 400Q178 274 251.5 196Q325 118 444 118H601V0H436Q267 0 156.5 113Q46 226 46 400Z" glyph-name="Ccircumflex" horiz-adv-x="657" unicode="Ĉ" /><glyph d="M46 400Q46 574 156.5 687Q267 800 436 800H603V682H444Q325 682 251.5 604Q178 526 178 400Q178 274 251.5 196Q325 118 444 118H601V0H436Q267 0 156.5 113Q46 226 46 400ZM444 927Q444 900 427.5 884Q411 868 383 868Q357 868 341 884Q325 900 325 927Q325 955 341 972Q357 989 383 989Q411 989 427.5 972Q444 955 444 927Z" glyph-name="Cdotaccent" horiz-adv-x="657" unicode="Ċ" /><glyph d="M325 928 477 1000L500 953L325 868L152 954L176 1001ZM629 0 89 0V703L68 729L162 816L731 112ZM205 559 205 114H564Z" glyph-name="Dcaron" horiz-adv-x="731" unicode="Ď" /><glyph d="M629 0 89 0V227H15V284H89V703L68 729L162 816L731 112ZM347 284 347 227H205V114H564L205 559V284Z" glyph-name="Dcroat" horiz-adv-x="731" unicode="Đ" /><glyph d="M193 919 464 990L481 934L210 864ZM209 116 555 116V0H89V553Q89 673 158 742.5Q227 812 346 812Q466 812 535 742.5Q604 673 604 553V311H209ZM347 694Q281 694 245 655.5Q209 617 209 546V419H486V547Q486 618 450 656Q414 694 347 694Z" glyph-name="Eacute" horiz-adv-x="663" unicode="É" /><glyph d="M511 916 488 869L336 941L187 868L163 915L336 1001ZM209 116 555 116V0H89V553Q89 673 158 742.5Q227 812 346 812Q466 812 535 742.5Q604 673 604 553V311H209ZM347 694Q281 694 245 655.5Q209 617 209 546V419H486V547Q486 618 450 656Q414 694 347 694Z" glyph-name="Ecircumflex" horiz-adv-x="663" unicode="Ê" /><glyph d="M308 937Q308 915 294 901.5Q280 888 257 888Q235 888 222 901.5Q209 915 209 937Q209 960 222 974Q235 988 257 988Q280 988 294 974Q308 960 308 937ZM465 937Q465 915 451 901.5Q437 888 414 888Q392 888 379 901.5Q366 915 366 937Q366 960 379 974Q392 988 414 988Q437 988 451 974Q465 960 465 937ZM209 116 555 116V0H89V553Q89 673 158 742.5Q227 812 346 812Q466 812 535 742.5Q604 673 604 553V311H209ZM347 694Q281 694 245 655.5Q209 617 209 546V419H486V547Q486 618 450 656Q414 694 347 694Z" glyph-name="Edieresis" horiz-adv-x="663" unicode="Ë" /><glyph d="M209 116 555 116V0H89V553Q89 673 158 742.5Q227 812 346 812Q466 812 535 742.5Q604 673 604 553V311H209ZM347 694Q281 694 245 655.5Q209 617 209 546V419H486V547Q486 618 450 656Q414 694 347 694ZM481 920 464 864L193 935L210 990Z" glyph-name="Egrave" horiz-adv-x="663" unicode="È" /><glyph d="M209 116 555 116V0H89V553Q89 673 158 742.5Q227 812 346 812Q466 812 535 742.5Q604 673 604 553V311H209ZM347 694Q281 694 245 655.5Q209 617 209 546V419H486V547Q486 618 450 656Q414 694 347 694ZM453 1006 453 978Q453 921 422.5 890.5Q392 860 335 860Q279 860 249.5 890.5Q220 921 220 978V1006H265V981Q265 942 283 921Q301 900 335 900Q371 900 389.5 921Q408 942 408 981V1006Z" glyph-name="Ebreve" horiz-adv-x="663" unicode="Ĕ" /><glyph d="M336 928 488 1000L511 953L336 868L163 954L187 1001ZM209 116 555 116V0H89V553Q89 673 158 742.5Q227 812 346 812Q466 812 535 742.5Q604 673 604 553V311H209ZM347 694Q281 694 245 655.5Q209 617 209 546V419H486V547Q486 618 450 656Q414 694 347 694Z" glyph-name="Ecaron" horiz-adv-x="663" unicode="Ě" /><glyph d="M209 116 555 116V0H89V553Q89 673 158 742.5Q227 812 346 812Q466 812 535 742.5Q604 673 604 553V311H209ZM347 694Q281 694 245 655.5Q209 617 209 546V419H486V547Q486 618 450 656Q414 694 347 694ZM396 927Q396 900 379.5 884Q363 868 335 868Q309 868 293 884Q277 900 277 927Q277 955 293 972Q309 989 335 989Q363 989 379.5 972Q396 955 396 927Z" glyph-name="Edotaccent" horiz-adv-x="663" unicode="Ė" /><glyph d="M209 116 555 116V0H89V553Q89 673 158 742.5Q227 812 346 812Q466 812 535 742.5Q604 673 604 553V311H209ZM347 694Q281 694 245 655.5Q209 617 209 546V419H486V547Q486 618 450 656Q414 694 347 694ZM198 963 476 963V906H198Z" glyph-name="Emacron" horiz-adv-x="663" unicode="Ē" /><glyph d="M390 -128Q390 -145 404 -154.5Q418 -164 443 -164Q455 -164 468.5 -161.5Q482 -159 496 -155L504 -198Q489 -204 473 -207Q457 -210 442 -210Q396 -210 366.5 -188Q337 -166 337 -130Q337 -96 365.5 -65.5Q394 -35 456 0H89V553Q89 673 158 742.5Q227 812 346 812Q466 812 535 742.5Q604 673 604 553V311H209V116H555V0H554L482 -40Q429 -70 409.5 -88.5Q390 -107 390 -128ZM347 694Q281 694 245 655.5Q209 617 209 546V419H486V547Q486 618 450 656Q414 694 347 694Z" glyph-name="Eogonek" horiz-adv-x="663" unicode="Ę" /><glyph d="M49 400Q49 573 159 686.5Q269 800 437 800H623V682H447Q328 682 254.5 604Q181 526 181 400Q181 275 255 196.5Q329 118 447 118H592V431H712V0H437Q269 0 159 113.5Q49 227 49 400ZM525 1006 525 978Q525 921 494.5 890.5Q464 860 407 860Q351 860 321.5 890.5Q292 921 292 978V1006H337V981Q337 942 355 921Q373 900 407 900Q443 900 461.5 921Q480 942 480 981V1006Z" glyph-name="Gbreve" horiz-adv-x="755" unicode="Ğ" /><glyph d="M583 916 560 869L408 941L259 868L235 915L408 1001ZM49 400Q49 573 159 686.5Q269 800 437 800H623V682H447Q328 682 254.5 604Q181 526 181 400Q181 275 255 196.5Q329 118 447 118H592V431H712V0H437Q269 0 159 113.5Q49 227 49 400Z" glyph-name="Gcircumflex" horiz-adv-x="755" unicode="Ĝ" /><glyph d="M374 -293 384 -57H443L426 -293ZM49 400Q49 573 159 686.5Q269 800 437 800H623V682H447Q328 682 254.5 604Q181 526 181 400Q181 275 255 196.5Q329 118 447 118H592V431H712V0H437Q269 0 159 113.5Q49 227 49 400Z" glyph-name="Gcommaaccent" horiz-adv-x="755" unicode="Ģ" /><glyph d="M49 400Q49 573 159 686.5Q269 800 437 800H623V682H447Q328 682 254.5 604Q181 526 181 400Q181 275 255 196.5Q329 118 447 118H592V431H712V0H437Q269 0 159 113.5Q49 227 49 400ZM468 927Q468 900 451.5 884Q435 868 407 868Q381 868 365 884Q349 900 349 927Q349 955 365 972Q381 989 407 989Q435 989 451.5 972Q468 955 468 927Z" glyph-name="Gdotaccent" horiz-adv-x="755" unicode="Ġ" /><glyph d="M209 0 89 0V292L69 288L46 405L89 413V622H38V679H89V800H209V679H528V800H648V679H699V622H648V511L667 514L690 397L648 390V0H528V369L209 313ZM209 434 528 490V622H209Z" glyph-name="Hbar" horiz-adv-x="737" unicode="Ħ" /><glyph d="M542 916 519 869L367 941L218 868L194 915L367 1001ZM209 0 89 0V292L69 288L46 405L89 413V800H209V434L528 490V800H648V511L667 514L690 397L648 390V0H528V369L209 313Z" glyph-name="Hcircumflex" horiz-adv-x="737" unicode="Ĥ" /><glyph d="M411 0 49 0V116H169V684H49V800H411V684H290V116H411ZM82 919 353 990L370 934L99 864Z" glyph-name="Iacute" horiz-adv-x="451" unicode="Í" /><glyph d="M411 0 49 0V116H169V684H49V800H411V684H290V116H411ZM400 916 377 869L225 941L76 868L52 915L225 1001Z" glyph-name="Icircumflex" horiz-adv-x="451" unicode="Î" /><glyph d="M411 0 49 0V116H169V684H49V800H411V684H290V116H411ZM197 937Q197 915 183 901.5Q169 888 146 888Q124 888 111 901.5Q98 915 98 937Q98 960 111 974Q124 988 146 988Q169 988 183 974Q197 960 197 937ZM354 937Q354 915 340 901.5Q326 888 303 888Q281 888 268 901.5Q255 915 255 937Q255 960 268 974Q281 988 303 988Q326 988 340 974Q354 960 354 937Z" glyph-name="Idieresis" horiz-adv-x="451" unicode="Ï" /><glyph d="M411 0 49 0V116H169V684H49V800H411V684H290V116H411ZM370 920 353 864L82 935L99 990Z" glyph-name="Igrave" horiz-adv-x="451" unicode="Ì" /><glyph d="M411 0 49 0V116H169V684H49V800H411V684H290V116H411ZM342 1006 342 978Q342 921 311.5 890.5Q281 860 224 860Q168 860 138.5 890.5Q109 921 109 978V1006H154V981Q154 942 172 921Q190 900 224 900Q260 900 278.5 921Q297 942 297 981V1006Z" glyph-name="Ibreve" horiz-adv-x="451" unicode="Ĭ" /><glyph d="M411 0 49 0V116H169V684H49V800H411V684H290V116H411ZM285 927Q285 900 268.5 884Q252 868 224 868Q198 868 182 884Q166 900 166 927Q166 955 182 972Q198 989 224 989Q252 989 268.5 972Q285 955 285 927Z" glyph-name="Idotaccent" horiz-adv-x="451" unicode="İ" /><glyph d="M411 0 49 0V116H169V684H49V800H411V684H290V116H411ZM87 963 365 963V906H87Z" glyph-name="Imacron" horiz-adv-x="451" unicode="Ī" /><glyph d="M312 0 49 0V116H169V684H49V800H411V684H290V116H411V0H410L338 -40Q285 -70 265.5 -88.5Q246 -107 246 -128Q246 -145 260 -154.5Q274 -164 299 -164Q311 -164 324.5 -161.5Q338 -159 352 -155L360 -198Q345 -204 329 -207Q313 -210 298 -210Q252 -210 222.5 -188Q193 -166 193 -130Q193 -96 221.5 -65.5Q250 -35 312 0Z" glyph-name="Iogonek" horiz-adv-x="451" unicode="Į" /><glyph d="M411 0 49 0V116H169V684H49V800H411V684H290V116H411ZM242 958Q261 942 270 937.5Q279 933 287 933Q302 933 310.5 948.5Q319 964 320 993L368 989Q366 938 345.5 910.5Q325 883 290 883Q271 883 253 891Q235 899 206 922Q188 937 180 941Q172 945 165 945Q152 945 143 929.5Q134 914 132 885L84 889Q87 940 108 967.5Q129 995 162 995Q179 995 196.5 987.5Q214 980 242 958Z" glyph-name="Itilde" horiz-adv-x="451" unicode="Ĩ" /><glyph d="M705 916 682 869L530 941L381 868L357 915L530 1001ZM589 0 72 0V416H192V116H469V800H589Z" glyph-name="Jcircumflex" horiz-adv-x="678" unicode="Ĵ" /><glyph d="M235 316 115 316V800H235ZM594 0 78 0V116H474V800H594Z" glyph-name="IJ" horiz-adv-x="683" unicode="Ĳ" /><glyph d="M326 -293 336 -57H395L378 -293ZM209 0 89 0V800H209V437H334Q393 437 427 472Q461 507 461 568V800H581V561Q581 509 564 468Q547 427 513 399Q582 377 618.5 325.5Q655 274 655 198V0H535V191Q535 252 501.5 286.5Q468 321 408 321H209Z" glyph-name="Kcommaaccent" horiz-adv-x="711" unicode="Ķ" /><glyph d="M136 919 407 990L424 934L153 864ZM539 0 89 0V800H209V116H539Z" glyph-name="Lacute" horiz-adv-x="560" unicode="Ĺ" /><glyph d="M331 552 331 800H390L383 552ZM539 0 89 0V800H209V116H539Z" glyph-name="Lcaron" horiz-adv-x="560" unicode="Ľ" /><glyph d="M251 -293 261 -57H320L303 -293ZM539 0 89 0V800H209V116H539Z" glyph-name="Lcommaaccent" horiz-adv-x="560" unicode="Ļ" /><glyph d="M539 0 89 0V800H209V116H539ZM465 386Q465 359 448.5 343Q432 327 404 327Q378 327 362 343Q346 359 346 386Q346 414 362 431Q378 448 404 448Q432 448 448.5 431Q465 414 465 386Z" glyph-name="Ldot" horiz-adv-x="560" unicode="Ŀ" /><glyph d="M216 0 100 0V671L58 729L153 812L531 288V800H647V127L686 73L591 -12L216 509ZM381 958Q400 942 409 937.5Q418 933 426 933Q441 933 449.5 948.5Q458 964 459 993L507 989Q505 938 484.5 910.5Q464 883 429 883Q410 883 392 891Q374 899 345 922Q327 937 319 941Q311 945 304 945Q291 945 282 929.5Q273 914 271 885L223 889Q226 940 247 967.5Q268 995 301 995Q318 995 335.5 987.5Q353 980 381 958Z" glyph-name="Ntilde" horiz-adv-x="741" unicode="Ñ" /><glyph d="M221 919 492 990L509 934L238 864ZM216 0 100 0V671L58 729L153 812L531 288V800H647V127L686 73L591 -12L216 509Z" glyph-name="Nacute" horiz-adv-x="741" unicode="Ń" /><glyph d="M364 928 516 1000L539 953L364 868L191 954L215 1001ZM216 0 100 0V671L58 729L153 812L531 288V800H647V127L686 73L591 -12L216 509Z" glyph-name="Ncaron" horiz-adv-x="741" unicode="Ň" /><glyph d="M336 -293 346 -57H405L388 -293ZM216 0 100 0V671L58 729L153 812L531 288V800H647V127L686 73L591 -12L216 509Z" glyph-name="Ncommaaccent" horiz-adv-x="741" unicode="Ņ" /><glyph d="M260 919 531 990L548 934L277 864ZM62 190 62 610L237 800H593L767 610V190L593 0H237ZM185 494 185 306Q185 218 230 168Q275 118 353 118H475Q554 118 599 168Q644 218 644 306V494Q644 582 599 632Q554 682 475 682H353Q275 682 230 632Q185 582 185 494Z" glyph-name="Oacute" horiz-adv-x="829" unicode="Ó" /><glyph d="M578 916 555 869L403 941L254 868L230 915L403 1001ZM62 190 62 610L237 800H593L767 610V190L593 0H237ZM185 494 185 306Q185 218 230 168Q275 118 353 118H475Q554 118 599 168Q644 218 644 306V494Q644 582 599 632Q554 682 475 682H353Q275 682 230 632Q185 582 185 494Z" glyph-name="Ocircumflex" horiz-adv-x="829" unicode="Ô" /><glyph d="M375 937Q375 915 361 901.5Q347 888 324 888Q302 888 289 901.5Q276 915 276 937Q276 960 289 974Q302 988 324 988Q347 988 361 974Q375 960 375 937ZM532 937Q532 915 518 901.5Q504 888 481 888Q459 888 446 901.5Q433 915 433 937Q433 960 446 974Q459 988 481 988Q504 988 518 974Q532 960 532 937ZM62 190 62 610L237 800H593L767 610V190L593 0H237ZM185 494 185 306Q185 218 230 168Q275 118 353 118H475Q554 118 599 168Q644 218 644 306V494Q644 582 599 632Q554 682 475 682H353Q275 682 230 632Q185 582 185 494Z" glyph-name="Odieresis" horiz-adv-x="829" unicode="Ö" /><glyph d="M62 190 62 610L237 800H593L767 610V190L593 0H237ZM185 494 185 306Q185 218 230 168Q275 118 353 118H475Q554 118 599 168Q644 218 644 306V494Q644 582 599 632Q554 682 475 682H353Q275 682 230 632Q185 582 185 494ZM548 920 531 864L260 935L277 990Z" glyph-name="Ograve" horiz-adv-x="829" unicode="Ò" /><glyph d="M62 190 62 610L237 800H593L767 610V190L593 0H237ZM185 494 185 306Q185 218 230 168Q275 118 353 118H475Q554 118 599 168Q644 218 644 306V494Q644 582 599 632Q554 682 475 682H353Q275 682 230 632Q185 582 185 494ZM420 958Q439 942 448 937.5Q457 933 465 933Q480 933 488.5 948.5Q497 964 498 993L546 989Q544 938 523.5 910.5Q503 883 468 883Q449 883 431 891Q413 899 384 922Q366 937 358 941Q350 945 343 945Q330 945 321 929.5Q312 914 310 885L262 889Q265 940 286 967.5Q307 995 340 995Q357 995 374.5 987.5Q392 980 420 958Z" glyph-name="Otilde" horiz-adv-x="829" unicode="Õ" /><glyph d="M62 190 62 610L237 800H593L767 610V190L593 0H237ZM185 494 185 306Q185 218 230 168Q275 118 353 118H475Q554 118 599 168Q644 218 644 306V494Q644 582 599 632Q554 682 475 682H353Q275 682 230 632Q185 582 185 494ZM520 1006 520 978Q520 921 489.5 890.5Q459 860 402 860Q346 860 316.5 890.5Q287 921 287 978V1006H332V981Q332 942 350 921Q368 900 402 900Q438 900 456.5 921Q475 942 475 981V1006Z" glyph-name="Obreve" horiz-adv-x="829" unicode="Ŏ" /><glyph d="M359 1046 407 1021L305 836L257 861ZM513 1046 561 1021L459 836L411 861ZM62 190 62 610L237 800H593L767 610V190L593 0H237ZM185 494 185 306Q185 218 230 168Q275 118 353 118H475Q554 118 599 168Q644 218 644 306V494Q644 582 599 632Q554 682 475 682H353Q275 682 230 632Q185 582 185 494Z" glyph-name="Ohungarumlaut" horiz-adv-x="829" unicode="Ő" /><glyph d="M265 963 543 963V906H265ZM62 190 62 610L237 800H593L767 610V190L593 0H237ZM185 494 185 306Q185 218 230 168Q275 118 353 118H475Q554 118 599 168Q644 218 644 306V494Q644 582 599 632Q554 682 475 682H353Q275 682 230 632Q185 582 185 494Z" glyph-name="Omacron" horiz-adv-x="829" unicode="Ō" /><glyph d="M208 919 479 990L496 934L225 864ZM209 0 89 0V800H522V389H671V0H555V273H209ZM409 689 202 689V385H409Z" glyph-name="Racute" horiz-adv-x="726" unicode="Ŕ" /><glyph d="M351 928 503 1000L526 953L351 868L178 954L202 1001ZM209 0 89 0V800H522V389H671V0H555V273H209ZM409 689 202 689V385H409Z" glyph-name="Rcaron" horiz-adv-x="726" unicode="Ř" /><glyph d="M334 -293 344 -57H403L386 -293ZM209 0 89 0V800H522V389H671V0H555V273H209ZM409 689 202 689V385H409Z" glyph-name="Rcommaaccent" horiz-adv-x="726" unicode="Ŗ" /><glyph d="M304 928 456 1000L479 953L304 868L131 954L155 1001ZM313 97Q369 97 405.5 127.5Q442 158 442 204Q442 243 412.5 273.5Q383 304 311 335L231 368Q143 406 102.5 458Q62 510 62 583Q62 682 132 747Q202 812 308 812Q422 812 494 746.5Q566 681 566 576V532H450V561Q450 627 411.5 665Q373 703 309 703Q254 703 217 670.5Q180 638 180 589Q180 549 207.5 518.5Q235 488 301 460L379 428Q473 388 516.5 335Q560 282 560 210Q560 113 490.5 50.5Q421 -12 313 -12Q198 -12 127 53Q56 118 56 224V268H172V239Q172 173 210 135Q248 97 313 97Z" glyph-name="Scaron" horiz-adv-x="622" unicode="Š" /><glyph d="M161 919 432 990L449 934L178 864ZM313 97Q369 97 405.5 127.5Q442 158 442 204Q442 243 412.5 273.5Q383 304 311 335L231 368Q143 406 102.5 458Q62 510 62 583Q62 682 132 747Q202 812 308 812Q422 812 494 746.5Q566 681 566 576V532H450V561Q450 627 411.5 665Q373 703 309 703Q254 703 217 670.5Q180 638 180 589Q180 549 207.5 518.5Q235 488 301 460L379 428Q473 388 516.5 335Q560 282 560 210Q560 113 490.5 50.5Q421 -12 313 -12Q198 -12 127 53Q56 118 56 224V268H172V239Q172 173 210 135Q248 97 313 97Z" glyph-name="Sacute" horiz-adv-x="622" unicode="Ś" /><glyph d="M300 -83Q290 -83 279.5 -84.5Q269 -86 258 -89L277 -10Q177 0 116.5 63.5Q56 127 56 224V268H172V239Q172 173 210 135Q248 97 313 97Q369 97 405.5 127.5Q442 158 442 204Q442 243 412.5 273.5Q383 304 311 335L231 368Q143 406 102.5 458Q62 510 62 583Q62 682 132 747Q202 812 308 812Q422 812 494 746.5Q566 681 566 576V532H450V561Q450 627 411.5 665Q373 703 309 703Q254 703 217 670.5Q180 638 180 589Q180 549 207.5 518.5Q235 488 301 460L379 428Q473 388 516.5 335Q560 282 560 210Q560 114 493 52Q426 -10 321 -12L314 -44Q367 -44 394.5 -65Q422 -86 422 -125Q422 -166 389 -188Q356 -210 295 -210Q273 -210 250 -205.5Q227 -201 208 -193L218 -151Q234 -158 254 -161.5Q274 -165 295 -165Q335 -165 354.5 -155Q374 -145 374 -125Q374 -105 354.5 -94Q335 -83 300 -83Z" glyph-name="Scedilla" horiz-adv-x="622" unicode="Ş" /><glyph d="M479 916 456 869L304 941L155 868L131 915L304 1001ZM313 97Q369 97 405.5 127.5Q442 158 442 204Q442 243 412.5 273.5Q383 304 311 335L231 368Q143 406 102.5 458Q62 510 62 583Q62 682 132 747Q202 812 308 812Q422 812 494 746.5Q566 681 566 576V532H450V561Q450 627 411.5 665Q373 703 309 703Q254 703 217 670.5Q180 638 180 589Q180 549 207.5 518.5Q235 488 301 460L379 428Q473 388 516.5 335Q560 282 560 210Q560 113 490.5 50.5Q421 -12 313 -12Q198 -12 127 53Q56 118 56 224V268H172V239Q172 173 210 135Q248 97 313 97Z" glyph-name="Scircumflex" horiz-adv-x="622" unicode="Ŝ" /><glyph d="M271 -293 281 -57H340L323 -293ZM313 97Q369 97 405.5 127.5Q442 158 442 204Q442 243 412.5 273.5Q383 304 311 335L231 368Q143 406 102.5 458Q62 510 62 583Q62 682 132 747Q202 812 308 812Q422 812 494 746.5Q566 681 566 576V532H450V561Q450 627 411.5 665Q373 703 309 703Q254 703 217 670.5Q180 638 180 589Q180 549 207.5 518.5Q235 488 301 460L379 428Q473 388 516.5 335Q560 282 560 210Q560 113 490.5 50.5Q421 -12 313 -12Q198 -12 127 53Q56 118 56 224V268H172V239Q172 173 210 135Q248 97 313 97Z" glyph-name="uni0218" horiz-adv-x="622" unicode="Ș" /><glyph d="M354 0 234 0V326H73V383H234V684H26V800H564V684H354V383H517V326H354Z" glyph-name="Tbar" horiz-adv-x="590" unicode="Ŧ" /><glyph d="M294 928 446 1000L469 953L294 868L121 954L145 1001ZM354 0 234 0V684H26V800H564V684H354Z" glyph-name="Tcaron" horiz-adv-x="590" unicode="Ť" /><glyph d="M260 -293 270 -57H329L312 -293ZM354 0 234 0V684H26V800H564V684H354Z" glyph-name="uni0162" horiz-adv-x="590" unicode="Ţ" /><glyph d="M260 -293 270 -57H329L312 -293ZM354 0 234 0V684H26V800H564V684H354Z" glyph-name="uni021A" horiz-adv-x="590" unicode="Ț" /><glyph d="M244 919 515 990L532 934L261 864ZM394 106Q482 106 531.5 160Q581 214 581 309V800H699V303Q699 158 616.5 73Q534 -12 394 -12Q253 -12 170 73Q87 158 87 303V800H207V309Q207 214 256.5 160Q306 106 394 106Z" glyph-name="Uacute" horiz-adv-x="787" unicode="Ú" /><glyph d="M562 916 539 869L387 941L238 868L214 915L387 1001ZM394 106Q482 106 531.5 160Q581 214 581 309V800H699V303Q699 158 616.5 73Q534 -12 394 -12Q253 -12 170 73Q87 158 87 303V800H207V309Q207 214 256.5 160Q306 106 394 106Z" glyph-name="Ucircumflex" horiz-adv-x="787" unicode="Û" /><glyph d="M359 937Q359 915 345 901.5Q331 888 308 888Q286 888 273 901.5Q260 915 260 937Q260 960 273 974Q286 988 308 988Q331 988 345 974Q359 960 359 937ZM516 937Q516 915 502 901.5Q488 888 465 888Q443 888 430 901.5Q417 915 417 937Q417 960 430 974Q443 988 465 988Q488 988 502 974Q516 960 516 937ZM394 106Q482 106 531.5 160Q581 214 581 309V800H699V303Q699 158 616.5 73Q534 -12 394 -12Q253 -12 170 73Q87 158 87 303V800H207V309Q207 214 256.5 160Q306 106 394 106Z" glyph-name="Udieresis" horiz-adv-x="787" unicode="Ü" /><glyph d="M394 106Q482 106 531.5 160Q581 214 581 309V800H699V303Q699 158 616.5 73Q534 -12 394 -12Q253 -12 170 73Q87 158 87 303V800H207V309Q207 214 256.5 160Q306 106 394 106ZM532 920 515 864L244 935L261 990Z" glyph-name="Ugrave" horiz-adv-x="787" unicode="Ù" /><glyph d="M394 106Q482 106 531.5 160Q581 214 581 309V800H699V303Q699 158 616.5 73Q534 -12 394 -12Q253 -12 170 73Q87 158 87 303V800H207V309Q207 214 256.5 160Q306 106 394 106ZM504 1006 504 978Q504 921 473.5 890.5Q443 860 386 860Q330 860 300.5 890.5Q271 921 271 978V1006H316V981Q316 942 334 921Q352 900 386 900Q422 900 440.5 921Q459 942 459 981V1006Z" glyph-name="Ubreve" horiz-adv-x="787" unicode="Ŭ" /><glyph d="M394 106Q482 106 531.5 160Q581 214 581 309V800H699V303Q699 158 616.5 73Q534 -12 394 -12Q253 -12 170 73Q87 158 87 303V800H207V309Q207 214 256.5 160Q306 106 394 106ZM343 1046 391 1021L289 836L241 861ZM497 1046 545 1021L443 836L395 861Z" glyph-name="Uhungarumlaut" horiz-adv-x="787" unicode="Ű" /><glyph d="M394 106Q482 106 531.5 160Q581 214 581 309V800H699V303Q699 158 616.5 73Q534 -12 394 -12Q253 -12 170 73Q87 158 87 303V800H207V309Q207 214 256.5 160Q306 106 394 106ZM249 963 527 963V906H249Z" glyph-name="Umacron" horiz-adv-x="787" unicode="Ū" /><glyph d="M326 -128Q326 -145 340 -154.5Q354 -164 379 -164Q391 -164 404.5 -161.5Q418 -159 432 -155L440 -198Q425 -204 409 -207Q393 -210 378 -210Q332 -210 302.5 -188Q273 -166 273 -130Q273 -98 296.5 -70.5Q320 -43 372 -11Q241 -5 164 79.5Q87 164 87 303V800H207V309Q207 214 256.5 160Q306 106 394 106Q482 106 531.5 160Q581 214 581 309V800H699V303Q699 186 644 106.5Q589 27 490 0L418 -40Q365 -70 345.5 -88.5Q326 -107 326 -128Z" glyph-name="Uogonek" horiz-adv-x="787" unicode="Ų" /><glyph d="M494 937Q494 892 466.5 868.5Q439 845 386 845Q335 845 308 868.5Q281 892 281 937Q281 983 308 1007.5Q335 1032 386 1032Q439 1032 466.5 1007.5Q494 983 494 937ZM326 937Q326 912 341.5 898.5Q357 885 386 885Q417 885 433 898.5Q449 912 449 937Q449 964 433 978Q417 992 386 992Q357 992 341.5 978Q326 964 326 937ZM394 106Q482 106 531.5 160Q581 214 581 309V800H699V303Q699 158 616.5 73Q534 -12 394 -12Q253 -12 170 73Q87 158 87 303V800H207V309Q207 214 256.5 160Q306 106 394 106Z" glyph-name="Uring" horiz-adv-x="787" unicode="Ů" /><glyph d="M394 106Q482 106 531.5 160Q581 214 581 309V800H699V303Q699 158 616.5 73Q534 -12 394 -12Q253 -12 170 73Q87 158 87 303V800H207V309Q207 214 256.5 160Q306 106 394 106ZM404 958Q423 942 432 937.5Q441 933 449 933Q464 933 472.5 948.5Q481 964 482 993L530 989Q528 938 507.5 910.5Q487 883 452 883Q433 883 415 891Q397 899 368 922Q350 937 342 941Q334 945 327 945Q314 945 305 929.5Q296 914 294 885L246 889Q249 940 270 967.5Q291 995 324 995Q341 995 358.5 987.5Q376 980 404 958Z" glyph-name="Utilde" horiz-adv-x="787" unicode="Ũ" /><glyph d="M297 919 568 990L585 934L314 864ZM793 0 89 0V800H205V114H383V800H499V114H677V800H793Z" glyph-name="Wacute" horiz-adv-x="882" unicode="Ẃ" /><glyph d="M615 916 592 869L440 941L291 868L267 915L440 1001ZM793 0 89 0V800H205V114H383V800H499V114H677V800H793Z" glyph-name="Wcircumflex" horiz-adv-x="882" unicode="Ŵ" /><glyph d="M412 937Q412 915 398 901.5Q384 888 361 888Q339 888 326 901.5Q313 915 313 937Q313 960 326 974Q339 988 361 988Q384 988 398 974Q412 960 412 937ZM569 937Q569 915 555 901.5Q541 888 518 888Q496 888 483 901.5Q470 915 470 937Q470 960 483 974Q496 988 518 988Q541 988 555 974Q569 960 569 937ZM793 0 89 0V800H205V114H383V800H499V114H677V800H793Z" glyph-name="Wdieresis" horiz-adv-x="882" unicode="Ẅ" /><glyph d="M793 0 89 0V800H205V114H383V800H499V114H677V800H793ZM585 920 568 864L297 935L314 990Z" glyph-name="Wgrave" horiz-adv-x="882" unicode="Ẁ" /><glyph d="M419 0 299 0V259H85V800H205V375H513V800H633V259H419ZM209 919 480 990L497 934L226 864Z" glyph-name="Yacute" horiz-adv-x="718" unicode="Ý" /><glyph d="M419 0 299 0V259H85V800H205V375H513V800H633V259H419ZM324 937Q324 915 310 901.5Q296 888 273 888Q251 888 238 901.5Q225 915 225 937Q225 960 238 974Q251 988 273 988Q296 988 310 974Q324 960 324 937ZM481 937Q481 915 467 901.5Q453 888 430 888Q408 888 395 901.5Q382 915 382 937Q382 960 395 974Q408 988 430 988Q453 988 467 974Q481 960 481 937Z" glyph-name="Ydieresis" horiz-adv-x="718" unicode="Ÿ" /><glyph d="M419 0 299 0V259H85V800H205V375H513V800H633V259H419ZM527 916 504 869L352 941L203 868L179 915L352 1001Z" glyph-name="Ycircumflex" horiz-adv-x="718" unicode="Ŷ" /><glyph d="M419 0 299 0V259H85V800H205V375H513V800H633V259H419ZM497 920 480 864L209 935L226 990Z" glyph-name="Ygrave" horiz-adv-x="718" unicode="Ỳ" /><glyph d="M330 928 482 1000L505 953L330 868L157 954L181 1001ZM596 0 77 0V58L41 93L458 684H70V800H596V738L624 711L204 116H596Z" glyph-name="Zcaron" horiz-adv-x="661" unicode="Ž" /><glyph d="M187 919 458 990L475 934L204 864ZM596 0 77 0V58L41 93L458 684H70V800H596V738L624 711L204 116H596Z" glyph-name="Zacute" horiz-adv-x="661" unicode="Ź" /><glyph d="M596 0 77 0V58L41 93L458 684H70V800H596V738L624 711L204 116H596ZM390 927Q390 900 373.5 884Q357 868 329 868Q303 868 287 884Q271 900 271 927Q271 955 287 972Q303 989 329 989Q357 989 373.5 972Q390 955 390 927Z" glyph-name="Zdotaccent" horiz-adv-x="661" unicode="Ż" /><glyph d="M182 0 66 0V337H144V800H584V337H662V0H547V221H182ZM256 684 256 337H472V684ZM214 931 485 1002L502 946L231 876Z" glyph-name="aacute" horiz-adv-x="728" unicode="á" /><glyph d="M182 0 66 0V337H144V800H584V337H662V0H547V221H182ZM256 684 256 337H472V684ZM532 928 509 881L357 953L208 880L184 927L357 1013Z" glyph-name="acircumflex" horiz-adv-x="728" unicode="â" /><glyph d="M182 0 66 0V337H144V800H584V337H662V0H547V221H182ZM256 684 256 337H472V684ZM329 949Q329 927 315 913.5Q301 900 278 900Q256 900 243 913.5Q230 927 230 949Q230 972 243 986Q256 1000 278 1000Q301 1000 315 986Q329 972 329 949ZM486 949Q486 927 472 913.5Q458 900 435 900Q413 900 400 913.5Q387 927 387 949Q387 972 400 986Q413 1000 435 1000Q458 1000 472 986Q486 972 486 949Z" glyph-name="adieresis" horiz-adv-x="728" unicode="ä" /><glyph d="M182 0 66 0V337H144V800H584V337H662V0H547V221H182ZM256 684 256 337H472V684ZM502 932 485 876L214 947L231 1002Z" glyph-name="agrave" horiz-adv-x="728" unicode="à" /><glyph d="M182 0 66 0V337H144V800H584V337H662V0H547V221H182ZM256 684 256 337H472V684ZM464 949Q464 904 436.5 880.5Q409 857 356 857Q305 857 278 880.5Q251 904 251 949Q251 995 278 1019.5Q305 1044 356 1044Q409 1044 436.5 1019.5Q464 995 464 949ZM296 949Q296 924 311.5 910.5Q327 897 356 897Q387 897 403 910.5Q419 924 419 949Q419 976 403 990Q387 1004 356 1004Q327 1004 311.5 990Q296 976 296 949Z" glyph-name="aring" horiz-adv-x="728" unicode="å" /><glyph d="M182 0 66 0V337H144V800H584V337H662V0H547V221H182ZM256 684 256 337H472V684ZM374 970Q393 954 402 949.5Q411 945 419 945Q434 945 442.5 960.5Q451 976 452 1005L500 1001Q498 950 477.5 922.5Q457 895 422 895Q403 895 385 903Q367 911 338 934Q320 949 312 953Q304 957 297 957Q284 957 275 941.5Q266 926 264 897L216 901Q219 952 240 979.5Q261 1007 294 1007Q311 1007 328.5 999.5Q346 992 374 970Z" glyph-name="atilde" horiz-adv-x="728" unicode="ã" /><glyph d="M182 0 66 0V337H144V800H584V337H662V0H547V221H182ZM256 684 256 337H472V684ZM474 1018 474 990Q474 933 443.5 902.5Q413 872 356 872Q300 872 270.5 902.5Q241 933 241 990V1018H286V993Q286 954 304 933Q322 912 356 912Q392 912 410.5 933Q429 954 429 993V1018Z" glyph-name="abreve" horiz-adv-x="728" unicode="ă" /><glyph d="M182 0 66 0V337H144V800H584V337H662V0H547V221H182ZM256 684 256 337H472V684ZM219 975 497 975V918H219Z" glyph-name="amacron" horiz-adv-x="728" unicode="ā" /><glyph d="M182 0 66 0V337H144V800H584V337H662V0L590 -40Q537 -70 517.5 -88.5Q498 -107 498 -128Q498 -145 512 -154.5Q526 -164 551 -164Q563 -164 576.5 -161.5Q590 -159 604 -155L612 -198Q597 -204 581 -207Q565 -210 550 -210Q504 -210 474.5 -188Q445 -166 445 -130Q445 -96 473.5 -65.5Q502 -35 564 0H547V221H182ZM256 684 256 337H472V684Z" glyph-name="aogonek" horiz-adv-x="728" unicode="ą" /><glyph d="M312 0 89 0V800H586V684H209V116H585V0H356L346 -44Q399 -44 426.5 -65Q454 -86 454 -125Q454 -166 421 -188Q388 -210 327 -210Q305 -210 282 -205.5Q259 -201 240 -193L250 -151Q266 -158 286 -161.5Q306 -165 327 -165Q367 -165 386.5 -155Q406 -145 406 -125Q406 -105 386.5 -94Q367 -83 332 -83Q322 -83 311.5 -84.5Q301 -86 290 -89Z" glyph-name="ccedilla" horiz-adv-x="628" unicode="ç" /><glyph d="M182 931 453 1002L470 946L199 876ZM585 0 89 0V800H586V684H209V116H585Z" glyph-name="cacute" horiz-adv-x="628" unicode="ć" /><glyph d="M325 940 477 1012L500 965L325 880L152 966L176 1013ZM585 0 89 0V800H586V684H209V116H585Z" glyph-name="ccaron" horiz-adv-x="628" unicode="č" /><glyph d="M500 928 477 881L325 953L176 880L152 927L325 1013ZM585 0 89 0V800H586V684H209V116H585Z" glyph-name="ccircumflex" horiz-adv-x="628" unicode="ĉ" /><glyph d="M585 0 89 0V800H586V684H209V116H585ZM385 939Q385 912 368.5 896Q352 880 324 880Q298 880 282 896Q266 912 266 939Q266 967 282 984Q298 1001 324 1001Q352 1001 368.5 984Q385 967 385 939Z" glyph-name="cdotaccent" horiz-adv-x="628" unicode="ċ" /><glyph d="M758 552 758 800H817L810 552ZM350 0 89 0V800H350Q524 800 621 694.5Q718 589 718 401Q718 212 620.5 106Q523 0 350 0ZM587 401Q587 540 525.5 611Q464 682 345 682H209V118H345Q465 118 526 189.5Q587 261 587 401Z" glyph-name="dcaron" horiz-adv-x="799" unicode="ď" /><glyph d="M229 975 507 975V918H229ZM350 0 89 0V800H350Q524 800 621 694.5Q718 589 718 401Q718 212 620.5 106Q523 0 350 0ZM587 401Q587 540 525.5 611Q464 682 345 682H209V118H345Q465 118 526 189.5Q587 261 587 401Z" glyph-name="dcroat" horiz-adv-x="758" unicode="đ" /><glyph d="M143 931 414 1002L431 946L160 876ZM507 0 89 0V295L58 290L35 405L89 414V800H503V684H209V435L449 477L470 362L209 316V116H507Z" glyph-name="eacute" horiz-adv-x="551" unicode="é" /><glyph d="M461 928 438 881L286 953L137 880L113 927L286 1013ZM507 0 89 0V295L58 290L35 405L89 414V800H503V684H209V435L449 477L470 362L209 316V116H507Z" glyph-name="ecircumflex" horiz-adv-x="551" unicode="ê" /><glyph d="M258 949Q258 927 244 913.5Q230 900 207 900Q185 900 172 913.5Q159 927 159 949Q159 972 172 986Q185 1000 207 1000Q230 1000 244 986Q258 972 258 949ZM415 949Q415 927 401 913.5Q387 900 364 900Q342 900 329 913.5Q316 927 316 949Q316 972 329 986Q342 1000 364 1000Q387 1000 401 986Q415 972 415 949ZM507 0 89 0V295L58 290L35 405L89 414V800H503V684H209V435L449 477L470 362L209 316V116H507Z" glyph-name="edieresis" horiz-adv-x="551" unicode="ë" /><glyph d="M507 0 89 0V295L58 290L35 405L89 414V800H503V684H209V435L449 477L470 362L209 316V116H507ZM431 932 414 876L143 947L160 1002Z" glyph-name="egrave" horiz-adv-x="551" unicode="è" /><glyph d="M507 0 89 0V295L58 290L35 405L89 414V800H503V684H209V435L449 477L470 362L209 316V116H507ZM403 1018 403 990Q403 933 372.5 902.5Q342 872 285 872Q229 872 199.5 902.5Q170 933 170 990V1018H215V993Q215 954 233 933Q251 912 285 912Q321 912 339.5 933Q358 954 358 993V1018Z" glyph-name="ebreve" horiz-adv-x="551" unicode="ĕ" /><glyph d="M286 940 438 1012L461 965L286 880L113 966L137 1013ZM507 0 89 0V295L58 290L35 405L89 414V800H503V684H209V435L449 477L470 362L209 316V116H507Z" glyph-name="ecaron" horiz-adv-x="551" unicode="ě" /><glyph d="M507 0 89 0V295L58 290L35 405L89 414V800H503V684H209V435L449 477L470 362L209 316V116H507ZM346 939Q346 912 329.5 896Q313 880 285 880Q259 880 243 896Q227 912 227 939Q227 967 243 984Q259 1001 285 1001Q313 1001 329.5 984Q346 967 346 939Z" glyph-name="edotaccent" horiz-adv-x="551" unicode="ė" /><glyph d="M507 0 89 0V295L58 290L35 405L89 414V800H503V684H209V435L449 477L470 362L209 316V116H507ZM148 975 426 975V918H148Z" glyph-name="emacron" horiz-adv-x="551" unicode="ē" /><glyph d="M409 0 89 0V295L58 290L35 405L89 414V800H503V684H209V435L449 477L470 362L209 316V116H507V0L435 -40Q382 -70 362.5 -88.5Q343 -107 343 -128Q343 -145 357 -154.5Q371 -164 396 -164Q408 -164 421.5 -161.5Q435 -159 449 -155L457 -198Q442 -204 426 -207Q410 -210 395 -210Q349 -210 319.5 -188Q290 -166 290 -130Q290 -96 318.5 -65.5Q347 -35 409 0Z" glyph-name="eogonek" horiz-adv-x="551" unicode="ę" /><glyph d="M701 0 89 0V800H564V684H209V116H611V333L417 297L397 411L763 478L783 364L731 354V1H701ZM519 1018 519 990Q519 933 488.5 902.5Q458 872 401 872Q345 872 315.5 902.5Q286 933 286 990V1018H331V993Q331 954 349 933Q367 912 401 912Q437 912 455.5 933Q474 954 474 993V1018Z" glyph-name="gbreve" horiz-adv-x="818" unicode="ğ" /><glyph d="M577 928 554 881L402 953L253 880L229 927L402 1013ZM701 0 89 0V800H564V684H209V116H611V333L417 297L397 411L763 478L783 364L731 354V1H701Z" glyph-name="gcircumflex" horiz-adv-x="818" unicode="ĝ" /><glyph d="M432 -59 432 -307H373L380 -59ZM701 0 89 0V800H564V684H209V116H611V333L417 297L397 411L763 478L783 364L731 354V1H701Z" glyph-name="gcommaaccent" horiz-adv-x="818" unicode="ģ" /><glyph d="M701 0 89 0V800H564V684H209V116H611V333L417 297L397 411L763 478L783 364L731 354V1H701ZM462 939Q462 912 445.5 896Q429 880 401 880Q375 880 359 896Q343 912 343 939Q343 967 359 984Q375 1001 401 1001Q429 1001 445.5 984Q462 967 462 939Z" glyph-name="gdotaccent" horiz-adv-x="818" unicode="ġ" /><glyph d="M376 511Q296 511 252.5 457.5Q209 404 209 306V0H89V683H32V740H89V800H209V740H420V683H209V561Q241 594 285.5 611Q330 628 384 628Q514 628 589.5 544Q665 460 665 313V0H545V307Q545 405 501 458Q457 511 376 511Z" glyph-name="hbar" horiz-adv-x="729" unicode="ħ" /><glyph d="M447 928 424 881L272 953L123 880L99 927L272 1013ZM376 555Q296 555 252.5 502Q209 449 209 350V0H89V800H209V606Q241 639 285.5 656Q330 673 384 673Q514 673 589.5 589Q665 505 665 358V0H545V352Q545 449 501 502Q457 555 376 555Z" glyph-name="hcircumflex" horiz-adv-x="729" unicode="ĥ" /><glyph d="M77 931 348 1002L365 946L94 876ZM407 0 44 0V116H165V684H44V800H407V684H285V116H407Z" glyph-name="iacute" horiz-adv-x="451" unicode="í" /><glyph d="M395 928 372 881L220 953L71 880L47 927L220 1013ZM407 0 44 0V116H165V684H44V800H407V684H285V116H407Z" glyph-name="icircumflex" horiz-adv-x="451" unicode="î" /><glyph d="M192 949Q192 927 178 913.5Q164 900 141 900Q119 900 106 913.5Q93 927 93 949Q93 972 106 986Q119 1000 141 1000Q164 1000 178 986Q192 972 192 949ZM349 949Q349 927 335 913.5Q321 900 298 900Q276 900 263 913.5Q250 927 250 949Q250 972 263 986Q276 1000 298 1000Q321 1000 335 986Q349 972 349 949ZM407 0 44 0V116H165V684H44V800H407V684H285V116H407Z" glyph-name="idieresis" horiz-adv-x="451" unicode="ï" /><glyph d="M407 0 44 0V116H165V684H44V800H407V684H285V116H407ZM365 932 348 876L77 947L94 1002Z" glyph-name="igrave" horiz-adv-x="451" unicode="ì" /><glyph d="M407 0 44 0V116H165V684H44V800H407V684H285V116H407ZM337 1018 337 990Q337 933 306.5 902.5Q276 872 219 872Q163 872 133.5 902.5Q104 933 104 990V1018H149V993Q149 954 167 933Q185 912 219 912Q255 912 273.5 933Q292 954 292 993V1018Z" glyph-name="ibreve" horiz-adv-x="451" unicode="ĭ" /><glyph d="M209 0 89 0V800H209Z" glyph-name="i.dot" horiz-adv-x="298" unicode="" /><glyph d="M407 0 44 0V116H165V684H44V800H407V684H285V116H407ZM82 975 360 975V918H82Z" glyph-name="imacron" horiz-adv-x="451" unicode="ī" /><glyph d="M111 0 89 0V800H209V0L137 -40Q84 -70 64.5 -88.5Q45 -107 45 -128Q45 -145 59 -154.5Q73 -164 98 -164Q110 -164 123.5 -161.5Q137 -159 151 -155L159 -198Q144 -204 128 -207Q112 -210 97 -210Q51 -210 21.5 -188Q-8 -166 -8 -130Q-8 -96 20.5 -65.5Q49 -35 111 0Z" glyph-name="iogonek" horiz-adv-x="298" unicode="į" /><glyph d="M407 0 44 0V116H165V684H44V800H407V684H285V116H407ZM237 970Q256 954 265 949.5Q274 945 282 945Q297 945 305.5 960.5Q314 976 315 1005L363 1001Q361 950 340.5 922.5Q320 895 285 895Q266 895 248 903Q230 911 201 934Q183 949 175 953Q167 957 160 957Q147 957 138 941.5Q129 926 127 897L79 901Q82 952 103 979.5Q124 1007 157 1007Q174 1007 191.5 999.5Q209 992 237 970Z" glyph-name="itilde" horiz-adv-x="451" unicode="ĩ" /><glyph d="M349 105Q422 105 463.5 150.5Q505 196 505 277V684H309V800H625V271Q625 140 550.5 64Q476 -12 349 -12Q223 -12 148.5 64Q74 140 74 271V398H194V277Q194 196 235 150.5Q276 105 349 105ZM643 928 620 881L468 953L319 880L295 927L468 1013Z" glyph-name="jcircumflex" horiz-adv-x="704" unicode="ĵ" /><glyph d="M235 316 115 316V800H235ZM594 0 78 0V116H474V800H594Z" glyph-name="ij" horiz-adv-x="683" unicode="ĳ" /><glyph d="M326 -293 336 -57H395L378 -293ZM209 0 89 0V800H209V418H404V800H524V418H659V0H539V302H209Z" glyph-name="kcommaaccent" horiz-adv-x="711" unicode="ķ" /><glyph d="M106 931 377 1002L394 946L123 876ZM202 800 202 287Q202 208 242.5 162.5Q283 117 353 117H532V0H347Q225 0 153.5 76Q82 152 82 281V800Z" glyph-name="lacute" horiz-adv-x="565" unicode="ĺ" /><glyph d="M323 552 323 800H382L375 552ZM202 800 202 287Q202 208 242.5 162.5Q283 117 353 117H532V0H347Q225 0 153.5 76Q82 152 82 281V800Z" glyph-name="lcaron" horiz-adv-x="565" unicode="ľ" /><glyph d="M254 -293 264 -57H323L306 -293ZM202 800 202 287Q202 208 242.5 162.5Q283 117 353 117H532V0H347Q225 0 153.5 76Q82 152 82 281V800Z" glyph-name="lcommaaccent" horiz-adv-x="565" unicode="ļ" /><glyph d="M202 800 202 287Q202 208 242.5 162.5Q283 117 353 117H532V0H347Q225 0 153.5 76Q82 152 82 281V800ZM468 386Q468 359 451.5 343Q435 327 407 327Q381 327 365 343Q349 359 349 386Q349 414 365 431Q381 448 407 448Q435 448 451.5 431Q468 414 468 386Z" glyph-name="ldot" horiz-adv-x="565" unicode="ŀ" /><glyph d="M209 0 89 0V800H637V0H517V684H209ZM379 970Q398 954 407 949.5Q416 945 424 945Q439 945 447.5 960.5Q456 976 457 1005L505 1001Q503 950 482.5 922.5Q462 895 427 895Q408 895 390 903Q372 911 343 934Q325 949 317 953Q309 957 302 957Q289 957 280 941.5Q271 926 269 897L221 901Q224 952 245 979.5Q266 1007 299 1007Q316 1007 333.5 999.5Q351 992 379 970Z" glyph-name="ntilde" horiz-adv-x="726" unicode="ñ" /><glyph d="M219 931 490 1002L507 946L236 876ZM209 0 89 0V800H637V0H517V684H209Z" glyph-name="nacute" horiz-adv-x="726" unicode="ń" /><glyph d="M362 940 514 1012L537 965L362 880L189 966L213 1013ZM209 0 89 0V800H637V0H517V684H209Z" glyph-name="ncaron" horiz-adv-x="726" unicode="ň" /><glyph d="M334 -293 344 -57H403L386 -293ZM209 0 89 0V800H637V0H517V684H209Z" glyph-name="ncommaaccent" horiz-adv-x="726" unicode="ņ" /><glyph d="M298 931 569 1002L586 946L315 876ZM448 -12Q275 -12 160.5 105Q46 222 46 400Q46 579 160 695.5Q274 812 448 812Q621 812 735 695.5Q849 579 849 400Q849 222 735 105Q621 -12 448 -12ZM172 400Q172 273 249.5 191.5Q327 110 448 110Q568 110 645.5 191.5Q723 273 723 400Q723 527 645.5 609Q568 691 448 691Q327 691 249.5 609.5Q172 528 172 400Z" glyph-name="oacute" horiz-adv-x="895" unicode="ó" /><glyph d="M616 928 593 881L441 953L292 880L268 927L441 1013ZM448 -12Q275 -12 160.5 105Q46 222 46 400Q46 579 160 695.5Q274 812 448 812Q621 812 735 695.5Q849 579 849 400Q849 222 735 105Q621 -12 448 -12ZM172 400Q172 273 249.5 191.5Q327 110 448 110Q568 110 645.5 191.5Q723 273 723 400Q723 527 645.5 609Q568 691 448 691Q327 691 249.5 609.5Q172 528 172 400Z" glyph-name="ocircumflex" horiz-adv-x="895" unicode="ô" /><glyph d="M413 949Q413 927 399 913.5Q385 900 362 900Q340 900 327 913.5Q314 927 314 949Q314 972 327 986Q340 1000 362 1000Q385 1000 399 986Q413 972 413 949ZM570 949Q570 927 556 913.5Q542 900 519 900Q497 900 484 913.5Q471 927 471 949Q471 972 484 986Q497 1000 519 1000Q542 1000 556 986Q570 972 570 949ZM448 -12Q275 -12 160.5 105Q46 222 46 400Q46 579 160 695.5Q274 812 448 812Q621 812 735 695.5Q849 579 849 400Q849 222 735 105Q621 -12 448 -12ZM172 400Q172 273 249.5 191.5Q327 110 448 110Q568 110 645.5 191.5Q723 273 723 400Q723 527 645.5 609Q568 691 448 691Q327 691 249.5 609.5Q172 528 172 400Z" glyph-name="odieresis" horiz-adv-x="895" unicode="ö" /><glyph d="M448 -12Q275 -12 160.5 105Q46 222 46 400Q46 579 160 695.5Q274 812 448 812Q621 812 735 695.5Q849 579 849 400Q849 222 735 105Q621 -12 448 -12ZM172 400Q172 273 249.5 191.5Q327 110 448 110Q568 110 645.5 191.5Q723 273 723 400Q723 527 645.5 609Q568 691 448 691Q327 691 249.5 609.5Q172 528 172 400ZM586 932 569 876L298 947L315 1002Z" glyph-name="ograve" horiz-adv-x="895" unicode="ò" /><glyph d="M448 -12Q275 -12 160.5 105Q46 222 46 400Q46 579 160 695.5Q274 812 448 812Q621 812 735 695.5Q849 579 849 400Q849 222 735 105Q621 -12 448 -12ZM172 400Q172 273 249.5 191.5Q327 110 448 110Q568 110 645.5 191.5Q723 273 723 400Q723 527 645.5 609Q568 691 448 691Q327 691 249.5 609.5Q172 528 172 400ZM458 970Q477 954 486 949.5Q495 945 503 945Q518 945 526.5 960.5Q535 976 536 1005L584 1001Q582 950 561.5 922.5Q541 895 506 895Q487 895 469 903Q451 911 422 934Q404 949 396 953Q388 957 381 957Q368 957 359 941.5Q350 926 348 897L300 901Q303 952 324 979.5Q345 1007 378 1007Q395 1007 412.5 999.5Q430 992 458 970Z" glyph-name="otilde" horiz-adv-x="895" unicode="õ" /><glyph d="M448 -12Q275 -12 160.5 105Q46 222 46 400Q46 579 160 695.5Q274 812 448 812Q621 812 735 695.5Q849 579 849 400Q849 222 735 105Q621 -12 448 -12ZM172 400Q172 273 249.5 191.5Q327 110 448 110Q568 110 645.5 191.5Q723 273 723 400Q723 527 645.5 609Q568 691 448 691Q327 691 249.5 609.5Q172 528 172 400ZM558 1018 558 990Q558 933 527.5 902.5Q497 872 440 872Q384 872 354.5 902.5Q325 933 325 990V1018H370V993Q370 954 388 933Q406 912 440 912Q476 912 494.5 933Q513 954 513 993V1018Z" glyph-name="obreve" horiz-adv-x="895" unicode="ŏ" /><glyph d="M397 1058 445 1033L343 848L295 873ZM551 1058 599 1033L497 848L449 873ZM448 -12Q275 -12 160.5 105Q46 222 46 400Q46 579 160 695.5Q274 812 448 812Q621 812 735 695.5Q849 579 849 400Q849 222 735 105Q621 -12 448 -12ZM172 400Q172 273 249.5 191.5Q327 110 448 110Q568 110 645.5 191.5Q723 273 723 400Q723 527 645.5 609Q568 691 448 691Q327 691 249.5 609.5Q172 528 172 400Z" glyph-name="ohungarumlaut" horiz-adv-x="895" unicode="ő" /><glyph d="M303 975 581 975V918H303ZM448 -12Q275 -12 160.5 105Q46 222 46 400Q46 579 160 695.5Q274 812 448 812Q621 812 735 695.5Q849 579 849 400Q849 222 735 105Q621 -12 448 -12ZM172 400Q172 273 249.5 191.5Q327 110 448 110Q568 110 645.5 191.5Q723 273 723 400Q723 527 645.5 609Q568 691 448 691Q327 691 249.5 609.5Q172 528 172 400Z" glyph-name="omacron" horiz-adv-x="895" unicode="ō" /><glyph d="M199 931 470 1002L487 946L216 876ZM209 0 89 0V800H365Q493 800 564 737Q635 674 635 559Q635 451 569 390.5Q503 330 382 325L653 91L571 -7L209 314ZM512 559Q512 622 474 653Q436 684 360 684H209V432H360Q436 432 474 464Q512 496 512 559Z" glyph-name="racute" horiz-adv-x="687" unicode="ŕ" /><glyph d="M342 940 494 1012L517 965L342 880L169 966L193 1013ZM209 0 89 0V800H365Q493 800 564 737Q635 674 635 559Q635 451 569 390.5Q503 330 382 325L653 91L571 -7L209 314ZM512 559Q512 622 474 653Q436 684 360 684H209V432H360Q436 432 474 464Q512 496 512 559Z" glyph-name="rcaron" horiz-adv-x="687" unicode="ř" /><glyph d="M314 -293 324 -57H383L366 -293ZM209 0 89 0V800H365Q493 800 564 737Q635 674 635 559Q635 451 569 390.5Q503 330 382 325L653 91L571 -7L209 314ZM512 559Q512 622 474 653Q436 684 360 684H209V432H360Q436 432 474 464Q512 496 512 559Z" glyph-name="rcommaaccent" horiz-adv-x="687" unicode="ŗ" /><glyph d="M286 940 438 1012L461 965L286 880L113 966L137 1013ZM454 0 79 0V116H404L52 695L83 718V800H515V684H200L561 98Z" glyph-name="scaron" horiz-adv-x="598" unicode="š" /><glyph d="M143 931 414 1002L431 946L160 876ZM454 0 79 0V116H404L52 695L83 718V800H515V684H200L561 98Z" glyph-name="sacute" horiz-adv-x="598" unicode="ś" /><glyph d="M267 0 79 0V116H404L52 695L83 718V800H515V684H200L561 98L454 0H311L301 -44Q354 -44 381.5 -65Q409 -86 409 -125Q409 -166 376 -188Q343 -210 282 -210Q260 -210 237 -205.5Q214 -201 195 -193L205 -151Q221 -158 241 -161.5Q261 -165 282 -165Q322 -165 341.5 -155Q361 -145 361 -125Q361 -105 341.5 -94Q322 -83 287 -83Q277 -83 266.5 -84.5Q256 -86 245 -89Z" glyph-name="scedilla" horiz-adv-x="598" unicode="ş" /><glyph d="M461 928 438 881L286 953L137 880L113 927L286 1013ZM454 0 79 0V116H404L52 695L83 718V800H515V684H200L561 98Z" glyph-name="scircumflex" horiz-adv-x="598" unicode="ŝ" /><glyph d="M258 -293 268 -57H327L310 -293ZM454 0 79 0V116H404L52 695L83 718V800H515V684H200L561 98Z" glyph-name="uni0219" horiz-adv-x="598" unicode="ș" /><glyph d="M232 343 232 274Q232 201 270 158.5Q308 116 372 116H509V0H366Q249 0 180.5 72.5Q112 145 112 268V343H44V400H112V582H23V698H112V800H232V698H525V582H232V400H476V343Z" glyph-name="tbar" horiz-adv-x="578" unicode="ŧ" /><glyph d="M232 582 232 274Q232 201 269.5 158.5Q307 116 372 116H509V0H366Q249 0 180.5 72.5Q112 145 112 268V582H23V698H112V800H232V698H444V582ZM504 552 504 800H563L556 552Z" glyph-name="tcaron" horiz-adv-x="578" unicode="ť" /><glyph d="M260 -293 270 -57H329L312 -293ZM232 582 232 274Q232 201 270 158.5Q308 116 372 116H509V0H366Q249 0 180.5 72.5Q112 145 112 268V582H23V698H112V800H232V698H525V582Z" glyph-name="uni0163" horiz-adv-x="578" unicode="ţ" /><glyph d="M260 -293 270 -57H329L312 -293ZM232 582 232 274Q232 201 270 158.5Q308 116 372 116H509V0H366Q249 0 180.5 72.5Q112 145 112 268V582H23V698H112V800H232V698H525V582Z" glyph-name="uni021B" horiz-adv-x="578" unicode="ț" /><glyph d="M228 931 499 1002L516 946L245 876ZM89 0 89 800H209V116H536V800H656V0Z" glyph-name="uacute" horiz-adv-x="745" unicode="ú" /><glyph d="M546 928 523 881L371 953L222 880L198 927L371 1013ZM89 0 89 800H209V116H536V800H656V0Z" glyph-name="ucircumflex" horiz-adv-x="745" unicode="û" /><glyph d="M343 949Q343 927 329 913.5Q315 900 292 900Q270 900 257 913.5Q244 927 244 949Q244 972 257 986Q270 1000 292 1000Q315 1000 329 986Q343 972 343 949ZM500 949Q500 927 486 913.5Q472 900 449 900Q427 900 414 913.5Q401 927 401 949Q401 972 414 986Q427 1000 449 1000Q472 1000 486 986Q500 972 500 949ZM89 0 89 800H209V116H536V800H656V0Z" glyph-name="udieresis" horiz-adv-x="745" unicode="ü" /><glyph d="M89 0 89 800H209V116H536V800H656V0ZM516 932 499 876L228 947L245 1002Z" glyph-name="ugrave" horiz-adv-x="745" unicode="ù" /><glyph d="M89 0 89 800H209V116H536V800H656V0ZM488 1018 488 990Q488 933 457.5 902.5Q427 872 370 872Q314 872 284.5 902.5Q255 933 255 990V1018H300V993Q300 954 318 933Q336 912 370 912Q406 912 424.5 933Q443 954 443 993V1018Z" glyph-name="ubreve" horiz-adv-x="745" unicode="ŭ" /><glyph d="M89 0 89 800H209V116H536V800H656V0ZM327 1058 375 1033L273 848L225 873ZM481 1058 529 1033L427 848L379 873Z" glyph-name="uhungarumlaut" horiz-adv-x="745" unicode="ű" /><glyph d="M89 0 89 800H209V116H536V800H656V0ZM233 975 511 975V918H233Z" glyph-name="umacron" horiz-adv-x="745" unicode="ū" /><glyph d="M491 -128Q491 -145 505 -154.5Q519 -164 544 -164Q556 -164 569.5 -161.5Q583 -159 597 -155L605 -198Q590 -204 574 -207Q558 -210 543 -210Q497 -210 467.5 -188Q438 -166 438 -130Q438 -96 466.5 -65.5Q495 -35 557 0H89V800H209V116H536V800H656V0H655L583 -40Q530 -70 510.5 -88.5Q491 -107 491 -128Z" glyph-name="uogonek" horiz-adv-x="745" unicode="ų" /><glyph d="M478 949Q478 904 450.5 880.5Q423 857 370 857Q319 857 292 880.5Q265 904 265 949Q265 995 292 1019.5Q319 1044 370 1044Q423 1044 450.5 1019.5Q478 995 478 949ZM310 949Q310 924 325.5 910.5Q341 897 370 897Q401 897 417 910.5Q433 924 433 949Q433 976 417 990Q401 1004 370 1004Q341 1004 325.5 990Q310 976 310 949ZM89 0 89 800H209V116H536V800H656V0Z" glyph-name="uring" horiz-adv-x="745" unicode="ů" /><glyph d="M89 0 89 800H209V116H536V800H656V0ZM388 970Q407 954 416 949.5Q425 945 433 945Q448 945 456.5 960.5Q465 976 466 1005L514 1001Q512 950 491.5 922.5Q471 895 436 895Q417 895 399 903Q381 911 352 934Q334 949 326 953Q318 957 311 957Q298 957 289 941.5Q280 926 278 897L230 901Q233 952 254 979.5Q275 1007 308 1007Q325 1007 342.5 999.5Q360 992 388 970Z" glyph-name="utilde" horiz-adv-x="745" unicode="ũ" /><glyph d="M327 931 598 1002L615 946L344 876ZM471 160 306 -12L57 256L84 282V800H204V272L312 157L410 257V700H531V257L629 157L737 273V800H857V281L884 256L635 -12Z" glyph-name="wacute" horiz-adv-x="941" unicode="ẃ" /><glyph d="M645 928 622 881L470 953L321 880L297 927L470 1013ZM471 160 306 -12L57 256L84 282V800H204V272L312 157L410 257V700H531V257L629 157L737 273V800H857V281L884 256L635 -12Z" glyph-name="wcircumflex" horiz-adv-x="941" unicode="ŵ" /><glyph d="M442 949Q442 927 428 913.5Q414 900 391 900Q369 900 356 913.5Q343 927 343 949Q343 972 356 986Q369 1000 391 1000Q414 1000 428 986Q442 972 442 949ZM599 949Q599 927 585 913.5Q571 900 548 900Q526 900 513 913.5Q500 927 500 949Q500 972 513 986Q526 1000 548 1000Q571 1000 585 986Q599 972 599 949ZM471 160 306 -12L57 256L84 282V800H204V272L312 157L410 257V700H531V257L629 157L737 273V800H857V281L884 256L635 -12Z" glyph-name="wdieresis" horiz-adv-x="941" unicode="ẅ" /><glyph d="M471 160 306 -12L57 256L84 282V800H204V272L312 157L410 257V700H531V257L629 157L737 273V800H857V281L884 256L635 -12ZM615 932 598 876L327 947L344 1002Z" glyph-name="wgrave" horiz-adv-x="941" unicode="ẁ" /><glyph d="M26 729 118 812L379 477L615 812L709 730L458 375L505 315L417 226L384 269L189 -7L97 76L304 371ZM212 931 483 1002L500 946L229 876Z" glyph-name="yacute" horiz-adv-x="711" unicode="ý" /><glyph d="M26 729 118 812L379 477L615 812L709 730L458 375L505 315L417 226L384 269L189 -7L97 76L304 371ZM327 949Q327 927 313 913.5Q299 900 276 900Q254 900 241 913.5Q228 927 228 949Q228 972 241 986Q254 1000 276 1000Q299 1000 313 986Q327 972 327 949ZM484 949Q484 927 470 913.5Q456 900 433 900Q411 900 398 913.5Q385 927 385 949Q385 972 398 986Q411 1000 433 1000Q456 1000 470 986Q484 972 484 949Z" glyph-name="ydieresis" horiz-adv-x="711" unicode="ÿ" /><glyph d="M26 729 118 812L379 477L615 812L709 730L458 375L505 315L417 226L384 269L189 -7L97 76L304 371ZM530 928 507 881L355 953L206 880L182 927L355 1013Z" glyph-name="ycircumflex" horiz-adv-x="711" unicode="ŷ" /><glyph d="M26 729 118 812L379 477L615 812L709 730L458 375L505 315L417 226L384 269L189 -7L97 76L304 371ZM500 932 483 876L212 947L229 1002Z" glyph-name="ygrave" horiz-adv-x="711" unicode="ỳ" /><glyph d="M306 940 458 1012L481 965L306 880L133 966L157 1013ZM50 128Q50 162 67 194.5Q84 227 116 253L409 628Q418 636 422.5 644Q427 652 427 660Q427 670 419 676Q411 682 398 682H64V800H409Q476 800 518 764Q560 728 560 672Q560 638 542.5 605.5Q525 573 493 547L200 171Q191 163 186.5 155Q182 147 182 140Q182 129 190 123Q198 117 212 117H550V0H200Q133 0 91.5 36Q50 72 50 128Z" glyph-name="zcaron" horiz-adv-x="615" unicode="ž" /><glyph d="M163 931 434 1002L451 946L180 876ZM50 128Q50 162 67 194.5Q84 227 116 253L409 628Q418 636 422.5 644Q427 652 427 660Q427 670 419 676Q411 682 398 682H64V800H409Q476 800 518 764Q560 728 560 672Q560 638 542.5 605.5Q525 573 493 547L200 171Q191 163 186.5 155Q182 147 182 140Q182 129 190 123Q198 117 212 117H550V0H200Q133 0 91.5 36Q50 72 50 128Z" glyph-name="zacute" horiz-adv-x="615" unicode="ź" /><glyph d="M50 128Q50 162 67 194.5Q84 227 116 253L409 628Q418 636 422.5 644Q427 652 427 660Q427 670 419 676Q411 682 398 682H64V800H409Q476 800 518 764Q560 728 560 672Q560 638 542.5 605.5Q525 573 493 547L200 171Q191 163 186.5 155Q182 147 182 140Q182 129 190 123Q198 117 212 117H550V0H200Q133 0 91.5 36Q50 72 50 128ZM366 939Q366 912 349.5 896Q333 880 305 880Q279 880 263 896Q247 912 247 939Q247 967 263 984Q279 1001 305 1001Q333 1001 349.5 984Q366 967 366 939Z" glyph-name="zdotaccent" horiz-adv-x="615" unicode="ż" /><glyph d="M163 931 434 1002L451 946L180 876Z" glyph-name="acute" horiz-adv-x="500" unicode="´" /><glyph d="M500 932 483 876L212 947L229 1002Z" glyph-name="grave" horiz-adv-x="500" unicode="`" /><glyph d="M530 928 507 881L355 953L206 880L182 927L355 1013Z" glyph-name="circumflex" horiz-adv-x="500" unicode="ˆ" /><glyph d="M306 940 458 1012L481 965L306 880L133 966L157 1013Z" glyph-name="caron" horiz-adv-x="500" unicode="ˇ" /><glyph d="M388 970Q407 954 416 949.5Q425 945 433 945Q448 945 456.5 960.5Q465 976 466 1005L514 1001Q512 950 491.5 922.5Q471 895 436 895Q417 895 399 903Q381 911 352 934Q334 949 326 953Q318 957 311 957Q298 957 289 941.5Q280 926 278 897L230 901Q233 952 254 979.5Q275 1007 308 1007Q325 1007 342.5 999.5Q360 992 388 970Z" glyph-name="tilde" horiz-adv-x="500" unicode="˜" /><glyph d="M327 949Q327 927 313 913.5Q299 900 276 900Q254 900 241 913.5Q228 927 228 949Q228 972 241 986Q254 1000 276 1000Q299 1000 313 986Q327 972 327 949ZM484 949Q484 927 470 913.5Q456 900 433 900Q411 900 398 913.5Q385 927 385 949Q385 972 398 986Q411 1000 433 1000Q456 1000 470 986Q484 972 484 949Z" glyph-name="dieresis" horiz-adv-x="500" unicode="¨" /><glyph d="M478 949Q478 904 450.5 880.5Q423 857 370 857Q319 857 292 880.5Q265 904 265 949Q265 995 292 1019.5Q319 1044 370 1044Q423 1044 450.5 1019.5Q478 995 478 949ZM310 949Q310 924 325.5 910.5Q341 897 370 897Q401 897 417 910.5Q433 924 433 949Q433 976 417 990Q401 1004 370 1004Q341 1004 325.5 990Q310 976 310 949Z" glyph-name="ring" horiz-adv-x="500" unicode="˚" /><glyph d="M250 -83Q240 -83 229.5 -84.5Q219 -86 208 -89L236 25H279L264 -44Q317 -44 344.5 -65Q372 -86 372 -125Q372 -166 339 -188Q306 -210 245 -210Q223 -210 200 -205.5Q177 -201 158 -193L168 -151Q184 -158 204 -161.5Q224 -165 245 -165Q285 -165 304.5 -155Q324 -145 324 -125Q324 -105 304.5 -94Q285 -83 250 -83Z" glyph-name="cedilla" horiz-adv-x="500" unicode="¸" /><glyph d="M327 1058 375 1033L273 848L225 873ZM481 1058 529 1033L427 848L379 873Z" glyph-name="hungarumlaut" horiz-adv-x="500" unicode="˝" /><glyph d="M488 1018 488 990Q488 933 457.5 902.5Q427 872 370 872Q314 872 284.5 902.5Q255 933 255 990V1018H300V993Q300 954 318 933Q336 912 370 912Q406 912 424.5 933Q443 954 443 993V1018Z" glyph-name="breve" horiz-adv-x="500" unicode="˘" /><glyph d="M233 975 511 975V918H233Z" glyph-name="macron" horiz-adv-x="500" unicode="¯" /><glyph d="M366 939Q366 912 349.5 896Q333 880 305 880Q279 880 263 896Q247 912 247 939Q247 967 263 984Q279 1001 305 1001Q333 1001 349.5 984Q366 967 366 939Z" glyph-name="dotaccent" horiz-adv-x="500" unicode="˙" /><glyph d="M468 386Q468 359 451.5 343Q435 327 407 327Q381 327 365 343Q349 359 349 386Q349 414 365 431Q381 448 407 448Q435 448 451.5 431Q468 414 468 386Z" glyph-name="periodcentered" horiz-adv-x="500" unicode="·" /><glyph d="M211 -128Q211 -145 225 -154.5Q239 -164 264 -164Q276 -164 289.5 -161.5Q303 -159 317 -155L325 -198Q310 -204 294 -207Q278 -210 263 -210Q217 -210 187.5 -188Q158 -166 158 -130Q158 -95 188 -64Q218 -33 284 4L352 42L375 0L303 -40Q250 -70 230.5 -88.5Q211 -107 211 -128Z" glyph-name="ogonek" horiz-adv-x="500" unicode="˛" /><glyph d="M260 -293 270 -57H329L312 -293Z" glyph-name="commaaccent" horiz-adv-x="500" unicode="" /><glyph d="M323 552 323 800H382L375 552Z" glyph-name="caron.alt" horiz-adv-x="500" unicode="" /><glyph d="M432 -59 432 -307H373L380 -59Z" glyph-name="revcommaaccent" horiz-adv-x="500" unicode="" /><glyph d="M199 47Q199 20 182.5 4Q166 -12 138 -12Q112 -12 96 4Q80 20 80 47Q80 75 96 92Q112 109 138 109Q166 109 182.5 92Q199 75 199 47Z" glyph-name="period" horiz-adv-x="279" unicode="." /><glyph d="M141 -12 140 -12Q116 -12 101 3Q86 18 86 43Q86 69 101 85.5Q116 102 140 102Q166 102 182 85.5Q198 69 198 43V-1L121 -161L81 -139Z" glyph-name="comma" horiz-adv-x="272" unicode="," /><glyph d="M199 447Q199 420 182.5 404Q166 388 138 388Q112 388 96 404Q80 420 80 447Q80 475 96 492Q112 509 138 509Q166 509 182.5 492Q199 475 199 447ZM199 47Q199 20 182.5 4Q166 -12 138 -12Q112 -12 96 4Q80 20 80 47Q80 75 96 92Q112 109 138 109Q166 109 182.5 92Q199 75 199 47Z" glyph-name="colon" horiz-adv-x="279" unicode=":" /><glyph d="M199 447Q199 420 182.5 404Q166 388 138 388Q112 388 96 404Q80 420 80 447Q80 475 96 492Q112 509 138 509Q166 509 182.5 492Q199 475 199 447ZM142 -12 141 -12Q117 -12 102 3Q87 18 87 43Q87 69 102 85.5Q117 102 141 102Q167 102 183 85.5Q199 69 199 43V-1L122 -161L82 -139Z" glyph-name="semicolon" horiz-adv-x="279" unicode=";" /><glyph d="M199 47Q199 20 182.5 4Q166 -12 138 -12Q112 -12 96 4Q80 20 80 47Q80 75 96 92Q112 109 138 109Q166 109 182.5 92Q199 75 199 47ZM388 47Q388 20 371.5 4Q355 -12 327 -12Q301 -12 285 4Q269 20 269 47Q269 75 285 92Q301 109 327 109Q355 109 371.5 92Q388 75 388 47ZM577 47Q577 20 560.5 4Q544 -12 516 -12Q490 -12 474 4Q458 20 458 47Q458 75 474 92Q490 109 516 109Q544 109 560.5 92Q577 75 577 47Z" glyph-name="ellipsis" horiz-adv-x="657" unicode="…" /><glyph d="M270 812Q366 812 420.5 754.5Q475 697 475 593Q475 491 426 431.5Q377 372 290 365L287 232H236V412H280Q349 412 387 459Q425 506 425 593Q425 675 384.5 719Q344 763 270 763Q197 763 156.5 714.5Q116 666 116 577V517H66V577Q66 687 120.5 749.5Q175 812 270 812ZM323 47Q323 20 306.5 4Q290 -12 262 -12Q236 -12 220 4Q204 20 204 47Q204 75 220 92Q236 109 262 109Q290 109 306.5 92Q323 75 323 47Z" glyph-name="question" horiz-adv-x="529" unicode="?" /><glyph d="M130 552 130 800H189V552L185 232H134ZM219 47Q219 20 202.5 4Q186 -12 158 -12Q132 -12 116 4Q100 20 100 47Q100 75 116 92Q132 109 158 109Q186 109 202.5 92Q219 75 219 47Z" glyph-name="exclam" horiz-adv-x="319" unicode="!" /><glyph d="M206 753Q206 780 222.5 796Q239 812 267 812Q293 812 309 796Q325 780 325 753Q325 725 309 708Q293 691 267 691Q239 691 222.5 708Q206 725 206 753ZM463 283 463 223Q463 113 408.5 50.5Q354 -12 259 -12Q163 -12 108.5 45.5Q54 103 54 207Q54 309 103 368.5Q152 428 239 435L242 568H293V388H249Q180 388 142 341Q104 294 104 207Q104 125 144.5 81Q185 37 259 37Q332 37 372.5 85.5Q413 134 413 223V283Z" glyph-name="questiondown" horiz-adv-x="529" unicode="¿" /><glyph d="M100 753Q100 780 116 796Q132 812 158 812Q186 812 202.5 796Q219 780 219 753Q219 725 202.5 708Q186 691 158 691Q132 691 116 708Q100 725 100 753ZM189 0 130 0V248L134 568H185L189 248Z" glyph-name="exclamdown" horiz-adv-x="319" unicode="¡" /><glyph d="M80 400Q80 601 154 730.5Q228 860 345 865V813Q254 805 196.5 691Q139 577 139 400Q139 221 196 108Q253 -5 345 -13V-65Q228 -60 154 69.5Q80 199 80 400Z" glyph-name="parenleft" horiz-adv-x="355" unicode="(" /><glyph d="M10 813 10 865Q127 860 201 730.5Q275 601 275 400Q275 199 201 69.5Q127 -60 10 -65V-13Q102 -5 159 108Q216 221 216 400Q216 577 158.5 691Q101 805 10 813Z" glyph-name="parenright" horiz-adv-x="355" unicode=")" /><glyph d="M198 632Q198 510 186 459Q174 408 140 400Q174 392 186 341Q198 290 198 168Q198 109 200 81Q202 53 206 37Q213 9 232.5 -1Q252 -11 314 -11V-65Q240 -65 206.5 -52.5Q173 -40 158 -8Q148 15 143.5 53Q139 91 139 168Q139 214 138.5 241Q138 268 136 287Q133 335 120.5 352.5Q108 370 75 370H50V430H75Q108 430 120.5 447.5Q133 465 136 513Q138 532 138.5 559Q139 586 139 632Q139 709 143.5 747Q148 785 158 808Q173 840 206.5 852.5Q240 865 314 865V811Q252 811 232.5 801Q213 791 206 763Q202 747 200 719Q198 691 198 632Z" glyph-name="braceleft" horiz-adv-x="324" unicode="{" /><glyph d="M126 168Q126 290 138 341Q150 392 184 400Q150 408 138 459Q126 510 126 632Q126 691 124 719Q122 747 118 763Q111 791 91.5 801Q72 811 10 811V865Q84 865 117.5 852.5Q151 840 166 808Q176 785 180.5 747Q185 709 185 632Q185 586 185.5 559Q186 532 188 513Q191 465 203.5 447.5Q216 430 249 430H274V370H249Q216 370 203.5 352.5Q191 335 188 287Q186 268 185.5 241Q185 214 185 168Q185 91 180.5 53Q176 15 166 -8Q151 -40 117.5 -52.5Q84 -65 10 -65V-11Q72 -11 91.5 -1Q111 9 118 37Q122 53 124 81Q126 109 126 168Z" glyph-name="braceright" horiz-adv-x="324" unicode="}" /><glyph d="M130 -100 130 900H309V844H190V-44H309V-100Z" glyph-name="bracketleft" horiz-adv-x="319" unicode="[" /><glyph d="M10 900 189 900V-100H10V-44H129V844H10Z" glyph-name="bracketright" horiz-adv-x="319" unicode="]" /><glyph d="M309 900 77 -100H10L242 900Z" glyph-name="slash" horiz-adv-x="319" unicode="/" /><glyph d="M10 900 77 900L309 -100H242Z" glyph-name="backslash" horiz-adv-x="319" unicode="\" /><glyph d="M410 -69 30 -69V-12H410Z" glyph-name="underscore" horiz-adv-x="440" unicode="_" /><glyph d="M400 354 40 354V411H400Z" glyph-name="hyphen" horiz-adv-x="440" unicode="-" /><glyph d="" glyph-name="uni00AD" horiz-adv-x="0" unicode="­" /><glyph d="M460 354 40 354V411H460Z" glyph-name="endash" horiz-adv-x="500" unicode="–" /><glyph d="M960 354 40 354V411H960Z" glyph-name="emdash" horiz-adv-x="1000" unicode="—" /><glyph d="M89 470 89 865H149V470ZM89 -65 89 330H149V-65Z" glyph-name="brokenbar" horiz-adv-x="238" unicode="¦" /><glyph d="M89 -65 89 865H149V-65Z" glyph-name="bar" horiz-adv-x="238" unicode="|" /><glyph d="M635 137 365 347V433L635 643L673 585L412 390L673 195ZM335 137 65 347V433L335 643L373 585L112 390L373 195Z" glyph-name="guillemotleft" horiz-adv-x="735" unicode="«" /><glyph d="M370 433 370 347L100 137L62 195L323 390L62 585L100 643ZM670 433 670 347L400 137L362 195L623 390L362 585L400 643Z" glyph-name="guillemotright" horiz-adv-x="735" unicode="»" /><glyph d="M405 137 65 347V433L405 643L438 585L112 390L438 195Z" glyph-name="guilsinglleft" horiz-adv-x="500" unicode="‹" /><glyph d="M435 433 435 347L95 137L62 195L388 390L62 585L95 643Z" glyph-name="guilsinglright" horiz-adv-x="500" unicode="›" /><glyph d="M141 -12 140 -12Q116 -12 101 3Q86 18 86 43Q86 69 101 85.5Q116 102 140 102Q166 102 182 85.5Q198 69 198 43V-1L121 -161L81 -139Z" glyph-name="quotesinglbase" horiz-adv-x="272" unicode="‚" /><glyph d="M141 -12 140 -12Q116 -12 101 3Q86 18 86 43Q86 69 101 85.5Q116 102 140 102Q166 102 182 85.5Q198 69 198 43V-1L121 -161L81 -139ZM311 -12 310 -12Q286 -12 271 3Q256 18 256 43Q256 69 271 85.5Q286 102 310 102Q336 102 352 85.5Q368 69 368 43V-1L291 -161L251 -139Z" glyph-name="quotedblbase" horiz-adv-x="442" unicode="„" /><glyph d="M131 662 132 662Q156 662 171 647Q186 632 186 607Q186 581 171 564.5Q156 548 132 548Q106 548 90 564.5Q74 581 74 607V651L151 811L191 789Z" glyph-name="quoteleft" horiz-adv-x="272" unicode="‘" /><glyph d="M301 662 302 662Q326 662 341 647Q356 632 356 607Q356 581 341 564.5Q326 548 302 548Q276 548 260 564.5Q244 581 244 607V651L321 811L361 789ZM131 662 132 662Q156 662 171 647Q186 632 186 607Q186 581 171 564.5Q156 548 132 548Q106 548 90 564.5Q74 581 74 607V651L151 811L191 789Z" glyph-name="quotedblleft" horiz-adv-x="442" unicode="“" /><glyph d="M141 698 140 698Q116 698 101 713Q86 728 86 753Q86 779 101 795.5Q116 812 140 812Q166 812 182 795.5Q198 779 198 753V709L121 549L81 571Z" glyph-name="quoteright" horiz-adv-x="272" unicode="’" /><glyph d="M141 698 140 698Q116 698 101 713Q86 728 86 753Q86 779 101 795.5Q116 812 140 812Q166 812 182 795.5Q198 779 198 753V709L121 549L81 571ZM311 698 310 698Q286 698 271 713Q256 728 256 753Q256 779 271 795.5Q286 812 310 812Q336 812 352 795.5Q368 779 368 753V709L291 549L251 571Z" glyph-name="quotedblright" horiz-adv-x="442" unicode="”" /><glyph d="M74 522 70 800H134L130 522Z" glyph-name="quotesingle" horiz-adv-x="204" unicode="'" /><glyph d="M74 522 70 800H134L130 522ZM214 522 210 800H274L270 522Z" glyph-name="quotedbl" horiz-adv-x="344" unicode="&quot;" /><glyph d="M289 386Q289 350 267 328.5Q245 307 208 307Q172 307 151 328.5Q130 350 130 386Q130 423 151.5 445.5Q173 468 208 468Q245 468 267 445.5Q289 423 289 386Z" glyph-name="bullet" horiz-adv-x="419" unicode="•" /><glyph d="M271 -10Q187 -10 131 45Q75 100 75 181Q75 244 112.5 305Q150 366 221 418Q165 489 144 535Q123 581 123 627Q123 710 173.5 760Q224 810 307 810Q384 810 432.5 763Q481 716 481 642Q481 579 449 530Q417 481 346 435L302 407Q319 386 334.5 366.5Q350 347 366 328L458 214Q464 228 469 243.5Q474 259 479 276L514 399H572L534 261Q527 236 518.5 212Q510 188 499 164L631 0H555L468 109Q430 50 380 20Q330 -10 271 -10ZM307 752Q253 752 219 717.5Q185 683 185 627Q185 592 204 551.5Q223 511 268 450L314 479Q367 512 393 552.5Q419 593 419 642Q419 691 388 721.5Q357 752 307 752ZM256 374Q199 331 168 281.5Q137 232 137 181Q137 124 175 86Q213 48 271 48Q320 48 360 75Q400 102 431 156L320 295Q314 303 306.5 312Q299 321 285 338Q273 353 267 360.5Q261 368 256 374Z" glyph-name="ampersand" horiz-adv-x="658" unicode="&amp;" /><glyph d="M40 625Q40 709 85 754.5Q130 800 213 800H295V0H235V450H213Q130 450 85 495Q40 540 40 625ZM475 0 475 800H535V0Z" glyph-name="paragraph" horiz-adv-x="624" unicode="¶" /><glyph d="M192 581 192 800H252V581L404 577V526L252 522L248 0H196L192 522L40 526V577Z" glyph-name="dagger" horiz-adv-x="444" unicode="†" /><glyph d="M192 601 192 800H252V601L404 597V546L252 542L250 258L404 254V203L250 199V0H194V199L40 203V254L194 258L192 542L40 546V597Z" glyph-name="daggerdbl" horiz-adv-x="444" unicode="‡" /><glyph d="M478 114Q515 88 533 54Q551 20 551 -25Q551 -109 484.5 -160.5Q418 -212 312 -212Q200 -212 131.5 -151.5Q63 -91 63 10V50H123V10Q123 -66 174.5 -110.5Q226 -155 313 -155Q389 -155 440 -118.5Q491 -82 491 -27Q491 7 475.5 33Q460 59 427 80Q409 91 384.5 102Q360 113 306 132Q241 155 210.5 169Q180 183 159 199Q123 225 105.5 259.5Q88 294 88 338Q88 377 102 412Q116 447 142 475Q107 502 90 536Q73 570 73 613Q73 701 140 756.5Q207 812 311 812Q423 812 492 751Q561 690 561 590V550H501V590Q501 665 448.5 710Q396 755 310 755Q235 755 184 715Q133 675 133 615Q133 580 148.5 553.5Q164 527 197 506Q215 494 240 483Q265 472 320 453Q385 431 415 417Q445 403 466 387Q502 361 519 327.5Q536 294 536 250Q536 211 521.5 176.5Q507 142 478 114ZM194 445Q172 423 160 396Q148 369 148 340Q148 296 173 265Q198 234 254 209Q279 198 337.5 177.5Q396 157 424 144Q449 165 462.5 192Q476 219 476 248Q476 291 450.5 322Q425 353 366 378Q343 388 283.5 409Q224 430 194 445Z" glyph-name="section" horiz-adv-x="624" unicode="§" /><glyph d="M74 489 25 519L96 635L3 650L11 704L114 686V800H170V686L273 704L281 650L187 635L260 519L212 489L142 608Z" glyph-name="asterisk" horiz-adv-x="284" unicode="*" /><glyph d="M160 740 40 740V800H340V740H220V440H160ZM409 440 409 800H770V440H710V740H618V440H558V740H469V440Z" glyph-name="trademark" horiz-adv-x="810" unicode="™" /><glyph d="M451 -12Q281 -12 165.5 106.5Q50 225 50 400Q50 575 165.5 693.5Q281 812 451 812Q621 812 736.5 693.5Q852 575 852 400Q852 225 736.5 106.5Q621 -12 451 -12ZM118 400Q118 249 212 151Q306 53 451 53Q595 53 689.5 151.5Q784 250 784 400Q784 550 689.5 648.5Q595 747 451 747Q307 747 212.5 648.5Q118 550 118 400ZM363 191 303 191V601H533V376H612V191H552V319H363ZM363 544 363 376H473V544Z" glyph-name="registered" horiz-adv-x="902" unicode="®" /><glyph d="M451 -12Q281 -12 165.5 106.5Q50 225 50 400Q50 575 165.5 693.5Q281 812 451 812Q621 812 736.5 693.5Q852 575 852 400Q852 225 736.5 106.5Q621 -12 451 -12ZM118 400Q118 249 212 151Q306 53 451 53Q595 53 689.5 151.5Q784 250 784 400Q784 550 689.5 648.5Q595 747 451 747Q307 747 212.5 648.5Q118 550 118 400ZM591 191 298 191V601H594V544H358V248H591Z" glyph-name="copyright" horiz-adv-x="902" unicode="©" /><glyph d="M436 188Q357 188 303.5 248.5Q250 309 250 398Q250 486 304 546.5Q358 607 436 607Q473 607 505 591.5Q537 576 561 548V595H629V326Q629 293 648 271Q667 249 695 249Q737 249 760.5 291.5Q784 334 784 410Q784 559 693 653Q602 747 460 747Q310 747 214 650Q118 553 118 402Q118 257 204 161Q290 65 421 65H629V0H421Q265 0 157.5 116.5Q50 233 50 402Q50 578 167.5 695Q285 812 460 812Q629 812 740.5 698Q852 584 852 410Q852 308 809.5 248Q767 188 695 188Q654 188 622.5 209Q591 230 576 267Q551 229 514.5 208.5Q478 188 436 188ZM318 398Q318 335 352 294Q386 253 439 253Q492 253 526.5 294Q561 335 561 398Q561 460 526 501Q491 542 439 542Q387 542 352.5 501Q318 460 318 398Z" glyph-name="at" horiz-adv-x="902" unicode="@" /><glyph d="M404 440 346 440V486Q322 460 290.5 446.5Q259 433 224 433Q148 433 96.5 487.5Q45 542 45 623Q45 703 96.5 757.5Q148 812 224 812Q259 812 290.5 798.5Q322 785 346 759V800H404ZM103 623Q103 564 137.5 526Q172 488 224 488Q277 488 311.5 526.5Q346 565 346 623Q346 681 311.5 719Q277 757 224 757Q172 757 137.5 719Q103 681 103 623Z" glyph-name="ordfeminine" horiz-adv-x="469" unicode="ª" /><glyph d="M229 433Q151 433 98 487.5Q45 542 45 623Q45 703 98 757.5Q151 812 229 812Q308 812 361 757.5Q414 703 414 623Q414 542 361 487.5Q308 433 229 433ZM103 623Q103 564 138.5 526Q174 488 229 488Q284 488 320 526.5Q356 565 356 623Q356 681 320 719Q284 757 229 757Q174 757 138.5 719Q103 681 103 623Z" glyph-name="ordmasculine" horiz-adv-x="459" unicode="º" /><glyph d="M152 0 85 0L126 242H20V299H135L170 501H56V558H179L220 800H287L246 558H469L510 800H577L536 558H646V501H527L492 299H610V242H483L442 0H375L416 242H193ZM237 501 202 299H425L460 501Z" glyph-name="numbersign" horiz-adv-x="666" unicode="#" /><glyph d="M168 272 59 272V329H155Q152 346 150.5 364Q149 382 149 400Q149 418 150.5 436Q152 454 155 471H55V528H168Q206 652 309.5 726Q413 800 550 800H668V743H560Q442 743 356.5 686Q271 629 237 528H565V471H223Q220 454 218.5 436Q217 418 217 400Q217 382 218.5 364Q220 346 223 329H569V272H237Q271 171 356.5 114Q442 57 560 57H668V0H550Q413 0 309.5 74Q206 148 168 272Z" glyph-name="Euro" horiz-adv-x="718" unicode="€" /><glyph d="M283 811 283 865H343V810Q442 801 501.5 735.5Q561 670 561 570V530H501V570Q501 645 458.5 694Q416 743 343 753V412Q402 391 433.5 374.5Q465 358 487 339Q520 311 535.5 275.5Q551 240 551 195Q551 109 494 53.5Q437 -2 343 -11V-65H283V-11Q182 -2 122.5 63Q63 128 63 230V270H123V230Q123 153 166 104.5Q209 56 283 47V372Q160 418 116.5 468Q73 518 73 593Q73 683 131 743Q189 803 283 811ZM133 595Q133 541 166.5 503.5Q200 466 283 435V753Q217 745 175 701Q133 657 133 595ZM491 193Q491 245 458.5 281Q426 317 343 350V47Q408 55 449.5 96Q491 137 491 193Z" glyph-name="dollar" horiz-adv-x="624" unicode="$" /><glyph d="M69 134 69 191H306V333H69V390H129V800H189V390H494V800H554V390H604V333H366V191H604V134H366V0H306V134Z" glyph-name="yen" horiz-adv-x="673" unicode="¥" /><glyph d="M69 290 69 347H162V584Q162 686 220.5 749Q279 812 372 812Q465 812 522.5 745.5Q580 679 580 570V530H520V570Q520 654 479 704.5Q438 755 371 755Q306 755 264 708Q222 661 222 588V347H491V290H222V188Q222 148 209.5 115Q197 82 173 57H556V0H42V57Q95 57 128.5 94Q162 131 162 188V290Z" glyph-name="sterling" horiz-adv-x="625" unicode="£" /><glyph d="M225 354 174 354L545 47L505 -4L80 354V411H223Q302 411 350.5 445.5Q399 480 409 544H84V601H411Q403 669 354 706Q305 743 223 743H80V800H590V743H396Q429 718 448 682Q467 646 471 601H594V544H470Q459 454 395 404Q331 354 225 354Z" glyph-name="uni20B9" horiz-adv-x="644" unicode="₹" /><glyph d="M274 140 89 140V660H274V800H334V660H495V603H334V197H492V140H334V0H274ZM149 603 149 197H274V603Z" glyph-name="cent" horiz-adv-x="545" unicode="¢" /><glyph d="M273 410 273 -74Q273 -134 236.5 -173Q200 -212 143 -212Q86 -212 50.5 -173Q15 -134 15 -74V-40H75V-74Q75 -109 94 -132Q113 -155 144 -155Q175 -155 194 -132Q213 -109 213 -74V410H72V467H213V674Q213 734 249.5 773Q286 812 343 812Q400 812 435.5 773Q471 734 471 674V600H411V674Q411 709 392 732Q373 755 342 755Q311 755 292 732Q273 709 273 674V467H438V410Z" glyph-name="florin" horiz-adv-x="501" unicode="ƒ" /><glyph d="M155 246 81 172L45 213L118 286Q102 310 93.5 338Q85 366 85 397Q85 428 94 457Q103 486 120 510L45 586L82 626L158 550Q182 568 210 577Q238 586 269 586Q300 586 328 576.5Q356 567 381 549L457 626L494 586L419 511Q436 486 445 457Q454 428 454 397Q454 366 445.5 338Q437 310 421 286L494 213L458 172L384 246Q360 227 331 217Q302 207 269 207Q237 207 208 217Q179 227 155 246ZM143 397Q143 338 178.5 300Q214 262 269 262Q324 262 360 300.5Q396 339 396 397Q396 455 360 493Q324 531 269 531Q214 531 178.5 493Q143 455 143 397Z" glyph-name="currency" horiz-adv-x="539" unicode="¤" /><glyph d="M339 812Q456 812 530 740Q604 668 604 555V245Q604 132 530 60Q456 -12 339 -12Q222 -12 147.5 60Q73 132 73 245V555Q73 668 147 740Q221 812 339 812ZM339 98Q404 98 445.5 140.5Q487 183 487 249V551Q487 617 445.5 659.5Q404 702 339 702Q275 702 232.5 659Q190 616 190 551V249Q190 184 232.5 141Q275 98 339 98Z" glyph-name="zero" horiz-adv-x="677" unicode="0" /><glyph d="M380 0 260 0V571H41V687H260V800H380Z" glyph-name="one" horiz-adv-x="469" unicode="1" /><glyph d="M182 519 66 519V582Q66 685 129 748.5Q192 812 293 812Q390 812 453 751.5Q516 691 516 594Q516 535 490 469Q464 403 407 316L274 116H524V0H57L315 393Q357 454 377.5 503Q398 552 398 593Q398 643 368 673Q338 703 291 703Q242 703 212 668.5Q182 634 182 576Z" glyph-name="two" horiz-adv-x="576" unicode="2" /><glyph d="M582 0 72 0V116H462V329H120V445H372V684H72V800H492V445H582Z" glyph-name="three" horiz-adv-x="658" unicode="3" /><glyph d="M441 230 311 230Q196 230 132 290Q68 350 68 457V800H188V462Q188 407 221.5 377Q255 347 317 347H441V700H561V0H441Z" glyph-name="four" horiz-adv-x="642" unicode="4" /><glyph d="M576 0 73 0V116H456V342H94V800H540V684H215V458H576Z" glyph-name="five" horiz-adv-x="657" unicode="5" /><glyph d="M344 511Q447 511 520 435Q593 359 593 251Q593 140 516.5 64Q440 -12 328 -12Q218 -12 143 65Q68 142 68 254V412Q68 570 141 670Q214 770 341 789L478 812L499 703L354 677Q274 664 228 600.5Q182 537 178 434Q209 471 252 491Q295 511 344 511ZM331 95Q393 95 436 140Q479 185 479 251Q479 316 436.5 359.5Q394 403 331 403Q269 403 225.5 358.5Q182 314 182 251Q182 184 225 139.5Q268 95 331 95Z" glyph-name="six" horiz-adv-x="624" unicode="6" /><glyph d="M35 684 35 800H481V0H360V684Z" glyph-name="seven" horiz-adv-x="570" unicode="7" /><glyph d="M626 0 86 0V427H154V800H559V427H626ZM444 689 269 689V427H444ZM202 316 202 111H511V316Z" glyph-name="eight" horiz-adv-x="713" unicode="8" /><glyph d="M283 278Q179 278 105 355.5Q31 433 31 543Q31 657 108.5 734.5Q186 812 299 812Q410 812 486.5 733.5Q563 655 563 540V388Q563 230 489 130Q415 30 286 11L149 -12L128 98L274 123Q353 135 399.5 197Q446 259 453 359Q422 320 378 299Q334 278 283 278ZM296 705Q233 705 189.5 658Q146 611 146 543Q146 476 189.5 430.5Q233 385 296 385Q359 385 403.5 431Q448 477 448 543Q448 612 404 658.5Q360 705 296 705Z" glyph-name="nine" horiz-adv-x="630" unicode="9" /><glyph d="M89 805 609 805V-5H89ZM209 111 489 111V689H209Z" glyph-name="zero.alt1" horiz-adv-x="698" unicode="" /><glyph d="M123 684 29 684V800H129Q232 800 290.5 743.5Q349 687 349 585V0H229V578Q229 630 201.5 657Q174 684 123 684Z" glyph-name="one.alt1" horiz-adv-x="434" unicode="" /><glyph d="M600 0 85 0V458H458V684H107V800H579V342H205V116H600Z" glyph-name="two.alt1" horiz-adv-x="659" unicode="" /><glyph d="M542 221Q542 117 472 58Q402 -1 279 0H65V113H279Q348 113 384.5 143Q421 173 421 231Q421 288 384.5 318Q348 348 279 348H118V460H246Q308 460 340.5 490Q373 520 373 578Q373 631 340.5 659Q308 687 246 687H65V800H247Q363 800 428 743Q493 686 493 586Q493 526 469 482Q445 438 399 412Q470 390 506 342Q542 294 542 221Z" glyph-name="three.alt1" horiz-adv-x="590" unicode="" /><glyph d="M468 231 80 231V800H200V347H468V700H588V0H468Z" glyph-name="four.alt1" horiz-adv-x="677" unicode="" /><glyph d="M318 396Q275 395 236.5 372Q198 349 176 310H71V800H478V682H184V448Q213 475 254.5 491Q296 507 338 507Q439 507 506.5 436Q574 365 574 260Q574 149 499 74.5Q424 0 313 0H71V110H309Q369 110 411.5 153.5Q454 197 454 260Q454 320 416 359Q378 398 318 396Z" glyph-name="five.alt1" horiz-adv-x="595" unicode="" /><glyph d="M603 0 89 0V800H532V684H209V454H603ZM205 343 205 112H487V343Z" glyph-name="six.alt1" horiz-adv-x="676" unicode="" /><glyph d="M235 0 93 0L400 683H39V800H522V673Z" glyph-name="seven.alt1" horiz-adv-x="539" unicode="" /><glyph d="M315 -11Q205 -11 129.5 61Q54 133 54 238Q54 302 86.5 356Q119 410 177 441Q137 469 115.5 510Q94 551 94 598Q94 688 157.5 749.5Q221 811 314 811Q407 811 470.5 749.5Q534 688 534 598Q534 551 512.5 510Q491 469 452 441Q510 409 542.5 355.5Q575 302 575 238Q575 133 499.5 61Q424 -11 315 -11ZM314 487Q360 487 392.5 520Q425 553 425 599Q425 644 392.5 676.5Q360 709 314 709Q268 709 236 677Q204 645 204 599Q204 552 236 519.5Q268 487 314 487ZM315 97Q375 97 416.5 137.5Q458 178 458 237Q458 296 416.5 336.5Q375 377 315 377Q254 377 213 336.5Q172 296 172 237Q172 178 213 137.5Q254 97 315 97Z" glyph-name="eight.alt1" horiz-adv-x="629" unicode="" /><glyph d="M74 800 588 800V0H145V116H468V322H74ZM190 688 190 434H472V688Z" glyph-name="nine.alt1" horiz-adv-x="676" unicode="" /><glyph d="M229 433Q151 433 98 487.5Q45 542 45 623Q45 703 98 757.5Q151 812 229 812Q308 812 361 757.5Q414 703 414 623Q414 542 361 487.5Q308 433 229 433ZM103 623Q103 564 138.5 526Q174 488 229 488Q284 488 320 526.5Q356 565 356 623Q356 681 320 719Q284 757 229 757Q174 757 138.5 719Q103 681 103 623Z" glyph-name="degree" horiz-adv-x="459" unicode="°" /><glyph d="M229 433Q151 433 98 487.5Q45 542 45 623Q45 703 98 757.5Q151 812 229 812Q308 812 361 757.5Q414 703 414 623Q414 542 361 487.5Q308 433 229 433ZM366 0 299 0L645 800H712ZM103 623Q103 564 138.5 526Q174 488 229 488Q284 488 320 526.5Q356 565 356 623Q356 681 320 719Q284 757 229 757Q174 757 138.5 719Q103 681 103 623ZM781 -7Q703 -7 650 47.5Q597 102 597 183Q597 263 650 317.5Q703 372 781 372Q860 372 913 317.5Q966 263 966 183Q966 102 913 47.5Q860 -7 781 -7ZM655 183Q655 124 690.5 86Q726 48 781 48Q836 48 872 86.5Q908 125 908 183Q908 241 872 279Q836 317 781 317Q726 317 690.5 279Q655 241 655 183Z" glyph-name="percent" horiz-adv-x="1011" unicode="%" /><glyph d="M229 433Q151 433 98 487.5Q45 542 45 623Q45 703 98 757.5Q151 812 229 812Q308 812 361 757.5Q414 703 414 623Q414 542 361 487.5Q308 433 229 433ZM366 0 299 0L645 800H712ZM103 623Q103 564 138.5 526Q174 488 229 488Q284 488 320 526.5Q356 565 356 623Q356 681 320 719Q284 757 229 757Q174 757 138.5 719Q103 681 103 623ZM1230 -7Q1152 -7 1099 47.5Q1046 102 1046 183Q1046 263 1099 317.5Q1152 372 1230 372Q1309 372 1362 317.5Q1415 263 1415 183Q1415 102 1362 47.5Q1309 -7 1230 -7ZM781 -7Q703 -7 650 47.5Q597 102 597 183Q597 263 650 317.5Q703 372 781 372Q860 372 913 317.5Q966 263 966 183Q966 102 913 47.5Q860 -7 781 -7ZM1104 183Q1104 124 1139.5 86Q1175 48 1230 48Q1285 48 1321 86.5Q1357 125 1357 183Q1357 241 1321 279Q1285 317 1230 317Q1175 317 1139.5 279Q1104 241 1104 183ZM655 183Q655 124 690.5 86Q726 48 781 48Q836 48 872 86.5Q908 125 908 183Q908 241 872 279Q836 317 781 317Q726 317 690.5 279Q655 241 655 183Z" glyph-name="perthousand" horiz-adv-x="1460" unicode="‰" /><glyph d="M17 0 -50 0L296 800H363Z" glyph-name="fraction" horiz-adv-x="313" unicode="⁄" /><glyph d="M17 0 -50 0L296 800H363Z" glyph-name="uni2215" horiz-adv-x="313" unicode="∕" /><glyph d="M229 433Q151 433 98 487.5Q45 542 45 623Q45 703 98 757.5Q151 812 229 812Q308 812 361 757.5Q414 703 414 623Q414 542 361 487.5Q308 433 229 433ZM103 623Q103 564 138.5 526Q174 488 229 488Q284 488 320 526.5Q356 565 356 623Q356 681 320 719Q284 757 229 757Q174 757 138.5 719Q103 681 103 623Z" glyph-name="zerosuperior" horiz-adv-x="459" unicode="⁰" /><glyph d="M222 440 162 440V671H20V728H162V800H222Z" glyph-name="onesuperior" horiz-adv-x="302" unicode="¹" /><glyph d="M356 440 60 440V648H283V743H80V800H343V591H120V497H356Z" glyph-name="twosuperior" horiz-adv-x="413" unicode="²" /><glyph d="M338 440 38 440V497H278V591H85V648H221V743H38V800H281V648H338Z" glyph-name="threesuperior" horiz-adv-x="391" unicode="³" /><glyph d="M320 440 260 440V536H60V800H120V593H260V800H320Z" glyph-name="foursuperior" horiz-adv-x="400" unicode="⁴" /><glyph d="M222 440 162 440V671H20V728H162V800H222ZM229 0 162 0L508 800H575ZM791 0 495 0V208H718V303H515V360H778V151H555V57H791Z" glyph-name="onehalf" horiz-adv-x="848" unicode="½" /><glyph d="M222 440 162 440V671H20V728H162V800H222ZM229 0 162 0L508 800H575ZM695 96 495 96V360H555V153H695V360H755V0H695Z" glyph-name="onequarter" horiz-adv-x="836" unicode="¼" /><glyph d="M338 440 38 440V497H278V591H85V648H221V743H38V800H281V648H338ZM318 0 251 0L597 800H664ZM783 96 583 96V360H643V153H783V360H843V0H783Z" glyph-name="threequarters" horiz-adv-x="924" unicode="¾" /><glyph d="M220 350 30 350V410H220V610H280V410H470V350H280V150H220Z" glyph-name="plus" horiz-adv-x="500" unicode="+" /><glyph d="M460 350 40 350V410H460Z" glyph-name="minus" horiz-adv-x="500" unicode="−" /><glyph d="M250 337 102 189L59 232L207 380L59 528L102 571L250 423L398 571L441 528L293 380L441 232L398 189Z" glyph-name="multiply" horiz-adv-x="500" unicode="×" /><glyph d="M309 586Q309 559 292.5 543Q276 527 248 527Q222 527 206 543Q190 559 190 586Q190 614 206 631Q222 648 248 648Q276 648 292.5 631Q309 614 309 586ZM470 350 30 350V410H470ZM309 186Q309 159 292.5 143Q276 127 248 127Q222 127 206 143Q190 159 190 186Q190 214 206 231Q222 248 248 248Q276 248 292.5 231Q309 214 309 186Z" glyph-name="divide" horiz-adv-x="500" unicode="÷" /><glyph d="M460 470 40 470V530H460ZM460 230 40 230V290H460Z" glyph-name="equal" horiz-adv-x="500" unicode="=" /><glyph d="M394 420 22 420V480H454V220H394Z" glyph-name="logicalnot" horiz-adv-x="500" unicode="¬" /><glyph d="M180 410Q193 410 209.5 407Q226 404 262 395Q297 386 313.5 383Q330 380 342 380Q369 380 393 393.5Q417 407 443 437L481 399Q448 358 414 339Q380 320 342 320Q327 320 308.5 323Q290 326 253 336Q220 345 205.5 347.5Q191 350 180 350Q153 350 129 336.5Q105 323 79 293L41 331Q74 372 108 391Q142 410 180 410Z" glyph-name="asciitilde" horiz-adv-x="500" unicode="~" /><glyph d="M172 380 408 179L364 127L71 383L364 632L408 579Z" glyph-name="less" horiz-adv-x="500" unicode="&lt;" /><glyph d="M136 127 92 179L328 380L92 579L136 632L429 383Z" glyph-name="greater" horiz-adv-x="500" unicode="&gt;" /><glyph d="M220 350 30 350V410H220V610H280V410H470V350H280V150H220ZM470 0 30 0V60H470Z" glyph-name="plusminus" horiz-adv-x="500" unicode="±" /><glyph d="M57 459 207 799H285L435 459L381 434L246 750L111 434Z" glyph-name="asciicircum" horiz-adv-x="500" unicode="^" /><glyph d="M252 230 214 68H147L185 230H40V290H199L240 470H40V530H254L292 692H359L321 530H460V470H307L266 290H460V230Z" glyph-name="notequal" horiz-adv-x="500" unicode="≠" /><glyph d="M180 530Q193 530 209.5 527Q226 524 262 515Q297 506 313.5 503Q330 500 342 500Q369 500 393 513.5Q417 527 443 557L481 519Q448 478 414 459Q380 440 342 440Q327 440 308.5 443Q290 446 253 456Q220 465 205.5 467.5Q191 470 180 470Q153 470 129 456.5Q105 443 79 413L41 451Q74 492 108 511Q142 530 180 530ZM180 320Q193 320 209.5 317Q226 314 262 305Q297 296 313.5 293Q330 290 342 290Q369 290 393 303.5Q417 317 443 347L481 309Q448 268 414 249Q380 230 342 230Q327 230 308.5 233Q290 236 253 246Q220 255 205.5 257.5Q191 260 180 260Q153 260 129 246.5Q105 233 79 203L41 241Q74 282 108 301Q142 320 180 320Z" glyph-name="approxequal" horiz-adv-x="500" unicode="≈" /><glyph d="M162 410 398 209L354 157L61 413L354 662L398 609ZM462 0 30 0V60H462Z" glyph-name="lessequal" horiz-adv-x="500" unicode="≤" /><glyph d="M146 157 102 209L338 410L102 609L146 662L439 413ZM470 60 470 0H38V60Z" glyph-name="greaterequal" horiz-adv-x="500" unicode="≥" /><glyph d="M483 401Q483 349 452.5 315.5Q422 282 373 282Q340 282 308 301Q276 320 249 357Q222 320 191 301Q160 282 127 282Q82 282 49.5 317Q17 352 17 401Q17 451 48.5 485Q80 519 127 519Q159 519 189.5 499Q220 479 252 436Q283 480 311.5 499.5Q340 519 374 519Q420 519 451.5 485Q483 451 483 401ZM69 401Q69 371 85 350.5Q101 330 127 330Q154 330 180.5 348.5Q207 367 224 397Q206 431 180 451Q154 471 127 471Q101 471 85 451.5Q69 432 69 401ZM277 397Q295 366 321 348Q347 330 373 330Q399 330 415 350Q431 370 431 401Q431 431 415 451Q399 471 373 471Q346 471 320.5 451.5Q295 432 277 397Z" glyph-name="infinity" horiz-adv-x="500" unicode="∞" /><glyph d="M378 800 632 400L378 0H295L40 400L295 800ZM336 37 565 400L336 763L107 400Z" glyph-name="lozenge" horiz-adv-x="674" unicode="◊" /><glyph d="M181 31 366 800H505V744H410L231 0H128L0 411H63Z" glyph-name="radical" horiz-adv-x="510" unicode="√" /><glyph d="M227 625 227 -18Q227 -102 192.5 -151Q158 -200 102 -200Q78 -200 54.5 -191Q31 -182 10 -165L39 -120Q54 -130 69.5 -135.5Q85 -141 99 -141Q131 -141 149 -107.5Q167 -74 167 -13V630Q167 714 201.5 763Q236 812 292 812Q316 812 339.5 803Q363 794 384 777L355 732Q340 742 324.5 747.5Q309 753 295 753Q263 753 245 719.5Q227 686 227 625Z" glyph-name="integral" horiz-adv-x="394" unicode="∫" /><glyph d="M479 214Q479 119 412 52Q345 -15 251 -15Q157 -15 89.5 52.5Q22 120 22 214Q22 309 89.5 376Q157 443 251 443Q283 443 314 433.5Q345 424 371 406L216 760H280L383 525Q432 413 455.5 336.5Q479 260 479 214ZM82 214Q82 143 131 93.5Q180 44 251 44Q322 44 370.5 93Q419 142 419 214Q419 286 370.5 335Q322 384 251 384Q180 384 131 334.5Q82 285 82 214Z" glyph-name="partialdiff" horiz-adv-x="499" unicode="∂" /><glyph d="M89 -75 89 800H609V-75H549V747H149V-75Z" glyph-name="product" horiz-adv-x="698" unicode="∏" /><glyph d="M201 0 141 0V498H9V550H696V498H565V175Q565 114 583 80.5Q601 47 633 47Q647 47 662.5 52.5Q678 58 693 68L722 23Q702 6 677.5 -3Q653 -12 628 -12Q573 -12 539 37Q505 86 505 170V498H201Z" glyph-name="pi" horiz-adv-x="715" unicode="π" /><glyph d="M104 62 104 -200H52V550H112V194Q112 128 153.5 86.5Q195 45 261 45Q327 45 369 86.5Q411 128 411 194V550H471V182Q471 99 485.5 72Q500 45 536 45Q553 45 569.5 50Q586 55 601 64L618 11Q600 0 579.5 -6Q559 -12 536 -12Q491 -12 466 8Q441 28 430 72Q400 32 355.5 10Q311 -12 261 -12Q214 -12 172.5 7.5Q131 27 104 62Z" glyph-name="mu" horiz-adv-x="623" unicode="μ" /><glyph d="M96 -17 510 -17V-74H7V-17H8L301 345L8 743H7V800H510V743H93L385 344Z" glyph-name="summation" horiz-adv-x="515" unicode="∑" /><glyph d="M296 0 53 0V57H236V112Q140 139 85 225.5Q30 312 30 437Q30 607 131.5 709.5Q233 812 400 812Q567 812 668 709Q769 606 769 437Q769 314 714 227Q659 140 564 113V57H746V0H503V160Q596 164 653 240Q710 316 710 437Q710 581 625 668Q540 755 400 755Q260 755 175 668Q90 581 90 437Q90 316 146.5 240Q203 164 296 160Z" glyph-name="Omega" horiz-adv-x="799" unicode="Ω" /><glyph d="M296 0 53 0V57H236V112Q140 139 85 225.5Q30 312 30 437Q30 607 131.5 709.5Q233 812 400 812Q567 812 668 709Q769 606 769 437Q769 314 714 227Q659 140 564 113V57H746V0H503V160Q596 164 653 240Q710 316 710 437Q710 581 625 668Q540 755 400 755Q260 755 175 668Q90 581 90 437Q90 316 146.5 240Q203 164 296 160Z" glyph-name="uni03A9" horiz-adv-x="799" unicode="" /><glyph d="M750 38 750 0H10V38L353 800H397ZM376 702 86 57H673Z" glyph-name="Delta" horiz-adv-x="760" unicode="Δ" /><glyph d="M750 38 750 0H10V38L353 800H397ZM376 702 86 57H673Z" glyph-name="uni0394" horiz-adv-x="760" unicode="" /><glyph d="M74 230 43 205L9 250L74 302V669Q74 733 109.5 772Q145 811 204 811Q268 811 301 765.5Q334 720 334 635Q334 538 288 452Q242 366 152 293L134 278V139Q134 96 151 71.5Q168 47 199 47Q233 47 252.5 71.5Q272 96 272 139V159H328V132Q328 66 293.5 28Q259 -10 199 -10Q141 -10 107.5 29Q74 68 74 132ZM204 754Q171 754 152.5 729.5Q134 705 134 662V351Q203 411 238.5 482.5Q274 554 274 635Q274 696 256.5 725Q239 754 204 754Z" glyph-name="uni2113" horiz-adv-x="357" unicode="ℓ" /><glyph d="M667 264 667 257H171Q169 257 168 256Q167 255 167 254V104Q167 99 168.5 94.5Q170 90 174 86Q211 48 260 27Q309 6 362 6Q419 6 470 29.5Q521 53 559 96H603Q560 46 496 17.5Q432 -11 361 -11Q234 -11 144.5 69.5Q55 150 55 264Q55 379 144.5 460Q234 541 361 541Q488 541 577.5 460Q667 379 667 264ZM555 276 555 427Q555 433 553 437.5Q551 442 547 446Q510 484 462.5 504Q415 524 362 524Q309 524 260 503Q211 482 175 443Q171 440 169 435Q167 430 167 424V276Q167 275 168.5 273.5Q170 272 171 272H552Q553 272 554 273Q555 274 555 276Z" glyph-name="estimated" horiz-adv-x="722" unicode="℮" /></font>
</defs>
</svg>
