<?xml version="1.0" standalone="no"?>
<!DOCTYPE svg
  PUBLIC '-//W3C//DTD SVG 1.1//EN'
  'http://www.w3.org/Graphics/SVG/1.1/DTD/svg11.dtd'><svg version="1.1" xmlns="http://www.w3.org/2000/svg"><defs><font horiz-adv-x="0" id="font"><font-face ascent="750" bbox="-50 -322 1415 1058" cap-height="800" descent="-250" font-family="Bendicion Extrabold" font-stretch="normal" font-style="normal" font-weight="800" units-per-em="1000" x-height="800" /><missing-glyph d="M717 0 89 0V800H717ZM289 606 289 194H517V606Z" horiz-adv-x="806" /><glyph d="" glyph-name=".null" horiz-adv-x="0" unicode="" /><glyph d="" glyph-name="CR" horiz-adv-x="0" unicode="" /><glyph d="" glyph-name="space" horiz-adv-x="300" unicode=" " /><glyph d="" glyph-name="uni00A0" horiz-adv-x="300" unicode=" " /><glyph d="M418 -12Q253 -12 150 101Q47 214 47 400Q47 582 150 697Q253 812 414 812Q480 812 533 794Q586 776 624 741V800H824V1H624V58Q586 23 534.5 5.5Q483 -12 418 -12ZM264 400Q264 302 311 243.5Q358 185 435 185Q512 185 559 243.5Q606 302 606 400Q606 498 559 556.5Q512 615 435 615Q358 615 311 556.5Q264 498 264 400Z" glyph-name="A" horiz-adv-x="913" unicode="A" /><glyph d="M759 0 82 0V800H579V462H759ZM262 621 262 462H399V621ZM579 179 579 283H262V179Z" glyph-name="B" horiz-adv-x="814" unicode="B" /><glyph d="M40 400Q40 574 145 687Q250 800 411 800H621V600H421Q349 600 303 544Q257 488 257 400Q257 313 303.5 256.5Q350 200 421 200H618V0H411Q250 0 145 113Q40 226 40 400Z" glyph-name="C" horiz-adv-x="670" unicode="C" /><glyph d="M616 0 89 0V648L65 674L216 822L789 192ZM279 441 279 190H510Z" glyph-name="D" horiz-adv-x="789" unicode="D" /><glyph d="M289 194 629 194V0H89V515Q89 650 170 731Q251 812 389 812Q524 812 603.5 731Q683 650 683 515V285H289ZM389 615Q339 615 314 587.5Q289 560 289 505V461H489V505Q489 560 464 587.5Q439 615 389 615Z" glyph-name="E" horiz-adv-x="748" unicode="E" /><glyph d="M289 0 89 0V223L53 397L89 403V800H547V600H289V438L494 474L529 283L289 242Z" glyph-name="F" horiz-adv-x="592" unicode="F" /><glyph d="M47 400Q47 574 152 687Q257 800 418 800H628V600H428Q356 600 310 544Q264 488 264 400Q264 313 310.5 256.5Q357 200 428 200H522V440H722V0H418Q257 0 152 113Q47 226 47 400Z" glyph-name="G" horiz-adv-x="777" unicode="G" /><glyph d="M289 0 89 0V246L48 441L89 448V800H289V484L518 524V800H718V560L759 366L718 359V0H518V323L289 282Z" glyph-name="H" horiz-adv-x="807" unicode="H" /><glyph d="M511 0 47 0V194H178V606H47V800H511V606H378V194H511Z" glyph-name="I" horiz-adv-x="558" unicode="I" /><glyph d="M665 0 80 0V440H280V194H465V800H665Z" glyph-name="J" horiz-adv-x="754" unicode="J" /><glyph d="M289 0 89 0V800H289V500H378Q411 500 430 518.5Q449 537 449 570V800H649V560Q649 518 636.5 484Q624 450 599 425Q657 402 685.5 357Q714 312 714 245V0H514V235Q514 268 495 286.5Q476 305 443 305H289Z" glyph-name="K" horiz-adv-x="771" unicode="K" /><glyph d="M605 0 89 0V800H289V194H605Z" glyph-name="L" horiz-adv-x="635" unicode="L" /><glyph d="M587 0 397 0V610H279V0H89V800H895V0H705V610H587Z" glyph-name="M" horiz-adv-x="984" unicode="M" /><glyph d="M279 0 89 0V619L49 668L200 812L514 425V800H704V191L750 134L600 -12L279 384Z" glyph-name="N" horiz-adv-x="778" unicode="N" /><glyph d="M40 226 40 574L268 800H595L822 574V226L595 0H268ZM245 468 245 332Q245 277 283 238Q321 199 374 199H488Q541 199 579 238Q617 277 617 332V468Q617 523 579 562Q541 601 488 601H374Q321 601 283 562Q245 523 245 468Z" glyph-name="O" horiz-adv-x="862" unicode="O" /><glyph d="M289 0 89 0V800H680V230H289ZM283 606 283 424H486V606Z" glyph-name="P" horiz-adv-x="740" unicode="P" /><glyph d="M40 226 40 574L268 800H595L822 574V226L595 0H594V-31H816V-200H593Q501 -200 449 -147Q397 -94 397 0H268ZM245 468 245 332Q245 277 283 238Q321 199 374 199H488Q541 199 579 238Q617 277 617 332V468Q617 523 579 562Q541 601 488 601H374Q321 601 283 562Q245 523 245 468Z" glyph-name="Q" horiz-adv-x="862" unicode="Q" /><glyph d="M289 0 89 0V800H600V424H726V0H536V230H289ZM416 617 273 617V413H416Z" glyph-name="R" horiz-adv-x="776" unicode="R" /><glyph d="M312 165Q341 165 359 180Q377 195 377 219Q377 243 353.5 264Q330 285 271 314L213 342Q128 384 87.5 440Q47 496 47 570Q47 673 120.5 742.5Q194 812 304 812Q422 812 497 748Q572 684 572 584V534H382V549Q382 590 362 612.5Q342 635 307 635Q278 635 260 619.5Q242 604 242 580Q242 556 265 535.5Q288 515 348 486L405 458Q489 418 530.5 360.5Q572 303 572 229Q572 127 498 57.5Q424 -12 315 -12Q197 -12 122 52Q47 116 47 216V266H237V251Q237 210 257 187.5Q277 165 312 165Z" glyph-name="S" horiz-adv-x="619" unicode="S" /><glyph d="M413 0 213 0V606H33V800H593V606H413Z" glyph-name="T" horiz-adv-x="626" unicode="T" /><glyph d="M420 188Q489 188 522 226Q555 264 555 344V800H750V334Q750 171 662 79.5Q574 -12 420 -12Q263 -12 174 79Q85 170 85 334V800H285V344Q285 264 318 226Q351 188 420 188Z" glyph-name="U" horiz-adv-x="835" unicode="U" /><glyph d="M780 434 812 402L424 -12L35 402L67 434V799H267V465L424 295L580 465V799H780Z" glyph-name="V" horiz-adv-x="847" unicode="V" /><glyph d="M890 0 89 0V800H279V190H395V800H585V190H700V800H890Z" glyph-name="W" horiz-adv-x="979" unicode="W" /><glyph d="M26 670 181 812L390 565L601 812L755 670L526 404L766 132L613 -12L392 247L171 -12L18 132L258 404Z" glyph-name="X" horiz-adv-x="784" unicode="X" /><glyph d="M489 0 289 0V200H79V800H279V394H499V800H699V200H489Z" glyph-name="Y" horiz-adv-x="778" unicode="Y" /><glyph d="M651 0 80 0V118L47 151L403 606H80V800H651V687L688 651L331 194H651Z" glyph-name="Z" horiz-adv-x="726" unicode="Z" /><glyph d="M260 0 60 0V369H145V800H905V606H647V484L852 519L887 328L647 286V194H916V0H447V175H260ZM335 606 335 369H447V606Z" glyph-name="AE" horiz-adv-x="981" unicode="Æ" /><glyph d="M40 226 40 574L268 800H948V606H690V484L895 519L930 328L690 286V194H959V0H268ZM374 199 490 199V601H374Q321 601 283 562Q245 523 245 468V332Q245 277 283 238Q321 199 374 199Z" glyph-name="OE" horiz-adv-x="1024" unicode="Œ" /><glyph d="M605 0 89 0V339L19 327L10 379L89 393V800H289V427L456 456L467 403L289 373V194H605Z" glyph-name="Lslash" horiz-adv-x="655" unicode="Ł" /><glyph d="M351 0 321 -108L263 -92L289 0H268L40 226V574L268 800H512L542 909L599 890L574 800H595L822 574V226L595 0ZM245 468 245 332Q245 286 273 249.5Q301 213 345 202L456 601H374Q321 601 283 562Q245 523 245 468ZM617 332 617 468Q617 514 589 550.5Q561 587 518 597L407 199H488Q541 199 579 238Q617 277 617 332Z" glyph-name="Oslash" horiz-adv-x="862" unicode="Ø" /><glyph d="M616 0 89 0V248H15V305H89V648L65 674L216 822L789 192ZM358 305 358 248H279V190H510L279 441V305Z" glyph-name="Eth" horiz-adv-x="789" unicode="Ð" /><glyph d="M289 0 89 0V800H289V685H650V115H289ZM283 491 283 309H456V491Z" glyph-name="Thorn" horiz-adv-x="710" unicode="Þ" /><glyph d="M250 0 60 0V369H145V800H647V369H732V0H542V175H250ZM325 606 325 369H467V606Z" glyph-name="a" horiz-adv-x="792" unicode="a" /><glyph d="M266 0 99 0V800H422Q554 800 628.5 739Q703 678 703 571Q703 516 683 476Q663 436 622 410Q688 388 720.5 341.5Q753 295 753 224Q753 118 677.5 58Q602 -2 469 -1ZM496 545Q496 579 478.5 592.5Q461 606 416 606H299V484H416Q460 484 478 498Q496 512 496 545ZM546 255Q546 287 527.5 301.5Q509 316 466 316H299V194H466Q510 194 528 208Q546 222 546 255Z" glyph-name="b" horiz-adv-x="781" unicode="b" /><glyph d="M677 0 89 0V800H680V606H289V194H677Z" glyph-name="c" horiz-adv-x="739" unicode="c" /><glyph d="M373 0 89 0V800H373Q553 800 654.5 694Q756 588 756 400Q756 212 654.5 106Q553 0 373 0ZM539 400Q539 509 499 554.5Q459 600 363 600H289V200H363Q459 200 499 245.5Q539 291 539 400Z" glyph-name="d" horiz-adv-x="803" unicode="d" /><glyph d="M558 0 89 0V268L53 443L89 449V800H547V606H289V484L494 519L529 328L289 287V194H558Z" glyph-name="e" horiz-adv-x="623" unicode="e" /><glyph d="M615 535 615 442H420V525Q420 568 401.5 592Q383 616 350 616Q317 616 298.5 591.5Q280 567 280 525V350H529V156H280V0H80V535Q80 658 155.5 735.5Q231 813 350 813Q467 813 541 735.5Q615 658 615 535Z" glyph-name="f" horiz-adv-x="645" unicode="f" /><glyph d="M289 0 89 0V800H596V606H289V195H584V302L449 277L415 468L784 537L818 346L784 340V1H289Z" glyph-name="g" horiz-adv-x="868" unicode="g" /><glyph d="M404 494Q346 494 317.5 460Q289 426 289 355V0H89V800H289V657Q317 674 351 682.5Q385 691 424 691Q558 691 638.5 603.5Q719 516 719 365V0H519V355Q519 426 490.5 460Q462 494 404 494Z" glyph-name="h" horiz-adv-x="789" unicode="h" /><glyph d="M289 0 89 0V800H289Z" glyph-name="i" horiz-adv-x="378" unicode="i" /><glyph d="M365 185Q423 185 451.5 218.5Q480 252 480 321V606H307V800H680V311Q680 159 596 73.5Q512 -12 365 -12Q218 -12 134 73.5Q50 159 50 311V432H250V321Q250 252 278.5 218.5Q307 185 365 185Z" glyph-name="j" horiz-adv-x="760" unicode="j" /><glyph d="M289 0 89 0V800H289V454H419V800H619V454H724V0H524V260H289Z" glyph-name="k" horiz-adv-x="781" unicode="k" /><glyph d="M285 800 285 329Q285 266 312.5 231.5Q340 197 390 197H600V0H380Q242 0 163.5 85Q85 170 85 319V800Z" glyph-name="l" horiz-adv-x="650" unicode="l" /><glyph d="M292 0 92 0V599L26 667L174 812L455 524L736 812L884 667L818 599V0H618V395L455 228L292 395Z" glyph-name="m" horiz-adv-x="910" unicode="m" /><glyph d="M289 0 89 0V800H708V0H508V606H289Z" glyph-name="n" horiz-adv-x="797" unicode="n" /><glyph d="M443 -12Q265 -12 152.5 102.5Q40 217 40 400Q40 583 152.5 698Q265 813 443 813Q621 813 733.5 698Q846 583 846 400Q846 217 733.5 102.5Q621 -12 443 -12ZM247 400Q247 304 301.5 244.5Q356 185 443 185Q530 185 584.5 244.5Q639 304 639 400Q639 497 584.5 556.5Q530 616 443 616Q355 616 301 556.5Q247 497 247 400Z" glyph-name="o" horiz-adv-x="886" unicode="o" /><glyph d="M289 0 89 0V800H411Q556 800 634 726Q712 652 712 513Q712 374 634 300Q556 226 411 226H289ZM505 513Q505 564 481.5 585Q458 606 401 606H289V420H401Q458 420 481.5 441Q505 462 505 513Z" glyph-name="p" horiz-adv-x="752" unicode="p" /><glyph d="M443 -12Q265 -12 152.5 102.5Q40 217 40 400Q40 583 152.5 698Q265 813 443 813Q621 813 733.5 698Q846 583 846 400Q846 338 832 282Q818 226 790 178L873 92L722 -59L636 32Q593 10 544.5 -1Q496 -12 443 -12ZM247 400Q247 304 301.5 244.5Q356 185 443 185Q456 185 466 186Q476 187 486 189L393 287L544 435L633 342Q636 355 637.5 370Q639 385 639 400Q639 497 584.5 556.5Q530 616 443 616Q355 616 301 556.5Q247 497 247 400Z" glyph-name="q" horiz-adv-x="886" unicode="q" /><glyph d="M289 0 89 0V800H411Q555 800 633 731Q711 662 711 533Q711 446 669.5 388.5Q628 331 547 305L712 149L574 -12L289 266ZM504 533Q504 575 482 590.5Q460 606 401 606H289V460H401Q460 460 482 475.5Q504 491 504 533Z" glyph-name="r" horiz-adv-x="757" unicode="r" /><glyph d="M457 0 94 0V194H366L64 611L106 645V800H567V606H314L631 166Z" glyph-name="s" horiz-adv-x="658" unicode="s" /><glyph d="M335 506 335 326Q335 263 362.5 228.5Q390 194 440 194H580V0H430Q292 0 213.5 84Q135 168 135 316V506H30V700H135V800H335V700H550V506Z" glyph-name="t" horiz-adv-x="637" unicode="t" /><glyph d="M89 0 89 800H289V194H551V800H751V0Z" glyph-name="u" horiz-adv-x="840" unicode="u" /><glyph d="M285 800 285 356Q285 284 321.5 242Q358 200 420 200H555V800H750V0H410Q258 0 171.5 91Q85 182 85 346V800Z" glyph-name="v" horiz-adv-x="839" unicode="v" /><glyph d="M503 142 346 -12L45 318L77 347V799H277V366L360 275L403 315V699H603V314L645 275L729 366V799H929V347L961 318L660 -12Z" glyph-name="w" horiz-adv-x="1006" unicode="w" /><glyph d="M724 0 643 0Q560 0 495.5 32Q431 64 388 127Q347 65 284.5 32.5Q222 0 141 0H60V199H131Q203 199 245 254Q287 309 287 403Q287 498 245.5 552Q204 606 131 606H60V800H141Q222 800 284.5 768.5Q347 737 388 675Q431 737 495.5 768.5Q560 800 643 800H724V606H653Q575 606 531 552Q487 498 487 403Q487 309 531.5 254Q576 199 653 199H724Z" glyph-name="x" horiz-adv-x="784" unicode="x" /><glyph d="M20 663 171 812L395 572L595 812L748 663L542 415L599 355L458 197L407 251L198 0L45 151L259 408Z" glyph-name="y" horiz-adv-x="745" unicode="y" /><glyph d="M30 208Q30 267 62.5 321Q95 375 155 413L341 533Q355 542 362.5 553Q370 564 370 574Q370 586 360 594Q350 602 335 602H58V799H350Q455 799 521.5 739.5Q588 680 588 591Q588 532 555.5 478Q523 424 463 386L277 266Q263 257 255.5 246Q248 235 248 225Q248 213 258 205Q268 197 283 197H560V0H268Q163 0 96.5 59.5Q30 119 30 208Z" glyph-name="z" horiz-adv-x="618" unicode="z" /><glyph d="M260 0 60 0V369H145V800H644Q665 806 688.5 809Q712 812 737 812Q868 812 944.5 730.5Q1021 649 1021 512V285H647V194H967V0H447V175H260ZM737 612Q692 612 669.5 584.5Q647 557 647 502V461H827V502Q827 557 804.5 584.5Q782 612 737 612ZM335 606 335 369H447V606Z" glyph-name="ae" horiz-adv-x="1086" unicode="æ" /><glyph d="M423 -12Q254 -12 147 102.5Q40 217 40 400Q40 583 147 698Q254 813 423 813Q493 813 553.5 787Q614 761 661 711Q699 760 757 786Q815 812 889 812Q1024 812 1103.5 730.5Q1183 649 1183 512V285H789V194H1129V0H599V38Q559 13 515 0.5Q471 -12 423 -12ZM247 400Q247 304 296 244.5Q345 185 423 185Q501 185 549.5 244.5Q598 304 598 400Q598 497 549.5 556.5Q501 616 423 616Q344 616 295.5 556.5Q247 497 247 400ZM889 612Q839 612 814 584.5Q789 557 789 502V461H989V502Q989 557 964 584.5Q939 612 889 612Z" glyph-name="oe" horiz-adv-x="1266" unicode="œ" /><glyph d="M85 338 19 327L10 379L85 392V800H285V426L456 456L467 403L285 372V329Q285 266 312.5 231.5Q340 197 390 197H600V0H380Q242 0 163.5 85Q85 170 85 319Z" glyph-name="lslash" horiz-adv-x="650" unicode="ł" /><glyph d="M362 -5 333 -108L275 -92L303 10Q181 50 110.5 154Q40 258 40 400Q40 583 152.5 698Q265 813 443 813Q466 813 486.5 811Q507 809 525 806L554 909L611 890L583 791Q705 751 775.5 646.5Q846 542 846 400Q846 217 733.5 102.5Q621 -12 443 -12Q421 -12 400.5 -10.5Q380 -9 362 -5ZM443 616Q355 616 301 556.5Q247 497 247 400Q247 332 276 280Q305 228 357 203L472 614Q458 615 453 615.5Q448 616 443 616ZM443 185Q530 185 584.5 244.5Q639 304 639 400Q639 469 610 521Q581 573 529 597L415 187Q426 186 432 185.5Q438 185 443 185Z" glyph-name="oslash" horiz-adv-x="886" unicode="ø" /><glyph d="M373 0 89 0V371H15V428H89V800H373Q553 800 654.5 694Q756 588 756 400Q756 212 654.5 106Q553 0 373 0ZM539 400Q539 509 499 554.5Q459 600 363 600H289V428H398V371H289V200H363Q459 200 499 245.5Q539 291 539 400Z" glyph-name="eth" horiz-adv-x="796" unicode="ð" /><glyph d="M289 0 89 0V800H289V687H411Q556 687 634 613Q712 539 712 400Q712 261 634 187Q556 113 411 113H289ZM505 400Q505 451 481.5 472Q458 493 401 493H289V307H401Q458 307 481.5 328Q505 349 505 400Z" glyph-name="thorn" horiz-adv-x="752" unicode="þ" /><glyph d="M729 222Q729 116 657 57Q585 -2 459 -1L354 0V194H452Q495 194 513.5 207Q532 220 532 252Q532 284 513 298Q494 312 452 312H374V480H402Q445 480 463.5 492.5Q482 505 482 536Q482 571 461.5 588.5Q441 606 400 606Q342 606 315.5 572Q289 538 289 465V0H89V475Q89 623 173.5 711.5Q258 800 400 800Q524 800 603 735.5Q682 671 682 566Q682 518 663 479.5Q644 441 604 409Q667 380 698 333.5Q729 287 729 222Z" glyph-name="germandbls" horiz-adv-x="771" unicode="ß" /><glyph d="M501 0 37 0V194H168V606H37V800H501V606H368V194H501Z" glyph-name="dotlessi" horiz-adv-x="538" unicode="ı" /><glyph d="M388 185Q446 185 474.5 218.5Q503 252 503 321V606H330V800H703V311Q703 159 619 73.5Q535 -12 388 -12Q241 -12 157 73.5Q73 159 73 311V432H273V321Q273 252 301.5 218.5Q330 185 388 185Z" glyph-name="dotlessj" horiz-adv-x="783" unicode="ȷ" /><glyph d="M615 535 615 442H420V525Q420 568 401.5 592Q383 616 350 616Q317 616 298.5 591.5Q280 567 280 525V350H529V156H280V0H80V535Q80 658 155.5 735.5Q231 813 350 813Q467 813 541 735.5Q615 658 615 535ZM939 0 739 0V800H939Z" glyph-name="fi" horiz-adv-x="1188" unicode="ﬁ" /><glyph d="M615 535 615 442H420V525Q420 568 401.5 592Q383 616 350 616Q317 616 298.5 591.5Q280 567 280 525V350H529V156H280V0H80V535Q80 658 155.5 735.5Q231 813 350 813Q467 813 541 735.5Q615 658 615 535ZM935 800 935 329Q935 266 962.5 231.5Q990 197 1040 197H1250V0H1030Q892 0 813.5 85Q735 170 735 319V800Z" glyph-name="fl" horiz-adv-x="1300" unicode="ﬂ" /><glyph d="M418 -12Q253 -12 150 101Q47 214 47 400Q47 582 150 697Q253 812 414 812Q480 812 533 794Q586 776 624 741V800H824V1H624V58Q586 23 534.5 5.5Q483 -12 418 -12ZM264 400Q264 302 311 243.5Q358 185 435 185Q512 185 559 243.5Q606 302 606 400Q606 498 559 556.5Q512 615 435 615Q358 615 311 556.5Q264 498 264 400ZM309 918 580 989L597 933L326 863Z" glyph-name="Aacute" horiz-adv-x="906" unicode="Á" /><glyph d="M418 -12Q253 -12 150 101Q47 214 47 400Q47 582 150 697Q253 812 414 812Q480 812 533 794Q586 776 624 741V800H824V1H624V58Q586 23 534.5 5.5Q483 -12 418 -12ZM264 400Q264 302 311 243.5Q358 185 435 185Q512 185 559 243.5Q606 302 606 400Q606 498 559 556.5Q512 615 435 615Q358 615 311 556.5Q264 498 264 400ZM627 915 604 868L452 940L303 867L279 914L452 1000Z" glyph-name="Acircumflex" horiz-adv-x="906" unicode="Â" /><glyph d="M418 -12Q253 -12 150 101Q47 214 47 400Q47 582 150 697Q253 812 414 812Q480 812 533 794Q586 776 624 741V800H824V1H624V58Q586 23 534.5 5.5Q483 -12 418 -12ZM264 400Q264 302 311 243.5Q358 185 435 185Q512 185 559 243.5Q606 302 606 400Q606 498 559 556.5Q512 615 435 615Q358 615 311 556.5Q264 498 264 400ZM424 936Q424 914 410 900.5Q396 887 373 887Q351 887 338 900.5Q325 914 325 936Q325 959 338 973Q351 987 373 987Q396 987 410 973Q424 959 424 936ZM581 936Q581 914 567 900.5Q553 887 530 887Q508 887 495 900.5Q482 914 482 936Q482 959 495 973Q508 987 530 987Q553 987 567 973Q581 959 581 936Z" glyph-name="Adieresis" horiz-adv-x="906" unicode="Ä" /><glyph d="M418 -12Q253 -12 150 101Q47 214 47 400Q47 582 150 697Q253 812 414 812Q480 812 533 794Q586 776 624 741V800H824V1H624V58Q586 23 534.5 5.5Q483 -12 418 -12ZM264 400Q264 302 311 243.5Q358 185 435 185Q512 185 559 243.5Q606 302 606 400Q606 498 559 556.5Q512 615 435 615Q358 615 311 556.5Q264 498 264 400ZM597 919 580 863L309 934L326 989Z" glyph-name="Agrave" horiz-adv-x="906" unicode="À" /><glyph d="M418 -12Q253 -12 150 101Q47 214 47 400Q47 582 150 697Q253 812 414 812Q480 812 533 794Q586 776 624 741V800H824V1H624V58Q586 23 534.5 5.5Q483 -12 418 -12ZM264 400Q264 302 311 243.5Q358 185 435 185Q512 185 559 243.5Q606 302 606 400Q606 498 559 556.5Q512 615 435 615Q358 615 311 556.5Q264 498 264 400ZM559 936Q559 891 531.5 867.5Q504 844 451 844Q400 844 373 867.5Q346 891 346 936Q346 982 373 1006.5Q400 1031 451 1031Q504 1031 531.5 1006.5Q559 982 559 936ZM391 936Q391 911 406.5 897.5Q422 884 451 884Q482 884 498 897.5Q514 911 514 936Q514 963 498 977Q482 991 451 991Q422 991 406.5 977Q391 963 391 936Z" glyph-name="Aring" horiz-adv-x="906" unicode="Å" /><glyph d="M418 -12Q253 -12 150 101Q47 214 47 400Q47 582 150 697Q253 812 414 812Q480 812 533 794Q586 776 624 741V800H824V1H624V58Q586 23 534.5 5.5Q483 -12 418 -12ZM264 400Q264 302 311 243.5Q358 185 435 185Q512 185 559 243.5Q606 302 606 400Q606 498 559 556.5Q512 615 435 615Q358 615 311 556.5Q264 498 264 400ZM469 957Q488 941 497 936.5Q506 932 514 932Q529 932 537.5 947.5Q546 963 547 992L595 988Q593 937 572.5 909.5Q552 882 517 882Q498 882 480 890Q462 898 433 921Q415 936 407 940Q399 944 392 944Q379 944 370 928.5Q361 913 359 884L311 888Q314 939 335 966.5Q356 994 389 994Q406 994 423.5 986.5Q441 979 469 957Z" glyph-name="Atilde" horiz-adv-x="906" unicode="Ã" /><glyph d="M418 -12Q253 -12 150 101Q47 214 47 400Q47 582 150 697Q253 812 414 812Q480 812 533 794Q586 776 624 741V800H824V1H624V58Q586 23 534.5 5.5Q483 -12 418 -12ZM264 400Q264 302 311 243.5Q358 185 435 185Q512 185 559 243.5Q606 302 606 400Q606 498 559 556.5Q512 615 435 615Q358 615 311 556.5Q264 498 264 400ZM569 1005 569 977Q569 920 538.5 889.5Q508 859 451 859Q395 859 365.5 889.5Q336 920 336 977V1005H381V980Q381 941 399 920Q417 899 451 899Q487 899 505.5 920Q524 941 524 980V1005Z" glyph-name="Abreve" horiz-adv-x="906" unicode="Ă" /><glyph d="M418 -12Q253 -12 150 101Q47 214 47 400Q47 582 150 697Q253 812 414 812Q480 812 533 794Q586 776 624 741V800H824V1H624V58Q586 23 534.5 5.5Q483 -12 418 -12ZM264 400Q264 302 311 243.5Q358 185 435 185Q512 185 559 243.5Q606 302 606 400Q606 498 559 556.5Q512 615 435 615Q358 615 311 556.5Q264 498 264 400ZM314 962 592 962V905H314Z" glyph-name="Amacron" horiz-adv-x="906" unicode="Ā" /><glyph d="M418 -12Q253 -12 150 101Q47 214 47 400Q47 582 150 697Q253 812 414 812Q480 812 533 794Q586 776 624 741V800H824V1H821L822 0L750 -40Q697 -70 677.5 -88.5Q658 -107 658 -128Q658 -145 672 -154.5Q686 -164 711 -164Q723 -164 736.5 -161.5Q750 -159 764 -155L772 -198Q757 -204 741 -207Q725 -210 710 -210Q664 -210 634.5 -188Q605 -166 605 -130Q605 -95 634 -64.5Q663 -34 726 1H624V58Q586 23 534.5 5.5Q483 -12 418 -12ZM264 400Q264 302 311 243.5Q358 185 435 185Q512 185 559 243.5Q606 302 606 400Q606 498 559 556.5Q512 615 435 615Q358 615 311 556.5Q264 498 264 400Z" glyph-name="Aogonek" horiz-adv-x="906" unicode="Ą" /><glyph d="M370 -83Q360 -83 349.5 -84.5Q339 -86 328 -89L351 5Q212 26 126 135.5Q40 245 40 400Q40 574 145 687Q250 800 411 800H621V600H421Q349 600 303 544Q257 488 257 400Q257 313 303.5 256.5Q350 200 421 200H618V0H394L384 -44Q437 -44 464.5 -64.5Q492 -85 492 -125Q492 -166 459 -188Q426 -210 365 -210Q343 -210 320 -205.5Q297 -201 278 -193L288 -151Q304 -158 324 -161.5Q344 -165 365 -165Q405 -165 424.5 -155Q444 -145 444 -125Q444 -105 424.5 -94Q405 -83 370 -83Z" glyph-name="Ccedilla" horiz-adv-x="680" unicode="Ç" /><glyph d="M40 400Q40 574 145 687Q250 800 411 800H621V600H421Q349 600 303 544Q257 488 257 400Q257 313 303.5 256.5Q350 200 421 200H618V0H411Q250 0 145 113Q40 226 40 400ZM236 918 507 989L524 933L253 863Z" glyph-name="Cacute" horiz-adv-x="680" unicode="Ć" /><glyph d="M40 400Q40 574 145 687Q250 800 411 800H621V600H421Q349 600 303 544Q257 488 257 400Q257 313 303.5 256.5Q350 200 421 200H618V0H411Q250 0 145 113Q40 226 40 400ZM379 927 531 999L554 952L379 867L206 953L230 1000Z" glyph-name="Ccaron" horiz-adv-x="680" unicode="Č" /><glyph d="M40 400Q40 574 145 687Q250 800 411 800H621V600H421Q349 600 303 544Q257 488 257 400Q257 313 303.5 256.5Q350 200 421 200H618V0H411Q250 0 145 113Q40 226 40 400ZM554 915 531 868L379 940L230 867L206 914L379 1000Z" glyph-name="Ccircumflex" horiz-adv-x="680" unicode="Ĉ" /><glyph d="M40 400Q40 574 145 687Q250 800 411 800H621V600H421Q349 600 303 544Q257 488 257 400Q257 313 303.5 256.5Q350 200 421 200H618V0H411Q250 0 145 113Q40 226 40 400ZM439 926Q439 899 422.5 883Q406 867 378 867Q352 867 336 883Q320 899 320 926Q320 954 336 971Q352 988 378 988Q406 988 422.5 971Q439 954 439 926Z" glyph-name="Cdotaccent" horiz-adv-x="680" unicode="Ċ" /><glyph d="M616 0 89 0V648L65 674L216 822L789 192ZM279 441 279 190H510ZM354 927 506 999L529 952L354 867L181 953L205 1000Z" glyph-name="Dcaron" horiz-adv-x="789" unicode="Ď" /><glyph d="M616 0 89 0V248H15V305H89V648L65 674L216 822L789 192ZM358 305 358 248H279V190H510L279 441V305Z" glyph-name="Dcroat" horiz-adv-x="789" unicode="Đ" /><glyph d="M289 194 629 194V0H89V515Q89 650 170 731Q251 812 389 812Q524 812 603.5 731Q683 650 683 515V285H289ZM389 615Q339 615 314 587.5Q289 560 289 505V461H489V505Q489 560 464 587.5Q439 615 389 615ZM230 918 501 989L518 933L247 863Z" glyph-name="Eacute" horiz-adv-x="748" unicode="É" /><glyph d="M289 194 629 194V0H89V515Q89 650 170 731Q251 812 389 812Q524 812 603.5 731Q683 650 683 515V285H289ZM389 615Q339 615 314 587.5Q289 560 289 505V461H489V505Q489 560 464 587.5Q439 615 389 615ZM548 915 525 868L373 940L224 867L200 914L373 1000Z" glyph-name="Ecircumflex" horiz-adv-x="748" unicode="Ê" /><glyph d="M289 194 629 194V0H89V515Q89 650 170 731Q251 812 389 812Q524 812 603.5 731Q683 650 683 515V285H289ZM389 615Q339 615 314 587.5Q289 560 289 505V461H489V505Q489 560 464 587.5Q439 615 389 615ZM345 936Q345 914 331 900.5Q317 887 294 887Q272 887 259 900.5Q246 914 246 936Q246 959 259 973Q272 987 294 987Q317 987 331 973Q345 959 345 936ZM502 936Q502 914 488 900.5Q474 887 451 887Q429 887 416 900.5Q403 914 403 936Q403 959 416 973Q429 987 451 987Q474 987 488 973Q502 959 502 936Z" glyph-name="Edieresis" horiz-adv-x="748" unicode="Ë" /><glyph d="M289 194 629 194V0H89V515Q89 650 170 731Q251 812 389 812Q524 812 603.5 731Q683 650 683 515V285H289ZM389 615Q339 615 314 587.5Q289 560 289 505V461H489V505Q489 560 464 587.5Q439 615 389 615ZM518 919 501 863L230 934L247 989Z" glyph-name="Egrave" horiz-adv-x="748" unicode="È" /><glyph d="M289 194 629 194V0H89V515Q89 650 170 731Q251 812 389 812Q524 812 603.5 731Q683 650 683 515V285H289ZM389 615Q339 615 314 587.5Q289 560 289 505V461H489V505Q489 560 464 587.5Q439 615 389 615ZM490 1005 490 977Q490 920 459.5 889.5Q429 859 372 859Q316 859 286.5 889.5Q257 920 257 977V1005H302V980Q302 941 320 920Q338 899 372 899Q408 899 426.5 920Q445 941 445 980V1005Z" glyph-name="Ebreve" horiz-adv-x="748" unicode="Ĕ" /><glyph d="M289 194 629 194V0H89V515Q89 650 170 731Q251 812 389 812Q524 812 603.5 731Q683 650 683 515V285H289ZM389 615Q339 615 314 587.5Q289 560 289 505V461H489V505Q489 560 464 587.5Q439 615 389 615ZM373 927 525 999L548 952L373 867L200 953L224 1000Z" glyph-name="Ecaron" horiz-adv-x="748" unicode="Ě" /><glyph d="M289 194 629 194V0H89V515Q89 650 170 731Q251 812 389 812Q524 812 603.5 731Q683 650 683 515V285H289ZM389 615Q339 615 314 587.5Q289 560 289 505V461H489V505Q489 560 464 587.5Q439 615 389 615ZM433 926Q433 899 416.5 883Q400 867 372 867Q346 867 330 883Q314 899 314 926Q314 954 330 971Q346 988 372 988Q400 988 416.5 971Q433 954 433 926Z" glyph-name="Edotaccent" horiz-adv-x="748" unicode="Ė" /><glyph d="M289 194 629 194V0H89V515Q89 650 170 731Q251 812 389 812Q524 812 603.5 731Q683 650 683 515V285H289ZM389 615Q339 615 314 587.5Q289 560 289 505V461H489V505Q489 560 464 587.5Q439 615 389 615ZM235 962 513 962V905H235Z" glyph-name="Emacron" horiz-adv-x="748" unicode="Ē" /><glyph d="M464 -128Q464 -145 478 -154.5Q492 -164 517 -164Q529 -164 542.5 -161.5Q556 -159 570 -155L578 -198Q563 -204 547 -207Q531 -210 516 -210Q470 -210 440.5 -188Q411 -166 411 -130Q411 -96 439.5 -65.5Q468 -35 530 0H89V515Q89 650 170 731Q251 812 389 812Q524 812 603.5 731Q683 650 683 515V285H289V194H629V0H628L556 -40Q503 -70 483.5 -88.5Q464 -107 464 -128ZM389 615Q339 615 314 587.5Q289 560 289 505V461H489V505Q489 560 464 587.5Q439 615 389 615Z" glyph-name="Eogonek" horiz-adv-x="748" unicode="Ę" /><glyph d="M47 400Q47 574 152 687Q257 800 418 800H628V600H428Q356 600 310 544Q264 488 264 400Q264 313 310.5 256.5Q357 200 428 200H522V440H722V0H418Q257 0 152 113Q47 226 47 400ZM521 1005 521 977Q521 920 490.5 889.5Q460 859 403 859Q347 859 317.5 889.5Q288 920 288 977V1005H333V980Q333 941 351 920Q369 899 403 899Q439 899 457.5 920Q476 941 476 980V1005Z" glyph-name="Gbreve" horiz-adv-x="770" unicode="Ğ" /><glyph d="M47 400Q47 574 152 687Q257 800 418 800H628V600H428Q356 600 310 544Q264 488 264 400Q264 313 310.5 256.5Q357 200 428 200H522V440H722V0H418Q257 0 152 113Q47 226 47 400ZM579 915 556 868L404 940L255 867L231 914L404 1000Z" glyph-name="Gcircumflex" horiz-adv-x="770" unicode="Ĝ" /><glyph d="M47 400Q47 574 152 687Q257 800 418 800H628V600H428Q356 600 310 544Q264 488 264 400Q264 313 310.5 256.5Q357 200 428 200H522V440H722V0H418Q257 0 152 113Q47 226 47 400ZM376 -293 386 -74H445L428 -293Z" glyph-name="Gcommaaccent" horiz-adv-x="770" unicode="Ģ" /><glyph d="M47 400Q47 574 152 687Q257 800 418 800H628V600H428Q356 600 310 544Q264 488 264 400Q264 313 310.5 256.5Q357 200 428 200H522V440H722V0H418Q257 0 152 113Q47 226 47 400ZM464 926Q464 899 447.5 883Q431 867 403 867Q377 867 361 883Q345 899 345 926Q345 954 361 971Q377 988 403 988Q431 988 447.5 971Q464 954 464 926Z" glyph-name="Gdotaccent" horiz-adv-x="770" unicode="Ġ" /><glyph d="M289 0 89 0V246L48 441L89 448V622H45V679H89V800H289V679H518V800H718V679H763V622H718V560L759 366L718 359V0H518V323L289 282ZM289 484 518 524V622H289Z" glyph-name="Hbar" horiz-adv-x="807" unicode="Ħ" /><glyph d="M289 0 89 0V246L48 441L89 448V800H289V484L518 524V800H718V560L759 366L718 359V0H518V323L289 282ZM578 915 555 868L403 940L254 867L230 914L403 1000Z" glyph-name="Hcircumflex" horiz-adv-x="807" unicode="Ĥ" /><glyph d="M511 0 47 0V194H178V606H47V800H511V606H378V194H511ZM125 918 396 989L413 933L142 863Z" glyph-name="Iacute" horiz-adv-x="538" unicode="Í" /><glyph d="M511 0 47 0V194H178V606H47V800H511V606H378V194H511ZM443 915 420 868L268 940L119 867L95 914L268 1000Z" glyph-name="Icircumflex" horiz-adv-x="538" unicode="Î" /><glyph d="M511 0 47 0V194H178V606H47V800H511V606H378V194H511ZM240 936Q240 914 226 900.5Q212 887 189 887Q167 887 154 900.5Q141 914 141 936Q141 959 154 973Q167 987 189 987Q212 987 226 973Q240 959 240 936ZM397 936Q397 914 383 900.5Q369 887 346 887Q324 887 311 900.5Q298 914 298 936Q298 959 311 973Q324 987 346 987Q369 987 383 973Q397 959 397 936Z" glyph-name="Idieresis" horiz-adv-x="538" unicode="Ï" /><glyph d="M511 0 47 0V194H178V606H47V800H511V606H378V194H511ZM413 919 396 863L125 934L142 989Z" glyph-name="Igrave" horiz-adv-x="538" unicode="Ì" /><glyph d="M511 0 47 0V194H178V606H47V800H511V606H378V194H511ZM385 1005 385 977Q385 920 354.5 889.5Q324 859 267 859Q211 859 181.5 889.5Q152 920 152 977V1005H197V980Q197 941 215 920Q233 899 267 899Q303 899 321.5 920Q340 941 340 980V1005Z" glyph-name="Ibreve" horiz-adv-x="538" unicode="Ĭ" /><glyph d="M511 0 47 0V194H178V606H47V800H511V606H378V194H511ZM328 926Q328 899 311.5 883Q295 867 267 867Q241 867 225 883Q209 899 209 926Q209 954 225 971Q241 988 267 988Q295 988 311.5 971Q328 954 328 926Z" glyph-name="Idotaccent" horiz-adv-x="538" unicode="İ" /><glyph d="M511 0 47 0V194H178V606H47V800H511V606H378V194H511ZM130 962 408 962V905H130Z" glyph-name="Imacron" horiz-adv-x="538" unicode="Ī" /><glyph d="M412 0 47 0V194H178V606H47V800H511V606H378V194H511V0H510L438 -40Q385 -70 365.5 -88.5Q346 -107 346 -128Q346 -145 360 -154.5Q374 -164 399 -164Q411 -164 424.5 -161.5Q438 -159 452 -155L460 -198Q445 -204 429 -207Q413 -210 398 -210Q352 -210 322.5 -188Q293 -166 293 -130Q293 -96 321.5 -65.5Q350 -35 412 0Z" glyph-name="Iogonek" horiz-adv-x="538" unicode="Į" /><glyph d="M511 0 47 0V194H178V606H47V800H511V606H378V194H511ZM285 957Q304 941 313 936.5Q322 932 330 932Q345 932 353.5 947.5Q362 963 363 992L411 988Q409 937 388.5 909.5Q368 882 333 882Q314 882 296 890Q278 898 249 921Q231 936 223 940Q215 944 208 944Q195 944 186 928.5Q177 913 175 884L127 888Q130 939 151 966.5Q172 994 205 994Q222 994 239.5 986.5Q257 979 285 957Z" glyph-name="Itilde" horiz-adv-x="538" unicode="Ĩ" /><glyph d="M665 0 80 0V440H280V194H465V800H665ZM743 915 720 868L568 940L419 867L395 914L568 1000Z" glyph-name="Jcircumflex" horiz-adv-x="754" unicode="Ĵ" /><glyph d="M289 376 89 376V800H289ZM673 0 89 0V194H473V800H673Z" glyph-name="IJ" horiz-adv-x="762" unicode="Ĳ" /><glyph d="M289 0 89 0V800H289V500H378Q411 500 430 518.5Q449 537 449 570V800H649V560Q649 518 636.5 484Q624 450 599 425Q657 402 685.5 357Q714 312 714 245V0H514V235Q514 268 495 286.5Q476 305 443 305H289ZM357 -293 367 -74H426L409 -293Z" glyph-name="Kcommaaccent" horiz-adv-x="771" unicode="Ķ" /><glyph d="M605 0 89 0V800H289V194H605ZM184 918 455 989L472 933L201 863Z" glyph-name="Lacute" horiz-adv-x="655" unicode="Ĺ" /><glyph d="M605 0 89 0V800H289V194H605ZM399 552 399 800H458L451 552Z" glyph-name="Lcaron" horiz-adv-x="655" unicode="Ľ" /><glyph d="M605 0 89 0V800H289V194H605ZM299 -293 309 -74H368L351 -293Z" glyph-name="Lcommaaccent" horiz-adv-x="655" unicode="Ļ" /><glyph d="M605 0 89 0V800H289V194H605ZM517 386Q517 359 500.5 343Q484 327 456 327Q430 327 414 343Q398 359 398 386Q398 414 414 431Q430 448 456 448Q484 448 500.5 431Q517 414 517 386Z" glyph-name="Ldot" horiz-adv-x="655" unicode="Ŀ" /><glyph d="M279 0 89 0V619L49 668L200 812L514 425V800H704V191L750 134L600 -12L279 384ZM405 957Q424 941 433 936.5Q442 932 450 932Q465 932 473.5 947.5Q482 963 483 992L531 988Q529 937 508.5 909.5Q488 882 453 882Q434 882 416 890Q398 898 369 921Q351 936 343 940Q335 944 328 944Q315 944 306 928.5Q297 913 295 884L247 888Q250 939 271 966.5Q292 994 325 994Q342 994 359.5 986.5Q377 979 405 957Z" glyph-name="Ntilde" horiz-adv-x="778" unicode="Ñ" /><glyph d="M279 0 89 0V619L49 668L200 812L514 425V800H704V191L750 134L600 -12L279 384ZM245 918 516 989L533 933L262 863Z" glyph-name="Nacute" horiz-adv-x="778" unicode="Ń" /><glyph d="M279 0 89 0V619L49 668L200 812L514 425V800H704V191L750 134L600 -12L279 384ZM388 927 540 999L563 952L388 867L215 953L239 1000Z" glyph-name="Ncaron" horiz-adv-x="778" unicode="Ň" /><glyph d="M279 0 89 0V619L49 668L200 812L514 425V800H704V191L750 134L600 -12L279 384ZM360 -293 370 -74H429L412 -293Z" glyph-name="Ncommaaccent" horiz-adv-x="778" unicode="Ņ" /><glyph d="M40 226 40 574L268 800H595L822 574V226L595 0H268ZM245 468 245 332Q245 277 283 238Q321 199 374 199H488Q541 199 579 238Q617 277 617 332V468Q617 523 579 562Q541 601 488 601H374Q321 601 283 562Q245 523 245 468ZM277 918 548 989L565 933L294 863Z" glyph-name="Oacute" horiz-adv-x="862" unicode="Ó" /><glyph d="M40 226 40 574L268 800H595L822 574V226L595 0H268ZM245 468 245 332Q245 277 283 238Q321 199 374 199H488Q541 199 579 238Q617 277 617 332V468Q617 523 579 562Q541 601 488 601H374Q321 601 283 562Q245 523 245 468ZM595 915 572 868L420 940L271 867L247 914L420 1000Z" glyph-name="Ocircumflex" horiz-adv-x="862" unicode="Ô" /><glyph d="M40 226 40 574L268 800H595L822 574V226L595 0H268ZM245 468 245 332Q245 277 283 238Q321 199 374 199H488Q541 199 579 238Q617 277 617 332V468Q617 523 579 562Q541 601 488 601H374Q321 601 283 562Q245 523 245 468ZM392 936Q392 914 378 900.5Q364 887 341 887Q319 887 306 900.5Q293 914 293 936Q293 959 306 973Q319 987 341 987Q364 987 378 973Q392 959 392 936ZM549 936Q549 914 535 900.5Q521 887 498 887Q476 887 463 900.5Q450 914 450 936Q450 959 463 973Q476 987 498 987Q521 987 535 973Q549 959 549 936Z" glyph-name="Odieresis" horiz-adv-x="862" unicode="Ö" /><glyph d="M40 226 40 574L268 800H595L822 574V226L595 0H268ZM245 468 245 332Q245 277 283 238Q321 199 374 199H488Q541 199 579 238Q617 277 617 332V468Q617 523 579 562Q541 601 488 601H374Q321 601 283 562Q245 523 245 468ZM565 919 548 863L277 934L294 989Z" glyph-name="Ograve" horiz-adv-x="862" unicode="Ò" /><glyph d="M40 226 40 574L268 800H595L822 574V226L595 0H268ZM245 468 245 332Q245 277 283 238Q321 199 374 199H488Q541 199 579 238Q617 277 617 332V468Q617 523 579 562Q541 601 488 601H374Q321 601 283 562Q245 523 245 468ZM437 957Q456 941 465 936.5Q474 932 482 932Q497 932 505.5 947.5Q514 963 515 992L563 988Q561 937 540.5 909.5Q520 882 485 882Q466 882 448 890Q430 898 401 921Q383 936 375 940Q367 944 360 944Q347 944 338 928.5Q329 913 327 884L279 888Q282 939 303 966.5Q324 994 357 994Q374 994 391.5 986.5Q409 979 437 957Z" glyph-name="Otilde" horiz-adv-x="862" unicode="Õ" /><glyph d="M40 226 40 574L268 800H595L822 574V226L595 0H268ZM245 468 245 332Q245 277 283 238Q321 199 374 199H488Q541 199 579 238Q617 277 617 332V468Q617 523 579 562Q541 601 488 601H374Q321 601 283 562Q245 523 245 468ZM537 1005 537 977Q537 920 506.5 889.5Q476 859 419 859Q363 859 333.5 889.5Q304 920 304 977V1005H349V980Q349 941 367 920Q385 899 419 899Q455 899 473.5 920Q492 941 492 980V1005Z" glyph-name="Obreve" horiz-adv-x="862" unicode="Ŏ" /><glyph d="M40 226 40 574L268 800H595L822 574V226L595 0H268ZM245 468 245 332Q245 277 283 238Q321 199 374 199H488Q541 199 579 238Q617 277 617 332V468Q617 523 579 562Q541 601 488 601H374Q321 601 283 562Q245 523 245 468ZM376 1045 424 1020L322 835L274 860ZM530 1045 578 1020L476 835L428 860Z" glyph-name="Ohungarumlaut" horiz-adv-x="862" unicode="Ő" /><glyph d="M40 226 40 574L268 800H595L822 574V226L595 0H268ZM245 468 245 332Q245 277 283 238Q321 199 374 199H488Q541 199 579 238Q617 277 617 332V468Q617 523 579 562Q541 601 488 601H374Q321 601 283 562Q245 523 245 468ZM282 962 560 962V905H282Z" glyph-name="Omacron" horiz-adv-x="862" unicode="Ō" /><glyph d="M289 0 89 0V800H600V424H726V0H536V230H289ZM416 617 273 617V413H416ZM244 918 515 989L532 933L261 863Z" glyph-name="Racute" horiz-adv-x="776" unicode="Ŕ" /><glyph d="M289 0 89 0V800H600V424H726V0H536V230H289ZM416 617 273 617V413H416ZM387 927 539 999L562 952L387 867L214 953L238 1000Z" glyph-name="Rcaron" horiz-adv-x="776" unicode="Ř" /><glyph d="M289 0 89 0V800H600V424H726V0H536V230H289ZM416 617 273 617V413H416ZM359 -293 369 -74H428L411 -293Z" glyph-name="Rcommaaccent" horiz-adv-x="776" unicode="Ŗ" /><glyph d="M312 165Q341 165 359 180Q377 195 377 219Q377 243 353.5 264Q330 285 271 314L213 342Q128 384 87.5 440Q47 496 47 570Q47 673 120.5 742.5Q194 812 304 812Q422 812 497 748Q572 684 572 584V534H382V549Q382 590 362 612.5Q342 635 307 635Q278 635 260 619.5Q242 604 242 580Q242 556 265 535.5Q288 515 348 486L405 458Q489 418 530.5 360.5Q572 303 572 229Q572 127 498 57.5Q424 -12 315 -12Q197 -12 122 52Q47 116 47 216V266H237V251Q237 210 257 187.5Q277 165 312 165ZM309 927 461 999L484 952L309 867L136 953L160 1000Z" glyph-name="Scaron" horiz-adv-x="619" unicode="Š" /><glyph d="M312 165Q341 165 359 180Q377 195 377 219Q377 243 353.5 264Q330 285 271 314L213 342Q128 384 87.5 440Q47 496 47 570Q47 673 120.5 742.5Q194 812 304 812Q422 812 497 748Q572 684 572 584V534H382V549Q382 590 362 612.5Q342 635 307 635Q278 635 260 619.5Q242 604 242 580Q242 556 265 535.5Q288 515 348 486L405 458Q489 418 530.5 360.5Q572 303 572 229Q572 127 498 57.5Q424 -12 315 -12Q197 -12 122 52Q47 116 47 216V266H237V251Q237 210 257 187.5Q277 165 312 165ZM166 918 437 989L454 933L183 863Z" glyph-name="Sacute" horiz-adv-x="619" unicode="Ś" /><glyph d="M310 -83Q300 -83 289.5 -84.5Q279 -86 268 -89L287 -11Q180 -3 113.5 60Q47 123 47 216V266H237V251Q237 210 257 187.5Q277 165 312 165Q341 165 359 180Q377 195 377 219Q377 243 353.5 264Q330 285 271 314L213 342Q128 384 87.5 440Q47 496 47 570Q47 673 120.5 742.5Q194 812 304 812Q422 812 497 748Q572 684 572 584V534H382V549Q382 590 362 612.5Q342 635 307 635Q278 635 260 619.5Q242 604 242 580Q242 556 265 535.5Q288 515 348 486L405 458Q489 418 530.5 360.5Q572 303 572 229Q572 131 503.5 62.5Q435 -6 331 -12L324 -44Q377 -44 404.5 -64.5Q432 -85 432 -125Q432 -166 399 -188Q366 -210 305 -210Q283 -210 260 -205.5Q237 -201 218 -193L228 -151Q244 -158 264 -161.5Q284 -165 305 -165Q345 -165 364.5 -155Q384 -145 384 -125Q384 -105 364.5 -94Q345 -83 310 -83Z" glyph-name="Scedilla" horiz-adv-x="619" unicode="Ş" /><glyph d="M312 165Q341 165 359 180Q377 195 377 219Q377 243 353.5 264Q330 285 271 314L213 342Q128 384 87.5 440Q47 496 47 570Q47 673 120.5 742.5Q194 812 304 812Q422 812 497 748Q572 684 572 584V534H382V549Q382 590 362 612.5Q342 635 307 635Q278 635 260 619.5Q242 604 242 580Q242 556 265 535.5Q288 515 348 486L405 458Q489 418 530.5 360.5Q572 303 572 229Q572 127 498 57.5Q424 -12 315 -12Q197 -12 122 52Q47 116 47 216V266H237V251Q237 210 257 187.5Q277 165 312 165ZM484 915 461 868L309 940L160 867L136 914L309 1000Z" glyph-name="Scircumflex" horiz-adv-x="619" unicode="Ŝ" /><glyph d="M312 165Q341 165 359 180Q377 195 377 219Q377 243 353.5 264Q330 285 271 314L213 342Q128 384 87.5 440Q47 496 47 570Q47 673 120.5 742.5Q194 812 304 812Q422 812 497 748Q572 684 572 584V534H382V549Q382 590 362 612.5Q342 635 307 635Q278 635 260 619.5Q242 604 242 580Q242 556 265 535.5Q288 515 348 486L405 458Q489 418 530.5 360.5Q572 303 572 229Q572 127 498 57.5Q424 -12 315 -12Q197 -12 122 52Q47 116 47 216V266H237V251Q237 210 257 187.5Q277 165 312 165ZM281 -293 291 -74H350L333 -293Z" glyph-name="uni0218" horiz-adv-x="619" unicode="Ș" /><glyph d="M413 0 213 0V292H74V349H213V606H33V800H593V606H413V349H552V292H413Z" glyph-name="Tbar" horiz-adv-x="626" unicode="Ŧ" /><glyph d="M413 0 213 0V606H33V800H593V606H413ZM312 927 464 999L487 952L312 867L139 953L163 1000Z" glyph-name="Tcaron" horiz-adv-x="626" unicode="Ť" /><glyph d="M413 0 213 0V606H33V800H593V606H413ZM284 -293 294 -74H353L336 -293Z" glyph-name="uni0162" horiz-adv-x="626" unicode="Ţ" /><glyph d="M413 0 213 0V606H33V800H593V606H413ZM284 -293 294 -74H353L336 -293Z" glyph-name="uni021A" horiz-adv-x="626" unicode="Ț" /><glyph d="M420 188Q489 188 522 226Q555 264 555 344V800H750V334Q750 171 662 79.5Q574 -12 420 -12Q263 -12 174 79Q85 170 85 334V800H285V344Q285 264 318 226Q351 188 420 188ZM274 918 545 989L562 933L291 863Z" glyph-name="Uacute" horiz-adv-x="835" unicode="Ú" /><glyph d="M420 188Q489 188 522 226Q555 264 555 344V800H750V334Q750 171 662 79.5Q574 -12 420 -12Q263 -12 174 79Q85 170 85 334V800H285V344Q285 264 318 226Q351 188 420 188ZM592 915 569 868L417 940L268 867L244 914L417 1000Z" glyph-name="Ucircumflex" horiz-adv-x="835" unicode="Û" /><glyph d="M420 188Q489 188 522 226Q555 264 555 344V800H750V334Q750 171 662 79.5Q574 -12 420 -12Q263 -12 174 79Q85 170 85 334V800H285V344Q285 264 318 226Q351 188 420 188ZM389 936Q389 914 375 900.5Q361 887 338 887Q316 887 303 900.5Q290 914 290 936Q290 959 303 973Q316 987 338 987Q361 987 375 973Q389 959 389 936ZM546 936Q546 914 532 900.5Q518 887 495 887Q473 887 460 900.5Q447 914 447 936Q447 959 460 973Q473 987 495 987Q518 987 532 973Q546 959 546 936Z" glyph-name="Udieresis" horiz-adv-x="835" unicode="Ü" /><glyph d="M420 188Q489 188 522 226Q555 264 555 344V800H750V334Q750 171 662 79.5Q574 -12 420 -12Q263 -12 174 79Q85 170 85 334V800H285V344Q285 264 318 226Q351 188 420 188ZM562 919 545 863L274 934L291 989Z" glyph-name="Ugrave" horiz-adv-x="835" unicode="Ù" /><glyph d="M420 188Q489 188 522 226Q555 264 555 344V800H750V334Q750 171 662 79.5Q574 -12 420 -12Q263 -12 174 79Q85 170 85 334V800H285V344Q285 264 318 226Q351 188 420 188ZM534 1005 534 977Q534 920 503.5 889.5Q473 859 416 859Q360 859 330.5 889.5Q301 920 301 977V1005H346V980Q346 941 364 920Q382 899 416 899Q452 899 470.5 920Q489 941 489 980V1005Z" glyph-name="Ubreve" horiz-adv-x="835" unicode="Ŭ" /><glyph d="M420 188Q489 188 522 226Q555 264 555 344V800H750V334Q750 171 662 79.5Q574 -12 420 -12Q263 -12 174 79Q85 170 85 334V800H285V344Q285 264 318 226Q351 188 420 188ZM373 1045 421 1020L319 835L271 860ZM527 1045 575 1020L473 835L425 860Z" glyph-name="Uhungarumlaut" horiz-adv-x="835" unicode="Ű" /><glyph d="M420 188Q489 188 522 226Q555 264 555 344V800H750V334Q750 171 662 79.5Q574 -12 420 -12Q263 -12 174 79Q85 170 85 334V800H285V344Q285 264 318 226Q351 188 420 188ZM279 962 557 962V905H279Z" glyph-name="Umacron" horiz-adv-x="835" unicode="Ū" /><glyph d="M358 -128Q358 -145 372 -154.5Q386 -164 411 -164Q423 -164 436.5 -161.5Q450 -159 464 -155L472 -198Q457 -204 441 -207Q425 -210 410 -210Q364 -210 334.5 -188Q305 -166 305 -130Q305 -99 328.5 -71Q352 -43 404 -12Q254 -7 169.5 84Q85 175 85 334V800H285V344Q285 264 318 226Q351 188 420 188Q489 188 522 226Q555 264 555 344V800H750V334Q750 201 690.5 114.5Q631 28 522 0L450 -40Q397 -70 377.5 -88.5Q358 -107 358 -128Z" glyph-name="Uogonek" horiz-adv-x="835" unicode="Ų" /><glyph d="M420 188Q489 188 522 226Q555 264 555 344V800H750V334Q750 171 662 79.5Q574 -12 420 -12Q263 -12 174 79Q85 170 85 334V800H285V344Q285 264 318 226Q351 188 420 188ZM524 936Q524 891 496.5 867.5Q469 844 416 844Q365 844 338 867.5Q311 891 311 936Q311 982 338 1006.5Q365 1031 416 1031Q469 1031 496.5 1006.5Q524 982 524 936ZM356 936Q356 911 371.5 897.5Q387 884 416 884Q447 884 463 897.5Q479 911 479 936Q479 963 463 977Q447 991 416 991Q387 991 371.5 977Q356 963 356 936Z" glyph-name="Uring" horiz-adv-x="835" unicode="Ů" /><glyph d="M420 188Q489 188 522 226Q555 264 555 344V800H750V334Q750 171 662 79.5Q574 -12 420 -12Q263 -12 174 79Q85 170 85 334V800H285V344Q285 264 318 226Q351 188 420 188ZM434 957Q453 941 462 936.5Q471 932 479 932Q494 932 502.5 947.5Q511 963 512 992L560 988Q558 937 537.5 909.5Q517 882 482 882Q463 882 445 890Q427 898 398 921Q380 936 372 940Q364 944 357 944Q344 944 335 928.5Q326 913 324 884L276 888Q279 939 300 966.5Q321 994 354 994Q371 994 388.5 986.5Q406 979 434 957Z" glyph-name="Utilde" horiz-adv-x="835" unicode="Ũ" /><glyph d="M890 0 89 0V800H279V190H395V800H585V190H700V800H890ZM346 918 617 989L634 933L363 863Z" glyph-name="Wacute" horiz-adv-x="979" unicode="Ẃ" /><glyph d="M890 0 89 0V800H279V190H395V800H585V190H700V800H890ZM664 915 641 868L489 940L340 867L316 914L489 1000Z" glyph-name="Wcircumflex" horiz-adv-x="979" unicode="Ŵ" /><glyph d="M890 0 89 0V800H279V190H395V800H585V190H700V800H890ZM461 936Q461 914 447 900.5Q433 887 410 887Q388 887 375 900.5Q362 914 362 936Q362 959 375 973Q388 987 410 987Q433 987 447 973Q461 959 461 936ZM618 936Q618 914 604 900.5Q590 887 567 887Q545 887 532 900.5Q519 914 519 936Q519 959 532 973Q545 987 567 987Q590 987 604 973Q618 959 618 936Z" glyph-name="Wdieresis" horiz-adv-x="979" unicode="Ẅ" /><glyph d="M890 0 89 0V800H279V190H395V800H585V190H700V800H890ZM634 919 617 863L346 934L363 989Z" glyph-name="Wgrave" horiz-adv-x="979" unicode="Ẁ" /><glyph d="M489 0 289 0V200H79V800H279V394H499V800H699V200H489ZM245 918 516 989L533 933L262 863Z" glyph-name="Yacute" horiz-adv-x="778" unicode="Ý" /><glyph d="M489 0 289 0V200H79V800H279V394H499V800H699V200H489ZM360 936Q360 914 346 900.5Q332 887 309 887Q287 887 274 900.5Q261 914 261 936Q261 959 274 973Q287 987 309 987Q332 987 346 973Q360 959 360 936ZM517 936Q517 914 503 900.5Q489 887 466 887Q444 887 431 900.5Q418 914 418 936Q418 959 431 973Q444 987 466 987Q489 987 503 973Q517 959 517 936Z" glyph-name="Ydieresis" horiz-adv-x="778" unicode="Ÿ" /><glyph d="M489 0 289 0V200H79V800H279V394H499V800H699V200H489ZM563 915 540 868L388 940L239 867L215 914L388 1000Z" glyph-name="Ycircumflex" horiz-adv-x="778" unicode="Ŷ" /><glyph d="M489 0 289 0V200H79V800H279V394H499V800H699V200H489ZM533 919 516 863L245 934L262 989Z" glyph-name="Ygrave" horiz-adv-x="778" unicode="Ỳ" /><glyph d="M651 0 80 0V118L47 151L403 606H80V800H651V687L688 651L331 194H651ZM362 927 514 999L537 952L362 867L189 953L213 1000Z" glyph-name="Zcaron" horiz-adv-x="726" unicode="Ž" /><glyph d="M651 0 80 0V118L47 151L403 606H80V800H651V687L688 651L331 194H651ZM219 918 490 989L507 933L236 863Z" glyph-name="Zacute" horiz-adv-x="726" unicode="Ź" /><glyph d="M651 0 80 0V118L47 151L403 606H80V800H651V687L688 651L331 194H651ZM422 926Q422 899 405.5 883Q389 867 361 867Q335 867 319 883Q303 899 303 926Q303 954 319 971Q335 988 361 988Q389 988 405.5 971Q422 954 422 926Z" glyph-name="Zdotaccent" horiz-adv-x="726" unicode="Ż" /><glyph d="M250 0 60 0V369H145V800H647V369H732V0H542V175H250ZM325 606 325 369H467V606ZM252 931 523 1002L540 946L269 876Z" glyph-name="aacute" horiz-adv-x="792" unicode="á" /><glyph d="M250 0 60 0V369H145V800H647V369H732V0H542V175H250ZM325 606 325 369H467V606ZM570 928 547 881L395 953L246 880L222 927L395 1013Z" glyph-name="acircumflex" horiz-adv-x="792" unicode="â" /><glyph d="M250 0 60 0V369H145V800H647V369H732V0H542V175H250ZM325 606 325 369H467V606ZM367 949Q367 927 353 913.5Q339 900 316 900Q294 900 281 913.5Q268 927 268 949Q268 972 281 986Q294 1000 316 1000Q339 1000 353 986Q367 972 367 949ZM524 949Q524 927 510 913.5Q496 900 473 900Q451 900 438 913.5Q425 927 425 949Q425 972 438 986Q451 1000 473 1000Q496 1000 510 986Q524 972 524 949Z" glyph-name="adieresis" horiz-adv-x="792" unicode="ä" /><glyph d="M250 0 60 0V369H145V800H647V369H732V0H542V175H250ZM325 606 325 369H467V606ZM540 932 523 876L252 947L269 1002Z" glyph-name="agrave" horiz-adv-x="792" unicode="à" /><glyph d="M250 0 60 0V369H145V800H647V369H732V0H542V175H250ZM325 606 325 369H467V606ZM502 949Q502 904 474.5 880.5Q447 857 394 857Q343 857 316 880.5Q289 904 289 949Q289 995 316 1019.5Q343 1044 394 1044Q447 1044 474.5 1019.5Q502 995 502 949ZM334 949Q334 924 349.5 910.5Q365 897 394 897Q425 897 441 910.5Q457 924 457 949Q457 976 441 990Q425 1004 394 1004Q365 1004 349.5 990Q334 976 334 949Z" glyph-name="aring" horiz-adv-x="792" unicode="å" /><glyph d="M250 0 60 0V369H145V800H647V369H732V0H542V175H250ZM325 606 325 369H467V606ZM412 970Q431 954 440 949.5Q449 945 457 945Q472 945 480.5 960.5Q489 976 490 1005L538 1001Q536 950 515.5 922.5Q495 895 460 895Q441 895 423 903Q405 911 376 934Q358 949 350 953Q342 957 335 957Q322 957 313 941.5Q304 926 302 897L254 901Q257 952 278 979.5Q299 1007 332 1007Q349 1007 366.5 999.5Q384 992 412 970Z" glyph-name="atilde" horiz-adv-x="792" unicode="ã" /><glyph d="M250 0 60 0V369H145V800H647V369H732V0H542V175H250ZM325 606 325 369H467V606ZM512 1018 512 990Q512 933 481.5 902.5Q451 872 394 872Q338 872 308.5 902.5Q279 933 279 990V1018H324V993Q324 954 342 933Q360 912 394 912Q430 912 448.5 933Q467 954 467 993V1018Z" glyph-name="abreve" horiz-adv-x="792" unicode="ă" /><glyph d="M250 0 60 0V369H145V800H647V369H732V0H542V175H250ZM325 606 325 369H467V606ZM257 975 535 975V918H257Z" glyph-name="amacron" horiz-adv-x="792" unicode="ā" /><glyph d="M250 0 60 0V369H145V800H647V369H732V0L660 -40Q607 -70 587.5 -88.5Q568 -107 568 -128Q568 -145 582 -154.5Q596 -164 621 -164Q633 -164 646.5 -161.5Q660 -159 674 -155L682 -198Q667 -204 651 -207Q635 -210 620 -210Q574 -210 544.5 -188Q515 -166 515 -130Q515 -96 543.5 -65.5Q572 -35 634 0H542V175H250ZM325 606 325 369H467V606Z" glyph-name="aogonek" horiz-adv-x="792" unicode="ą" /><glyph d="M370 0 89 0V800H680V606H289V194H677V0H414L404 -44Q457 -44 484.5 -64.5Q512 -85 512 -125Q512 -166 479 -188Q446 -210 385 -210Q363 -210 340 -205.5Q317 -201 298 -193L308 -151Q324 -158 344 -161.5Q364 -165 385 -165Q425 -165 444.5 -155Q464 -145 464 -125Q464 -105 444.5 -94Q425 -83 390 -83Q380 -83 369.5 -84.5Q359 -86 348 -89Z" glyph-name="ccedilla" horiz-adv-x="739" unicode="ç" /><glyph d="M677 0 89 0V800H680V606H289V194H677ZM226 931 497 1002L514 946L243 876Z" glyph-name="cacute" horiz-adv-x="739" unicode="ć" /><glyph d="M677 0 89 0V800H680V606H289V194H677ZM369 940 521 1012L544 965L369 880L196 966L220 1013Z" glyph-name="ccaron" horiz-adv-x="739" unicode="č" /><glyph d="M677 0 89 0V800H680V606H289V194H677ZM544 928 521 881L369 953L220 880L196 927L369 1013Z" glyph-name="ccircumflex" horiz-adv-x="739" unicode="ĉ" /><glyph d="M677 0 89 0V800H680V606H289V194H677ZM429 939Q429 912 412.5 896Q396 880 368 880Q342 880 326 896Q310 912 310 939Q310 967 326 984Q342 1001 368 1001Q396 1001 412.5 984Q429 967 429 939Z" glyph-name="cdotaccent" horiz-adv-x="739" unicode="ċ" /><glyph d="M373 0 89 0V800H373Q553 800 654.5 694Q756 588 756 400Q756 212 654.5 106Q553 0 373 0ZM539 400Q539 509 499 554.5Q459 600 363 600H289V200H363Q459 200 499 245.5Q539 291 539 400ZM794 552 794 800H853L846 552Z" glyph-name="dcaron" horiz-adv-x="838" unicode="ď" /><glyph d="M373 0 89 0V800H373Q553 800 654.5 694Q756 588 756 400Q756 212 654.5 106Q553 0 373 0ZM539 400Q539 509 499 554.5Q459 600 363 600H289V200H363Q459 200 499 245.5Q539 291 539 400ZM259 975 537 975V918H259Z" glyph-name="dcroat" horiz-adv-x="796" unicode="đ" /><glyph d="M558 0 89 0V268L53 443L89 449V800H547V606H289V484L494 519L529 328L289 287V194H558ZM168 931 439 1002L456 946L185 876Z" glyph-name="eacute" horiz-adv-x="623" unicode="é" /><glyph d="M558 0 89 0V268L53 443L89 449V800H547V606H289V484L494 519L529 328L289 287V194H558ZM486 928 463 881L311 953L162 880L138 927L311 1013Z" glyph-name="ecircumflex" horiz-adv-x="623" unicode="ê" /><glyph d="M558 0 89 0V268L53 443L89 449V800H547V606H289V484L494 519L529 328L289 287V194H558ZM283 949Q283 927 269 913.5Q255 900 232 900Q210 900 197 913.5Q184 927 184 949Q184 972 197 986Q210 1000 232 1000Q255 1000 269 986Q283 972 283 949ZM440 949Q440 927 426 913.5Q412 900 389 900Q367 900 354 913.5Q341 927 341 949Q341 972 354 986Q367 1000 389 1000Q412 1000 426 986Q440 972 440 949Z" glyph-name="edieresis" horiz-adv-x="623" unicode="ë" /><glyph d="M558 0 89 0V268L53 443L89 449V800H547V606H289V484L494 519L529 328L289 287V194H558ZM456 932 439 876L168 947L185 1002Z" glyph-name="egrave" horiz-adv-x="623" unicode="è" /><glyph d="M558 0 89 0V268L53 443L89 449V800H547V606H289V484L494 519L529 328L289 287V194H558ZM428 1018 428 990Q428 933 397.5 902.5Q367 872 310 872Q254 872 224.5 902.5Q195 933 195 990V1018H240V993Q240 954 258 933Q276 912 310 912Q346 912 364.5 933Q383 954 383 993V1018Z" glyph-name="ebreve" horiz-adv-x="623" unicode="ĕ" /><glyph d="M558 0 89 0V268L53 443L89 449V800H547V606H289V484L494 519L529 328L289 287V194H558ZM311 940 463 1012L486 965L311 880L138 966L162 1013Z" glyph-name="ecaron" horiz-adv-x="623" unicode="ě" /><glyph d="M558 0 89 0V268L53 443L89 449V800H547V606H289V484L494 519L529 328L289 287V194H558ZM371 939Q371 912 354.5 896Q338 880 310 880Q284 880 268 896Q252 912 252 939Q252 967 268 984Q284 1001 310 1001Q338 1001 354.5 984Q371 967 371 939Z" glyph-name="edotaccent" horiz-adv-x="623" unicode="ė" /><glyph d="M558 0 89 0V268L53 443L89 449V800H547V606H289V484L494 519L529 328L289 287V194H558ZM173 975 451 975V918H173Z" glyph-name="emacron" horiz-adv-x="623" unicode="ē" /><glyph d="M460 0 89 0V268L53 443L89 449V800H547V606H289V484L494 519L529 328L289 287V194H558V0L486 -40Q433 -70 413.5 -88.5Q394 -107 394 -128Q394 -145 408 -154.5Q422 -164 447 -164Q459 -164 472.5 -161.5Q486 -159 500 -155L508 -198Q493 -204 477 -207Q461 -210 446 -210Q400 -210 370.5 -188Q341 -166 341 -130Q341 -96 369.5 -65.5Q398 -35 460 0Z" glyph-name="eogonek" horiz-adv-x="623" unicode="ę" /><glyph d="M289 0 89 0V800H596V606H289V195H584V302L449 277L415 468L784 537L818 346L784 340V1H289ZM550 1018 550 990Q550 933 519.5 902.5Q489 872 432 872Q376 872 346.5 902.5Q317 933 317 990V1018H362V993Q362 954 380 933Q398 912 432 912Q468 912 486.5 933Q505 954 505 993V1018Z" glyph-name="gbreve" horiz-adv-x="868" unicode="ğ" /><glyph d="M289 0 89 0V800H596V606H289V195H584V302L449 277L415 468L784 537L818 346L784 340V1H289ZM608 928 585 881L433 953L284 880L260 927L433 1013Z" glyph-name="gcircumflex" horiz-adv-x="868" unicode="ĝ" /><glyph d="M289 0 89 0V800H596V606H289V195H584V302L449 277L415 468L784 537L818 346L784 340V1H289ZM464 -74 464 -322H405L412 -74Z" glyph-name="gcommaaccent" horiz-adv-x="868" unicode="ģ" /><glyph d="M289 0 89 0V800H596V606H289V195H584V302L449 277L415 468L784 537L818 346L784 340V1H289ZM493 939Q493 912 476.5 896Q460 880 432 880Q406 880 390 896Q374 912 374 939Q374 967 390 984Q406 1001 432 1001Q460 1001 476.5 984Q493 967 493 939Z" glyph-name="gdotaccent" horiz-adv-x="868" unicode="ġ" /><glyph d="M404 444Q346 444 317.5 410Q289 376 289 305V0H89V684H30V741H89V800H289V741H450V684H289V607Q317 624 351 632.5Q385 641 424 641Q558 641 638.5 553.5Q719 466 719 315V0H519V305Q519 376 490.5 410Q462 444 404 444Z" glyph-name="hbar" horiz-adv-x="789" unicode="ħ" /><glyph d="M404 494Q346 494 317.5 460Q289 426 289 355V0H89V800H289V657Q317 674 351 682.5Q385 691 424 691Q558 691 638.5 603.5Q719 516 719 365V0H519V355Q519 426 490.5 460Q462 494 404 494ZM368 928 345 881L193 953L44 880L20 927L193 1013Z" glyph-name="hcircumflex" horiz-adv-x="789" unicode="ĥ" /><glyph d="M501 0 37 0V194H168V606H37V800H501V606H368V194H501ZM115 931 386 1002L403 946L132 876Z" glyph-name="iacute" horiz-adv-x="538" unicode="í" /><glyph d="M501 0 37 0V194H168V606H37V800H501V606H368V194H501ZM433 928 410 881L258 953L109 880L85 927L258 1013Z" glyph-name="icircumflex" horiz-adv-x="538" unicode="î" /><glyph d="M501 0 37 0V194H168V606H37V800H501V606H368V194H501ZM230 949Q230 927 216 913.5Q202 900 179 900Q157 900 144 913.5Q131 927 131 949Q131 972 144 986Q157 1000 179 1000Q202 1000 216 986Q230 972 230 949ZM387 949Q387 927 373 913.5Q359 900 336 900Q314 900 301 913.5Q288 927 288 949Q288 972 301 986Q314 1000 336 1000Q359 1000 373 986Q387 972 387 949Z" glyph-name="idieresis" horiz-adv-x="538" unicode="ï" /><glyph d="M501 0 37 0V194H168V606H37V800H501V606H368V194H501ZM403 932 386 876L115 947L132 1002Z" glyph-name="igrave" horiz-adv-x="538" unicode="ì" /><glyph d="M501 0 37 0V194H168V606H37V800H501V606H368V194H501ZM375 1018 375 990Q375 933 344.5 902.5Q314 872 257 872Q201 872 171.5 902.5Q142 933 142 990V1018H187V993Q187 954 205 933Q223 912 257 912Q293 912 311.5 933Q330 954 330 993V1018Z" glyph-name="ibreve" horiz-adv-x="538" unicode="ĭ" /><glyph d="M289 0 89 0V800H289Z" glyph-name="i.dot" horiz-adv-x="378" unicode="" /><glyph d="M501 0 37 0V194H168V606H37V800H501V606H368V194H501ZM120 975 398 975V918H120Z" glyph-name="imacron" horiz-adv-x="538" unicode="ī" /><glyph d="M190 0 89 0V800H289V0H288L216 -40Q163 -70 143.5 -88.5Q124 -107 124 -128Q124 -145 138 -154.5Q152 -164 177 -164Q189 -164 202.5 -161.5Q216 -159 230 -155L238 -198Q223 -204 207 -207Q191 -210 176 -210Q130 -210 100.5 -188Q71 -166 71 -130Q71 -96 99.5 -65.5Q128 -35 190 0Z" glyph-name="iogonek" horiz-adv-x="378" unicode="į" /><glyph d="M501 0 37 0V194H168V606H37V800H501V606H368V194H501ZM275 970Q294 954 303 949.5Q312 945 320 945Q335 945 343.5 960.5Q352 976 353 1005L401 1001Q399 950 378.5 922.5Q358 895 323 895Q304 895 286 903Q268 911 239 934Q221 949 213 953Q205 957 198 957Q185 957 176 941.5Q167 926 165 897L117 901Q120 952 141 979.5Q162 1007 195 1007Q212 1007 229.5 999.5Q247 992 275 970Z" glyph-name="itilde" horiz-adv-x="538" unicode="ĩ" /><glyph d="M388 185Q446 185 474.5 218.5Q503 252 503 321V606H330V800H703V311Q703 159 619 73.5Q535 -12 388 -12Q241 -12 157 73.5Q73 159 73 311V432H273V321Q273 252 301.5 218.5Q330 185 388 185ZM686 928 663 881L511 953L362 880L338 927L511 1013Z" glyph-name="jcircumflex" horiz-adv-x="783" unicode="ĵ" /><glyph d="M289 376 89 376V800H289ZM673 0 89 0V194H473V800H673Z" glyph-name="ij" horiz-adv-x="762" unicode="ĳ" /><glyph d="M289 0 89 0V800H289V454H419V800H619V454H724V0H524V260H289ZM357 -293 367 -74H426L409 -293Z" glyph-name="kcommaaccent" horiz-adv-x="771" unicode="ķ" /><glyph d="M285 800 285 329Q285 266 312.5 231.5Q340 197 390 197H600V0H380Q242 0 163.5 85Q85 170 85 319V800ZM105 931 376 1002L393 946L122 876Z" glyph-name="lacute" horiz-adv-x="650" unicode="ĺ" /><glyph d="M285 800 285 329Q285 266 312.5 231.5Q340 197 390 197H600V0H380Q242 0 163.5 85Q85 170 85 319V800ZM395 552 395 800H454L447 552Z" glyph-name="lcaron" horiz-adv-x="650" unicode="ľ" /><glyph d="M285 800 285 329Q285 266 312.5 231.5Q340 197 390 197H600V0H380Q242 0 163.5 85Q85 170 85 319V800ZM296 -293 306 -74H365L348 -293Z" glyph-name="lcommaaccent" horiz-adv-x="650" unicode="ļ" /><glyph d="M285 800 285 329Q285 266 312.5 231.5Q340 197 390 197H600V0H380Q242 0 163.5 85Q85 170 85 319V800ZM512 386Q512 359 495.5 343Q479 327 451 327Q425 327 409 343Q393 359 393 386Q393 414 409 431Q425 448 451 448Q479 448 495.5 431Q512 414 512 386Z" glyph-name="ldot" horiz-adv-x="650" unicode="ŀ" /><glyph d="M289 0 89 0V800H708V0H508V606H289ZM414 970Q433 954 442 949.5Q451 945 459 945Q474 945 482.5 960.5Q491 976 492 1005L540 1001Q538 950 517.5 922.5Q497 895 462 895Q443 895 425 903Q407 911 378 934Q360 949 352 953Q344 957 337 957Q324 957 315 941.5Q306 926 304 897L256 901Q259 952 280 979.5Q301 1007 334 1007Q351 1007 368.5 999.5Q386 992 414 970Z" glyph-name="ntilde" horiz-adv-x="797" unicode="ñ" /><glyph d="M289 0 89 0V800H708V0H508V606H289ZM254 931 525 1002L542 946L271 876Z" glyph-name="nacute" horiz-adv-x="797" unicode="ń" /><glyph d="M289 0 89 0V800H708V0H508V606H289ZM397 940 549 1012L572 965L397 880L224 966L248 1013Z" glyph-name="ncaron" horiz-adv-x="797" unicode="ň" /><glyph d="M289 0 89 0V800H708V0H508V606H289ZM369 -293 379 -74H438L421 -293Z" glyph-name="ncommaaccent" horiz-adv-x="797" unicode="ņ" /><glyph d="M443 -12Q265 -12 152.5 102.5Q40 217 40 400Q40 583 152.5 698Q265 813 443 813Q621 813 733.5 698Q846 583 846 400Q846 217 733.5 102.5Q621 -12 443 -12ZM247 400Q247 304 301.5 244.5Q356 185 443 185Q530 185 584.5 244.5Q639 304 639 400Q639 497 584.5 556.5Q530 616 443 616Q355 616 301 556.5Q247 497 247 400ZM299 931 570 1002L587 946L316 876Z" glyph-name="oacute" horiz-adv-x="886" unicode="ó" /><glyph d="M443 -12Q265 -12 152.5 102.5Q40 217 40 400Q40 583 152.5 698Q265 813 443 813Q621 813 733.5 698Q846 583 846 400Q846 217 733.5 102.5Q621 -12 443 -12ZM247 400Q247 304 301.5 244.5Q356 185 443 185Q530 185 584.5 244.5Q639 304 639 400Q639 497 584.5 556.5Q530 616 443 616Q355 616 301 556.5Q247 497 247 400ZM617 928 594 881L442 953L293 880L269 927L442 1013Z" glyph-name="ocircumflex" horiz-adv-x="886" unicode="ô" /><glyph d="M443 -12Q265 -12 152.5 102.5Q40 217 40 400Q40 583 152.5 698Q265 813 443 813Q621 813 733.5 698Q846 583 846 400Q846 217 733.5 102.5Q621 -12 443 -12ZM247 400Q247 304 301.5 244.5Q356 185 443 185Q530 185 584.5 244.5Q639 304 639 400Q639 497 584.5 556.5Q530 616 443 616Q355 616 301 556.5Q247 497 247 400ZM414 949Q414 927 400 913.5Q386 900 363 900Q341 900 328 913.5Q315 927 315 949Q315 972 328 986Q341 1000 363 1000Q386 1000 400 986Q414 972 414 949ZM571 949Q571 927 557 913.5Q543 900 520 900Q498 900 485 913.5Q472 927 472 949Q472 972 485 986Q498 1000 520 1000Q543 1000 557 986Q571 972 571 949Z" glyph-name="odieresis" horiz-adv-x="886" unicode="ö" /><glyph d="M443 -12Q265 -12 152.5 102.5Q40 217 40 400Q40 583 152.5 698Q265 813 443 813Q621 813 733.5 698Q846 583 846 400Q846 217 733.5 102.5Q621 -12 443 -12ZM247 400Q247 304 301.5 244.5Q356 185 443 185Q530 185 584.5 244.5Q639 304 639 400Q639 497 584.5 556.5Q530 616 443 616Q355 616 301 556.5Q247 497 247 400ZM587 932 570 876L299 947L316 1002Z" glyph-name="ograve" horiz-adv-x="886" unicode="ò" /><glyph d="M443 -12Q265 -12 152.5 102.5Q40 217 40 400Q40 583 152.5 698Q265 813 443 813Q621 813 733.5 698Q846 583 846 400Q846 217 733.5 102.5Q621 -12 443 -12ZM247 400Q247 304 301.5 244.5Q356 185 443 185Q530 185 584.5 244.5Q639 304 639 400Q639 497 584.5 556.5Q530 616 443 616Q355 616 301 556.5Q247 497 247 400ZM459 970Q478 954 487 949.5Q496 945 504 945Q519 945 527.5 960.5Q536 976 537 1005L585 1001Q583 950 562.5 922.5Q542 895 507 895Q488 895 470 903Q452 911 423 934Q405 949 397 953Q389 957 382 957Q369 957 360 941.5Q351 926 349 897L301 901Q304 952 325 979.5Q346 1007 379 1007Q396 1007 413.5 999.5Q431 992 459 970Z" glyph-name="otilde" horiz-adv-x="886" unicode="õ" /><glyph d="M443 -12Q265 -12 152.5 102.5Q40 217 40 400Q40 583 152.5 698Q265 813 443 813Q621 813 733.5 698Q846 583 846 400Q846 217 733.5 102.5Q621 -12 443 -12ZM247 400Q247 304 301.5 244.5Q356 185 443 185Q530 185 584.5 244.5Q639 304 639 400Q639 497 584.5 556.5Q530 616 443 616Q355 616 301 556.5Q247 497 247 400ZM559 1018 559 990Q559 933 528.5 902.5Q498 872 441 872Q385 872 355.5 902.5Q326 933 326 990V1018H371V993Q371 954 389 933Q407 912 441 912Q477 912 495.5 933Q514 954 514 993V1018Z" glyph-name="obreve" horiz-adv-x="886" unicode="ŏ" /><glyph d="M443 -12Q265 -12 152.5 102.5Q40 217 40 400Q40 583 152.5 698Q265 813 443 813Q621 813 733.5 698Q846 583 846 400Q846 217 733.5 102.5Q621 -12 443 -12ZM247 400Q247 304 301.5 244.5Q356 185 443 185Q530 185 584.5 244.5Q639 304 639 400Q639 497 584.5 556.5Q530 616 443 616Q355 616 301 556.5Q247 497 247 400ZM398 1058 446 1033L344 848L296 873ZM552 1058 600 1033L498 848L450 873Z" glyph-name="ohungarumlaut" horiz-adv-x="886" unicode="ő" /><glyph d="M443 -12Q265 -12 152.5 102.5Q40 217 40 400Q40 583 152.5 698Q265 813 443 813Q621 813 733.5 698Q846 583 846 400Q846 217 733.5 102.5Q621 -12 443 -12ZM247 400Q247 304 301.5 244.5Q356 185 443 185Q530 185 584.5 244.5Q639 304 639 400Q639 497 584.5 556.5Q530 616 443 616Q355 616 301 556.5Q247 497 247 400ZM304 975 582 975V918H304Z" glyph-name="omacron" horiz-adv-x="886" unicode="ō" /><glyph d="M289 0 89 0V800H411Q555 800 633 731Q711 662 711 533Q711 446 669.5 388.5Q628 331 547 305L712 149L574 -12L289 266ZM504 533Q504 575 482 590.5Q460 606 401 606H289V460H401Q460 460 482 475.5Q504 491 504 533ZM234 931 505 1002L522 946L251 876Z" glyph-name="racute" horiz-adv-x="757" unicode="ŕ" /><glyph d="M289 0 89 0V800H411Q555 800 633 731Q711 662 711 533Q711 446 669.5 388.5Q628 331 547 305L712 149L574 -12L289 266ZM504 533Q504 575 482 590.5Q460 606 401 606H289V460H401Q460 460 482 475.5Q504 491 504 533ZM377 940 529 1012L552 965L377 880L204 966L228 1013Z" glyph-name="rcaron" horiz-adv-x="757" unicode="ř" /><glyph d="M289 0 89 0V800H411Q555 800 633 731Q711 662 711 533Q711 446 669.5 388.5Q628 331 547 305L712 149L574 -12L289 266ZM504 533Q504 575 482 590.5Q460 606 401 606H289V460H401Q460 460 482 475.5Q504 491 504 533ZM349 -293 359 -74H418L401 -293Z" glyph-name="rcommaaccent" horiz-adv-x="757" unicode="ŗ" /><glyph d="M457 0 94 0V194H366L64 611L106 645V800H567V606H314L631 166ZM328 940 480 1012L503 965L328 880L155 966L179 1013Z" glyph-name="scaron" horiz-adv-x="658" unicode="š" /><glyph d="M457 0 94 0V194H366L64 611L106 645V800H567V606H314L631 166ZM185 931 456 1002L473 946L202 876Z" glyph-name="sacute" horiz-adv-x="658" unicode="ś" /><glyph d="M309 0 94 0V194H366L64 611L106 645V800H567V606H314L631 166L457 0H353L343 -44Q396 -44 423.5 -64.5Q451 -85 451 -125Q451 -166 418 -188Q385 -210 324 -210Q302 -210 279 -205.5Q256 -201 237 -193L247 -151Q263 -158 283 -161.5Q303 -165 324 -165Q364 -165 383.5 -155Q403 -145 403 -125Q403 -105 383.5 -94Q364 -83 329 -83Q319 -83 308.5 -84.5Q298 -86 287 -89Z" glyph-name="scedilla" horiz-adv-x="658" unicode="ş" /><glyph d="M457 0 94 0V194H366L64 611L106 645V800H567V606H314L631 166ZM503 928 480 881L328 953L179 880L155 927L328 1013Z" glyph-name="scircumflex" horiz-adv-x="658" unicode="ŝ" /><glyph d="M457 0 94 0V194H366L64 611L106 645V800H567V606H314L631 166ZM300 -293 310 -74H369L352 -293Z" glyph-name="uni0219" horiz-adv-x="658" unicode="ș" /><glyph d="M335 332 335 326Q335 263 362.5 228.5Q390 194 440 194H580V0H430Q292 0 213.5 84Q135 168 135 316V332H60V389H135V506H30V700H135V800H335V700H550V506H335V389H510V332Z" glyph-name="tbar" horiz-adv-x="650" unicode="ŧ" /><glyph d="M335 506 335 326Q335 263 362.5 228.5Q390 194 440 194H580V0H430Q292 0 213.5 84Q135 168 135 316V506H30V700H135V800H335V700H520V506ZM571 552 571 800H630L623 552Z" glyph-name="tcaron" horiz-adv-x="650" unicode="ť" /><glyph d="M335 506 335 326Q335 263 362.5 228.5Q390 194 440 194H580V0H430Q292 0 213.5 84Q135 168 135 316V506H30V700H135V800H335V700H550V506ZM296 -293 306 -74H365L348 -293Z" glyph-name="uni0163" horiz-adv-x="650" unicode="ţ" /><glyph d="M335 506 335 326Q335 263 362.5 228.5Q390 194 440 194H580V0H430Q292 0 213.5 84Q135 168 135 316V506H30V700H135V800H335V700H550V506ZM296 -293 306 -74H365L348 -293Z" glyph-name="uni021B" horiz-adv-x="650" unicode="ț" /><glyph d="M89 0 89 800H289V194H551V800H751V0ZM276 931 547 1002L564 946L293 876Z" glyph-name="uacute" horiz-adv-x="840" unicode="ú" /><glyph d="M89 0 89 800H289V194H551V800H751V0ZM594 928 571 881L419 953L270 880L246 927L419 1013Z" glyph-name="ucircumflex" horiz-adv-x="840" unicode="û" /><glyph d="M89 0 89 800H289V194H551V800H751V0ZM391 949Q391 927 377 913.5Q363 900 340 900Q318 900 305 913.5Q292 927 292 949Q292 972 305 986Q318 1000 340 1000Q363 1000 377 986Q391 972 391 949ZM548 949Q548 927 534 913.5Q520 900 497 900Q475 900 462 913.5Q449 927 449 949Q449 972 462 986Q475 1000 497 1000Q520 1000 534 986Q548 972 548 949Z" glyph-name="udieresis" horiz-adv-x="840" unicode="ü" /><glyph d="M89 0 89 800H289V194H551V800H751V0ZM564 932 547 876L276 947L293 1002Z" glyph-name="ugrave" horiz-adv-x="840" unicode="ù" /><glyph d="M89 0 89 800H289V194H551V800H751V0ZM536 1018 536 990Q536 933 505.5 902.5Q475 872 418 872Q362 872 332.5 902.5Q303 933 303 990V1018H348V993Q348 954 366 933Q384 912 418 912Q454 912 472.5 933Q491 954 491 993V1018Z" glyph-name="ubreve" horiz-adv-x="840" unicode="ŭ" /><glyph d="M89 0 89 800H289V194H551V800H751V0ZM375 1058 423 1033L321 848L273 873ZM529 1058 577 1033L475 848L427 873Z" glyph-name="uhungarumlaut" horiz-adv-x="840" unicode="ű" /><glyph d="M89 0 89 800H289V194H551V800H751V0ZM281 975 559 975V918H281Z" glyph-name="umacron" horiz-adv-x="840" unicode="ū" /><glyph d="M587 -128Q587 -145 601 -154.5Q615 -164 640 -164Q652 -164 665.5 -161.5Q679 -159 693 -155L701 -198Q686 -204 670 -207Q654 -210 639 -210Q593 -210 563.5 -188Q534 -166 534 -130Q534 -96 562.5 -65.5Q591 -35 653 0H89V800H289V194H551V800H751V0L679 -40Q626 -70 606.5 -88.5Q587 -107 587 -128Z" glyph-name="uogonek" horiz-adv-x="840" unicode="ų" /><glyph d="M89 0 89 800H289V194H551V800H751V0ZM526 949Q526 904 498.5 880.5Q471 857 418 857Q367 857 340 880.5Q313 904 313 949Q313 995 340 1019.5Q367 1044 418 1044Q471 1044 498.5 1019.5Q526 995 526 949ZM358 949Q358 924 373.5 910.5Q389 897 418 897Q449 897 465 910.5Q481 924 481 949Q481 976 465 990Q449 1004 418 1004Q389 1004 373.5 990Q358 976 358 949Z" glyph-name="uring" horiz-adv-x="840" unicode="ů" /><glyph d="M89 0 89 800H289V194H551V800H751V0ZM436 970Q455 954 464 949.5Q473 945 481 945Q496 945 504.5 960.5Q513 976 514 1005L562 1001Q560 950 539.5 922.5Q519 895 484 895Q465 895 447 903Q429 911 400 934Q382 949 374 953Q366 957 359 957Q346 957 337 941.5Q328 926 326 897L278 901Q281 952 302 979.5Q323 1007 356 1007Q373 1007 390.5 999.5Q408 992 436 970Z" glyph-name="utilde" horiz-adv-x="840" unicode="ũ" /><glyph d="M503 142 346 -12L45 318L77 347V799H277V366L360 275L403 315V699H603V314L645 275L729 366V799H929V347L961 318L660 -12ZM359 931 630 1002L647 946L376 876Z" glyph-name="wacute" horiz-adv-x="1006" unicode="ẃ" /><glyph d="M503 142 346 -12L45 318L77 347V799H277V366L360 275L403 315V699H603V314L645 275L729 366V799H929V347L961 318L660 -12ZM677 928 654 881L502 953L353 880L329 927L502 1013Z" glyph-name="wcircumflex" horiz-adv-x="1006" unicode="ŵ" /><glyph d="M503 142 346 -12L45 318L77 347V799H277V366L360 275L403 315V699H603V314L645 275L729 366V799H929V347L961 318L660 -12ZM474 949Q474 927 460 913.5Q446 900 423 900Q401 900 388 913.5Q375 927 375 949Q375 972 388 986Q401 1000 423 1000Q446 1000 460 986Q474 972 474 949ZM631 949Q631 927 617 913.5Q603 900 580 900Q558 900 545 913.5Q532 927 532 949Q532 972 545 986Q558 1000 580 1000Q603 1000 617 986Q631 972 631 949Z" glyph-name="wdieresis" horiz-adv-x="1006" unicode="ẅ" /><glyph d="M503 142 346 -12L45 318L77 347V799H277V366L360 275L403 315V699H603V314L645 275L729 366V799H929V347L961 318L660 -12ZM647 932 630 876L359 947L376 1002Z" glyph-name="wgrave" horiz-adv-x="1006" unicode="ẁ" /><glyph d="M20 663 171 812L395 572L595 812L748 663L542 415L599 355L458 197L407 251L198 0L45 151L259 408ZM228 931 499 1002L516 946L245 876Z" glyph-name="yacute" horiz-adv-x="745" unicode="ý" /><glyph d="M20 663 171 812L395 572L595 812L748 663L542 415L599 355L458 197L407 251L198 0L45 151L259 408ZM343 949Q343 927 329 913.5Q315 900 292 900Q270 900 257 913.5Q244 927 244 949Q244 972 257 986Q270 1000 292 1000Q315 1000 329 986Q343 972 343 949ZM500 949Q500 927 486 913.5Q472 900 449 900Q427 900 414 913.5Q401 927 401 949Q401 972 414 986Q427 1000 449 1000Q472 1000 486 986Q500 972 500 949Z" glyph-name="ydieresis" horiz-adv-x="745" unicode="ÿ" /><glyph d="M20 663 171 812L395 572L595 812L748 663L542 415L599 355L458 197L407 251L198 0L45 151L259 408ZM546 928 523 881L371 953L222 880L198 927L371 1013Z" glyph-name="ycircumflex" horiz-adv-x="745" unicode="ŷ" /><glyph d="M20 663 171 812L395 572L595 812L748 663L542 415L599 355L458 197L407 251L198 0L45 151L259 408ZM516 932 499 876L228 947L245 1002Z" glyph-name="ygrave" horiz-adv-x="745" unicode="ỳ" /><glyph d="M30 208Q30 267 62.5 321Q95 375 155 413L341 533Q355 542 362.5 553Q370 564 370 574Q370 586 360 594Q350 602 335 602H58V799H350Q455 799 521.5 739.5Q588 680 588 591Q588 532 555.5 478Q523 424 463 386L277 266Q263 257 255.5 246Q248 235 248 225Q248 213 258 205Q268 197 283 197H560V0H268Q163 0 96.5 59.5Q30 119 30 208ZM308 940 460 1012L483 965L308 880L135 966L159 1013Z" glyph-name="zcaron" horiz-adv-x="618" unicode="ž" /><glyph d="M30 208Q30 267 62.5 321Q95 375 155 413L341 533Q355 542 362.5 553Q370 564 370 574Q370 586 360 594Q350 602 335 602H58V799H350Q455 799 521.5 739.5Q588 680 588 591Q588 532 555.5 478Q523 424 463 386L277 266Q263 257 255.5 246Q248 235 248 225Q248 213 258 205Q268 197 283 197H560V0H268Q163 0 96.5 59.5Q30 119 30 208ZM165 931 436 1002L453 946L182 876Z" glyph-name="zacute" horiz-adv-x="618" unicode="ź" /><glyph d="M30 208Q30 267 62.5 321Q95 375 155 413L341 533Q355 542 362.5 553Q370 564 370 574Q370 586 360 594Q350 602 335 602H58V799H350Q455 799 521.5 739.5Q588 680 588 591Q588 532 555.5 478Q523 424 463 386L277 266Q263 257 255.5 246Q248 235 248 225Q248 213 258 205Q268 197 283 197H560V0H268Q163 0 96.5 59.5Q30 119 30 208ZM368 939Q368 912 351.5 896Q335 880 307 880Q281 880 265 896Q249 912 249 939Q249 967 265 984Q281 1001 307 1001Q335 1001 351.5 984Q368 967 368 939Z" glyph-name="zdotaccent" horiz-adv-x="618" unicode="ż" /><glyph d="M165 931 436 1002L453 946L182 876Z" glyph-name="acute" horiz-adv-x="500" unicode="´" /><glyph d="M516 932 499 876L228 947L245 1002Z" glyph-name="grave" horiz-adv-x="500" unicode="`" /><glyph d="M546 928 523 881L371 953L222 880L198 927L371 1013Z" glyph-name="circumflex" horiz-adv-x="500" unicode="ˆ" /><glyph d="M308 940 460 1012L483 965L308 880L135 966L159 1013Z" glyph-name="caron" horiz-adv-x="500" unicode="ˇ" /><glyph d="M436 970Q455 954 464 949.5Q473 945 481 945Q496 945 504.5 960.5Q513 976 514 1005L562 1001Q560 950 539.5 922.5Q519 895 484 895Q465 895 447 903Q429 911 400 934Q382 949 374 953Q366 957 359 957Q346 957 337 941.5Q328 926 326 897L278 901Q281 952 302 979.5Q323 1007 356 1007Q373 1007 390.5 999.5Q408 992 436 970Z" glyph-name="tilde" horiz-adv-x="500" unicode="˜" /><glyph d="M343 949Q343 927 329 913.5Q315 900 292 900Q270 900 257 913.5Q244 927 244 949Q244 972 257 986Q270 1000 292 1000Q315 1000 329 986Q343 972 343 949ZM500 949Q500 927 486 913.5Q472 900 449 900Q427 900 414 913.5Q401 927 401 949Q401 972 414 986Q427 1000 449 1000Q472 1000 486 986Q500 972 500 949Z" glyph-name="dieresis" horiz-adv-x="500" unicode="¨" /><glyph d="M526 949Q526 904 498.5 880.5Q471 857 418 857Q367 857 340 880.5Q313 904 313 949Q313 995 340 1019.5Q367 1044 418 1044Q471 1044 498.5 1019.5Q526 995 526 949ZM358 949Q358 924 373.5 910.5Q389 897 418 897Q449 897 465 910.5Q481 924 481 949Q481 976 465 990Q449 1004 418 1004Q389 1004 373.5 990Q358 976 358 949Z" glyph-name="ring" horiz-adv-x="500" unicode="˚" /><glyph d="M250 -83Q240 -83 229.5 -84.5Q219 -86 208 -89L236 25H279L264 -44Q317 -44 344.5 -64.5Q372 -85 372 -125Q372 -166 339 -188Q306 -210 245 -210Q223 -210 200 -205.5Q177 -201 158 -193L168 -151Q184 -158 204 -161.5Q224 -165 245 -165Q285 -165 304.5 -155Q324 -145 324 -125Q324 -105 304.5 -94Q285 -83 250 -83Z" glyph-name="cedilla" horiz-adv-x="500" unicode="¸" /><glyph d="M375 1058 423 1033L321 848L273 873ZM529 1058 577 1033L475 848L427 873Z" glyph-name="hungarumlaut" horiz-adv-x="500" unicode="˝" /><glyph d="M536 1018 536 990Q536 933 505.5 902.5Q475 872 418 872Q362 872 332.5 902.5Q303 933 303 990V1018H348V993Q348 954 366 933Q384 912 418 912Q454 912 472.5 933Q491 954 491 993V1018Z" glyph-name="breve" horiz-adv-x="500" unicode="˘" /><glyph d="M281 975 559 975V918H281Z" glyph-name="macron" horiz-adv-x="500" unicode="¯" /><glyph d="M368 939Q368 912 351.5 896Q335 880 307 880Q281 880 265 896Q249 912 249 939Q249 967 265 984Q281 1001 307 1001Q335 1001 351.5 984Q368 967 368 939Z" glyph-name="dotaccent" horiz-adv-x="500" unicode="˙" /><glyph d="M512 386Q512 359 495.5 343Q479 327 451 327Q425 327 409 343Q393 359 393 386Q393 414 409 431Q425 448 451 448Q479 448 495.5 431Q512 414 512 386Z" glyph-name="periodcentered" horiz-adv-x="500" unicode="·" /><glyph d="M211 -128Q211 -145 225 -154.5Q239 -164 264 -164Q276 -164 289.5 -161.5Q303 -159 317 -155L325 -198Q310 -204 294 -207Q278 -210 263 -210Q217 -210 187.5 -188Q158 -166 158 -130Q158 -95 188 -64Q218 -33 284 4L352 42L375 0L303 -40Q250 -70 230.5 -88.5Q211 -107 211 -128Z" glyph-name="ogonek" horiz-adv-x="500" unicode="˛" /><glyph d="M296 -293 306 -74H365L348 -293Z" glyph-name="commaaccent" horiz-adv-x="500" unicode="" /><glyph d="M395 552 395 800H454L447 552Z" glyph-name="caron.alt" horiz-adv-x="500" unicode="" /><glyph d="M464 -74 464 -322H405L412 -74Z" glyph-name="revcommaaccent" horiz-adv-x="500" unicode="" /><glyph d="M199 47Q199 20 182.5 4Q166 -12 138 -12Q112 -12 96 4Q80 20 80 47Q80 75 96 92Q112 109 138 109Q166 109 182.5 92Q199 75 199 47Z" glyph-name="period" horiz-adv-x="279" unicode="." /><glyph d="M141 -12 140 -12Q116 -12 101 3Q86 18 86 43Q86 69 101 85.5Q116 102 140 102Q166 102 182 85.5Q198 69 198 43V-1L121 -161L81 -139Z" glyph-name="comma" horiz-adv-x="272" unicode="," /><glyph d="M199 447Q199 420 182.5 404Q166 388 138 388Q112 388 96 404Q80 420 80 447Q80 475 96 492Q112 509 138 509Q166 509 182.5 492Q199 475 199 447ZM199 47Q199 20 182.5 4Q166 -12 138 -12Q112 -12 96 4Q80 20 80 47Q80 75 96 92Q112 109 138 109Q166 109 182.5 92Q199 75 199 47Z" glyph-name="colon" horiz-adv-x="279" unicode=":" /><glyph d="M199 447Q199 420 182.5 404Q166 388 138 388Q112 388 96 404Q80 420 80 447Q80 475 96 492Q112 509 138 509Q166 509 182.5 492Q199 475 199 447ZM142 -12 141 -12Q117 -12 102 3Q87 18 87 43Q87 69 102 85.5Q117 102 141 102Q167 102 183 85.5Q199 69 199 43V-1L122 -161L82 -139Z" glyph-name="semicolon" horiz-adv-x="279" unicode=";" /><glyph d="M199 47Q199 20 182.5 4Q166 -12 138 -12Q112 -12 96 4Q80 20 80 47Q80 75 96 92Q112 109 138 109Q166 109 182.5 92Q199 75 199 47ZM388 47Q388 20 371.5 4Q355 -12 327 -12Q301 -12 285 4Q269 20 269 47Q269 75 285 92Q301 109 327 109Q355 109 371.5 92Q388 75 388 47ZM577 47Q577 20 560.5 4Q544 -12 516 -12Q490 -12 474 4Q458 20 458 47Q458 75 474 92Q490 109 516 109Q544 109 560.5 92Q577 75 577 47Z" glyph-name="ellipsis" horiz-adv-x="657" unicode="…" /><glyph d="M270 812Q366 812 420.5 754.5Q475 697 475 593Q475 491 426 431.5Q377 372 290 365L287 232H236V412H280Q349 412 387 459Q425 506 425 593Q425 675 384.5 719Q344 763 270 763Q197 763 156.5 714.5Q116 666 116 577V517H66V577Q66 687 120.5 749.5Q175 812 270 812ZM323 47Q323 20 306.5 4Q290 -12 262 -12Q236 -12 220 4Q204 20 204 47Q204 75 220 92Q236 109 262 109Q290 109 306.5 92Q323 75 323 47Z" glyph-name="question" horiz-adv-x="529" unicode="?" /><glyph d="M130 552 130 800H189V552L185 232H134ZM219 47Q219 20 202.5 4Q186 -12 158 -12Q132 -12 116 4Q100 20 100 47Q100 75 116 92Q132 109 158 109Q186 109 202.5 92Q219 75 219 47Z" glyph-name="exclam" horiz-adv-x="319" unicode="!" /><glyph d="M206 753Q206 780 222.5 796Q239 812 267 812Q293 812 309 796Q325 780 325 753Q325 725 309 708Q293 691 267 691Q239 691 222.5 708Q206 725 206 753ZM463 283 463 223Q463 113 408.5 50.5Q354 -12 259 -12Q163 -12 108.5 45.5Q54 103 54 207Q54 309 103 368.5Q152 428 239 435L242 568H293V388H249Q180 388 142 341Q104 294 104 207Q104 125 144.5 81Q185 37 259 37Q332 37 372.5 85.5Q413 134 413 223V283Z" glyph-name="questiondown" horiz-adv-x="529" unicode="¿" /><glyph d="M100 753Q100 780 116 796Q132 812 158 812Q186 812 202.5 796Q219 780 219 753Q219 725 202.5 708Q186 691 158 691Q132 691 116 708Q100 725 100 753ZM189 0 130 0V248L134 568H185L189 248Z" glyph-name="exclamdown" horiz-adv-x="319" unicode="¡" /><glyph d="M80 400Q80 601 154 730.5Q228 860 345 865V813Q254 805 196.5 691Q139 577 139 400Q139 221 196 108Q253 -5 345 -13V-65Q228 -60 154 69.5Q80 199 80 400Z" glyph-name="parenleft" horiz-adv-x="355" unicode="(" /><glyph d="M10 813 10 865Q127 860 201 730.5Q275 601 275 400Q275 199 201 69.5Q127 -60 10 -65V-13Q102 -5 159 108Q216 221 216 400Q216 577 158.5 691Q101 805 10 813Z" glyph-name="parenright" horiz-adv-x="355" unicode=")" /><glyph d="M198 632Q198 510 186 459Q174 408 140 400Q174 392 186 341Q198 290 198 168Q198 109 200 81Q202 53 206 37Q213 9 232.5 -1Q252 -11 314 -11V-65Q240 -65 206.5 -52.5Q173 -40 158 -8Q148 15 143.5 53Q139 91 139 168Q139 214 138.5 241Q138 268 136 287Q133 335 120.5 352.5Q108 370 75 370H50V430H75Q108 430 120.5 447.5Q133 465 136 513Q138 532 138.5 559Q139 586 139 632Q139 709 143.5 747Q148 785 158 808Q173 840 206.5 852.5Q240 865 314 865V811Q252 811 232.5 801Q213 791 206 763Q202 747 200 719Q198 691 198 632Z" glyph-name="braceleft" horiz-adv-x="324" unicode="{" /><glyph d="M126 168Q126 290 138 341Q150 392 184 400Q150 408 138 459Q126 510 126 632Q126 691 124 719Q122 747 118 763Q111 791 91.5 801Q72 811 10 811V865Q84 865 117.5 852.5Q151 840 166 808Q176 785 180.5 747Q185 709 185 632Q185 586 185.5 559Q186 532 188 513Q191 465 203.5 447.5Q216 430 249 430H274V370H249Q216 370 203.5 352.5Q191 335 188 287Q186 268 185.5 241Q185 214 185 168Q185 91 180.5 53Q176 15 166 -8Q151 -40 117.5 -52.5Q84 -65 10 -65V-11Q72 -11 91.5 -1Q111 9 118 37Q122 53 124 81Q126 109 126 168Z" glyph-name="braceright" horiz-adv-x="324" unicode="}" /><glyph d="M130 -100 130 900H309V844H190V-44H309V-100Z" glyph-name="bracketleft" horiz-adv-x="319" unicode="[" /><glyph d="M10 900 189 900V-100H10V-44H129V844H10Z" glyph-name="bracketright" horiz-adv-x="319" unicode="]" /><glyph d="M309 900 77 -100H10L242 900Z" glyph-name="slash" horiz-adv-x="319" unicode="/" /><glyph d="M10 900 77 900L309 -100H242Z" glyph-name="backslash" horiz-adv-x="319" unicode="\" /><glyph d="M410 -69 30 -69V-12H410Z" glyph-name="underscore" horiz-adv-x="440" unicode="_" /><glyph d="M400 354 40 354V411H400Z" glyph-name="hyphen" horiz-adv-x="440" unicode="-" /><glyph d="" glyph-name="uni00AD" horiz-adv-x="0" unicode="­" /><glyph d="M460 354 40 354V411H460Z" glyph-name="endash" horiz-adv-x="500" unicode="–" /><glyph d="M960 354 40 354V411H960Z" glyph-name="emdash" horiz-adv-x="1000" unicode="—" /><glyph d="M89 470 89 865H149V470ZM89 -65 89 330H149V-65Z" glyph-name="brokenbar" horiz-adv-x="238" unicode="¦" /><glyph d="M89 -65 89 865H149V-65Z" glyph-name="bar" horiz-adv-x="238" unicode="|" /><glyph d="M635 137 365 347V433L635 643L673 585L412 390L673 195ZM335 137 65 347V433L335 643L373 585L112 390L373 195Z" glyph-name="guillemotleft" horiz-adv-x="735" unicode="«" /><glyph d="M370 433 370 347L100 137L62 195L323 390L62 585L100 643ZM670 433 670 347L400 137L362 195L623 390L362 585L400 643Z" glyph-name="guillemotright" horiz-adv-x="735" unicode="»" /><glyph d="M405 137 65 347V433L405 643L438 585L112 390L438 195Z" glyph-name="guilsinglleft" horiz-adv-x="500" unicode="‹" /><glyph d="M435 433 435 347L95 137L62 195L388 390L62 585L95 643Z" glyph-name="guilsinglright" horiz-adv-x="500" unicode="›" /><glyph d="M141 -12 140 -12Q116 -12 101 3Q86 18 86 43Q86 69 101 85.5Q116 102 140 102Q166 102 182 85.5Q198 69 198 43V-1L121 -161L81 -139Z" glyph-name="quotesinglbase" horiz-adv-x="272" unicode="‚" /><glyph d="M141 -12 140 -12Q116 -12 101 3Q86 18 86 43Q86 69 101 85.5Q116 102 140 102Q166 102 182 85.5Q198 69 198 43V-1L121 -161L81 -139ZM311 -12 310 -12Q286 -12 271 3Q256 18 256 43Q256 69 271 85.5Q286 102 310 102Q336 102 352 85.5Q368 69 368 43V-1L291 -161L251 -139Z" glyph-name="quotedblbase" horiz-adv-x="442" unicode="„" /><glyph d="M131 662 132 662Q156 662 171 647Q186 632 186 607Q186 581 171 564.5Q156 548 132 548Q106 548 90 564.5Q74 581 74 607V651L151 811L191 789Z" glyph-name="quoteleft" horiz-adv-x="272" unicode="‘" /><glyph d="M301 662 302 662Q326 662 341 647Q356 632 356 607Q356 581 341 564.5Q326 548 302 548Q276 548 260 564.5Q244 581 244 607V651L321 811L361 789ZM131 662 132 662Q156 662 171 647Q186 632 186 607Q186 581 171 564.5Q156 548 132 548Q106 548 90 564.5Q74 581 74 607V651L151 811L191 789Z" glyph-name="quotedblleft" horiz-adv-x="442" unicode="“" /><glyph d="M141 698 140 698Q116 698 101 713Q86 728 86 753Q86 779 101 795.5Q116 812 140 812Q166 812 182 795.5Q198 779 198 753V709L121 549L81 571Z" glyph-name="quoteright" horiz-adv-x="272" unicode="’" /><glyph d="M141 698 140 698Q116 698 101 713Q86 728 86 753Q86 779 101 795.5Q116 812 140 812Q166 812 182 795.5Q198 779 198 753V709L121 549L81 571ZM311 698 310 698Q286 698 271 713Q256 728 256 753Q256 779 271 795.5Q286 812 310 812Q336 812 352 795.5Q368 779 368 753V709L291 549L251 571Z" glyph-name="quotedblright" horiz-adv-x="442" unicode="”" /><glyph d="M74 522 70 800H134L130 522Z" glyph-name="quotesingle" horiz-adv-x="204" unicode="'" /><glyph d="M74 522 70 800H134L130 522ZM214 522 210 800H274L270 522Z" glyph-name="quotedbl" horiz-adv-x="344" unicode="&quot;" /><glyph d="M289 386Q289 350 267 328.5Q245 307 208 307Q172 307 151 328.5Q130 350 130 386Q130 423 151.5 445.5Q173 468 208 468Q245 468 267 445.5Q289 423 289 386Z" glyph-name="bullet" horiz-adv-x="419" unicode="•" /><glyph d="M271 -10Q187 -10 131 45Q75 100 75 181Q75 244 113 305.5Q151 367 221 419Q165 489 144 535Q123 581 123 627Q123 710 173.5 760Q224 810 307 810Q384 810 432.5 763Q481 716 481 642Q481 579 449 530Q417 481 346 435L302 407Q319 386 334.5 366.5Q350 347 366 328L458 214Q464 228 469 243.5Q474 259 479 276L514 399H572L534 261Q527 236 518.5 212Q510 188 499 164L631 0H555L468 109Q429 50 379 20Q329 -10 271 -10ZM307 752Q253 752 219 717.5Q185 683 185 627Q185 592 204 551.5Q223 511 268 450L314 479Q367 512 393 552.5Q419 593 419 642Q419 691 388 721.5Q357 752 307 752ZM256 375Q198 331 167.5 281Q137 231 137 181Q137 124 175 86Q213 48 271 48Q320 48 360 75Q400 102 431 156L320 295Q315 301 309.5 308Q304 315 293 328Q277 348 269.5 357.5Q262 367 256 375Z" glyph-name="ampersand" horiz-adv-x="658" unicode="&amp;" /><glyph d="M40 625Q40 709 85 754.5Q130 800 213 800H295V0H235V450H213Q130 450 85 495Q40 540 40 625ZM475 0 475 800H535V0Z" glyph-name="paragraph" horiz-adv-x="624" unicode="¶" /><glyph d="M192 581 192 800H252V581L404 577V526L252 522L248 0H196L192 522L40 526V577Z" glyph-name="dagger" horiz-adv-x="444" unicode="†" /><glyph d="M192 601 192 800H252V601L404 597V546L252 542L250 258L404 254V203L250 199V0H194V199L40 203V254L194 258L192 542L40 546V597Z" glyph-name="daggerdbl" horiz-adv-x="444" unicode="‡" /><glyph d="M478 114Q515 88 533 54Q551 20 551 -25Q551 -109 484.5 -160.5Q418 -212 312 -212Q200 -212 131.5 -151.5Q63 -91 63 10V50H123V10Q123 -66 174.5 -110.5Q226 -155 313 -155Q389 -155 440 -118.5Q491 -82 491 -27Q491 7 475.5 33Q460 59 427 80Q409 91 384.5 102Q360 113 306 132Q241 155 210.5 169Q180 183 159 199Q123 225 105.5 259.5Q88 294 88 338Q88 377 102 412Q116 447 142 475Q107 502 90 536Q73 570 73 613Q73 701 140 756.5Q207 812 311 812Q423 812 492 751Q561 690 561 590V550H501V590Q501 665 448.5 710Q396 755 310 755Q235 755 184 715Q133 675 133 615Q133 580 148.5 553.5Q164 527 197 506Q215 494 240 483Q265 472 320 453Q385 431 415 417Q445 403 466 387Q502 361 519 327.5Q536 294 536 250Q536 211 521.5 176.5Q507 142 478 114ZM194 445Q172 423 160 396Q148 369 148 340Q148 296 173 265Q198 234 254 209Q279 198 337.5 177.5Q396 157 424 144Q449 165 462.5 192Q476 219 476 248Q476 291 450.5 322Q425 353 366 378Q343 388 283.5 409Q224 430 194 445Z" glyph-name="section" horiz-adv-x="624" unicode="§" /><glyph d="M74 489 25 519L96 635L3 650L11 704L114 686V800H170V686L273 704L281 650L187 635L260 519L212 489L142 608Z" glyph-name="asterisk" horiz-adv-x="284" unicode="*" /><glyph d="M160 740 40 740V800H340V740H220V440H160ZM409 440 409 800H770V440H710V740H618V440H558V740H469V440Z" glyph-name="trademark" horiz-adv-x="810" unicode="™" /><glyph d="M451 -12Q281 -12 165.5 106.5Q50 225 50 400Q50 575 165.5 693.5Q281 812 451 812Q621 812 736.5 693.5Q852 575 852 400Q852 225 736.5 106.5Q621 -12 451 -12ZM118 400Q118 249 212 151Q306 53 451 53Q595 53 689.5 151.5Q784 250 784 400Q784 550 689.5 648.5Q595 747 451 747Q307 747 212.5 648.5Q118 550 118 400ZM363 191 303 191V601H533V376H612V191H552V319H363ZM363 544 363 376H473V544Z" glyph-name="registered" horiz-adv-x="902" unicode="®" /><glyph d="M451 -12Q281 -12 165.5 106.5Q50 225 50 400Q50 575 165.5 693.5Q281 812 451 812Q621 812 736.5 693.5Q852 575 852 400Q852 225 736.5 106.5Q621 -12 451 -12ZM118 400Q118 249 212 151Q306 53 451 53Q595 53 689.5 151.5Q784 250 784 400Q784 550 689.5 648.5Q595 747 451 747Q307 747 212.5 648.5Q118 550 118 400ZM591 191 298 191V601H594V544H358V248H591Z" glyph-name="copyright" horiz-adv-x="902" unicode="©" /><glyph d="M436 188Q357 188 303.5 248.5Q250 309 250 398Q250 486 304 546.5Q358 607 436 607Q473 607 505 591.5Q537 576 561 548V595H629V326Q629 293 648 271Q667 249 695 249Q737 249 760.5 291.5Q784 334 784 410Q784 559 693 653Q602 747 460 747Q310 747 214 650Q118 553 118 402Q118 257 204 161Q290 65 421 65H629V0H421Q265 0 157.5 116.5Q50 233 50 402Q50 578 167.5 695Q285 812 460 812Q629 812 740.5 698Q852 584 852 410Q852 308 809.5 248Q767 188 695 188Q654 188 622.5 209Q591 230 576 267Q551 229 514.5 208.5Q478 188 436 188ZM318 398Q318 335 352 294Q386 253 439 253Q492 253 526.5 294Q561 335 561 398Q561 460 526 501Q491 542 439 542Q387 542 352.5 501Q318 460 318 398Z" glyph-name="at" horiz-adv-x="902" unicode="@" /><glyph d="M404 440 346 440V486Q322 460 290.5 446.5Q259 433 224 433Q148 433 96.5 487.5Q45 542 45 623Q45 703 96.5 757.5Q148 812 224 812Q259 812 290.5 798.5Q322 785 346 759V800H404ZM103 623Q103 564 137.5 526Q172 488 224 488Q277 488 311.5 526.5Q346 565 346 623Q346 681 311.5 719Q277 757 224 757Q172 757 137.5 719Q103 681 103 623Z" glyph-name="ordfeminine" horiz-adv-x="469" unicode="ª" /><glyph d="M229 433Q151 433 98 487.5Q45 542 45 623Q45 703 98 757.5Q151 812 229 812Q308 812 361 757.5Q414 703 414 623Q414 542 361 487.5Q308 433 229 433ZM103 623Q103 564 138.5 526Q174 488 229 488Q284 488 320 526.5Q356 565 356 623Q356 681 320 719Q284 757 229 757Q174 757 138.5 719Q103 681 103 623Z" glyph-name="ordmasculine" horiz-adv-x="459" unicode="º" /><glyph d="M152 0 85 0L126 242H20V299H135L170 501H56V558H179L220 800H287L246 558H469L510 800H577L536 558H646V501H527L492 299H610V242H483L442 0H375L416 242H193ZM237 501 202 299H425L460 501Z" glyph-name="numbersign" horiz-adv-x="666" unicode="#" /><glyph d="M168 272 59 272V329H155Q152 346 150.5 364Q149 382 149 400Q149 418 150.5 436Q152 454 155 471H55V528H168Q206 652 309.5 726Q413 800 550 800H668V743H560Q442 743 356.5 686Q271 629 237 528H565V471H223Q220 454 218.5 436Q217 418 217 400Q217 382 218.5 364Q220 346 223 329H569V272H237Q271 171 356.5 114Q442 57 560 57H668V0H550Q413 0 309.5 74Q206 148 168 272Z" glyph-name="Euro" horiz-adv-x="718" unicode="€" /><glyph d="M283 811 283 865H343V810Q442 801 501.5 735.5Q561 670 561 570V530H501V570Q501 645 458.5 694Q416 743 343 753V412Q402 391 433.5 374.5Q465 358 487 339Q520 311 535.5 275.5Q551 240 551 195Q551 109 494 53.5Q437 -2 343 -11V-65H283V-11Q182 -2 122.5 63Q63 128 63 230V270H123V230Q123 153 166 104.5Q209 56 283 47V372Q160 418 116.5 468Q73 518 73 593Q73 683 131 743Q189 803 283 811ZM133 595Q133 541 166.5 503.5Q200 466 283 435V753Q217 745 175 701Q133 657 133 595ZM491 193Q491 245 458.5 281Q426 317 343 350V47Q408 55 449.5 96Q491 137 491 193Z" glyph-name="dollar" horiz-adv-x="624" unicode="$" /><glyph d="M69 134 69 191H306V333H69V390H129V800H189V390H494V800H554V390H604V333H366V191H604V134H366V0H306V134Z" glyph-name="yen" horiz-adv-x="673" unicode="¥" /><glyph d="M69 290 69 347H162V584Q162 686 220.5 749Q279 812 372 812Q465 812 522.5 745.5Q580 679 580 570V530H520V570Q520 654 479 704.5Q438 755 371 755Q306 755 264 708Q222 661 222 588V347H491V290H222V188Q222 148 209.5 115Q197 82 173 57H556V0H42V57Q95 57 128.5 94Q162 131 162 188V290Z" glyph-name="sterling" horiz-adv-x="625" unicode="£" /><glyph d="M225 354 174 354L545 47L505 -4L80 354V411H223Q302 411 350.5 445.5Q399 480 409 544H84V601H411Q403 669 354 706Q305 743 223 743H80V800H590V743H396Q429 718 448 682Q467 646 471 601H594V544H470Q459 454 395 404Q331 354 225 354Z" glyph-name="uni20B9" horiz-adv-x="644" unicode="₹" /><glyph d="M274 140 89 140V660H274V800H334V660H495V603H334V197H492V140H334V0H274ZM149 603 149 197H274V603Z" glyph-name="cent" horiz-adv-x="545" unicode="¢" /><glyph d="M273 410 273 -74Q273 -134 236.5 -173Q200 -212 143 -212Q86 -212 50.5 -173Q15 -134 15 -74V-40H75V-74Q75 -109 94 -132Q113 -155 144 -155Q175 -155 194 -132Q213 -109 213 -74V410H72V467H213V674Q213 734 249.5 773Q286 812 343 812Q400 812 435.5 773Q471 734 471 674V600H411V674Q411 709 392 732Q373 755 342 755Q311 755 292 732Q273 709 273 674V467H438V410Z" glyph-name="florin" horiz-adv-x="501" unicode="ƒ" /><glyph d="M155 246 81 172L45 213L118 286Q102 310 93.5 338Q85 366 85 397Q85 428 94 457Q103 486 120 510L45 586L82 626L158 550Q182 568 210 577Q238 586 269 586Q300 586 328 576.5Q356 567 381 549L457 626L494 586L419 511Q436 486 445 457Q454 428 454 397Q454 366 445.5 338Q437 310 421 286L494 213L458 172L384 246Q360 227 331 217Q302 207 269 207Q237 207 208 217Q179 227 155 246ZM143 397Q143 338 178.5 300Q214 262 269 262Q324 262 360 300.5Q396 339 396 397Q396 455 360 493Q324 531 269 531Q214 531 178.5 493Q143 455 143 397Z" glyph-name="currency" horiz-adv-x="539" unicode="¤" /><glyph d="M341 812Q470 812 548.5 739.5Q627 667 627 548V252Q627 133 548.5 60.5Q470 -12 341 -12Q213 -12 134.5 60.5Q56 133 56 252V548Q56 667 134 739.5Q212 812 341 812ZM341 168Q383 168 409 194Q435 220 435 262V538Q435 580 409 606Q383 632 341 632Q300 632 274 606Q248 580 248 538V262Q248 220 274 194Q300 168 341 168Z" glyph-name="zero" horiz-adv-x="683" unicode="0" /><glyph d="M430 0 230 0V505H30V699H230V800H430Z" glyph-name="one" horiz-adv-x="519" unicode="1" /><glyph d="M237 504 47 504V559Q47 670 120 741Q193 812 307 812Q416 812 488 744.5Q560 677 560 575Q560 518 535 450Q510 382 457 297L392 194H565V0H39L317 449Q341 488 353 518Q365 548 365 571Q365 599 348 617Q331 635 304 635Q273 635 255 612Q237 589 237 549Z" glyph-name="two" horiz-adv-x="619" unicode="2" /><glyph d="M677 0 87 0V194H477V300H137V494H397V606H87V800H597V494H677Z" glyph-name="three" horiz-adv-x="757" unicode="3" /><glyph d="M409 199 342 199Q204 199 131.5 268.5Q59 338 59 470V800H259V480Q259 434 280.5 415Q302 396 352 396H409V700H609V0H409Z" glyph-name="four" horiz-adv-x="678" unicode="4" /><glyph d="M655 0 70 0V194H455V303H95V800H599V606H295V497H655Z" glyph-name="five" horiz-adv-x="742" unicode="5" /><glyph d="M369 514Q472 514 544 437.5Q616 361 616 252Q616 137 537 62.5Q458 -12 336 -12Q222 -12 145.5 65.5Q69 143 69 259V413Q69 573 128.5 661.5Q188 750 313 775L498 812L536 633L341 593Q296 584 273.5 556Q251 528 246 475Q271 494 302.5 504Q334 514 369 514ZM343 161Q380 161 404.5 186.5Q429 212 429 252Q429 292 404.5 316.5Q380 341 343 341Q305 341 280.5 316.5Q256 292 256 252Q256 212 281 186.5Q306 161 343 161Z" glyph-name="six" horiz-adv-x="643" unicode="6" /><glyph d="M55 606 55 800H565V0H365V606Z" glyph-name="seven" horiz-adv-x="654" unicode="7" /><glyph d="M688 0 87 0V450H153V800H622V450H688ZM434 618 341 618V450H434ZM277 267 277 182H498V267Z" glyph-name="eight" horiz-adv-x="775" unicode="8" /><glyph d="M274 286Q171 286 99 362.5Q27 439 27 548Q27 663 106 737.5Q185 812 307 812Q421 812 497.5 734.5Q574 657 574 541V387Q574 227 514.5 138.5Q455 50 330 25L145 -12L107 167L302 207Q347 216 369.5 244Q392 272 397 325Q372 306 340.5 296Q309 286 274 286ZM300 639Q263 639 238.5 613.5Q214 588 214 548Q214 508 238.5 483.5Q263 459 300 459Q338 459 362.5 483.5Q387 508 387 548Q387 588 362 613.5Q337 639 300 639Z" glyph-name="nine" horiz-adv-x="643" unicode="9" /><glyph d="M89 812 675 812V-12H89ZM289 182 475 182V618H289Z" glyph-name="zero.alt1" horiz-adv-x="764" unicode="" /><glyph d="M125 606 30 606V800H135Q269 800 339 729Q409 658 409 523V0H209V513Q209 563 190 584.5Q171 606 125 606Z" glyph-name="one.alt1" horiz-adv-x="489" unicode="" /><glyph d="M672 0 87 0V497H447V606H111V800H647V303H287V194H672Z" glyph-name="two.alt1" horiz-adv-x="733" unicode="" /><glyph d="M570 224Q570 118 494.5 58Q419 -2 286 -1L70 0V188H289Q333 188 351 202Q369 216 369 248Q369 280 350.5 294Q332 308 289 308H113V492H239Q283 492 301 505.5Q319 519 319 552Q319 585 301 598.5Q283 612 239 612H70V800H239Q371 800 445.5 739Q520 678 520 571Q520 516 500 476Q480 436 439 410Q505 388 537.5 341.5Q570 295 570 224Z" glyph-name="three.alt1" horiz-adv-x="596" unicode="" /><glyph d="M479 201 79 201V800H279V395H479V700H679V0H479Z" glyph-name="four.alt1" horiz-adv-x="766" unicode="" /><glyph d="M315 329Q289 329 267 314.5Q245 300 234 275H58V800H481V604H243V488Q265 499 289 504Q313 509 340 509Q448 509 517.5 437.5Q587 366 587 257Q587 143 512 71.5Q437 0 317 0H58V180H307Q341 180 364 201.5Q387 223 387 257Q387 289 367 309Q347 329 315 329Z" glyph-name="five.alt1" horiz-adv-x="602" unicode="" /><glyph d="M674 0 89 0V800H588V606H289V489H674ZM279 305 279 184H484V305Z" glyph-name="six.alt1" horiz-adv-x="761" unicode="" /><glyph d="M305 0 68 0L373 603H50V800H582V590Z" glyph-name="seven.alt1" horiz-adv-x="604" unicode="" /><glyph d="M316 -12Q196 -12 118 61.5Q40 135 40 247Q40 303 65.5 351.5Q91 400 138 433Q105 461 87 499Q69 537 69 580Q69 680 139 746Q209 812 316 812Q422 812 492 746Q562 680 562 580Q562 537 544 499Q526 461 493 433Q540 400 565.5 351.5Q591 303 591 247Q591 135 513 61.5Q435 -12 316 -12ZM316 505Q349 505 371 527Q393 549 393 582Q393 613 370.5 634.5Q348 656 316 656Q284 656 262 634.5Q240 613 240 582Q240 549 261.5 527Q283 505 316 505ZM316 159Q354 159 379 183.5Q404 208 404 244Q404 281 379 305.5Q354 330 316 330Q278 330 253 305.5Q228 281 228 244Q228 208 253 183.5Q278 159 316 159Z" glyph-name="eight.alt1" horiz-adv-x="631" unicode="" /><glyph d="M89 800 674 800V0H175V194H474V296H89ZM279 616 279 480H484V616Z" glyph-name="nine.alt1" horiz-adv-x="761" unicode="" /><glyph d="M229 433Q151 433 98 487.5Q45 542 45 623Q45 703 98 757.5Q151 812 229 812Q308 812 361 757.5Q414 703 414 623Q414 542 361 487.5Q308 433 229 433ZM103 623Q103 564 138.5 526Q174 488 229 488Q284 488 320 526.5Q356 565 356 623Q356 681 320 719Q284 757 229 757Q174 757 138.5 719Q103 681 103 623Z" glyph-name="degree" horiz-adv-x="459" unicode="°" /><glyph d="M229 433Q151 433 98 487.5Q45 542 45 623Q45 703 98 757.5Q151 812 229 812Q308 812 361 757.5Q414 703 414 623Q414 542 361 487.5Q308 433 229 433ZM366 0 299 0L645 800H712ZM103 623Q103 564 138.5 526Q174 488 229 488Q284 488 320 526.5Q356 565 356 623Q356 681 320 719Q284 757 229 757Q174 757 138.5 719Q103 681 103 623ZM781 -7Q703 -7 650 47.5Q597 102 597 183Q597 263 650 317.5Q703 372 781 372Q860 372 913 317.5Q966 263 966 183Q966 102 913 47.5Q860 -7 781 -7ZM655 183Q655 124 690.5 86Q726 48 781 48Q836 48 872 86.5Q908 125 908 183Q908 241 872 279Q836 317 781 317Q726 317 690.5 279Q655 241 655 183Z" glyph-name="percent" horiz-adv-x="1011" unicode="%" /><glyph d="M229 433Q151 433 98 487.5Q45 542 45 623Q45 703 98 757.5Q151 812 229 812Q308 812 361 757.5Q414 703 414 623Q414 542 361 487.5Q308 433 229 433ZM366 0 299 0L645 800H712ZM103 623Q103 564 138.5 526Q174 488 229 488Q284 488 320 526.5Q356 565 356 623Q356 681 320 719Q284 757 229 757Q174 757 138.5 719Q103 681 103 623ZM1230 -7Q1152 -7 1099 47.5Q1046 102 1046 183Q1046 263 1099 317.5Q1152 372 1230 372Q1309 372 1362 317.5Q1415 263 1415 183Q1415 102 1362 47.5Q1309 -7 1230 -7ZM781 -7Q703 -7 650 47.5Q597 102 597 183Q597 263 650 317.5Q703 372 781 372Q860 372 913 317.5Q966 263 966 183Q966 102 913 47.5Q860 -7 781 -7ZM1104 183Q1104 124 1139.5 86Q1175 48 1230 48Q1285 48 1321 86.5Q1357 125 1357 183Q1357 241 1321 279Q1285 317 1230 317Q1175 317 1139.5 279Q1104 241 1104 183ZM655 183Q655 124 690.5 86Q726 48 781 48Q836 48 872 86.5Q908 125 908 183Q908 241 872 279Q836 317 781 317Q726 317 690.5 279Q655 241 655 183Z" glyph-name="perthousand" horiz-adv-x="1460" unicode="‰" /><glyph d="M17 0 -50 0L296 800H363Z" glyph-name="fraction" horiz-adv-x="313" unicode="⁄" /><glyph d="M17 0 -50 0L296 800H363Z" glyph-name="uni2215" horiz-adv-x="313" unicode="∕" /><glyph d="M229 433Q151 433 98 487.5Q45 542 45 623Q45 703 98 757.5Q151 812 229 812Q308 812 361 757.5Q414 703 414 623Q414 542 361 487.5Q308 433 229 433ZM103 623Q103 564 138.5 526Q174 488 229 488Q284 488 320 526.5Q356 565 356 623Q356 681 320 719Q284 757 229 757Q174 757 138.5 719Q103 681 103 623Z" glyph-name="zerosuperior" horiz-adv-x="459" unicode="⁰" /><glyph d="M222 440 162 440V671H20V728H162V800H222Z" glyph-name="onesuperior" horiz-adv-x="302" unicode="¹" /><glyph d="M356 440 60 440V648H283V743H80V800H343V591H120V497H356Z" glyph-name="twosuperior" horiz-adv-x="413" unicode="²" /><glyph d="M338 440 38 440V497H278V591H85V648H221V743H38V800H281V648H338Z" glyph-name="threesuperior" horiz-adv-x="391" unicode="³" /><glyph d="M320 440 260 440V536H60V800H120V593H260V800H320Z" glyph-name="foursuperior" horiz-adv-x="400" unicode="⁴" /><glyph d="M222 440 162 440V671H20V728H162V800H222ZM229 0 162 0L508 800H575ZM791 0 495 0V208H718V303H515V360H778V151H555V57H791Z" glyph-name="onehalf" horiz-adv-x="848" unicode="½" /><glyph d="M222 440 162 440V671H20V728H162V800H222ZM229 0 162 0L508 800H575ZM695 96 495 96V360H555V153H695V360H755V0H695Z" glyph-name="onequarter" horiz-adv-x="836" unicode="¼" /><glyph d="M338 440 38 440V497H278V591H85V648H221V743H38V800H281V648H338ZM318 0 251 0L597 800H664ZM783 96 583 96V360H643V153H783V360H843V0H783Z" glyph-name="threequarters" horiz-adv-x="924" unicode="¾" /><glyph d="M220 350 30 350V410H220V610H280V410H470V350H280V150H220Z" glyph-name="plus" horiz-adv-x="500" unicode="+" /><glyph d="M460 350 40 350V410H460Z" glyph-name="minus" horiz-adv-x="500" unicode="−" /><glyph d="M250 337 102 189L59 232L207 380L59 528L102 571L250 423L398 571L441 528L293 380L441 232L398 189Z" glyph-name="multiply" horiz-adv-x="500" unicode="×" /><glyph d="M309 586Q309 559 292.5 543Q276 527 248 527Q222 527 206 543Q190 559 190 586Q190 614 206 631Q222 648 248 648Q276 648 292.5 631Q309 614 309 586ZM470 350 30 350V410H470ZM309 186Q309 159 292.5 143Q276 127 248 127Q222 127 206 143Q190 159 190 186Q190 214 206 231Q222 248 248 248Q276 248 292.5 231Q309 214 309 186Z" glyph-name="divide" horiz-adv-x="500" unicode="÷" /><glyph d="M460 470 40 470V530H460ZM460 230 40 230V290H460Z" glyph-name="equal" horiz-adv-x="500" unicode="=" /><glyph d="M394 420 22 420V480H454V220H394Z" glyph-name="logicalnot" horiz-adv-x="500" unicode="¬" /><glyph d="M180 410Q193 410 209.5 407Q226 404 262 395Q297 386 313.5 383Q330 380 342 380Q369 380 393 393.5Q417 407 443 437L481 399Q448 358 414 339Q380 320 342 320Q327 320 308.5 323Q290 326 253 336Q220 345 205.5 347.5Q191 350 180 350Q153 350 129 336.5Q105 323 79 293L41 331Q74 372 108 391Q142 410 180 410Z" glyph-name="asciitilde" horiz-adv-x="500" unicode="~" /><glyph d="M172 380 408 179L364 127L71 383L364 632L408 579Z" glyph-name="less" horiz-adv-x="500" unicode="&lt;" /><glyph d="M136 127 92 179L328 380L92 579L136 632L429 383Z" glyph-name="greater" horiz-adv-x="500" unicode="&gt;" /><glyph d="M220 350 30 350V410H220V610H280V410H470V350H280V150H220ZM470 0 30 0V60H470Z" glyph-name="plusminus" horiz-adv-x="500" unicode="±" /><glyph d="M57 459 207 799H285L435 459L381 434L246 750L111 434Z" glyph-name="asciicircum" horiz-adv-x="500" unicode="^" /><glyph d="M252 230 214 68H147L185 230H40V290H199L240 470H40V530H254L292 692H359L321 530H460V470H307L266 290H460V230Z" glyph-name="notequal" horiz-adv-x="500" unicode="≠" /><glyph d="M180 530Q193 530 209.5 527Q226 524 262 515Q297 506 313.5 503Q330 500 342 500Q369 500 393 513.5Q417 527 443 557L481 519Q448 478 414 459Q380 440 342 440Q327 440 308.5 443Q290 446 253 456Q220 465 205.5 467.5Q191 470 180 470Q153 470 129 456.5Q105 443 79 413L41 451Q74 492 108 511Q142 530 180 530ZM180 320Q193 320 209.5 317Q226 314 262 305Q297 296 313.5 293Q330 290 342 290Q369 290 393 303.5Q417 317 443 347L481 309Q448 268 414 249Q380 230 342 230Q327 230 308.5 233Q290 236 253 246Q220 255 205.5 257.5Q191 260 180 260Q153 260 129 246.5Q105 233 79 203L41 241Q74 282 108 301Q142 320 180 320Z" glyph-name="approxequal" horiz-adv-x="500" unicode="≈" /><glyph d="M162 410 398 209L354 157L61 413L354 662L398 609ZM462 0 30 0V60H462Z" glyph-name="lessequal" horiz-adv-x="500" unicode="≤" /><glyph d="M146 157 102 209L338 410L102 609L146 662L439 413ZM470 60 470 0H38V60Z" glyph-name="greaterequal" horiz-adv-x="500" unicode="≥" /><glyph d="M483 401Q483 349 452.5 315.5Q422 282 373 282Q340 282 308 301Q276 320 249 357Q222 320 191 301Q160 282 127 282Q82 282 49.5 317Q17 352 17 401Q17 451 48.5 485Q80 519 127 519Q159 519 189.5 499Q220 479 252 436Q283 480 311.5 499.5Q340 519 374 519Q420 519 451.5 485Q483 451 483 401ZM69 401Q69 371 85 350.5Q101 330 127 330Q154 330 180.5 348.5Q207 367 224 397Q206 431 180 451Q154 471 127 471Q101 471 85 451.5Q69 432 69 401ZM277 397Q295 366 321 348Q347 330 373 330Q399 330 415 350Q431 370 431 401Q431 431 415 451Q399 471 373 471Q346 471 320.5 451.5Q295 432 277 397Z" glyph-name="infinity" horiz-adv-x="500" unicode="∞" /><glyph d="M378 800 632 400L378 0H295L40 400L295 800ZM336 37 565 400L336 763L107 400Z" glyph-name="lozenge" horiz-adv-x="674" unicode="◊" /><glyph d="M181 31 366 800H505V744H410L231 0H128L0 411H63Z" glyph-name="radical" horiz-adv-x="510" unicode="√" /><glyph d="M227 625 227 -18Q227 -102 192.5 -151Q158 -200 102 -200Q78 -200 54.5 -191Q31 -182 10 -165L39 -120Q54 -130 69.5 -135.5Q85 -141 99 -141Q131 -141 149 -107.5Q167 -74 167 -13V630Q167 714 201.5 763Q236 812 292 812Q316 812 339.5 803Q363 794 384 777L355 732Q340 742 324.5 747.5Q309 753 295 753Q263 753 245 719.5Q227 686 227 625Z" glyph-name="integral" horiz-adv-x="394" unicode="∫" /><glyph d="M479 214Q479 119 412 52Q345 -15 251 -15Q157 -15 89.5 52.5Q22 120 22 214Q22 309 89.5 376Q157 443 251 443Q283 443 314 433.5Q345 424 371 406L216 760H280L383 525Q432 413 455.5 336.5Q479 260 479 214ZM82 214Q82 143 131 93.5Q180 44 251 44Q322 44 370.5 93Q419 142 419 214Q419 286 370.5 335Q322 384 251 384Q180 384 131 334.5Q82 285 82 214Z" glyph-name="partialdiff" horiz-adv-x="499" unicode="∂" /><glyph d="M89 -75 89 800H609V-75H549V747H149V-75Z" glyph-name="product" horiz-adv-x="698" unicode="∏" /><glyph d="M201 0 141 0V498H9V550H696V498H565V175Q565 114 583 80.5Q601 47 633 47Q647 47 662.5 52.5Q678 58 693 68L722 23Q702 6 677.5 -3Q653 -12 628 -12Q573 -12 539 37Q505 86 505 170V498H201Z" glyph-name="pi" horiz-adv-x="715" unicode="π" /><glyph d="M104 63 104 -200H52V550H112V194Q112 128 153.5 86.5Q195 45 261 45Q327 45 369 86.5Q411 128 411 194V550H471V182Q471 99 485.5 72Q500 45 536 45Q553 45 569.5 50Q586 55 601 64L618 11Q600 0 579.5 -6Q559 -12 536 -12Q491 -12 466 8Q441 28 430 72Q401 33 356 10.5Q311 -12 261 -12Q214 -12 172.5 8Q131 28 104 63Z" glyph-name="mu" horiz-adv-x="623" unicode="μ" /><glyph d="M96 -17 510 -17V-74H7V-17H8L301 345L8 743H7V800H510V743H93L385 344Z" glyph-name="summation" horiz-adv-x="515" unicode="∑" /><glyph d="M296 0 53 0V57H236V112Q140 139 85 225.5Q30 312 30 437Q30 607 131.5 709.5Q233 812 400 812Q567 812 668 709Q769 606 769 437Q769 314 714 227Q659 140 564 113V57H746V0H503V160Q596 164 653 240Q710 316 710 437Q710 581 625 668Q540 755 400 755Q260 755 175 668Q90 581 90 437Q90 316 146.5 240Q203 164 296 160Z" glyph-name="Omega" horiz-adv-x="799" unicode="Ω" /><glyph d="M296 0 53 0V57H236V112Q140 139 85 225.5Q30 312 30 437Q30 607 131.5 709.5Q233 812 400 812Q567 812 668 709Q769 606 769 437Q769 314 714 227Q659 140 564 113V57H746V0H503V160Q596 164 653 240Q710 316 710 437Q710 581 625 668Q540 755 400 755Q260 755 175 668Q90 581 90 437Q90 316 146.5 240Q203 164 296 160Z" glyph-name="uni03A9" horiz-adv-x="799" unicode="" /><glyph d="M750 38 750 0H10V38L353 800H397ZM376 702 86 57H673Z" glyph-name="Delta" horiz-adv-x="760" unicode="Δ" /><glyph d="M750 38 750 0H10V38L353 800H397ZM376 702 86 57H673Z" glyph-name="uni0394" horiz-adv-x="760" unicode="" /><glyph d="M74 230 43 205L9 250L74 302V669Q74 733 109.5 772Q145 811 204 811Q268 811 301 765.5Q334 720 334 635Q334 538 288 452Q242 366 152 293L134 278V139Q134 96 151 71.5Q168 47 199 47Q233 47 252.5 71.5Q272 96 272 139V159H328V132Q328 66 293.5 28Q259 -10 199 -10Q141 -10 107.5 29Q74 68 74 132ZM204 754Q171 754 152.5 729.5Q134 705 134 662V351Q203 411 238.5 482.5Q274 554 274 635Q274 696 256.5 725Q239 754 204 754Z" glyph-name="uni2113" horiz-adv-x="357" unicode="ℓ" /><glyph d="M667 264 667 257H171Q169 257 168 256Q167 255 167 254V104Q167 99 168.5 94.5Q170 90 174 86Q211 48 260 27Q309 6 362 6Q419 6 470 29.5Q521 53 559 96H603Q560 46 496 17.5Q432 -11 361 -11Q234 -11 144.5 69.5Q55 150 55 264Q55 379 144.5 460Q234 541 361 541Q488 541 577.5 460Q667 379 667 264ZM555 276 555 427Q555 433 553 437.5Q551 442 547 446Q510 484 462.5 504Q415 524 362 524Q309 524 260 503Q211 482 175 443Q171 440 169 435Q167 430 167 424V276Q167 275 168.5 273.5Q170 272 171 272H552Q553 272 554 273Q555 274 555 276Z" glyph-name="estimated" horiz-adv-x="722" unicode="℮" /></font>
</defs>
</svg>
