<?xml version="1.0" standalone="no"?>
<!DOCTYPE svg
  PUBLIC '-//W3C//DTD SVG 1.1//EN'
  'http://www.w3.org/Graphics/SVG/1.1/DTD/svg11.dtd'><svg version="1.1" xmlns="http://www.w3.org/2000/svg"><defs><font horiz-adv-x="0" id="font"><font-face ascent="750" bbox="-68 -295 1415 1058" cap-height="800" descent="-250" font-family="Bendicion Light" font-stretch="normal" font-style="normal" font-weight="800" units-per-em="1000" x-height="800" /><missing-glyph d="M584 0 89 0V800H584ZM149 743 149 57H524V743Z" horiz-adv-x="673" /><glyph d="" glyph-name=".null" horiz-adv-x="0" unicode="" /><glyph d="" glyph-name="CR" horiz-adv-x="0" unicode="" /><glyph d="" glyph-name="space" horiz-adv-x="340" unicode=" " /><glyph d="" glyph-name="uni00A0" horiz-adv-x="340" unicode=" " /><glyph d="M431 -12Q270 -12 160 106.5Q50 225 50 400Q50 575 160 693.5Q270 812 431 812Q529 812 611.5 762.5Q694 713 744 625V800H804V0H744V175Q694 87 611.5 37.5Q529 -12 431 -12ZM118 400Q118 249 206.5 150.5Q295 52 431 52Q567 52 655.5 150.5Q744 249 744 400Q744 550 655 649Q566 748 431 748Q295 748 206.5 649.5Q118 551 118 400Z" glyph-name="A" horiz-adv-x="891" unicode="A" /><glyph d="M149 0 89 0V800H451V363H645V0H585V1H149ZM149 743 149 363H391V743ZM149 306 149 58H585V306Z" glyph-name="B" horiz-adv-x="684" unicode="B" /><glyph d="M50 400Q50 573 164.5 686.5Q279 800 454 800H589V743H461Q307 743 212.5 649Q118 555 118 400Q118 246 212.5 151.5Q307 57 461 57H589V0H454Q279 0 164.5 113.5Q50 227 50 400Z" glyph-name="C" horiz-adv-x="639" unicode="C" /><glyph d="M638 0 89 0V746L71 770L121 812L687 51ZM150 664 150 57H603Z" glyph-name="D" horiz-adv-x="687" unicode="D" /><glyph d="M149 57 499 57V0H89V582Q89 690 148.5 751Q208 812 314 812Q422 812 483 751Q544 690 544 582V331H149ZM315 754Q237 754 193 707Q149 660 149 577V388H484V579Q484 661 439.5 707.5Q395 754 315 754Z" glyph-name="E" horiz-adv-x="598" unicode="E" /><glyph d="M149 0 89 0V323L32 313L21 371L89 383V800H469V743H149V393L415 440L426 382L149 333Z" glyph-name="F" horiz-adv-x="490" unicode="F" /><glyph d="M50 400Q50 573 164 686.5Q278 800 451 800H619V743H461Q307 743 212.5 649Q118 555 118 400Q118 246 212.5 151.5Q307 57 461 57H644V425H704V0H451Q278 0 164 113.5Q50 227 50 400Z" glyph-name="G" horiz-adv-x="743" unicode="G" /><glyph d="M149 0 89 0V326L54 320L44 378L89 386V800H149V396L535 463V800H595V473L628 479L638 421L595 414V0H535V403L149 336Z" glyph-name="H" horiz-adv-x="684" unicode="H" /><glyph d="M336 0 50 0V57H163V743H50V800H336V743H223V57H336Z" glyph-name="I" horiz-adv-x="386" unicode="I" /><glyph d="M532 0 66 0V398H126V57H472V800H532Z" glyph-name="J" horiz-adv-x="621" unicode="J" /><glyph d="M149 0 89 0V800H149V390H301Q381 390 425.5 436.5Q470 483 470 566V800H530V561Q530 501 508.5 454.5Q487 408 447 379Q524 362 567 305Q610 248 610 162V0H550V157Q550 240 505.5 286.5Q461 333 381 333H149Z" glyph-name="K" horiz-adv-x="665" unicode="K" /><glyph d="M489 0 89 0V800H149V57H489Z" glyph-name="L" horiz-adv-x="489" unicode="L" /><glyph d="M434 0 374 0V743H149V0H89V800H719V0H659V743H434Z" glyph-name="M" horiz-adv-x="808" unicode="M" /><glyph d="M169 0 109 0V707L64 775L117 812L544 167V800H604V77L637 27L585 -12L169 616Z" glyph-name="N" horiz-adv-x="713" unicode="N" /><glyph d="M79 162 79 638L213 800H591L725 638V162L591 0H213ZM139 513 139 287Q139 174 190 115.5Q241 57 338 57H466Q563 57 614 115.5Q665 174 665 287V513Q665 626 614 684.5Q563 743 466 743H338Q241 743 190 684.5Q139 626 139 513Z" glyph-name="O" horiz-adv-x="804" unicode="O" /><glyph d="M149 0 89 0V800H548V278H149ZM149 743 149 335H488V743Z" glyph-name="P" horiz-adv-x="608" unicode="P" /><glyph d="M432 0 432 -93H670V-150H447Q412 -150 392 -128Q372 -106 372 -67V0H213L79 162V638L213 800H591L725 638V162L591 0ZM139 513 139 287Q139 174 190 115.5Q241 57 338 57H466Q563 57 614 115.5Q665 174 665 287V513Q665 626 614 684.5Q563 743 466 743H338Q241 743 190 684.5Q139 626 139 513Z" glyph-name="Q" horiz-adv-x="804" unicode="Q" /><glyph d="M149 0 89 0V800H464V363H630V0H570V306H149ZM149 743 149 363H404V743Z" glyph-name="R" horiz-adv-x="689" unicode="R" /><glyph d="M313 45Q389 45 440 87.5Q491 130 491 193Q491 245 455.5 283Q420 321 341 351L245 387Q155 421 114 471Q73 521 73 593Q73 690 140 751Q207 812 311 812Q423 812 492 745.5Q561 679 561 570V530H501V570Q501 654 448.5 704.5Q396 755 310 755Q235 755 184 709Q133 663 133 595Q133 543 165 505Q197 467 266 441L359 406Q465 366 508 316.5Q551 267 551 195Q551 102 484.5 45Q418 -12 312 -12Q200 -12 131.5 54Q63 120 63 230V270H123V230Q123 145 174.5 95Q226 45 313 45Z" glyph-name="S" horiz-adv-x="624" unicode="S" /><glyph d="M309 0 249 0V743H20V800H542V743H309Z" glyph-name="T" horiz-adv-x="562" unicode="T" /><glyph d="M375 45Q477 45 539 110Q601 175 601 283V800H661V280Q661 149 582.5 68.5Q504 -12 375 -12Q246 -12 167.5 68.5Q89 149 89 280V800H149V283Q149 175 211 110Q273 45 375 45Z" glyph-name="U" horiz-adv-x="750" unicode="U" /><glyph d="M666 357 697 325L382 -12L66 325L99 359V800H159V307L382 74L605 308V800H666Z" glyph-name="V" horiz-adv-x="765" unicode="V" /><glyph d="M720 0 89 0V800H149V57H374V800H434V57H659V800H720Z" glyph-name="W" horiz-adv-x="809" unicode="W" /><glyph d="M27 774 73 812L328 464L583 812L629 774L365 412L646 28L601 -12L328 361L55 -12L10 28L291 412Z" glyph-name="X" horiz-adv-x="656" unicode="X" /><glyph d="M366 0 306 0V303H89V800H149V360H524V800H584V303H366Z" glyph-name="Y" horiz-adv-x="673" unicode="Y" /><glyph d="M555 0 74 0V15L37 49L492 743H63V800H554V775L576 756L117 57H555Z" glyph-name="Z" horiz-adv-x="612" unicode="Z" /><glyph d="M130 0 70 0V313H144V800H856V743H536V399L802 445L813 387L536 339V57H856V0H476V256H130ZM204 743 204 313H476V743Z" glyph-name="AE" horiz-adv-x="883" unicode="Æ" /><glyph d="M79 162 79 638L213 800H866V743H546V399L812 445L823 387L546 339V57H866V0H213ZM338 57 486 57V743H338Q241 743 190 684.5Q139 626 139 513V287Q139 174 190 115.5Q241 57 338 57Z" glyph-name="OE" horiz-adv-x="893" unicode="Œ" /><glyph d="M489 0 89 0V339L19 327L10 379L89 393V800H149V403L318 432L327 380L149 349V57H489Z" glyph-name="Lslash" horiz-adv-x="489" unicode="Ł" /><glyph d="M322 0 292 -108L234 -92L260 0H213L79 162V638L213 800H483L513 909L570 890L545 800H591L725 638V162L591 0ZM139 513 139 287Q139 194 174 137.5Q209 81 277 64L467 743H338Q241 743 190 684.5Q139 626 139 513ZM527 736 338 57H466Q563 57 614 115.5Q665 174 665 287V513Q665 606 630 663Q595 720 527 736Z" glyph-name="Oslash" horiz-adv-x="804" unicode="Ø" /><glyph d="M638 0 89 0V211H15V268H89V746L71 770L121 812L687 51ZM338 268 338 211H150V57H603L150 664V268Z" glyph-name="Eth" horiz-adv-x="687" unicode="Ð" /><glyph d="M149 0 89 0V800H149V682H548V160H149ZM149 625 149 217H488V625Z" glyph-name="Thorn" horiz-adv-x="608" unicode="Þ" /><glyph d="M130 0 70 0V313H144V800H536V313H610V0H550V256H130ZM204 743 204 313H476V743Z" glyph-name="a" horiz-adv-x="680" unicode="a" /><glyph d="M353 0 89 0V800H333Q436 800 494.5 746.5Q553 693 553 598Q553 533 526.5 485.5Q500 438 450 413Q523 393 561.5 343Q600 293 600 219Q600 116 534.5 58Q469 0 353 0ZM493 598Q493 666 450 704.5Q407 743 331 743H149V435H331Q407 435 450 478Q493 521 493 598ZM540 219Q540 294 490 336Q440 378 351 378H149V57H351Q440 57 490 100Q540 143 540 219Z" glyph-name="b" horiz-adv-x="635" unicode="b" /><glyph d="M515 0 89 0V800H515V743H149V57H515Z" glyph-name="c" horiz-adv-x="545" unicode="c" /><glyph d="M333 0 89 0V800H333Q501 800 595.5 694.5Q690 589 690 401Q690 213 595.5 106.5Q501 0 333 0ZM624 401Q624 562 546.5 652.5Q469 743 331 743H149V57H331Q469 57 546.5 148Q624 239 624 401Z" glyph-name="d" horiz-adv-x="730" unicode="d" /><glyph d="M469 0 89 0V328L32 318L21 376L89 388V800H469V743H149V398L415 445L426 387L149 338V57H469Z" glyph-name="e" horiz-adv-x="496" unicode="e" /><glyph d="M479 582 479 473H419V579Q419 661 382 707.5Q345 754 280 754Q216 754 180 707Q144 660 144 577V338H408V281H144V0H84V582Q84 690 135.5 751Q187 812 279 812Q373 812 426 751Q479 690 479 582Z" glyph-name="f" horiz-adv-x="521" unicode="f" /><glyph d="M659 0 89 0V800H539V743H149V57H631V355L393 312L383 368L747 433L757 377L691 365V1H659Z" glyph-name="g" horiz-adv-x="780" unicode="g" /><glyph d="M355 601Q258 601 203.5 533.5Q149 466 149 347V0H89V800H149V550Q182 603 234 631Q286 659 354 659Q481 659 552.5 577.5Q624 496 624 352V0H564V349Q564 467 508.5 534Q453 601 355 601Z" glyph-name="h" horiz-adv-x="683" unicode="h" /><glyph d="M149 0 89 0V800H149Z" glyph-name="i" horiz-adv-x="238" unicode="i" /><glyph d="M320 45Q404 45 455 99Q506 153 506 243V743H294V800H566V240Q566 127 498.5 57.5Q431 -12 320 -12Q209 -12 141.5 57.5Q74 127 74 240V373H134V243Q134 153 185 99Q236 45 320 45Z" glyph-name="j" horiz-adv-x="645" unicode="j" /><glyph d="M149 0 89 0V800H149V390H392V800H452V390H610V0H550V333H149Z" glyph-name="k" horiz-adv-x="665" unicode="k" /><glyph d="M139 800 139 255Q139 165 190 111Q241 57 325 57H481V0H322Q213 0 146 69.5Q79 139 79 252V800Z" glyph-name="l" horiz-adv-x="501" unicode="l" /><glyph d="M149 0 89 0V737L63 776L110 812L404 372L698 812L745 776L720 739V0H660V649L405 266L149 648Z" glyph-name="m" horiz-adv-x="809" unicode="m" /><glyph d="M149 0 89 0V800H584V0H524V743H149Z" glyph-name="n" horiz-adv-x="673" unicode="n" /><glyph d="M451 -12Q281 -12 165.5 106.5Q50 225 50 400Q50 575 165.5 693.5Q281 812 451 812Q621 812 736.5 693.5Q852 575 852 400Q852 225 736.5 106.5Q621 -12 451 -12ZM116 400Q116 249 210.5 151Q305 53 451 53Q596 53 691 151.5Q786 250 786 400Q786 550 691 648.5Q596 747 451 747Q306 747 211 648.5Q116 550 116 400Z" glyph-name="o" horiz-adv-x="902" unicode="o" /><glyph d="M149 0 89 0V800H343Q459 800 524.5 734Q590 668 590 551Q590 433 524.5 366.5Q459 300 343 300H149ZM530 551Q530 641 480 692Q430 743 341 743H149V357H341Q430 357 480 408Q530 459 530 551Z" glyph-name="p" horiz-adv-x="630" unicode="p" /><glyph d="M451 -12Q281 -12 165.5 106.5Q50 225 50 400Q50 575 165.5 693.5Q281 812 451 812Q621 812 736.5 693.5Q852 575 852 400Q852 316 823 241Q794 166 739 109L810 36L764 -10L691 66Q639 28 578 8Q517 -12 451 -12ZM116 400Q116 249 210.5 151Q305 53 451 53Q505 53 554.5 68.5Q604 84 646 113L465 301L512 346L695 156Q739 203 762.5 266Q786 329 786 400Q786 550 691 648.5Q596 747 451 747Q306 747 211 648.5Q116 550 116 400Z" glyph-name="q" horiz-adv-x="902" unicode="q" /><glyph d="M149 0 89 0V800H331Q448 800 513 741.5Q578 683 578 578Q578 472 512.5 413Q447 354 331 354H238L609 47L569 -4L149 350ZM518 578Q518 656 468 699.5Q418 743 329 743H149V411H329Q419 411 468.5 455Q518 499 518 578Z" glyph-name="r" horiz-adv-x="634" unicode="r" /><glyph d="M452 0 68 0V57H432L43 758L66 772V800H475V743H122L509 47Z" glyph-name="s" horiz-adv-x="552" unicode="s" /><glyph d="M154 640 154 235Q154 154 199.5 105.5Q245 57 320 57H456V0H317Q217 0 155.5 64Q94 128 94 232V640H17V697H94V800H154V697H506V640Z" glyph-name="t" horiz-adv-x="523" unicode="t" /><glyph d="M89 0 89 800H149V57H524V800H584V0Z" glyph-name="u" horiz-adv-x="673" unicode="u" /><glyph d="M147 800 147 255Q147 165 198 111Q249 57 333 57H522V800H582V0H330Q221 0 154 69.5Q87 139 87 252V800Z" glyph-name="v" horiz-adv-x="671" unicode="v" /><glyph d="M446 174 275 -12L66 210L89 236V800H149V201L275 68L416 220V700H476V220L617 68L743 203V800H803V235L826 210L617 -12Z" glyph-name="w" horiz-adv-x="892" unicode="w" /><glyph d="M604 0 559 0Q480 0 416.5 55.5Q353 111 319 210Q286 112 222.5 56Q159 0 80 0H35V57H73Q169 57 227.5 151Q286 245 286 400Q286 555 227.5 649Q169 743 73 743H35V800H80Q159 800 222.5 744Q286 688 319 590Q353 689 416.5 744.5Q480 800 559 800H604V743H566Q470 743 411.5 649Q353 555 353 400Q353 245 411.5 151Q470 57 566 57H604Z" glyph-name="x" horiz-adv-x="639" unicode="x" /><glyph d="M30 779 78 812L365 387L631 812L679 781L400 336L434 285L387 247L365 280L182 -12L136 20L330 331Z" glyph-name="y" horiz-adv-x="686" unicode="y" /><glyph d="M65 67Q65 82 70.5 98.5Q76 115 87 132L461 700Q466 707 468 713Q470 719 470 724Q470 733 463.5 738Q457 743 445 743H69V800H454Q493 800 515.5 782Q538 764 538 733Q538 718 532.5 701.5Q527 685 516 668L142 100Q138 93 135.5 87Q133 81 133 76Q133 67 139.5 62Q146 57 158 57H543V0H149Q110 0 87.5 18Q65 36 65 67Z" glyph-name="z" horiz-adv-x="612" unicode="z" /><glyph d="M130 0 70 0V313H144V800H536V743Q564 777 606 794.5Q648 812 701 812Q809 812 870 751Q931 690 931 582V331H536V57H886V0H476V256H130ZM702 754Q624 754 580 707Q536 660 536 577V388H871V579Q871 661 826.5 707.5Q782 754 702 754ZM204 743 204 313H476V743Z" glyph-name="ae" horiz-adv-x="985" unicode="æ" /><glyph d="M397 -12Q250 -12 150 106.5Q50 225 50 400Q50 575 150 693.5Q250 812 397 812Q495 812 573 761Q651 710 694 617Q703 710 759 761Q815 812 907 812Q1015 812 1076 751Q1137 690 1137 582V331H742V57H1092V0H692V179Q648 88 571 38Q494 -12 397 -12ZM908 754Q830 754 786 707Q742 660 742 577V388H1077V579Q1077 661 1032.5 707.5Q988 754 908 754ZM116 400Q116 249 197.5 151Q279 53 405 53Q523 53 601.5 151.5Q680 250 680 400Q680 549 601.5 648Q523 747 405 747Q279 747 197.5 648.5Q116 550 116 400Z" glyph-name="oe" horiz-adv-x="1211" unicode="œ" /><glyph d="M139 348 139 255Q139 165 190 111Q241 57 325 57H481V0H322Q213 0 146 69.5Q79 139 79 252V337L19 327L10 379L79 391V800H139V401L318 432L327 380Z" glyph-name="lslash" horiz-adv-x="501" unicode="ł" /><glyph d="M370 -4 341 -108L283 -92L312 12Q193 55 121.5 160.5Q50 266 50 400Q50 575 165.5 693.5Q281 812 451 812Q471 812 491 810Q511 808 533 804L562 909L619 890L591 788Q710 744 781 639Q852 534 852 400Q852 225 736.5 106.5Q621 -12 451 -12Q431 -12 411 -10Q391 -8 370 -4ZM451 747Q306 747 211 648.5Q116 550 116 400Q116 285 173.5 197.5Q231 110 329 74L515 741Q500 744 484 745.5Q468 747 451 747ZM451 53Q596 53 691 151.5Q786 250 786 400Q786 514 728.5 601.5Q671 689 573 726L387 58Q405 55 420.5 54Q436 53 451 53Z" glyph-name="oslash" horiz-adv-x="902" unicode="ø" /><glyph d="M333 0 89 0V371H15V428H89V800H333Q501 800 595.5 694.5Q690 589 690 401Q690 213 595.5 106.5Q501 0 333 0ZM624 401Q624 562 546.5 652.5Q469 743 331 743H149V428H338V371H149V57H331Q469 57 546.5 148Q624 239 624 401Z" glyph-name="eth" horiz-adv-x="730" unicode="ð" /><glyph d="M149 0 89 0V800H149V650H343Q459 650 524.5 584Q590 518 590 401Q590 283 524.5 216.5Q459 150 343 150H149ZM530 401Q530 491 480 542Q430 593 341 593H149V207H341Q430 207 480 258Q530 309 530 401Z" glyph-name="thorn" horiz-adv-x="630" unicode="þ" /><glyph d="M600 219Q600 116 534.5 58Q469 0 353 0H232V57H351Q440 57 490 100Q540 143 540 219Q540 294 490 336Q440 378 351 378H257V435H331Q407 435 450 478Q493 521 493 598Q493 669 447.5 711.5Q402 754 328 754Q245 754 197 696Q149 638 149 542V0H89V542Q89 666 152.5 739Q216 812 327 812Q431 812 492 754.5Q553 697 553 598Q553 536 527 491Q501 446 447 413Q524 386 562 338Q600 290 600 219Z" glyph-name="germandbls" horiz-adv-x="630" unicode="ß" /><glyph d="M336 0 50 0V57H163V743H50V800H336V743H223V57H336Z" glyph-name="dotlessi" horiz-adv-x="386" unicode="ı" /><glyph d="M320 45Q404 45 455 99Q506 153 506 243V743H294V800H566V240Q566 127 498.5 57.5Q431 -12 320 -12Q209 -12 141.5 57.5Q74 127 74 240V373H134V243Q134 153 185 99Q236 45 320 45Z" glyph-name="dotlessj" horiz-adv-x="645" unicode="ȷ" /><glyph d="M479 582 479 473H419V579Q419 661 382 707.5Q345 754 280 754Q216 754 180 707Q144 660 144 577V338H408V281H144V0H84V582Q84 690 135.5 751Q187 812 279 812Q373 812 426 751Q479 690 479 582ZM670 0 610 0V800H670Z" glyph-name="fi" horiz-adv-x="759" unicode="ﬁ" /><glyph d="M479 582 479 473H419V579Q419 661 382 707.5Q345 754 280 754Q216 754 180 707Q144 660 144 577V338H408V281H144V0H84V582Q84 690 135.5 751Q187 812 279 812Q373 812 426 751Q479 690 479 582ZM660 800 660 255Q660 165 711 111Q762 57 846 57H1002V0H843Q734 0 667 69.5Q600 139 600 252V800Z" glyph-name="fl" horiz-adv-x="1022" unicode="ﬂ" /><glyph d="M431 -12Q270 -12 160 106.5Q50 225 50 400Q50 575 160 693.5Q270 812 431 812Q529 812 611.5 762.5Q694 713 744 625V800H804V0H744V175Q694 87 611.5 37.5Q529 -12 431 -12ZM118 400Q118 249 206.5 150.5Q295 52 431 52Q567 52 655.5 150.5Q744 249 744 400Q744 550 655 649Q566 748 431 748Q295 748 206.5 649.5Q118 551 118 400ZM272 919 543 990L560 934L289 864Z" glyph-name="Aacute" horiz-adv-x="891" unicode="Á" /><glyph d="M431 -12Q270 -12 160 106.5Q50 225 50 400Q50 575 160 693.5Q270 812 431 812Q529 812 611.5 762.5Q694 713 744 625V800H804V0H744V175Q694 87 611.5 37.5Q529 -12 431 -12ZM118 400Q118 249 206.5 150.5Q295 52 431 52Q567 52 655.5 150.5Q744 249 744 400Q744 550 655 649Q566 748 431 748Q295 748 206.5 649.5Q118 551 118 400ZM590 916 567 869L415 941L266 868L242 915L415 1001Z" glyph-name="Acircumflex" horiz-adv-x="891" unicode="Â" /><glyph d="M431 -12Q270 -12 160 106.5Q50 225 50 400Q50 575 160 693.5Q270 812 431 812Q529 812 611.5 762.5Q694 713 744 625V800H804V0H744V175Q694 87 611.5 37.5Q529 -12 431 -12ZM118 400Q118 249 206.5 150.5Q295 52 431 52Q567 52 655.5 150.5Q744 249 744 400Q744 550 655 649Q566 748 431 748Q295 748 206.5 649.5Q118 551 118 400ZM387 937Q387 915 373 901.5Q359 888 336 888Q314 888 301 901.5Q288 915 288 937Q288 960 301 974Q314 988 336 988Q359 988 373 974Q387 960 387 937ZM544 937Q544 915 530 901.5Q516 888 493 888Q471 888 458 901.5Q445 915 445 937Q445 960 458 974Q471 988 493 988Q516 988 530 974Q544 960 544 937Z" glyph-name="Adieresis" horiz-adv-x="891" unicode="Ä" /><glyph d="M431 -12Q270 -12 160 106.5Q50 225 50 400Q50 575 160 693.5Q270 812 431 812Q529 812 611.5 762.5Q694 713 744 625V800H804V0H744V175Q694 87 611.5 37.5Q529 -12 431 -12ZM118 400Q118 249 206.5 150.5Q295 52 431 52Q567 52 655.5 150.5Q744 249 744 400Q744 550 655 649Q566 748 431 748Q295 748 206.5 649.5Q118 551 118 400ZM560 920 543 864L272 935L289 990Z" glyph-name="Agrave" horiz-adv-x="891" unicode="À" /><glyph d="M431 -12Q270 -12 160 106.5Q50 225 50 400Q50 575 160 693.5Q270 812 431 812Q529 812 611.5 762.5Q694 713 744 625V800H804V0H744V175Q694 87 611.5 37.5Q529 -12 431 -12ZM118 400Q118 249 206.5 150.5Q295 52 431 52Q567 52 655.5 150.5Q744 249 744 400Q744 550 655 649Q566 748 431 748Q295 748 206.5 649.5Q118 551 118 400ZM522 937Q522 892 494.5 868.5Q467 845 414 845Q363 845 336 868.5Q309 892 309 937Q309 983 336 1007.5Q363 1032 414 1032Q467 1032 494.5 1007.5Q522 983 522 937ZM354 937Q354 912 369.5 898.5Q385 885 414 885Q445 885 461 898.5Q477 912 477 937Q477 964 461 978Q445 992 414 992Q385 992 369.5 978Q354 964 354 937Z" glyph-name="Aring" horiz-adv-x="891" unicode="Å" /><glyph d="M431 -12Q270 -12 160 106.5Q50 225 50 400Q50 575 160 693.5Q270 812 431 812Q529 812 611.5 762.5Q694 713 744 625V800H804V0H744V175Q694 87 611.5 37.5Q529 -12 431 -12ZM118 400Q118 249 206.5 150.5Q295 52 431 52Q567 52 655.5 150.5Q744 249 744 400Q744 550 655 649Q566 748 431 748Q295 748 206.5 649.5Q118 551 118 400ZM432 958Q451 942 460 937.5Q469 933 477 933Q492 933 500.5 948.5Q509 964 510 993L558 989Q556 938 535.5 910.5Q515 883 480 883Q461 883 443 891Q425 899 396 922Q378 937 370 941Q362 945 355 945Q342 945 333 929.5Q324 914 322 885L274 889Q277 940 298 967.5Q319 995 352 995Q369 995 386.5 987.5Q404 980 432 958Z" glyph-name="Atilde" horiz-adv-x="891" unicode="Ã" /><glyph d="M431 -12Q270 -12 160 106.5Q50 225 50 400Q50 575 160 693.5Q270 812 431 812Q529 812 611.5 762.5Q694 713 744 625V800H804V0H744V175Q694 87 611.5 37.5Q529 -12 431 -12ZM118 400Q118 249 206.5 150.5Q295 52 431 52Q567 52 655.5 150.5Q744 249 744 400Q744 550 655 649Q566 748 431 748Q295 748 206.5 649.5Q118 551 118 400ZM532 1006 532 978Q532 921 501.5 890.5Q471 860 414 860Q358 860 328.5 890.5Q299 921 299 978V1006H344V981Q344 942 362 921Q380 900 414 900Q450 900 468.5 921Q487 942 487 981V1006Z" glyph-name="Abreve" horiz-adv-x="891" unicode="Ă" /><glyph d="M431 -12Q270 -12 160 106.5Q50 225 50 400Q50 575 160 693.5Q270 812 431 812Q529 812 611.5 762.5Q694 713 744 625V800H804V0H744V175Q694 87 611.5 37.5Q529 -12 431 -12ZM118 400Q118 249 206.5 150.5Q295 52 431 52Q567 52 655.5 150.5Q744 249 744 400Q744 550 655 649Q566 748 431 748Q295 748 206.5 649.5Q118 551 118 400ZM277 963 555 963V906H277Z" glyph-name="Amacron" horiz-adv-x="891" unicode="Ā" /><glyph d="M431 -12Q270 -12 160 106.5Q50 225 50 400Q50 575 160 693.5Q270 812 431 812Q529 812 611.5 762.5Q694 713 744 625V800H804V0L732 -40Q679 -70 659.5 -88.5Q640 -107 640 -128Q640 -145 654 -154.5Q668 -164 693 -164Q705 -164 718.5 -161.5Q732 -159 746 -155L754 -198Q739 -204 723 -207Q707 -210 692 -210Q646 -210 616.5 -188Q587 -166 587 -130Q587 -95 617 -64Q647 -33 713 4L744 21V175Q694 87 611.5 37.5Q529 -12 431 -12ZM118 400Q118 249 206.5 150.5Q295 52 431 52Q567 52 655.5 150.5Q744 249 744 400Q744 550 655 649Q566 748 431 748Q295 748 206.5 649.5Q118 551 118 400Z" glyph-name="Aogonek" horiz-adv-x="891" unicode="Ą" /><glyph d="M370 -83Q360 -83 349.5 -84.5Q339 -86 328 -89L353 11Q216 43 133 149Q50 255 50 400Q50 573 164.5 686.5Q279 800 454 800H589V743H461Q307 743 212.5 649Q118 555 118 400Q118 246 212.5 151.5Q307 57 461 57H589V0H454Q437 0 422.5 1Q408 2 394 4L384 -44Q437 -44 464.5 -64.5Q492 -85 492 -125Q492 -166 459 -188Q426 -210 365 -210Q343 -210 320 -205.5Q297 -201 278 -193L288 -151Q304 -158 324 -161.5Q344 -165 365 -165Q405 -165 424.5 -155Q444 -145 444 -125Q444 -105 424.5 -94Q405 -83 370 -83Z" glyph-name="Ccedilla" horiz-adv-x="639" unicode="Ç" /><glyph d="M50 400Q50 573 164.5 686.5Q279 800 454 800H589V743H461Q307 743 212.5 649Q118 555 118 400Q118 246 212.5 151.5Q307 57 461 57H589V0H454Q279 0 164.5 113.5Q50 227 50 400ZM246 919 517 990L534 934L263 864Z" glyph-name="Cacute" horiz-adv-x="639" unicode="Ć" /><glyph d="M50 400Q50 573 164.5 686.5Q279 800 454 800H589V743H461Q307 743 212.5 649Q118 555 118 400Q118 246 212.5 151.5Q307 57 461 57H589V0H454Q279 0 164.5 113.5Q50 227 50 400ZM389 928 541 1000L564 953L389 868L216 954L240 1001Z" glyph-name="Ccaron" horiz-adv-x="639" unicode="Č" /><glyph d="M50 400Q50 573 164.5 686.5Q279 800 454 800H589V743H461Q307 743 212.5 649Q118 555 118 400Q118 246 212.5 151.5Q307 57 461 57H589V0H454Q279 0 164.5 113.5Q50 227 50 400ZM564 916 541 869L389 941L240 868L216 915L389 1001Z" glyph-name="Ccircumflex" horiz-adv-x="639" unicode="Ĉ" /><glyph d="M50 400Q50 573 164.5 686.5Q279 800 454 800H589V743H461Q307 743 212.5 649Q118 555 118 400Q118 246 212.5 151.5Q307 57 461 57H589V0H454Q279 0 164.5 113.5Q50 227 50 400ZM449 927Q449 900 432.5 884Q416 868 388 868Q362 868 346 884Q330 900 330 927Q330 955 346 972Q362 989 388 989Q416 989 432.5 972Q449 955 449 927Z" glyph-name="Cdotaccent" horiz-adv-x="639" unicode="Ċ" /><glyph d="M638 0 89 0V746L71 770L121 812L687 51ZM150 664 150 57H603ZM303 928 455 1000L478 953L303 868L130 954L154 1001Z" glyph-name="Dcaron" horiz-adv-x="687" unicode="Ď" /><glyph d="M638 0 89 0V211H15V268H89V746L71 770L121 812L687 51ZM338 268 338 211H150V57H603L150 664V268Z" glyph-name="Dcroat" horiz-adv-x="687" unicode="Đ" /><glyph d="M149 57 499 57V0H89V582Q89 690 148.5 751Q208 812 314 812Q422 812 483 751Q544 690 544 582V331H149ZM315 754Q237 754 193 707Q149 660 149 577V388H484V579Q484 661 439.5 707.5Q395 754 315 754ZM165 919 436 990L453 934L182 864Z" glyph-name="Eacute" horiz-adv-x="598" unicode="É" /><glyph d="M149 57 499 57V0H89V582Q89 690 148.5 751Q208 812 314 812Q422 812 483 751Q544 690 544 582V331H149ZM315 754Q237 754 193 707Q149 660 149 577V388H484V579Q484 661 439.5 707.5Q395 754 315 754ZM483 916 460 869L308 941L159 868L135 915L308 1001Z" glyph-name="Ecircumflex" horiz-adv-x="598" unicode="Ê" /><glyph d="M149 57 499 57V0H89V582Q89 690 148.5 751Q208 812 314 812Q422 812 483 751Q544 690 544 582V331H149ZM315 754Q237 754 193 707Q149 660 149 577V388H484V579Q484 661 439.5 707.5Q395 754 315 754ZM280 937Q280 915 266 901.5Q252 888 229 888Q207 888 194 901.5Q181 915 181 937Q181 960 194 974Q207 988 229 988Q252 988 266 974Q280 960 280 937ZM437 937Q437 915 423 901.5Q409 888 386 888Q364 888 351 901.5Q338 915 338 937Q338 960 351 974Q364 988 386 988Q409 988 423 974Q437 960 437 937Z" glyph-name="Edieresis" horiz-adv-x="598" unicode="Ë" /><glyph d="M149 57 499 57V0H89V582Q89 690 148.5 751Q208 812 314 812Q422 812 483 751Q544 690 544 582V331H149ZM315 754Q237 754 193 707Q149 660 149 577V388H484V579Q484 661 439.5 707.5Q395 754 315 754ZM453 920 436 864L165 935L182 990Z" glyph-name="Egrave" horiz-adv-x="598" unicode="È" /><glyph d="M149 57 499 57V0H89V582Q89 690 148.5 751Q208 812 314 812Q422 812 483 751Q544 690 544 582V331H149ZM315 754Q237 754 193 707Q149 660 149 577V388H484V579Q484 661 439.5 707.5Q395 754 315 754ZM425 1006 425 978Q425 921 394.5 890.5Q364 860 307 860Q251 860 221.5 890.5Q192 921 192 978V1006H237V981Q237 942 255 921Q273 900 307 900Q343 900 361.5 921Q380 942 380 981V1006Z" glyph-name="Ebreve" horiz-adv-x="598" unicode="Ĕ" /><glyph d="M149 57 499 57V0H89V582Q89 690 148.5 751Q208 812 314 812Q422 812 483 751Q544 690 544 582V331H149ZM315 754Q237 754 193 707Q149 660 149 577V388H484V579Q484 661 439.5 707.5Q395 754 315 754ZM308 928 460 1000L483 953L308 868L135 954L159 1001Z" glyph-name="Ecaron" horiz-adv-x="598" unicode="Ě" /><glyph d="M149 57 499 57V0H89V582Q89 690 148.5 751Q208 812 314 812Q422 812 483 751Q544 690 544 582V331H149ZM315 754Q237 754 193 707Q149 660 149 577V388H484V579Q484 661 439.5 707.5Q395 754 315 754ZM368 927Q368 900 351.5 884Q335 868 307 868Q281 868 265 884Q249 900 249 927Q249 955 265 972Q281 989 307 989Q335 989 351.5 972Q368 955 368 927Z" glyph-name="Edotaccent" horiz-adv-x="598" unicode="Ė" /><glyph d="M149 57 499 57V0H89V582Q89 690 148.5 751Q208 812 314 812Q422 812 483 751Q544 690 544 582V331H149ZM315 754Q237 754 193 707Q149 660 149 577V388H484V579Q484 661 439.5 707.5Q395 754 315 754ZM170 963 448 963V906H170Z" glyph-name="Emacron" horiz-adv-x="598" unicode="Ē" /><glyph d="M335 -128Q335 -145 349 -154.5Q363 -164 388 -164Q400 -164 413.5 -161.5Q427 -159 441 -155L449 -198Q434 -204 418 -207Q402 -210 387 -210Q341 -210 311.5 -188Q282 -166 282 -130Q282 -96 310.5 -65.5Q339 -35 401 0H89V582Q89 690 148.5 751Q208 812 314 812Q422 812 483 751Q544 690 544 582V331H149V57H499V0L427 -40Q374 -70 354.5 -88.5Q335 -107 335 -128ZM315 754Q237 754 193 707Q149 660 149 577V388H484V579Q484 661 439.5 707.5Q395 754 315 754Z" glyph-name="Eogonek" horiz-adv-x="598" unicode="Ę" /><glyph d="M50 400Q50 573 164 686.5Q278 800 451 800H619V743H461Q307 743 212.5 649Q118 555 118 400Q118 246 212.5 151.5Q307 57 461 57H644V425H704V0H451Q278 0 164 113.5Q50 227 50 400ZM528 1006 528 978Q528 921 497.5 890.5Q467 860 410 860Q354 860 324.5 890.5Q295 921 295 978V1006H340V981Q340 942 358 921Q376 900 410 900Q446 900 464.5 921Q483 942 483 981V1006Z" glyph-name="Gbreve" horiz-adv-x="743" unicode="Ğ" /><glyph d="M50 400Q50 573 164 686.5Q278 800 451 800H619V743H461Q307 743 212.5 649Q118 555 118 400Q118 246 212.5 151.5Q307 57 461 57H644V425H704V0H451Q278 0 164 113.5Q50 227 50 400ZM586 916 563 869L411 941L262 868L238 915L411 1001Z" glyph-name="Gcircumflex" horiz-adv-x="743" unicode="Ĝ" /><glyph d="M50 400Q50 573 164 686.5Q278 800 451 800H619V743H461Q307 743 212.5 649Q118 555 118 400Q118 246 212.5 151.5Q307 57 461 57H644V425H704V0H451Q278 0 164 113.5Q50 227 50 400ZM373 -293 383 -45H442L425 -293Z" glyph-name="Gcommaaccent" horiz-adv-x="743" unicode="Ģ" /><glyph d="M50 400Q50 573 164 686.5Q278 800 451 800H619V743H461Q307 743 212.5 649Q118 555 118 400Q118 246 212.5 151.5Q307 57 461 57H644V425H704V0H451Q278 0 164 113.5Q50 227 50 400ZM471 927Q471 900 454.5 884Q438 868 410 868Q384 868 368 884Q352 900 352 927Q352 955 368 972Q384 989 410 989Q438 989 454.5 972Q471 955 471 927Z" glyph-name="Gdotaccent" horiz-adv-x="743" unicode="Ġ" /><glyph d="M149 0 89 0V326L54 320L44 378L89 386V622H33V679H89V800H149V679H535V800H595V679H651V622H595V473L628 479L638 421L595 414V0H535V403L149 336ZM149 396 535 463V622H149Z" glyph-name="Hbar" horiz-adv-x="684" unicode="Ħ" /><glyph d="M149 0 89 0V326L54 320L44 378L89 386V800H149V396L535 463V800H595V473L628 479L638 421L595 414V0H535V403L149 336ZM516 916 493 869L341 941L192 868L168 915L341 1001Z" glyph-name="Hcircumflex" horiz-adv-x="684" unicode="Ĥ" /><glyph d="M336 0 50 0V57H163V743H50V800H336V743H223V57H336ZM49 919 320 990L337 934L66 864Z" glyph-name="Iacute" horiz-adv-x="386" unicode="Í" /><glyph d="M336 0 50 0V57H163V743H50V800H336V743H223V57H336ZM367 916 344 869L192 941L43 868L19 915L192 1001Z" glyph-name="Icircumflex" horiz-adv-x="386" unicode="Î" /><glyph d="M336 0 50 0V57H163V743H50V800H336V743H223V57H336ZM164 937Q164 915 150 901.5Q136 888 113 888Q91 888 78 901.5Q65 915 65 937Q65 960 78 974Q91 988 113 988Q136 988 150 974Q164 960 164 937ZM321 937Q321 915 307 901.5Q293 888 270 888Q248 888 235 901.5Q222 915 222 937Q222 960 235 974Q248 988 270 988Q293 988 307 974Q321 960 321 937Z" glyph-name="Idieresis" horiz-adv-x="386" unicode="Ï" /><glyph d="M336 0 50 0V57H163V743H50V800H336V743H223V57H336ZM337 920 320 864L49 935L66 990Z" glyph-name="Igrave" horiz-adv-x="386" unicode="Ì" /><glyph d="M336 0 50 0V57H163V743H50V800H336V743H223V57H336ZM309 1006 309 978Q309 921 278.5 890.5Q248 860 191 860Q135 860 105.5 890.5Q76 921 76 978V1006H121V981Q121 942 139 921Q157 900 191 900Q227 900 245.5 921Q264 942 264 981V1006Z" glyph-name="Ibreve" horiz-adv-x="386" unicode="Ĭ" /><glyph d="M336 0 50 0V57H163V743H50V800H336V743H223V57H336ZM252 927Q252 900 235.5 884Q219 868 191 868Q165 868 149 884Q133 900 133 927Q133 955 149 972Q165 989 191 989Q219 989 235.5 972Q252 955 252 927Z" glyph-name="Idotaccent" horiz-adv-x="386" unicode="İ" /><glyph d="M336 0 50 0V57H163V743H50V800H336V743H223V57H336ZM54 963 332 963V906H54Z" glyph-name="Imacron" horiz-adv-x="386" unicode="Ī" /><glyph d="M237 0 50 0V57H163V743H50V800H336V743H223V57H336V0H335L263 -40Q210 -70 190.5 -88.5Q171 -107 171 -128Q171 -145 185 -154.5Q199 -164 224 -164Q236 -164 249.5 -161.5Q263 -159 277 -155L285 -198Q270 -204 254 -207Q238 -210 223 -210Q177 -210 147.5 -188Q118 -166 118 -130Q118 -96 146.5 -65.5Q175 -35 237 0Z" glyph-name="Iogonek" horiz-adv-x="386" unicode="Į" /><glyph d="M336 0 50 0V57H163V743H50V800H336V743H223V57H336ZM209 958Q228 942 237 937.5Q246 933 254 933Q269 933 277.5 948.5Q286 964 287 993L335 989Q333 938 312.5 910.5Q292 883 257 883Q238 883 220 891Q202 899 173 922Q155 937 147 941Q139 945 132 945Q119 945 110 929.5Q101 914 99 885L51 889Q54 940 75 967.5Q96 995 129 995Q146 995 163.5 987.5Q181 980 209 958Z" glyph-name="Itilde" horiz-adv-x="386" unicode="Ĩ" /><glyph d="M532 0 66 0V398H126V57H472V800H532ZM676 916 653 869L501 941L352 868L328 915L501 1001Z" glyph-name="Jcircumflex" horiz-adv-x="621" unicode="Ĵ" /><glyph d="M194 270 134 270V800H194ZM535 0 69 0V57H475V800H535Z" glyph-name="IJ" horiz-adv-x="624" unicode="Ĳ" /><glyph d="M149 0 89 0V800H149V390H301Q381 390 425.5 436.5Q470 483 470 566V800H530V561Q530 501 508.5 454.5Q487 408 447 379Q524 362 567 305Q610 248 610 162V0H550V157Q550 240 505.5 286.5Q461 333 381 333H149ZM303 -293 313 -45H372L355 -293Z" glyph-name="Kcommaaccent" horiz-adv-x="665" unicode="Ķ" /><glyph d="M489 0 89 0V800H149V57H489ZM100 919 371 990L388 934L117 864Z" glyph-name="Lacute" horiz-adv-x="489" unicode="Ĺ" /><glyph d="M489 0 89 0V800H149V57H489ZM279 552 279 800H338L331 552Z" glyph-name="Lcaron" horiz-adv-x="489" unicode="Ľ" /><glyph d="M489 0 89 0V800H149V57H489ZM215 -293 225 -45H284L267 -293Z" glyph-name="Lcommaaccent" horiz-adv-x="489" unicode="Ļ" /><glyph d="M489 0 89 0V800H149V57H489ZM426 386Q426 359 409.5 343Q393 327 365 327Q339 327 323 343Q307 359 307 386Q307 414 323 431Q339 448 365 448Q393 448 409.5 431Q426 414 426 386Z" glyph-name="Ldot" horiz-adv-x="489" unicode="Ŀ" /><glyph d="M169 0 109 0V707L64 775L117 812L544 167V800H604V77L637 27L585 -12L169 616ZM362 958Q381 942 390 937.5Q399 933 407 933Q422 933 430.5 948.5Q439 964 440 993L488 989Q486 938 465.5 910.5Q445 883 410 883Q391 883 373 891Q355 899 326 922Q308 937 300 941Q292 945 285 945Q272 945 263 929.5Q254 914 252 885L204 889Q207 940 228 967.5Q249 995 282 995Q299 995 316.5 987.5Q334 980 362 958Z" glyph-name="Ntilde" horiz-adv-x="713" unicode="Ñ" /><glyph d="M169 0 109 0V707L64 775L117 812L544 167V800H604V77L637 27L585 -12L169 616ZM202 919 473 990L490 934L219 864Z" glyph-name="Nacute" horiz-adv-x="713" unicode="Ń" /><glyph d="M169 0 109 0V707L64 775L117 812L544 167V800H604V77L637 27L585 -12L169 616ZM345 928 497 1000L520 953L345 868L172 954L196 1001Z" glyph-name="Ncaron" horiz-adv-x="713" unicode="Ň" /><glyph d="M169 0 109 0V707L64 775L117 812L544 167V800H604V77L637 27L585 -12L169 616ZM317 -293 327 -45H386L369 -293Z" glyph-name="Ncommaaccent" horiz-adv-x="713" unicode="Ņ" /><glyph d="M79 162 79 638L213 800H591L725 638V162L591 0H213ZM139 513 139 287Q139 174 190 115.5Q241 57 338 57H466Q563 57 614 115.5Q665 174 665 287V513Q665 626 614 684.5Q563 743 466 743H338Q241 743 190 684.5Q139 626 139 513ZM248 919 519 990L536 934L265 864Z" glyph-name="Oacute" horiz-adv-x="804" unicode="Ó" /><glyph d="M79 162 79 638L213 800H591L725 638V162L591 0H213ZM139 513 139 287Q139 174 190 115.5Q241 57 338 57H466Q563 57 614 115.5Q665 174 665 287V513Q665 626 614 684.5Q563 743 466 743H338Q241 743 190 684.5Q139 626 139 513ZM566 916 543 869L391 941L242 868L218 915L391 1001Z" glyph-name="Ocircumflex" horiz-adv-x="804" unicode="Ô" /><glyph d="M79 162 79 638L213 800H591L725 638V162L591 0H213ZM139 513 139 287Q139 174 190 115.5Q241 57 338 57H466Q563 57 614 115.5Q665 174 665 287V513Q665 626 614 684.5Q563 743 466 743H338Q241 743 190 684.5Q139 626 139 513ZM363 937Q363 915 349 901.5Q335 888 312 888Q290 888 277 901.5Q264 915 264 937Q264 960 277 974Q290 988 312 988Q335 988 349 974Q363 960 363 937ZM520 937Q520 915 506 901.5Q492 888 469 888Q447 888 434 901.5Q421 915 421 937Q421 960 434 974Q447 988 469 988Q492 988 506 974Q520 960 520 937Z" glyph-name="Odieresis" horiz-adv-x="804" unicode="Ö" /><glyph d="M79 162 79 638L213 800H591L725 638V162L591 0H213ZM139 513 139 287Q139 174 190 115.5Q241 57 338 57H466Q563 57 614 115.5Q665 174 665 287V513Q665 626 614 684.5Q563 743 466 743H338Q241 743 190 684.5Q139 626 139 513ZM536 920 519 864L248 935L265 990Z" glyph-name="Ograve" horiz-adv-x="804" unicode="Ò" /><glyph d="M79 162 79 638L213 800H591L725 638V162L591 0H213ZM139 513 139 287Q139 174 190 115.5Q241 57 338 57H466Q563 57 614 115.5Q665 174 665 287V513Q665 626 614 684.5Q563 743 466 743H338Q241 743 190 684.5Q139 626 139 513ZM408 958Q427 942 436 937.5Q445 933 453 933Q468 933 476.5 948.5Q485 964 486 993L534 989Q532 938 511.5 910.5Q491 883 456 883Q437 883 419 891Q401 899 372 922Q354 937 346 941Q338 945 331 945Q318 945 309 929.5Q300 914 298 885L250 889Q253 940 274 967.5Q295 995 328 995Q345 995 362.5 987.5Q380 980 408 958Z" glyph-name="Otilde" horiz-adv-x="804" unicode="Õ" /><glyph d="M79 162 79 638L213 800H591L725 638V162L591 0H213ZM139 513 139 287Q139 174 190 115.5Q241 57 338 57H466Q563 57 614 115.5Q665 174 665 287V513Q665 626 614 684.5Q563 743 466 743H338Q241 743 190 684.5Q139 626 139 513ZM508 1006 508 978Q508 921 477.5 890.5Q447 860 390 860Q334 860 304.5 890.5Q275 921 275 978V1006H320V981Q320 942 338 921Q356 900 390 900Q426 900 444.5 921Q463 942 463 981V1006Z" glyph-name="Obreve" horiz-adv-x="804" unicode="Ŏ" /><glyph d="M79 162 79 638L213 800H591L725 638V162L591 0H213ZM139 513 139 287Q139 174 190 115.5Q241 57 338 57H466Q563 57 614 115.5Q665 174 665 287V513Q665 626 614 684.5Q563 743 466 743H338Q241 743 190 684.5Q139 626 139 513ZM347 1046 395 1021L293 836L245 861ZM501 1046 549 1021L447 836L399 861Z" glyph-name="Ohungarumlaut" horiz-adv-x="804" unicode="Ő" /><glyph d="M79 162 79 638L213 800H591L725 638V162L591 0H213ZM139 513 139 287Q139 174 190 115.5Q241 57 338 57H466Q563 57 614 115.5Q665 174 665 287V513Q665 626 614 684.5Q563 743 466 743H338Q241 743 190 684.5Q139 626 139 513ZM253 963 531 963V906H253Z" glyph-name="Omacron" horiz-adv-x="804" unicode="Ō" /><glyph d="M149 0 89 0V800H464V363H630V0H570V306H149ZM149 743 149 363H404V743ZM180 919 451 990L468 934L197 864Z" glyph-name="Racute" horiz-adv-x="689" unicode="Ŕ" /><glyph d="M149 0 89 0V800H464V363H630V0H570V306H149ZM149 743 149 363H404V743ZM323 928 475 1000L498 953L323 868L150 954L174 1001Z" glyph-name="Rcaron" horiz-adv-x="689" unicode="Ř" /><glyph d="M149 0 89 0V800H464V363H630V0H570V306H149ZM149 743 149 363H404V743ZM315 -293 325 -45H384L367 -293Z" glyph-name="Rcommaaccent" horiz-adv-x="689" unicode="Ŗ" /><glyph d="M313 45Q389 45 440 87.5Q491 130 491 193Q491 245 455.5 283Q420 321 341 351L245 387Q155 421 114 471Q73 521 73 593Q73 690 140 751Q207 812 311 812Q423 812 492 745.5Q561 679 561 570V530H501V570Q501 654 448.5 704.5Q396 755 310 755Q235 755 184 709Q133 663 133 595Q133 543 165 505Q197 467 266 441L359 406Q465 366 508 316.5Q551 267 551 195Q551 102 484.5 45Q418 -12 312 -12Q200 -12 131.5 54Q63 120 63 230V270H123V230Q123 145 174.5 95Q226 45 313 45ZM301 928 453 1000L476 953L301 868L128 954L152 1001Z" glyph-name="Scaron" horiz-adv-x="624" unicode="Š" /><glyph d="M313 45Q389 45 440 87.5Q491 130 491 193Q491 245 455.5 283Q420 321 341 351L245 387Q155 421 114 471Q73 521 73 593Q73 690 140 751Q207 812 311 812Q423 812 492 745.5Q561 679 561 570V530H501V570Q501 654 448.5 704.5Q396 755 310 755Q235 755 184 709Q133 663 133 595Q133 543 165 505Q197 467 266 441L359 406Q465 366 508 316.5Q551 267 551 195Q551 102 484.5 45Q418 -12 312 -12Q200 -12 131.5 54Q63 120 63 230V270H123V230Q123 145 174.5 95Q226 45 313 45ZM158 919 429 990L446 934L175 864Z" glyph-name="Sacute" horiz-adv-x="624" unicode="Ś" /><glyph d="M292 -83Q282 -83 271.5 -84.5Q261 -86 250 -89L270 -9Q175 3 119 67.5Q63 132 63 230V270H123V230Q123 145 174.5 95Q226 45 313 45Q389 45 440 87.5Q491 130 491 193Q491 245 455.5 283Q420 321 341 351L245 387Q155 421 114 471Q73 521 73 593Q73 690 140 751Q207 812 311 812Q423 812 492 745.5Q561 679 561 570V530H501V570Q501 654 448.5 704.5Q396 755 310 755Q235 755 184 709Q133 663 133 595Q133 543 165 505Q197 467 266 441L359 406Q465 366 508 316.5Q551 267 551 195Q551 102 485 45Q419 -12 313 -12L306 -44Q359 -44 386.5 -64.5Q414 -85 414 -125Q414 -166 381 -188Q348 -210 287 -210Q265 -210 242 -205.5Q219 -201 200 -193L210 -151Q226 -158 246 -161.5Q266 -165 287 -165Q327 -165 346.5 -155Q366 -145 366 -125Q366 -105 346.5 -94Q327 -83 292 -83Z" glyph-name="Scedilla" horiz-adv-x="624" unicode="Ş" /><glyph d="M313 45Q389 45 440 87.5Q491 130 491 193Q491 245 455.5 283Q420 321 341 351L245 387Q155 421 114 471Q73 521 73 593Q73 690 140 751Q207 812 311 812Q423 812 492 745.5Q561 679 561 570V530H501V570Q501 654 448.5 704.5Q396 755 310 755Q235 755 184 709Q133 663 133 595Q133 543 165 505Q197 467 266 441L359 406Q465 366 508 316.5Q551 267 551 195Q551 102 484.5 45Q418 -12 312 -12Q200 -12 131.5 54Q63 120 63 230V270H123V230Q123 145 174.5 95Q226 45 313 45ZM476 916 453 869L301 941L152 868L128 915L301 1001Z" glyph-name="Scircumflex" horiz-adv-x="624" unicode="Ŝ" /><glyph d="M313 45Q389 45 440 87.5Q491 130 491 193Q491 245 455.5 283Q420 321 341 351L245 387Q155 421 114 471Q73 521 73 593Q73 690 140 751Q207 812 311 812Q423 812 492 745.5Q561 679 561 570V530H501V570Q501 654 448.5 704.5Q396 755 310 755Q235 755 184 709Q133 663 133 595Q133 543 165 505Q197 467 266 441L359 406Q465 366 508 316.5Q551 267 551 195Q551 102 484.5 45Q418 -12 312 -12Q200 -12 131.5 54Q63 120 63 230V270H123V230Q123 145 174.5 95Q226 45 313 45ZM263 -293 273 -45H332L315 -293Z" glyph-name="uni0218" horiz-adv-x="624" unicode="Ș" /><glyph d="M309 0 249 0V352H72V409H249V743H20V800H542V743H309V409H490V352H309Z" glyph-name="Tbar" horiz-adv-x="562" unicode="Ŧ" /><glyph d="M309 0 249 0V743H20V800H542V743H309ZM280 928 432 1000L455 953L280 868L107 954L131 1001Z" glyph-name="Tcaron" horiz-adv-x="562" unicode="Ť" /><glyph d="M309 0 249 0V743H20V800H542V743H309ZM242 -293 252 -45H311L294 -293Z" glyph-name="uni0162" horiz-adv-x="562" unicode="Ţ" /><glyph d="M309 0 249 0V743H20V800H542V743H309ZM242 -293 252 -45H311L294 -293Z" glyph-name="uni021A" horiz-adv-x="562" unicode="Ț" /><glyph d="M375 45Q477 45 539 110Q601 175 601 283V800H661V280Q661 149 582.5 68.5Q504 -12 375 -12Q246 -12 167.5 68.5Q89 149 89 280V800H149V283Q149 175 211 110Q273 45 375 45ZM221 919 492 990L509 934L238 864Z" glyph-name="Uacute" horiz-adv-x="750" unicode="Ú" /><glyph d="M375 45Q477 45 539 110Q601 175 601 283V800H661V280Q661 149 582.5 68.5Q504 -12 375 -12Q246 -12 167.5 68.5Q89 149 89 280V800H149V283Q149 175 211 110Q273 45 375 45ZM539 916 516 869L364 941L215 868L191 915L364 1001Z" glyph-name="Ucircumflex" horiz-adv-x="750" unicode="Û" /><glyph d="M375 45Q477 45 539 110Q601 175 601 283V800H661V280Q661 149 582.5 68.5Q504 -12 375 -12Q246 -12 167.5 68.5Q89 149 89 280V800H149V283Q149 175 211 110Q273 45 375 45ZM336 937Q336 915 322 901.5Q308 888 285 888Q263 888 250 901.5Q237 915 237 937Q237 960 250 974Q263 988 285 988Q308 988 322 974Q336 960 336 937ZM493 937Q493 915 479 901.5Q465 888 442 888Q420 888 407 901.5Q394 915 394 937Q394 960 407 974Q420 988 442 988Q465 988 479 974Q493 960 493 937Z" glyph-name="Udieresis" horiz-adv-x="750" unicode="Ü" /><glyph d="M375 45Q477 45 539 110Q601 175 601 283V800H661V280Q661 149 582.5 68.5Q504 -12 375 -12Q246 -12 167.5 68.5Q89 149 89 280V800H149V283Q149 175 211 110Q273 45 375 45ZM509 920 492 864L221 935L238 990Z" glyph-name="Ugrave" horiz-adv-x="750" unicode="Ù" /><glyph d="M375 45Q477 45 539 110Q601 175 601 283V800H661V280Q661 149 582.5 68.5Q504 -12 375 -12Q246 -12 167.5 68.5Q89 149 89 280V800H149V283Q149 175 211 110Q273 45 375 45ZM481 1006 481 978Q481 921 450.5 890.5Q420 860 363 860Q307 860 277.5 890.5Q248 921 248 978V1006H293V981Q293 942 311 921Q329 900 363 900Q399 900 417.5 921Q436 942 436 981V1006Z" glyph-name="Ubreve" horiz-adv-x="750" unicode="Ŭ" /><glyph d="M375 45Q477 45 539 110Q601 175 601 283V800H661V280Q661 149 582.5 68.5Q504 -12 375 -12Q246 -12 167.5 68.5Q89 149 89 280V800H149V283Q149 175 211 110Q273 45 375 45ZM320 1046 368 1021L266 836L218 861ZM474 1046 522 1021L420 836L372 861Z" glyph-name="Uhungarumlaut" horiz-adv-x="750" unicode="Ű" /><glyph d="M375 45Q477 45 539 110Q601 175 601 283V800H661V280Q661 149 582.5 68.5Q504 -12 375 -12Q246 -12 167.5 68.5Q89 149 89 280V800H149V283Q149 175 211 110Q273 45 375 45ZM226 963 504 963V906H226Z" glyph-name="Umacron" horiz-adv-x="750" unicode="Ū" /><glyph d="M302 -128Q302 -145 316 -154.5Q330 -164 355 -164Q367 -164 380.5 -161.5Q394 -159 408 -155L416 -198Q401 -204 385 -207Q369 -210 354 -210Q308 -210 278.5 -188Q249 -166 249 -130Q249 -98 272.5 -70.5Q296 -43 349 -11Q231 -3 160 76.5Q89 156 89 280V800H149V283Q149 175 211 110Q273 45 375 45Q477 45 539 110Q601 175 601 283V800H661V280Q661 175 609 100.5Q557 26 466 0L394 -40Q341 -70 321.5 -88.5Q302 -107 302 -128Z" glyph-name="Uogonek" horiz-adv-x="750" unicode="Ų" /><glyph d="M375 45Q477 45 539 110Q601 175 601 283V800H661V280Q661 149 582.5 68.5Q504 -12 375 -12Q246 -12 167.5 68.5Q89 149 89 280V800H149V283Q149 175 211 110Q273 45 375 45ZM471 937Q471 892 443.5 868.5Q416 845 363 845Q312 845 285 868.5Q258 892 258 937Q258 983 285 1007.5Q312 1032 363 1032Q416 1032 443.5 1007.5Q471 983 471 937ZM303 937Q303 912 318.5 898.5Q334 885 363 885Q394 885 410 898.5Q426 912 426 937Q426 964 410 978Q394 992 363 992Q334 992 318.5 978Q303 964 303 937Z" glyph-name="Uring" horiz-adv-x="750" unicode="Ů" /><glyph d="M375 45Q477 45 539 110Q601 175 601 283V800H661V280Q661 149 582.5 68.5Q504 -12 375 -12Q246 -12 167.5 68.5Q89 149 89 280V800H149V283Q149 175 211 110Q273 45 375 45ZM381 958Q400 942 409 937.5Q418 933 426 933Q441 933 449.5 948.5Q458 964 459 993L507 989Q505 938 484.5 910.5Q464 883 429 883Q410 883 392 891Q374 899 345 922Q327 937 319 941Q311 945 304 945Q291 945 282 929.5Q273 914 271 885L223 889Q226 940 247 967.5Q268 995 301 995Q318 995 335.5 987.5Q353 980 381 958Z" glyph-name="Utilde" horiz-adv-x="750" unicode="Ũ" /><glyph d="M720 0 89 0V800H149V57H374V800H434V57H659V800H720ZM260 919 531 990L548 934L277 864Z" glyph-name="Wacute" horiz-adv-x="809" unicode="Ẃ" /><glyph d="M720 0 89 0V800H149V57H374V800H434V57H659V800H720ZM578 916 555 869L403 941L254 868L230 915L403 1001Z" glyph-name="Wcircumflex" horiz-adv-x="809" unicode="Ŵ" /><glyph d="M720 0 89 0V800H149V57H374V800H434V57H659V800H720ZM375 937Q375 915 361 901.5Q347 888 324 888Q302 888 289 901.5Q276 915 276 937Q276 960 289 974Q302 988 324 988Q347 988 361 974Q375 960 375 937ZM532 937Q532 915 518 901.5Q504 888 481 888Q459 888 446 901.5Q433 915 433 937Q433 960 446 974Q459 988 481 988Q504 988 518 974Q532 960 532 937Z" glyph-name="Wdieresis" horiz-adv-x="809" unicode="Ẅ" /><glyph d="M720 0 89 0V800H149V57H374V800H434V57H659V800H720ZM548 920 531 864L260 935L277 990Z" glyph-name="Wgrave" horiz-adv-x="809" unicode="Ẁ" /><glyph d="M366 0 306 0V303H89V800H149V360H524V800H584V303H366ZM182 919 453 990L470 934L199 864Z" glyph-name="Yacute" horiz-adv-x="673" unicode="Ý" /><glyph d="M366 0 306 0V303H89V800H149V360H524V800H584V303H366ZM297 937Q297 915 283 901.5Q269 888 246 888Q224 888 211 901.5Q198 915 198 937Q198 960 211 974Q224 988 246 988Q269 988 283 974Q297 960 297 937ZM454 937Q454 915 440 901.5Q426 888 403 888Q381 888 368 901.5Q355 915 355 937Q355 960 368 974Q381 988 403 988Q426 988 440 974Q454 960 454 937Z" glyph-name="Ydieresis" horiz-adv-x="673" unicode="Ÿ" /><glyph d="M366 0 306 0V303H89V800H149V360H524V800H584V303H366ZM500 916 477 869L325 941L176 868L152 915L325 1001Z" glyph-name="Ycircumflex" horiz-adv-x="673" unicode="Ŷ" /><glyph d="M366 0 306 0V303H89V800H149V360H524V800H584V303H366ZM470 920 453 864L182 935L199 990Z" glyph-name="Ygrave" horiz-adv-x="673" unicode="Ỳ" /><glyph d="M555 0 74 0V15L37 49L492 743H63V800H554V775L576 756L117 57H555ZM305 928 457 1000L480 953L305 868L132 954L156 1001Z" glyph-name="Zcaron" horiz-adv-x="612" unicode="Ž" /><glyph d="M555 0 74 0V15L37 49L492 743H63V800H554V775L576 756L117 57H555ZM162 919 433 990L450 934L179 864Z" glyph-name="Zacute" horiz-adv-x="612" unicode="Ź" /><glyph d="M555 0 74 0V15L37 49L492 743H63V800H554V775L576 756L117 57H555ZM365 927Q365 900 348.5 884Q332 868 304 868Q278 868 262 884Q246 900 246 927Q246 955 262 972Q278 989 304 989Q332 989 348.5 972Q365 955 365 927Z" glyph-name="Zdotaccent" horiz-adv-x="612" unicode="Ż" /><glyph d="M130 0 70 0V313H144V800H536V313H610V0H550V256H130ZM204 743 204 313H476V743ZM186 931 457 1002L474 946L203 876Z" glyph-name="aacute" horiz-adv-x="680" unicode="á" /><glyph d="M130 0 70 0V313H144V800H536V313H610V0H550V256H130ZM204 743 204 313H476V743ZM504 928 481 881L329 953L180 880L156 927L329 1013Z" glyph-name="acircumflex" horiz-adv-x="680" unicode="â" /><glyph d="M130 0 70 0V313H144V800H536V313H610V0H550V256H130ZM204 743 204 313H476V743ZM301 949Q301 927 287 913.5Q273 900 250 900Q228 900 215 913.5Q202 927 202 949Q202 972 215 986Q228 1000 250 1000Q273 1000 287 986Q301 972 301 949ZM458 949Q458 927 444 913.5Q430 900 407 900Q385 900 372 913.5Q359 927 359 949Q359 972 372 986Q385 1000 407 1000Q430 1000 444 986Q458 972 458 949Z" glyph-name="adieresis" horiz-adv-x="680" unicode="ä" /><glyph d="M130 0 70 0V313H144V800H536V313H610V0H550V256H130ZM204 743 204 313H476V743ZM474 932 457 876L186 947L203 1002Z" glyph-name="agrave" horiz-adv-x="680" unicode="à" /><glyph d="M130 0 70 0V313H144V800H536V313H610V0H550V256H130ZM204 743 204 313H476V743ZM436 949Q436 904 408.5 880.5Q381 857 328 857Q277 857 250 880.5Q223 904 223 949Q223 995 250 1019.5Q277 1044 328 1044Q381 1044 408.5 1019.5Q436 995 436 949ZM268 949Q268 924 283.5 910.5Q299 897 328 897Q359 897 375 910.5Q391 924 391 949Q391 976 375 990Q359 1004 328 1004Q299 1004 283.5 990Q268 976 268 949Z" glyph-name="aring" horiz-adv-x="680" unicode="å" /><glyph d="M130 0 70 0V313H144V800H536V313H610V0H550V256H130ZM204 743 204 313H476V743ZM346 970Q365 954 374 949.5Q383 945 391 945Q406 945 414.5 960.5Q423 976 424 1005L472 1001Q470 950 449.5 922.5Q429 895 394 895Q375 895 357 903Q339 911 310 934Q292 949 284 953Q276 957 269 957Q256 957 247 941.5Q238 926 236 897L188 901Q191 952 212 979.5Q233 1007 266 1007Q283 1007 300.5 999.5Q318 992 346 970Z" glyph-name="atilde" horiz-adv-x="680" unicode="ã" /><glyph d="M130 0 70 0V313H144V800H536V313H610V0H550V256H130ZM204 743 204 313H476V743ZM446 1018 446 990Q446 933 415.5 902.5Q385 872 328 872Q272 872 242.5 902.5Q213 933 213 990V1018H258V993Q258 954 276 933Q294 912 328 912Q364 912 382.5 933Q401 954 401 993V1018Z" glyph-name="abreve" horiz-adv-x="680" unicode="ă" /><glyph d="M130 0 70 0V313H144V800H536V313H610V0H550V256H130ZM204 743 204 313H476V743ZM191 975 469 975V918H191Z" glyph-name="amacron" horiz-adv-x="680" unicode="ā" /><glyph d="M130 0 70 0V313H144V800H536V313H610V0L538 -40Q485 -70 465.5 -88.5Q446 -107 446 -128Q446 -145 460 -154.5Q474 -164 499 -164Q511 -164 524.5 -161.5Q538 -159 552 -155L560 -198Q545 -204 529 -207Q513 -210 498 -210Q452 -210 422.5 -188Q393 -166 393 -130Q393 -95 423 -64Q453 -33 519 4L550 21V256H130ZM204 743 204 313H476V743Z" glyph-name="aogonek" horiz-adv-x="680" unicode="ą" /><glyph d="M267 0 89 0V800H515V743H149V57H515V0H311L302 -44Q355 -44 382.5 -64.5Q410 -85 410 -125Q410 -166 377 -188Q344 -210 283 -210Q261 -210 238 -205.5Q215 -201 196 -193L206 -151Q222 -158 242 -161.5Q262 -165 283 -165Q323 -165 342.5 -155Q362 -145 362 -125Q362 -105 342.5 -94Q323 -83 288 -83Q278 -83 267.5 -84.5Q257 -86 246 -89Z" glyph-name="ccedilla" horiz-adv-x="545" unicode="ç" /><glyph d="M515 0 89 0V800H515V743H149V57H515ZM148 931 419 1002L436 946L165 876Z" glyph-name="cacute" horiz-adv-x="545" unicode="ć" /><glyph d="M515 0 89 0V800H515V743H149V57H515ZM291 940 443 1012L466 965L291 880L118 966L142 1013Z" glyph-name="ccaron" horiz-adv-x="545" unicode="č" /><glyph d="M515 0 89 0V800H515V743H149V57H515ZM466 928 443 881L291 953L142 880L118 927L291 1013Z" glyph-name="ccircumflex" horiz-adv-x="545" unicode="ĉ" /><glyph d="M515 0 89 0V800H515V743H149V57H515ZM351 939Q351 912 334.5 896Q318 880 290 880Q264 880 248 896Q232 912 232 939Q232 967 248 984Q264 1001 290 1001Q318 1001 334.5 984Q351 967 351 939Z" glyph-name="cdotaccent" horiz-adv-x="545" unicode="ċ" /><glyph d="M333 0 89 0V800H333Q501 800 595.5 694.5Q690 589 690 401Q690 213 595.5 106.5Q501 0 333 0ZM624 401Q624 562 546.5 652.5Q469 743 331 743H149V57H331Q469 57 546.5 148Q624 239 624 401ZM730 552 730 800H789L782 552Z" glyph-name="dcaron" horiz-adv-x="770" unicode="ď" /><glyph d="M333 0 89 0V800H333Q501 800 595.5 694.5Q690 589 690 401Q690 213 595.5 106.5Q501 0 333 0ZM624 401Q624 562 546.5 652.5Q469 743 331 743H149V57H331Q469 57 546.5 148Q624 239 624 401ZM206 975 484 975V918H206Z" glyph-name="dcroat" horiz-adv-x="730" unicode="đ" /><glyph d="M469 0 89 0V328L32 318L21 376L89 388V800H469V743H149V398L415 445L426 387L149 338V57H469ZM124 931 395 1002L412 946L141 876Z" glyph-name="eacute" horiz-adv-x="496" unicode="é" /><glyph d="M469 0 89 0V328L32 318L21 376L89 388V800H469V743H149V398L415 445L426 387L149 338V57H469ZM442 928 419 881L267 953L118 880L94 927L267 1013Z" glyph-name="ecircumflex" horiz-adv-x="496" unicode="ê" /><glyph d="M469 0 89 0V328L32 318L21 376L89 388V800H469V743H149V398L415 445L426 387L149 338V57H469ZM239 949Q239 927 225 913.5Q211 900 188 900Q166 900 153 913.5Q140 927 140 949Q140 972 153 986Q166 1000 188 1000Q211 1000 225 986Q239 972 239 949ZM396 949Q396 927 382 913.5Q368 900 345 900Q323 900 310 913.5Q297 927 297 949Q297 972 310 986Q323 1000 345 1000Q368 1000 382 986Q396 972 396 949Z" glyph-name="edieresis" horiz-adv-x="496" unicode="ë" /><glyph d="M469 0 89 0V328L32 318L21 376L89 388V800H469V743H149V398L415 445L426 387L149 338V57H469ZM412 932 395 876L124 947L141 1002Z" glyph-name="egrave" horiz-adv-x="496" unicode="è" /><glyph d="M469 0 89 0V328L32 318L21 376L89 388V800H469V743H149V398L415 445L426 387L149 338V57H469ZM384 1018 384 990Q384 933 353.5 902.5Q323 872 266 872Q210 872 180.5 902.5Q151 933 151 990V1018H196V993Q196 954 214 933Q232 912 266 912Q302 912 320.5 933Q339 954 339 993V1018Z" glyph-name="ebreve" horiz-adv-x="496" unicode="ĕ" /><glyph d="M469 0 89 0V328L32 318L21 376L89 388V800H469V743H149V398L415 445L426 387L149 338V57H469ZM267 940 419 1012L442 965L267 880L94 966L118 1013Z" glyph-name="ecaron" horiz-adv-x="496" unicode="ě" /><glyph d="M469 0 89 0V328L32 318L21 376L89 388V800H469V743H149V398L415 445L426 387L149 338V57H469ZM327 939Q327 912 310.5 896Q294 880 266 880Q240 880 224 896Q208 912 208 939Q208 967 224 984Q240 1001 266 1001Q294 1001 310.5 984Q327 967 327 939Z" glyph-name="edotaccent" horiz-adv-x="496" unicode="ė" /><glyph d="M469 0 89 0V328L32 318L21 376L89 388V800H469V743H149V398L415 445L426 387L149 338V57H469ZM129 975 407 975V918H129Z" glyph-name="emacron" horiz-adv-x="496" unicode="ē" /><glyph d="M371 0 89 0V328L32 318L21 376L89 388V800H469V743H149V398L415 445L426 387L149 338V57H469V0L397 -40Q344 -70 324.5 -88.5Q305 -107 305 -128Q305 -145 319 -154.5Q333 -164 358 -164Q370 -164 383.5 -161.5Q397 -159 411 -155L419 -198Q404 -204 388 -207Q372 -210 357 -210Q311 -210 281.5 -188Q252 -166 252 -130Q252 -96 280.5 -65.5Q309 -35 371 0Z" glyph-name="eogonek" horiz-adv-x="496" unicode="ę" /><glyph d="M659 0 89 0V800H539V743H149V57H631V355L393 312L383 368L747 433L757 377L691 365V1H659ZM496 1018 496 990Q496 933 465.5 902.5Q435 872 378 872Q322 872 292.5 902.5Q263 933 263 990V1018H308V993Q308 954 326 933Q344 912 378 912Q414 912 432.5 933Q451 954 451 993V1018Z" glyph-name="gbreve" horiz-adv-x="780" unicode="ğ" /><glyph d="M659 0 89 0V800H539V743H149V57H631V355L393 312L383 368L747 433L757 377L691 365V1H659ZM554 928 531 881L379 953L230 880L206 927L379 1013Z" glyph-name="gcircumflex" horiz-adv-x="780" unicode="ĝ" /><glyph d="M659 0 89 0V800H539V743H149V57H631V355L393 312L383 368L747 433L757 377L691 365V1H659ZM408 -47 408 -295H349L356 -47Z" glyph-name="gcommaaccent" horiz-adv-x="780" unicode="ģ" /><glyph d="M659 0 89 0V800H539V743H149V57H631V355L393 312L383 368L747 433L757 377L691 365V1H659ZM439 939Q439 912 422.5 896Q406 880 378 880Q352 880 336 896Q320 912 320 939Q320 967 336 984Q352 1001 378 1001Q406 1001 422.5 984Q439 967 439 939Z" glyph-name="gdotaccent" horiz-adv-x="780" unicode="ġ" /><glyph d="M355 561Q258 561 203.5 493.5Q149 426 149 307V0H89V683H33V740H89V800H149V740H398V683H149V510Q182 563 234 591Q286 619 354 619Q481 619 552.5 537.5Q624 456 624 312V0H564V309Q564 427 508.5 494Q453 561 355 561Z" glyph-name="hbar" horiz-adv-x="683" unicode="ħ" /><glyph d="M355 601Q258 601 203.5 533.5Q149 466 149 347V0H89V800H149V550Q182 603 234 631Q286 659 354 659Q481 659 552.5 577.5Q624 496 624 352V0H564V349Q564 467 508.5 534Q453 601 355 601ZM506 928 483 881L331 953L182 880L158 927L331 1013Z" glyph-name="hcircumflex" horiz-adv-x="683" unicode="ĥ" /><glyph d="M336 0 50 0V57H163V743H50V800H336V743H223V57H336ZM49 931 320 1002L337 946L66 876Z" glyph-name="iacute" horiz-adv-x="386" unicode="í" /><glyph d="M336 0 50 0V57H163V743H50V800H336V743H223V57H336ZM367 928 344 881L192 953L43 880L19 927L192 1013Z" glyph-name="icircumflex" horiz-adv-x="386" unicode="î" /><glyph d="M336 0 50 0V57H163V743H50V800H336V743H223V57H336ZM164 949Q164 927 150 913.5Q136 900 113 900Q91 900 78 913.5Q65 927 65 949Q65 972 78 986Q91 1000 113 1000Q136 1000 150 986Q164 972 164 949ZM321 949Q321 927 307 913.5Q293 900 270 900Q248 900 235 913.5Q222 927 222 949Q222 972 235 986Q248 1000 270 1000Q293 1000 307 986Q321 972 321 949Z" glyph-name="idieresis" horiz-adv-x="386" unicode="ï" /><glyph d="M336 0 50 0V57H163V743H50V800H336V743H223V57H336ZM337 932 320 876L49 947L66 1002Z" glyph-name="igrave" horiz-adv-x="386" unicode="ì" /><glyph d="M336 0 50 0V57H163V743H50V800H336V743H223V57H336ZM309 1018 309 990Q309 933 278.5 902.5Q248 872 191 872Q135 872 105.5 902.5Q76 933 76 990V1018H121V993Q121 954 139 933Q157 912 191 912Q227 912 245.5 933Q264 954 264 993V1018Z" glyph-name="ibreve" horiz-adv-x="386" unicode="ĭ" /><glyph d="M149 0 89 0V800H149Z" glyph-name="i.dot" horiz-adv-x="238" unicode="" /><glyph d="M336 0 50 0V57H163V743H50V800H336V743H223V57H336ZM54 975 332 975V918H54Z" glyph-name="imacron" horiz-adv-x="386" unicode="ī" /><glyph d="M-15 -128Q-15 -145 -1 -154.5Q13 -164 38 -164Q50 -164 63.5 -161.5Q77 -159 91 -155L99 -198Q84 -204 68 -207Q52 -210 37 -210Q-9 -210 -38.5 -188Q-68 -166 -68 -130Q-68 -95 -38 -64Q-8 -33 58 4L89 21V800H149V0L77 -40Q24 -70 4.5 -88.5Q-15 -107 -15 -128Z" glyph-name="iogonek" horiz-adv-x="238" unicode="į" /><glyph d="M336 0 50 0V57H163V743H50V800H336V743H223V57H336ZM209 970Q228 954 237 949.5Q246 945 254 945Q269 945 277.5 960.5Q286 976 287 1005L335 1001Q333 950 312.5 922.5Q292 895 257 895Q238 895 220 903Q202 911 173 934Q155 949 147 953Q139 957 132 957Q119 957 110 941.5Q101 926 99 897L51 901Q54 952 75 979.5Q96 1007 129 1007Q146 1007 163.5 999.5Q181 992 209 970Z" glyph-name="itilde" horiz-adv-x="386" unicode="ĩ" /><glyph d="M320 45Q404 45 455 99Q506 153 506 243V743H294V800H566V240Q566 127 498.5 57.5Q431 -12 320 -12Q209 -12 141.5 57.5Q74 127 74 240V373H134V243Q134 153 185 99Q236 45 320 45ZM611 928 588 881L436 953L287 880L263 927L436 1013Z" glyph-name="jcircumflex" horiz-adv-x="645" unicode="ĵ" /><glyph d="M194 270 134 270V800H194ZM535 0 69 0V57H475V800H535Z" glyph-name="ij" horiz-adv-x="624" unicode="ĳ" /><glyph d="M149 0 89 0V800H149V390H392V800H452V390H610V0H550V333H149ZM303 -293 313 -45H372L355 -293Z" glyph-name="kcommaaccent" horiz-adv-x="665" unicode="ķ" /><glyph d="M139 800 139 255Q139 165 190 111Q241 57 325 57H481V0H322Q213 0 146 69.5Q79 139 79 252V800ZM106 931 377 1002L394 946L123 876Z" glyph-name="lacute" horiz-adv-x="501" unicode="ĺ" /><glyph d="M139 800 139 255Q139 165 190 111Q241 57 325 57H481V0H322Q213 0 146 69.5Q79 139 79 252V800ZM269 552 269 800H328L321 552Z" glyph-name="lcaron" horiz-adv-x="501" unicode="ľ" /><glyph d="M139 800 139 255Q139 165 190 111Q241 57 325 57H481V0H322Q213 0 146 69.5Q79 139 79 252V800ZM221 -293 231 -45H290L273 -293Z" glyph-name="lcommaaccent" horiz-adv-x="501" unicode="ļ" /><glyph d="M139 800 139 255Q139 165 190 111Q241 57 325 57H481V0H322Q213 0 146 69.5Q79 139 79 252V800ZM434 386Q434 359 417.5 343Q401 327 373 327Q347 327 331 343Q315 359 315 386Q315 414 331 431Q347 448 373 448Q401 448 417.5 431Q434 414 434 386Z" glyph-name="ldot" horiz-adv-x="501" unicode="ŀ" /><glyph d="M149 0 89 0V800H584V0H524V743H149ZM352 970Q371 954 380 949.5Q389 945 397 945Q412 945 420.5 960.5Q429 976 430 1005L478 1001Q476 950 455.5 922.5Q435 895 400 895Q381 895 363 903Q345 911 316 934Q298 949 290 953Q282 957 275 957Q262 957 253 941.5Q244 926 242 897L194 901Q197 952 218 979.5Q239 1007 272 1007Q289 1007 306.5 999.5Q324 992 352 970Z" glyph-name="ntilde" horiz-adv-x="673" unicode="ñ" /><glyph d="M149 0 89 0V800H584V0H524V743H149ZM192 931 463 1002L480 946L209 876Z" glyph-name="nacute" horiz-adv-x="673" unicode="ń" /><glyph d="M149 0 89 0V800H584V0H524V743H149ZM335 940 487 1012L510 965L335 880L162 966L186 1013Z" glyph-name="ncaron" horiz-adv-x="673" unicode="ň" /><glyph d="M149 0 89 0V800H584V0H524V743H149ZM307 -293 317 -45H376L359 -293Z" glyph-name="ncommaaccent" horiz-adv-x="673" unicode="ņ" /><glyph d="M451 -12Q281 -12 165.5 106.5Q50 225 50 400Q50 575 165.5 693.5Q281 812 451 812Q621 812 736.5 693.5Q852 575 852 400Q852 225 736.5 106.5Q621 -12 451 -12ZM116 400Q116 249 210.5 151Q305 53 451 53Q596 53 691 151.5Q786 250 786 400Q786 550 691 648.5Q596 747 451 747Q306 747 211 648.5Q116 550 116 400ZM297 931 568 1002L585 946L314 876Z" glyph-name="oacute" horiz-adv-x="902" unicode="ó" /><glyph d="M451 -12Q281 -12 165.5 106.5Q50 225 50 400Q50 575 165.5 693.5Q281 812 451 812Q621 812 736.5 693.5Q852 575 852 400Q852 225 736.5 106.5Q621 -12 451 -12ZM116 400Q116 249 210.5 151Q305 53 451 53Q596 53 691 151.5Q786 250 786 400Q786 550 691 648.5Q596 747 451 747Q306 747 211 648.5Q116 550 116 400ZM615 928 592 881L440 953L291 880L267 927L440 1013Z" glyph-name="ocircumflex" horiz-adv-x="902" unicode="ô" /><glyph d="M451 -12Q281 -12 165.5 106.5Q50 225 50 400Q50 575 165.5 693.5Q281 812 451 812Q621 812 736.5 693.5Q852 575 852 400Q852 225 736.5 106.5Q621 -12 451 -12ZM116 400Q116 249 210.5 151Q305 53 451 53Q596 53 691 151.5Q786 250 786 400Q786 550 691 648.5Q596 747 451 747Q306 747 211 648.5Q116 550 116 400ZM412 949Q412 927 398 913.5Q384 900 361 900Q339 900 326 913.5Q313 927 313 949Q313 972 326 986Q339 1000 361 1000Q384 1000 398 986Q412 972 412 949ZM569 949Q569 927 555 913.5Q541 900 518 900Q496 900 483 913.5Q470 927 470 949Q470 972 483 986Q496 1000 518 1000Q541 1000 555 986Q569 972 569 949Z" glyph-name="odieresis" horiz-adv-x="902" unicode="ö" /><glyph d="M451 -12Q281 -12 165.5 106.5Q50 225 50 400Q50 575 165.5 693.5Q281 812 451 812Q621 812 736.5 693.5Q852 575 852 400Q852 225 736.5 106.5Q621 -12 451 -12ZM116 400Q116 249 210.5 151Q305 53 451 53Q596 53 691 151.5Q786 250 786 400Q786 550 691 648.5Q596 747 451 747Q306 747 211 648.5Q116 550 116 400ZM585 932 568 876L297 947L314 1002Z" glyph-name="ograve" horiz-adv-x="902" unicode="ò" /><glyph d="M451 -12Q281 -12 165.5 106.5Q50 225 50 400Q50 575 165.5 693.5Q281 812 451 812Q621 812 736.5 693.5Q852 575 852 400Q852 225 736.5 106.5Q621 -12 451 -12ZM116 400Q116 249 210.5 151Q305 53 451 53Q596 53 691 151.5Q786 250 786 400Q786 550 691 648.5Q596 747 451 747Q306 747 211 648.5Q116 550 116 400ZM457 970Q476 954 485 949.5Q494 945 502 945Q517 945 525.5 960.5Q534 976 535 1005L583 1001Q581 950 560.5 922.5Q540 895 505 895Q486 895 468 903Q450 911 421 934Q403 949 395 953Q387 957 380 957Q367 957 358 941.5Q349 926 347 897L299 901Q302 952 323 979.5Q344 1007 377 1007Q394 1007 411.5 999.5Q429 992 457 970Z" glyph-name="otilde" horiz-adv-x="902" unicode="õ" /><glyph d="M451 -12Q281 -12 165.5 106.5Q50 225 50 400Q50 575 165.5 693.5Q281 812 451 812Q621 812 736.5 693.5Q852 575 852 400Q852 225 736.5 106.5Q621 -12 451 -12ZM116 400Q116 249 210.5 151Q305 53 451 53Q596 53 691 151.5Q786 250 786 400Q786 550 691 648.5Q596 747 451 747Q306 747 211 648.5Q116 550 116 400ZM557 1018 557 990Q557 933 526.5 902.5Q496 872 439 872Q383 872 353.5 902.5Q324 933 324 990V1018H369V993Q369 954 387 933Q405 912 439 912Q475 912 493.5 933Q512 954 512 993V1018Z" glyph-name="obreve" horiz-adv-x="902" unicode="ŏ" /><glyph d="M451 -12Q281 -12 165.5 106.5Q50 225 50 400Q50 575 165.5 693.5Q281 812 451 812Q621 812 736.5 693.5Q852 575 852 400Q852 225 736.5 106.5Q621 -12 451 -12ZM116 400Q116 249 210.5 151Q305 53 451 53Q596 53 691 151.5Q786 250 786 400Q786 550 691 648.5Q596 747 451 747Q306 747 211 648.5Q116 550 116 400ZM396 1058 444 1033L342 848L294 873ZM550 1058 598 1033L496 848L448 873Z" glyph-name="ohungarumlaut" horiz-adv-x="902" unicode="ő" /><glyph d="M451 -12Q281 -12 165.5 106.5Q50 225 50 400Q50 575 165.5 693.5Q281 812 451 812Q621 812 736.5 693.5Q852 575 852 400Q852 225 736.5 106.5Q621 -12 451 -12ZM116 400Q116 249 210.5 151Q305 53 451 53Q596 53 691 151.5Q786 250 786 400Q786 550 691 648.5Q596 747 451 747Q306 747 211 648.5Q116 550 116 400ZM302 975 580 975V918H302Z" glyph-name="omacron" horiz-adv-x="902" unicode="ō" /><glyph d="M149 0 89 0V800H331Q448 800 513 741.5Q578 683 578 578Q578 472 512.5 413Q447 354 331 354H238L609 47L569 -4L149 350ZM518 578Q518 656 468 699.5Q418 743 329 743H149V411H329Q419 411 468.5 455Q518 499 518 578ZM173 931 444 1002L461 946L190 876Z" glyph-name="racute" horiz-adv-x="634" unicode="ŕ" /><glyph d="M149 0 89 0V800H331Q448 800 513 741.5Q578 683 578 578Q578 472 512.5 413Q447 354 331 354H238L609 47L569 -4L149 350ZM518 578Q518 656 468 699.5Q418 743 329 743H149V411H329Q419 411 468.5 455Q518 499 518 578ZM316 940 468 1012L491 965L316 880L143 966L167 1013Z" glyph-name="rcaron" horiz-adv-x="634" unicode="ř" /><glyph d="M149 0 89 0V800H331Q448 800 513 741.5Q578 683 578 578Q578 472 512.5 413Q447 354 331 354H238L609 47L569 -4L149 350ZM518 578Q518 656 468 699.5Q418 743 329 743H149V411H329Q419 411 468.5 455Q518 499 518 578ZM288 -293 298 -45H357L340 -293Z" glyph-name="rcommaaccent" horiz-adv-x="634" unicode="ŗ" /><glyph d="M452 0 68 0V57H432L43 758L66 772V800H475V743H122L509 47ZM255 940 407 1012L430 965L255 880L82 966L106 1013Z" glyph-name="scaron" horiz-adv-x="552" unicode="š" /><glyph d="M452 0 68 0V57H432L43 758L66 772V800H475V743H122L509 47ZM112 931 383 1002L400 946L129 876Z" glyph-name="sacute" horiz-adv-x="552" unicode="ś" /><glyph d="M236 0 68 0V57H432L43 758L66 772V800H475V743H122L509 47L452 0H280L270 -44Q323 -44 350.5 -64.5Q378 -85 378 -125Q378 -166 345 -188Q312 -210 251 -210Q229 -210 206 -205.5Q183 -201 164 -193L174 -151Q190 -158 210 -161.5Q230 -165 251 -165Q291 -165 310.5 -155Q330 -145 330 -125Q330 -105 310.5 -94Q291 -83 256 -83Q246 -83 235.5 -84.5Q225 -86 214 -89Z" glyph-name="scedilla" horiz-adv-x="552" unicode="ş" /><glyph d="M452 0 68 0V57H432L43 758L66 772V800H475V743H122L509 47ZM430 928 407 881L255 953L106 880L82 927L255 1013Z" glyph-name="scircumflex" horiz-adv-x="552" unicode="ŝ" /><glyph d="M452 0 68 0V57H432L43 758L66 772V800H475V743H122L509 47ZM227 -293 237 -45H296L279 -293Z" glyph-name="uni0219" horiz-adv-x="552" unicode="ș" /><glyph d="M154 352 154 235Q154 154 199.5 105.5Q245 57 320 57H456V0H317Q217 0 155.5 64Q94 128 94 232V352H32V409H94V640H17V697H94V800H154V697H506V640H154V409H450V352Z" glyph-name="tbar" horiz-adv-x="523" unicode="ŧ" /><glyph d="M154 640 154 235Q154 154 199.5 105.5Q245 57 320 57H456V0H317Q217 0 155.5 64Q94 128 94 232V640H17V697H94V800H154V697H386V640ZM453 552 453 800H512L505 552Z" glyph-name="tcaron" horiz-adv-x="523" unicode="ť" /><glyph d="M154 640 154 235Q154 154 199.5 105.5Q245 57 320 57H456V0H317Q217 0 155.5 64Q94 128 94 232V640H17V697H94V800H154V697H506V640ZM233 -293 243 -45H302L285 -293Z" glyph-name="uni0163" horiz-adv-x="523" unicode="ţ" /><glyph d="M154 640 154 235Q154 154 199.5 105.5Q245 57 320 57H456V0H317Q217 0 155.5 64Q94 128 94 232V640H17V697H94V800H154V697H506V640ZM233 -293 243 -45H302L285 -293Z" glyph-name="uni021B" horiz-adv-x="523" unicode="ț" /><glyph d="M89 0 89 800H149V57H524V800H584V0ZM192 931 463 1002L480 946L209 876Z" glyph-name="uacute" horiz-adv-x="673" unicode="ú" /><glyph d="M89 0 89 800H149V57H524V800H584V0ZM510 928 487 881L335 953L186 880L162 927L335 1013Z" glyph-name="ucircumflex" horiz-adv-x="673" unicode="û" /><glyph d="M89 0 89 800H149V57H524V800H584V0ZM307 949Q307 927 293 913.5Q279 900 256 900Q234 900 221 913.5Q208 927 208 949Q208 972 221 986Q234 1000 256 1000Q279 1000 293 986Q307 972 307 949ZM464 949Q464 927 450 913.5Q436 900 413 900Q391 900 378 913.5Q365 927 365 949Q365 972 378 986Q391 1000 413 1000Q436 1000 450 986Q464 972 464 949Z" glyph-name="udieresis" horiz-adv-x="673" unicode="ü" /><glyph d="M89 0 89 800H149V57H524V800H584V0ZM480 932 463 876L192 947L209 1002Z" glyph-name="ugrave" horiz-adv-x="673" unicode="ù" /><glyph d="M89 0 89 800H149V57H524V800H584V0ZM452 1018 452 990Q452 933 421.5 902.5Q391 872 334 872Q278 872 248.5 902.5Q219 933 219 990V1018H264V993Q264 954 282 933Q300 912 334 912Q370 912 388.5 933Q407 954 407 993V1018Z" glyph-name="ubreve" horiz-adv-x="673" unicode="ŭ" /><glyph d="M89 0 89 800H149V57H524V800H584V0ZM291 1058 339 1033L237 848L189 873ZM445 1058 493 1033L391 848L343 873Z" glyph-name="uhungarumlaut" horiz-adv-x="673" unicode="ű" /><glyph d="M89 0 89 800H149V57H524V800H584V0ZM197 975 475 975V918H197Z" glyph-name="umacron" horiz-adv-x="673" unicode="ū" /><glyph d="M419 -128Q419 -145 433 -154.5Q447 -164 472 -164Q484 -164 497.5 -161.5Q511 -159 525 -155L533 -198Q518 -204 502 -207Q486 -210 471 -210Q425 -210 395.5 -188Q366 -166 366 -130Q366 -96 394.5 -65.5Q423 -35 485 0H89V800H149V57H524V800H584V0H583L511 -40Q458 -70 438.5 -88.5Q419 -107 419 -128Z" glyph-name="uogonek" horiz-adv-x="673" unicode="ų" /><glyph d="M89 0 89 800H149V57H524V800H584V0ZM442 949Q442 904 414.5 880.5Q387 857 334 857Q283 857 256 880.5Q229 904 229 949Q229 995 256 1019.5Q283 1044 334 1044Q387 1044 414.5 1019.5Q442 995 442 949ZM274 949Q274 924 289.5 910.5Q305 897 334 897Q365 897 381 910.5Q397 924 397 949Q397 976 381 990Q365 1004 334 1004Q305 1004 289.5 990Q274 976 274 949Z" glyph-name="uring" horiz-adv-x="673" unicode="ů" /><glyph d="M89 0 89 800H149V57H524V800H584V0ZM352 970Q371 954 380 949.5Q389 945 397 945Q412 945 420.5 960.5Q429 976 430 1005L478 1001Q476 950 455.5 922.5Q435 895 400 895Q381 895 363 903Q345 911 316 934Q298 949 290 953Q282 957 275 957Q262 957 253 941.5Q244 926 242 897L194 901Q197 952 218 979.5Q239 1007 272 1007Q289 1007 306.5 999.5Q324 992 352 970Z" glyph-name="utilde" horiz-adv-x="673" unicode="ũ" /><glyph d="M446 174 275 -12L66 210L89 236V800H149V201L275 68L416 220V700H476V220L617 68L743 203V800H803V235L826 210L617 -12ZM302 931 573 1002L590 946L319 876Z" glyph-name="wacute" horiz-adv-x="892" unicode="ẃ" /><glyph d="M446 174 275 -12L66 210L89 236V800H149V201L275 68L416 220V700H476V220L617 68L743 203V800H803V235L826 210L617 -12ZM620 928 597 881L445 953L296 880L272 927L445 1013Z" glyph-name="wcircumflex" horiz-adv-x="892" unicode="ŵ" /><glyph d="M446 174 275 -12L66 210L89 236V800H149V201L275 68L416 220V700H476V220L617 68L743 203V800H803V235L826 210L617 -12ZM417 949Q417 927 403 913.5Q389 900 366 900Q344 900 331 913.5Q318 927 318 949Q318 972 331 986Q344 1000 366 1000Q389 1000 403 986Q417 972 417 949ZM574 949Q574 927 560 913.5Q546 900 523 900Q501 900 488 913.5Q475 927 475 949Q475 972 488 986Q501 1000 523 1000Q546 1000 560 986Q574 972 574 949Z" glyph-name="wdieresis" horiz-adv-x="892" unicode="ẅ" /><glyph d="M446 174 275 -12L66 210L89 236V800H149V201L275 68L416 220V700H476V220L617 68L743 203V800H803V235L826 210L617 -12ZM590 932 573 876L302 947L319 1002Z" glyph-name="wgrave" horiz-adv-x="892" unicode="ẁ" /><glyph d="M30 779 78 812L365 387L631 812L679 781L400 336L434 285L387 247L365 280L182 -12L136 20L330 331ZM199 931 470 1002L487 946L216 876Z" glyph-name="yacute" horiz-adv-x="686" unicode="ý" /><glyph d="M30 779 78 812L365 387L631 812L679 781L400 336L434 285L387 247L365 280L182 -12L136 20L330 331ZM314 949Q314 927 300 913.5Q286 900 263 900Q241 900 228 913.5Q215 927 215 949Q215 972 228 986Q241 1000 263 1000Q286 1000 300 986Q314 972 314 949ZM471 949Q471 927 457 913.5Q443 900 420 900Q398 900 385 913.5Q372 927 372 949Q372 972 385 986Q398 1000 420 1000Q443 1000 457 986Q471 972 471 949Z" glyph-name="ydieresis" horiz-adv-x="686" unicode="ÿ" /><glyph d="M30 779 78 812L365 387L631 812L679 781L400 336L434 285L387 247L365 280L182 -12L136 20L330 331ZM517 928 494 881L342 953L193 880L169 927L342 1013Z" glyph-name="ycircumflex" horiz-adv-x="686" unicode="ŷ" /><glyph d="M30 779 78 812L365 387L631 812L679 781L400 336L434 285L387 247L365 280L182 -12L136 20L330 331ZM487 932 470 876L199 947L216 1002Z" glyph-name="ygrave" horiz-adv-x="686" unicode="ỳ" /><glyph d="M65 67Q65 82 70.5 98.5Q76 115 87 132L461 700Q466 707 468 713Q470 719 470 724Q470 733 463.5 738Q457 743 445 743H69V800H454Q493 800 515.5 782Q538 764 538 733Q538 718 532.5 701.5Q527 685 516 668L142 100Q138 93 135.5 87Q133 81 133 76Q133 67 139.5 62Q146 57 158 57H543V0H149Q110 0 87.5 18Q65 36 65 67ZM305 940 457 1012L480 965L305 880L132 966L156 1013Z" glyph-name="zcaron" horiz-adv-x="612" unicode="ž" /><glyph d="M65 67Q65 82 70.5 98.5Q76 115 87 132L461 700Q466 707 468 713Q470 719 470 724Q470 733 463.5 738Q457 743 445 743H69V800H454Q493 800 515.5 782Q538 764 538 733Q538 718 532.5 701.5Q527 685 516 668L142 100Q138 93 135.5 87Q133 81 133 76Q133 67 139.5 62Q146 57 158 57H543V0H149Q110 0 87.5 18Q65 36 65 67ZM162 931 433 1002L450 946L179 876Z" glyph-name="zacute" horiz-adv-x="612" unicode="ź" /><glyph d="M65 67Q65 82 70.5 98.5Q76 115 87 132L461 700Q466 707 468 713Q470 719 470 724Q470 733 463.5 738Q457 743 445 743H69V800H454Q493 800 515.5 782Q538 764 538 733Q538 718 532.5 701.5Q527 685 516 668L142 100Q138 93 135.5 87Q133 81 133 76Q133 67 139.5 62Q146 57 158 57H543V0H149Q110 0 87.5 18Q65 36 65 67ZM365 939Q365 912 348.5 896Q332 880 304 880Q278 880 262 896Q246 912 246 939Q246 967 262 984Q278 1001 304 1001Q332 1001 348.5 984Q365 967 365 939Z" glyph-name="zdotaccent" horiz-adv-x="612" unicode="ż" /><glyph d="M162 931 433 1002L450 946L179 876Z" glyph-name="acute" horiz-adv-x="500" unicode="´" /><glyph d="M487 932 470 876L199 947L216 1002Z" glyph-name="grave" horiz-adv-x="500" unicode="`" /><glyph d="M517 928 494 881L342 953L193 880L169 927L342 1013Z" glyph-name="circumflex" horiz-adv-x="500" unicode="ˆ" /><glyph d="M305 940 457 1012L480 965L305 880L132 966L156 1013Z" glyph-name="caron" horiz-adv-x="500" unicode="ˇ" /><glyph d="M352 970Q371 954 380 949.5Q389 945 397 945Q412 945 420.5 960.5Q429 976 430 1005L478 1001Q476 950 455.5 922.5Q435 895 400 895Q381 895 363 903Q345 911 316 934Q298 949 290 953Q282 957 275 957Q262 957 253 941.5Q244 926 242 897L194 901Q197 952 218 979.5Q239 1007 272 1007Q289 1007 306.5 999.5Q324 992 352 970Z" glyph-name="tilde" horiz-adv-x="500" unicode="˜" /><glyph d="M314 949Q314 927 300 913.5Q286 900 263 900Q241 900 228 913.5Q215 927 215 949Q215 972 228 986Q241 1000 263 1000Q286 1000 300 986Q314 972 314 949ZM471 949Q471 927 457 913.5Q443 900 420 900Q398 900 385 913.5Q372 927 372 949Q372 972 385 986Q398 1000 420 1000Q443 1000 457 986Q471 972 471 949Z" glyph-name="dieresis" horiz-adv-x="500" unicode="¨" /><glyph d="M442 949Q442 904 414.5 880.5Q387 857 334 857Q283 857 256 880.5Q229 904 229 949Q229 995 256 1019.5Q283 1044 334 1044Q387 1044 414.5 1019.5Q442 995 442 949ZM274 949Q274 924 289.5 910.5Q305 897 334 897Q365 897 381 910.5Q397 924 397 949Q397 976 381 990Q365 1004 334 1004Q305 1004 289.5 990Q274 976 274 949Z" glyph-name="ring" horiz-adv-x="500" unicode="˚" /><glyph d="M250 -83Q240 -83 229.5 -84.5Q219 -86 208 -89L236 25H279L264 -44Q317 -44 344.5 -64.5Q372 -85 372 -125Q372 -166 339 -188Q306 -210 245 -210Q223 -210 200 -205.5Q177 -201 158 -193L168 -151Q184 -158 204 -161.5Q224 -165 245 -165Q285 -165 304.5 -155Q324 -145 324 -125Q324 -105 304.5 -94Q285 -83 250 -83Z" glyph-name="cedilla" horiz-adv-x="500" unicode="¸" /><glyph d="M291 1058 339 1033L237 848L189 873ZM445 1058 493 1033L391 848L343 873Z" glyph-name="hungarumlaut" horiz-adv-x="500" unicode="˝" /><glyph d="M452 1018 452 990Q452 933 421.5 902.5Q391 872 334 872Q278 872 248.5 902.5Q219 933 219 990V1018H264V993Q264 954 282 933Q300 912 334 912Q370 912 388.5 933Q407 954 407 993V1018Z" glyph-name="breve" horiz-adv-x="500" unicode="˘" /><glyph d="M197 975 475 975V918H197Z" glyph-name="macron" horiz-adv-x="500" unicode="¯" /><glyph d="M365 939Q365 912 348.5 896Q332 880 304 880Q278 880 262 896Q246 912 246 939Q246 967 262 984Q278 1001 304 1001Q332 1001 348.5 984Q365 967 365 939Z" glyph-name="dotaccent" horiz-adv-x="500" unicode="˙" /><glyph d="M434 386Q434 359 417.5 343Q401 327 373 327Q347 327 331 343Q315 359 315 386Q315 414 331 431Q347 448 373 448Q401 448 417.5 431Q434 414 434 386Z" glyph-name="periodcentered" horiz-adv-x="500" unicode="·" /><glyph d="M211 -128Q211 -145 225 -154.5Q239 -164 264 -164Q276 -164 289.5 -161.5Q303 -159 317 -155L325 -198Q310 -204 294 -207Q278 -210 263 -210Q217 -210 187.5 -188Q158 -166 158 -130Q158 -95 188 -64Q218 -33 284 4L352 42L375 0L303 -40Q250 -70 230.5 -88.5Q211 -107 211 -128Z" glyph-name="ogonek" horiz-adv-x="500" unicode="˛" /><glyph d="M233 -293 243 -45H302L285 -293Z" glyph-name="commaaccent" horiz-adv-x="500" unicode="" /><glyph d="M269 552 269 800H328L321 552Z" glyph-name="caron.alt" horiz-adv-x="500" unicode="" /><glyph d="M408 -47 408 -295H349L356 -47Z" glyph-name="revcommaaccent" horiz-adv-x="500" unicode="" /><glyph d="M199 47Q199 20 182.5 4Q166 -12 138 -12Q112 -12 96 4Q80 20 80 47Q80 75 96 92Q112 109 138 109Q166 109 182.5 92Q199 75 199 47Z" glyph-name="period" horiz-adv-x="279" unicode="." /><glyph d="M141 -12 140 -12Q116 -12 101 3Q86 18 86 43Q86 69 101 85.5Q116 102 140 102Q166 102 182 85.5Q198 69 198 43V-1L121 -161L81 -139Z" glyph-name="comma" horiz-adv-x="272" unicode="," /><glyph d="M199 447Q199 420 182.5 404Q166 388 138 388Q112 388 96 404Q80 420 80 447Q80 475 96 492Q112 509 138 509Q166 509 182.5 492Q199 475 199 447ZM199 47Q199 20 182.5 4Q166 -12 138 -12Q112 -12 96 4Q80 20 80 47Q80 75 96 92Q112 109 138 109Q166 109 182.5 92Q199 75 199 47Z" glyph-name="colon" horiz-adv-x="279" unicode=":" /><glyph d="M199 447Q199 420 182.5 404Q166 388 138 388Q112 388 96 404Q80 420 80 447Q80 475 96 492Q112 509 138 509Q166 509 182.5 492Q199 475 199 447ZM142 -12 141 -12Q117 -12 102 3Q87 18 87 43Q87 69 102 85.5Q117 102 141 102Q167 102 183 85.5Q199 69 199 43V-1L122 -161L82 -139Z" glyph-name="semicolon" horiz-adv-x="279" unicode=";" /><glyph d="M199 47Q199 20 182.5 4Q166 -12 138 -12Q112 -12 96 4Q80 20 80 47Q80 75 96 92Q112 109 138 109Q166 109 182.5 92Q199 75 199 47ZM388 47Q388 20 371.5 4Q355 -12 327 -12Q301 -12 285 4Q269 20 269 47Q269 75 285 92Q301 109 327 109Q355 109 371.5 92Q388 75 388 47ZM577 47Q577 20 560.5 4Q544 -12 516 -12Q490 -12 474 4Q458 20 458 47Q458 75 474 92Q490 109 516 109Q544 109 560.5 92Q577 75 577 47Z" glyph-name="ellipsis" horiz-adv-x="657" unicode="…" /><glyph d="M270 812Q366 812 420.5 754.5Q475 697 475 593Q475 491 426 431.5Q377 372 290 365L287 232H236V412H280Q349 412 387 459Q425 506 425 593Q425 675 384.5 719Q344 763 270 763Q197 763 156.5 714.5Q116 666 116 577V517H66V577Q66 687 120.5 749.5Q175 812 270 812ZM323 47Q323 20 306.5 4Q290 -12 262 -12Q236 -12 220 4Q204 20 204 47Q204 75 220 92Q236 109 262 109Q290 109 306.5 92Q323 75 323 47Z" glyph-name="question" horiz-adv-x="529" unicode="?" /><glyph d="M130 552 130 800H189V552L185 232H134ZM219 47Q219 20 202.5 4Q186 -12 158 -12Q132 -12 116 4Q100 20 100 47Q100 75 116 92Q132 109 158 109Q186 109 202.5 92Q219 75 219 47Z" glyph-name="exclam" horiz-adv-x="319" unicode="!" /><glyph d="M206 753Q206 780 222.5 796Q239 812 267 812Q293 812 309 796Q325 780 325 753Q325 725 309 708Q293 691 267 691Q239 691 222.5 708Q206 725 206 753ZM463 283 463 223Q463 113 408.5 50.5Q354 -12 259 -12Q163 -12 108.5 45.5Q54 103 54 207Q54 309 103 368.5Q152 428 239 435L242 568H293V388H249Q180 388 142 341Q104 294 104 207Q104 125 144.5 81Q185 37 259 37Q332 37 372.5 85.5Q413 134 413 223V283Z" glyph-name="questiondown" horiz-adv-x="529" unicode="¿" /><glyph d="M100 753Q100 780 116 796Q132 812 158 812Q186 812 202.5 796Q219 780 219 753Q219 725 202.5 708Q186 691 158 691Q132 691 116 708Q100 725 100 753ZM189 0 130 0V248L134 568H185L189 248Z" glyph-name="exclamdown" horiz-adv-x="319" unicode="¡" /><glyph d="M80 400Q80 601 154 730.5Q228 860 345 865V813Q254 805 196.5 691Q139 577 139 400Q139 221 196 108Q253 -5 345 -13V-65Q228 -60 154 69.5Q80 199 80 400Z" glyph-name="parenleft" horiz-adv-x="355" unicode="(" /><glyph d="M10 813 10 865Q127 860 201 730.5Q275 601 275 400Q275 199 201 69.5Q127 -60 10 -65V-13Q102 -5 159 108Q216 221 216 400Q216 577 158.5 691Q101 805 10 813Z" glyph-name="parenright" horiz-adv-x="355" unicode=")" /><glyph d="M198 632Q198 510 186 459Q174 408 140 400Q174 392 186 341Q198 290 198 168Q198 109 200 81Q202 53 206 37Q213 9 232.5 -1Q252 -11 314 -11V-65Q240 -65 206.5 -52.5Q173 -40 158 -8Q148 15 143.5 53Q139 91 139 168Q139 214 138.5 241Q138 268 136 287Q133 335 120.5 352.5Q108 370 75 370H50V430H75Q108 430 120.5 447.5Q133 465 136 513Q138 532 138.5 559Q139 586 139 632Q139 709 143.5 747Q148 785 158 808Q173 840 206.5 852.5Q240 865 314 865V811Q252 811 232.5 801Q213 791 206 763Q202 747 200 719Q198 691 198 632Z" glyph-name="braceleft" horiz-adv-x="324" unicode="{" /><glyph d="M126 168Q126 290 138 341Q150 392 184 400Q150 408 138 459Q126 510 126 632Q126 691 124 719Q122 747 118 763Q111 791 91.5 801Q72 811 10 811V865Q84 865 117.5 852.5Q151 840 166 808Q176 785 180.5 747Q185 709 185 632Q185 586 185.5 559Q186 532 188 513Q191 465 203.5 447.5Q216 430 249 430H274V370H249Q216 370 203.5 352.5Q191 335 188 287Q186 268 185.5 241Q185 214 185 168Q185 91 180.5 53Q176 15 166 -8Q151 -40 117.5 -52.5Q84 -65 10 -65V-11Q72 -11 91.5 -1Q111 9 118 37Q122 53 124 81Q126 109 126 168Z" glyph-name="braceright" horiz-adv-x="324" unicode="}" /><glyph d="M130 -100 130 900H309V844H190V-44H309V-100Z" glyph-name="bracketleft" horiz-adv-x="319" unicode="[" /><glyph d="M10 900 189 900V-100H10V-44H129V844H10Z" glyph-name="bracketright" horiz-adv-x="319" unicode="]" /><glyph d="M309 900 77 -100H10L242 900Z" glyph-name="slash" horiz-adv-x="319" unicode="/" /><glyph d="M10 900 77 900L309 -100H242Z" glyph-name="backslash" horiz-adv-x="319" unicode="\" /><glyph d="M410 -69 30 -69V-12H410Z" glyph-name="underscore" horiz-adv-x="440" unicode="_" /><glyph d="M400 354 40 354V411H400Z" glyph-name="hyphen" horiz-adv-x="440" unicode="-" /><glyph d="" glyph-name="uni00AD" horiz-adv-x="0" unicode="­" /><glyph d="M460 354 40 354V411H460Z" glyph-name="endash" horiz-adv-x="500" unicode="–" /><glyph d="M960 354 40 354V411H960Z" glyph-name="emdash" horiz-adv-x="1000" unicode="—" /><glyph d="M89 470 89 865H149V470ZM89 -65 89 330H149V-65Z" glyph-name="brokenbar" horiz-adv-x="238" unicode="¦" /><glyph d="M89 -65 89 865H149V-65Z" glyph-name="bar" horiz-adv-x="238" unicode="|" /><glyph d="M635 137 365 347V433L635 643L673 585L412 390L673 195ZM335 137 65 347V433L335 643L373 585L112 390L373 195Z" glyph-name="guillemotleft" horiz-adv-x="735" unicode="«" /><glyph d="M370 433 370 347L100 137L62 195L323 390L62 585L100 643ZM670 433 670 347L400 137L362 195L623 390L362 585L400 643Z" glyph-name="guillemotright" horiz-adv-x="735" unicode="»" /><glyph d="M405 137 65 347V433L405 643L438 585L112 390L438 195Z" glyph-name="guilsinglleft" horiz-adv-x="500" unicode="‹" /><glyph d="M435 433 435 347L95 137L62 195L388 390L62 585L95 643Z" glyph-name="guilsinglright" horiz-adv-x="500" unicode="›" /><glyph d="M141 -12 140 -12Q116 -12 101 3Q86 18 86 43Q86 69 101 85.5Q116 102 140 102Q166 102 182 85.5Q198 69 198 43V-1L121 -161L81 -139Z" glyph-name="quotesinglbase" horiz-adv-x="272" unicode="‚" /><glyph d="M141 -12 140 -12Q116 -12 101 3Q86 18 86 43Q86 69 101 85.5Q116 102 140 102Q166 102 182 85.5Q198 69 198 43V-1L121 -161L81 -139ZM311 -12 310 -12Q286 -12 271 3Q256 18 256 43Q256 69 271 85.5Q286 102 310 102Q336 102 352 85.5Q368 69 368 43V-1L291 -161L251 -139Z" glyph-name="quotedblbase" horiz-adv-x="442" unicode="„" /><glyph d="M131 662 132 662Q156 662 171 647Q186 632 186 607Q186 581 171 564.5Q156 548 132 548Q106 548 90 564.5Q74 581 74 607V651L151 811L191 789Z" glyph-name="quoteleft" horiz-adv-x="272" unicode="‘" /><glyph d="M301 662 302 662Q326 662 341 647Q356 632 356 607Q356 581 341 564.5Q326 548 302 548Q276 548 260 564.5Q244 581 244 607V651L321 811L361 789ZM131 662 132 662Q156 662 171 647Q186 632 186 607Q186 581 171 564.5Q156 548 132 548Q106 548 90 564.5Q74 581 74 607V651L151 811L191 789Z" glyph-name="quotedblleft" horiz-adv-x="442" unicode="“" /><glyph d="M141 698 140 698Q116 698 101 713Q86 728 86 753Q86 779 101 795.5Q116 812 140 812Q166 812 182 795.5Q198 779 198 753V709L121 549L81 571Z" glyph-name="quoteright" horiz-adv-x="272" unicode="’" /><glyph d="M141 698 140 698Q116 698 101 713Q86 728 86 753Q86 779 101 795.5Q116 812 140 812Q166 812 182 795.5Q198 779 198 753V709L121 549L81 571ZM311 698 310 698Q286 698 271 713Q256 728 256 753Q256 779 271 795.5Q286 812 310 812Q336 812 352 795.5Q368 779 368 753V709L291 549L251 571Z" glyph-name="quotedblright" horiz-adv-x="442" unicode="”" /><glyph d="M74 522 70 800H134L130 522Z" glyph-name="quotesingle" horiz-adv-x="204" unicode="'" /><glyph d="M74 522 70 800H134L130 522ZM214 522 210 800H274L270 522Z" glyph-name="quotedbl" horiz-adv-x="344" unicode="&quot;" /><glyph d="M289 386Q289 350 267 328.5Q245 307 208 307Q172 307 151 328.5Q130 350 130 386Q130 423 151.5 445.5Q173 468 208 468Q245 468 267 445.5Q289 423 289 386Z" glyph-name="bullet" horiz-adv-x="419" unicode="•" /><glyph d="M271 -10Q187 -10 131 45Q75 100 75 181Q75 244 113 305.5Q151 367 221 419Q165 489 144 535Q123 581 123 627Q123 710 173.5 760Q224 810 307 810Q384 810 432.5 763Q481 716 481 642Q481 579 449 530Q417 481 346 435L302 407Q319 386 334.5 366.5Q350 347 366 328L458 214Q464 228 469 243.5Q474 259 479 276L514 399H572L534 261Q527 236 518.5 212Q510 188 499 164L631 0H555L468 109Q429 50 379 20Q329 -10 271 -10ZM307 752Q253 752 219 717.5Q185 683 185 627Q185 592 204 551.5Q223 511 268 450L314 479Q367 512 393 552.5Q419 593 419 642Q419 691 388 721.5Q357 752 307 752ZM256 375Q198 331 167.5 281Q137 231 137 181Q137 124 175 86Q213 48 271 48Q320 48 360 75Q400 102 431 156L320 295Q315 301 309.5 308Q304 315 293 328Q277 348 269.5 357.5Q262 367 256 375Z" glyph-name="ampersand" horiz-adv-x="658" unicode="&amp;" /><glyph d="M40 625Q40 709 85 754.5Q130 800 213 800H295V0H235V450H213Q130 450 85 495Q40 540 40 625ZM475 0 475 800H535V0Z" glyph-name="paragraph" horiz-adv-x="624" unicode="¶" /><glyph d="M192 581 192 800H252V581L404 577V526L252 522L248 0H196L192 522L40 526V577Z" glyph-name="dagger" horiz-adv-x="444" unicode="†" /><glyph d="M192 601 192 800H252V601L404 597V546L252 542L250 258L404 254V203L250 199V0H194V199L40 203V254L194 258L192 542L40 546V597Z" glyph-name="daggerdbl" horiz-adv-x="444" unicode="‡" /><glyph d="M478 114Q515 88 533 54Q551 20 551 -25Q551 -109 484.5 -160.5Q418 -212 312 -212Q200 -212 131.5 -151.5Q63 -91 63 10V50H123V10Q123 -66 174.5 -110.5Q226 -155 313 -155Q389 -155 440 -118.5Q491 -82 491 -27Q491 7 475.5 33Q460 59 427 80Q409 91 384.5 102Q360 113 306 132Q241 155 210.5 169Q180 183 159 199Q123 225 105.5 259.5Q88 294 88 338Q88 377 102 412Q116 447 142 475Q107 502 90 536Q73 570 73 613Q73 701 140 756.5Q207 812 311 812Q423 812 492 751Q561 690 561 590V550H501V590Q501 665 448.5 710Q396 755 310 755Q235 755 184 715Q133 675 133 615Q133 580 148.5 553.5Q164 527 197 506Q215 494 240 483Q265 472 320 453Q385 431 415 417Q445 403 466 387Q502 361 519 327.5Q536 294 536 250Q536 211 521.5 176.5Q507 142 478 114ZM194 445Q172 423 160 396Q148 369 148 340Q148 296 173 265Q198 234 254 209Q279 198 337.5 177.5Q396 157 424 144Q449 165 462.5 192Q476 219 476 248Q476 291 450.5 322Q425 353 366 378Q343 388 283.5 409Q224 430 194 445Z" glyph-name="section" horiz-adv-x="624" unicode="§" /><glyph d="M74 489 25 519L96 635L3 650L11 704L114 686V800H170V686L273 704L281 650L187 635L260 519L212 489L142 608Z" glyph-name="asterisk" horiz-adv-x="284" unicode="*" /><glyph d="M160 740 40 740V800H340V740H220V440H160ZM409 440 409 800H770V440H710V740H618V440H558V740H469V440Z" glyph-name="trademark" horiz-adv-x="810" unicode="™" /><glyph d="M451 -12Q281 -12 165.5 106.5Q50 225 50 400Q50 575 165.5 693.5Q281 812 451 812Q621 812 736.5 693.5Q852 575 852 400Q852 225 736.5 106.5Q621 -12 451 -12ZM118 400Q118 249 212 151Q306 53 451 53Q595 53 689.5 151.5Q784 250 784 400Q784 550 689.5 648.5Q595 747 451 747Q307 747 212.5 648.5Q118 550 118 400ZM363 191 303 191V601H533V376H612V191H552V319H363ZM363 544 363 376H473V544Z" glyph-name="registered" horiz-adv-x="902" unicode="®" /><glyph d="M451 -12Q281 -12 165.5 106.5Q50 225 50 400Q50 575 165.5 693.5Q281 812 451 812Q621 812 736.5 693.5Q852 575 852 400Q852 225 736.5 106.5Q621 -12 451 -12ZM118 400Q118 249 212 151Q306 53 451 53Q595 53 689.5 151.5Q784 250 784 400Q784 550 689.5 648.5Q595 747 451 747Q307 747 212.5 648.5Q118 550 118 400ZM591 191 298 191V601H594V544H358V248H591Z" glyph-name="copyright" horiz-adv-x="902" unicode="©" /><glyph d="M436 188Q357 188 303.5 248.5Q250 309 250 398Q250 486 304 546.5Q358 607 436 607Q473 607 505 591.5Q537 576 561 548V595H629V326Q629 293 648 271Q667 249 695 249Q737 249 760.5 291.5Q784 334 784 410Q784 559 693 653Q602 747 460 747Q310 747 214 650Q118 553 118 402Q118 257 204 161Q290 65 421 65H629V0H421Q265 0 157.5 116.5Q50 233 50 402Q50 578 167.5 695Q285 812 460 812Q629 812 740.5 698Q852 584 852 410Q852 308 809.5 248Q767 188 695 188Q654 188 622.5 209Q591 230 576 267Q551 229 514.5 208.5Q478 188 436 188ZM318 398Q318 335 352 294Q386 253 439 253Q492 253 526.5 294Q561 335 561 398Q561 460 526 501Q491 542 439 542Q387 542 352.5 501Q318 460 318 398Z" glyph-name="at" horiz-adv-x="902" unicode="@" /><glyph d="M404 440 346 440V486Q322 460 290.5 446.5Q259 433 224 433Q148 433 96.5 487.5Q45 542 45 623Q45 703 96.5 757.5Q148 812 224 812Q259 812 290.5 798.5Q322 785 346 759V800H404ZM103 623Q103 564 137.5 526Q172 488 224 488Q277 488 311.5 526.5Q346 565 346 623Q346 681 311.5 719Q277 757 224 757Q172 757 137.5 719Q103 681 103 623Z" glyph-name="ordfeminine" horiz-adv-x="469" unicode="ª" /><glyph d="M229 433Q151 433 98 487.5Q45 542 45 623Q45 703 98 757.5Q151 812 229 812Q308 812 361 757.5Q414 703 414 623Q414 542 361 487.5Q308 433 229 433ZM103 623Q103 564 138.5 526Q174 488 229 488Q284 488 320 526.5Q356 565 356 623Q356 681 320 719Q284 757 229 757Q174 757 138.5 719Q103 681 103 623Z" glyph-name="ordmasculine" horiz-adv-x="459" unicode="º" /><glyph d="M152 0 85 0L126 242H20V299H135L170 501H56V558H179L220 800H287L246 558H469L510 800H577L536 558H646V501H527L492 299H610V242H483L442 0H375L416 242H193ZM237 501 202 299H425L460 501Z" glyph-name="numbersign" horiz-adv-x="666" unicode="#" /><glyph d="M168 272 59 272V329H155Q152 346 150.5 364Q149 382 149 400Q149 418 150.5 436Q152 454 155 471H55V528H168Q206 652 309.5 726Q413 800 550 800H668V743H560Q442 743 356.5 686Q271 629 237 528H565V471H223Q220 454 218.5 436Q217 418 217 400Q217 382 218.5 364Q220 346 223 329H569V272H237Q271 171 356.5 114Q442 57 560 57H668V0H550Q413 0 309.5 74Q206 148 168 272Z" glyph-name="Euro" horiz-adv-x="718" unicode="€" /><glyph d="M283 811 283 865H343V810Q442 801 501.5 735.5Q561 670 561 570V530H501V570Q501 645 458.5 694Q416 743 343 753V412Q402 391 433.5 374.5Q465 358 487 339Q520 311 535.5 275.5Q551 240 551 195Q551 109 494 53.5Q437 -2 343 -11V-65H283V-11Q182 -2 122.5 63Q63 128 63 230V270H123V230Q123 153 166 104.5Q209 56 283 47V372Q160 418 116.5 468Q73 518 73 593Q73 683 131 743Q189 803 283 811ZM133 595Q133 541 166.5 503.5Q200 466 283 435V753Q217 745 175 701Q133 657 133 595ZM491 193Q491 245 458.5 281Q426 317 343 350V47Q408 55 449.5 96Q491 137 491 193Z" glyph-name="dollar" horiz-adv-x="624" unicode="$" /><glyph d="M69 134 69 191H306V333H69V390H129V800H189V390H494V800H554V390H604V333H366V191H604V134H366V0H306V134Z" glyph-name="yen" horiz-adv-x="673" unicode="¥" /><glyph d="M69 290 69 347H162V584Q162 686 220.5 749Q279 812 372 812Q465 812 522.5 745.5Q580 679 580 570V530H520V570Q520 654 479 704.5Q438 755 371 755Q306 755 264 708Q222 661 222 588V347H491V290H222V188Q222 148 209.5 115Q197 82 173 57H556V0H42V57Q95 57 128.5 94Q162 131 162 188V290Z" glyph-name="sterling" horiz-adv-x="625" unicode="£" /><glyph d="M225 354 174 354L545 47L505 -4L80 354V411H223Q302 411 350.5 445.5Q399 480 409 544H84V601H411Q403 669 354 706Q305 743 223 743H80V800H590V743H396Q429 718 448 682Q467 646 471 601H594V544H470Q459 454 395 404Q331 354 225 354Z" glyph-name="uni20B9" horiz-adv-x="644" unicode="₹" /><glyph d="M274 140 89 140V660H274V800H334V660H495V603H334V197H492V140H334V0H274ZM149 603 149 197H274V603Z" glyph-name="cent" horiz-adv-x="545" unicode="¢" /><glyph d="M273 410 273 -74Q273 -134 236.5 -173Q200 -212 143 -212Q86 -212 50.5 -173Q15 -134 15 -74V-40H75V-74Q75 -109 94 -132Q113 -155 144 -155Q175 -155 194 -132Q213 -109 213 -74V410H72V467H213V674Q213 734 249.5 773Q286 812 343 812Q400 812 435.5 773Q471 734 471 674V600H411V674Q411 709 392 732Q373 755 342 755Q311 755 292 732Q273 709 273 674V467H438V410Z" glyph-name="florin" horiz-adv-x="501" unicode="ƒ" /><glyph d="M155 246 81 172L45 213L118 286Q102 310 93.5 338Q85 366 85 397Q85 428 94 457Q103 486 120 510L45 586L82 626L158 550Q182 568 210 577Q238 586 269 586Q300 586 328 576.5Q356 567 381 549L457 626L494 586L419 511Q436 486 445 457Q454 428 454 397Q454 366 445.5 338Q437 310 421 286L494 213L458 172L384 246Q360 227 331 217Q302 207 269 207Q237 207 208 217Q179 227 155 246ZM143 397Q143 338 178.5 300Q214 262 269 262Q324 262 360 300.5Q396 339 396 397Q396 455 360 493Q324 531 269 531Q214 531 178.5 493Q143 455 143 397Z" glyph-name="currency" horiz-adv-x="539" unicode="¤" /><glyph d="M337 812Q445 812 516 740.5Q587 669 587 560V240Q587 131 516 59.5Q445 -12 337 -12Q228 -12 157 59.5Q86 131 86 240V560Q86 669 157 740.5Q228 812 337 812ZM338 45Q420 45 473.5 100.5Q527 156 527 240V560Q527 644 473.5 699.5Q420 755 338 755Q255 755 200.5 699.5Q146 644 146 560V240Q146 156 200.5 100.5Q255 45 338 45Z" glyph-name="zero" horiz-adv-x="673" unicode="0" /><glyph d="M342 0 282 0V621H50V678H282V800H342Z" glyph-name="one" horiz-adv-x="431" unicode="1" /><glyph d="M140 530 80 530V599Q80 695 136 753.5Q192 812 283 812Q371 812 427 756.5Q483 701 483 609Q483 549 457 484Q431 419 370 330L184 57H493V0H70L314 350Q370 430 396.5 493.5Q423 557 423 609Q423 676 383.5 715Q344 754 282 754Q219 754 179.5 710.5Q140 667 140 596Z" glyph-name="two" horiz-adv-x="543" unicode="2" /><glyph d="M510 0 60 0V57H450V351H107V408H353V743H60V800H413V408H510Z" glyph-name="three" horiz-adv-x="583" unicode="3" /><glyph d="M465 253 288 253Q191 253 133 306.5Q75 360 75 447V800H135V448Q135 385 177.5 347.5Q220 310 291 310H465V700H525V0H465Z" glyph-name="four" horiz-adv-x="614" unicode="4" /><glyph d="M516 0 76 0V57H456V371H94V800H496V743H154V428H516Z" glyph-name="five" horiz-adv-x="592" unicode="5" /><glyph d="M325 508Q429 508 502.5 432.5Q576 357 576 250Q576 142 501 65Q426 -12 322 -12Q216 -12 141.5 64.5Q67 141 67 250V411Q67 567 150 675.5Q233 784 362 800L463 812L471 755L363 740Q256 725 191 630Q126 535 126 391V387Q157 445 209.5 476.5Q262 508 325 508ZM322 46Q402 46 459 105.5Q516 165 516 250Q516 334 459.5 392Q403 450 322 450Q241 450 184 390.5Q127 331 127 250Q127 164 183 105Q239 46 322 46Z" glyph-name="six" horiz-adv-x="610" unicode="6" /><glyph d="M20 743 20 800H417V0H357V743Z" glyph-name="seven" horiz-adv-x="506" unicode="7" /><glyph d="M580 0 86 0V410H155V800H511V410H580ZM451 743 215 743V410H451ZM146 353 146 57H520V353Z" glyph-name="eight" horiz-adv-x="666" unicode="8" /><glyph d="M290 272Q184 272 109 350.5Q34 429 34 540Q34 652 110 732Q186 812 293 812Q401 812 477.5 732.5Q554 653 554 540V389Q554 233 469 124.5Q384 16 253 0L152 -12L144 46L252 60Q360 74 426.5 166.5Q493 259 495 401Q463 339 409 305.5Q355 272 290 272ZM293 754Q210 754 152 691.5Q94 629 94 540Q94 452 152 391Q210 330 293 330Q376 330 435 392Q494 454 494 540Q494 630 436 692Q378 754 293 754Z" glyph-name="nine" horiz-adv-x="621" unicode="9" /><glyph d="M89 800 560 800V0H89ZM149 57 500 57V743H149Z" glyph-name="zero.alt1" horiz-adv-x="649" unicode="" /><glyph d="M122 743 29 743V800H125Q204 800 254 754Q304 708 304 631V0H244V627Q244 681 210 712Q176 743 122 743Z" glyph-name="one.alt1" horiz-adv-x="393" unicode="" /><glyph d="M545 0 84 0V429H467V743H104V800H527V372H144V57H545Z" glyph-name="two.alt1" horiz-adv-x="604" unicode="" /><glyph d="M520 219Q520 116 454.5 58Q389 0 273 0H62V57H271Q360 57 410 100Q460 143 460 219Q460 294 410 336Q360 378 271 378H122V435H251Q327 435 370 478Q413 521 413 598Q413 666 370 704.5Q327 743 251 743H62V800H253Q356 800 414.5 746.5Q473 693 473 598Q473 533 446.5 485.5Q420 438 370 413Q443 393 481.5 343Q520 293 520 219Z" glyph-name="three.alt1" horiz-adv-x="585" unicode="" /><glyph d="M460 253 80 253V800H140V310H460V700H520V0H460Z" glyph-name="four.alt1" horiz-adv-x="609" unicode="" /><glyph d="M321 447Q264 445 213 415Q162 385 132 337H80V800H476V740H139V417Q173 456 227 480.5Q281 505 337 505Q433 505 498.5 434.5Q564 364 564 262Q564 154 489.5 77Q415 0 310 0H80V58H310Q390 58 447 117.5Q504 177 504 262Q504 344 453 397Q402 450 321 447Z" glyph-name="five.alt1" horiz-adv-x="589" unicode="" /><glyph d="M549 0 89 0V800H489V743H149V428H549ZM149 371 149 57H489V371Z" glyph-name="six.alt1" horiz-adv-x="612" unicode="" /><glyph d="M183 0 112 0L418 743H30V800H477V736Z" glyph-name="seven.alt1" horiz-adv-x="490" unicode="" /><glyph d="M314 -10Q211 -10 138 61Q65 132 65 232Q65 301 103.5 359Q142 417 208 446Q164 472 138.5 516Q113 560 113 611Q113 694 171.5 752Q230 810 313 810Q396 810 454.5 752Q513 694 513 611Q513 560 488 516Q463 472 419 446Q485 417 524 359Q563 301 563 232Q563 132 490 61Q417 -10 314 -10ZM313 473Q368 473 408.5 514Q449 555 449 611Q449 667 408.5 708Q368 749 313 749Q257 749 217 708.5Q177 668 177 611Q177 554 217 513.5Q257 473 313 473ZM314 51Q391 51 445 104Q499 157 499 232Q499 307 445 360Q391 413 314 413Q236 413 182.5 360Q129 307 129 232Q129 156 182.5 103.5Q236 51 314 51Z" glyph-name="eight.alt1" horiz-adv-x="628" unicode="" /><glyph d="M63 800 523 800V0H123V57H463V342H63ZM123 743 123 399H463V743Z" glyph-name="nine.alt1" horiz-adv-x="612" unicode="" /><glyph d="M229 433Q151 433 98 487.5Q45 542 45 623Q45 703 98 757.5Q151 812 229 812Q308 812 361 757.5Q414 703 414 623Q414 542 361 487.5Q308 433 229 433ZM103 623Q103 564 138.5 526Q174 488 229 488Q284 488 320 526.5Q356 565 356 623Q356 681 320 719Q284 757 229 757Q174 757 138.5 719Q103 681 103 623Z" glyph-name="degree" horiz-adv-x="459" unicode="°" /><glyph d="M229 433Q151 433 98 487.5Q45 542 45 623Q45 703 98 757.5Q151 812 229 812Q308 812 361 757.5Q414 703 414 623Q414 542 361 487.5Q308 433 229 433ZM366 0 299 0L645 800H712ZM103 623Q103 564 138.5 526Q174 488 229 488Q284 488 320 526.5Q356 565 356 623Q356 681 320 719Q284 757 229 757Q174 757 138.5 719Q103 681 103 623ZM781 -7Q703 -7 650 47.5Q597 102 597 183Q597 263 650 317.5Q703 372 781 372Q860 372 913 317.5Q966 263 966 183Q966 102 913 47.5Q860 -7 781 -7ZM655 183Q655 124 690.5 86Q726 48 781 48Q836 48 872 86.5Q908 125 908 183Q908 241 872 279Q836 317 781 317Q726 317 690.5 279Q655 241 655 183Z" glyph-name="percent" horiz-adv-x="1011" unicode="%" /><glyph d="M229 433Q151 433 98 487.5Q45 542 45 623Q45 703 98 757.5Q151 812 229 812Q308 812 361 757.5Q414 703 414 623Q414 542 361 487.5Q308 433 229 433ZM366 0 299 0L645 800H712ZM103 623Q103 564 138.5 526Q174 488 229 488Q284 488 320 526.5Q356 565 356 623Q356 681 320 719Q284 757 229 757Q174 757 138.5 719Q103 681 103 623ZM1230 -7Q1152 -7 1099 47.5Q1046 102 1046 183Q1046 263 1099 317.5Q1152 372 1230 372Q1309 372 1362 317.5Q1415 263 1415 183Q1415 102 1362 47.5Q1309 -7 1230 -7ZM781 -7Q703 -7 650 47.5Q597 102 597 183Q597 263 650 317.5Q703 372 781 372Q860 372 913 317.5Q966 263 966 183Q966 102 913 47.5Q860 -7 781 -7ZM1104 183Q1104 124 1139.5 86Q1175 48 1230 48Q1285 48 1321 86.5Q1357 125 1357 183Q1357 241 1321 279Q1285 317 1230 317Q1175 317 1139.5 279Q1104 241 1104 183ZM655 183Q655 124 690.5 86Q726 48 781 48Q836 48 872 86.5Q908 125 908 183Q908 241 872 279Q836 317 781 317Q726 317 690.5 279Q655 241 655 183Z" glyph-name="perthousand" horiz-adv-x="1460" unicode="‰" /><glyph d="M17 0 -50 0L296 800H363Z" glyph-name="fraction" horiz-adv-x="313" unicode="⁄" /><glyph d="M17 0 -50 0L296 800H363Z" glyph-name="uni2215" horiz-adv-x="313" unicode="∕" /><glyph d="M229 433Q151 433 98 487.5Q45 542 45 623Q45 703 98 757.5Q151 812 229 812Q308 812 361 757.5Q414 703 414 623Q414 542 361 487.5Q308 433 229 433ZM103 623Q103 564 138.5 526Q174 488 229 488Q284 488 320 526.5Q356 565 356 623Q356 681 320 719Q284 757 229 757Q174 757 138.5 719Q103 681 103 623Z" glyph-name="zerosuperior" horiz-adv-x="459" unicode="⁰" /><glyph d="M222 440 162 440V671H20V728H162V800H222Z" glyph-name="onesuperior" horiz-adv-x="302" unicode="¹" /><glyph d="M356 440 60 440V648H283V743H80V800H343V591H120V497H356Z" glyph-name="twosuperior" horiz-adv-x="413" unicode="²" /><glyph d="M338 440 38 440V497H278V591H85V648H221V743H38V800H281V648H338Z" glyph-name="threesuperior" horiz-adv-x="391" unicode="³" /><glyph d="M320 440 260 440V536H60V800H120V593H260V800H320Z" glyph-name="foursuperior" horiz-adv-x="400" unicode="⁴" /><glyph d="M222 440 162 440V671H20V728H162V800H222ZM229 0 162 0L508 800H575ZM791 0 495 0V208H718V303H515V360H778V151H555V57H791Z" glyph-name="onehalf" horiz-adv-x="848" unicode="½" /><glyph d="M222 440 162 440V671H20V728H162V800H222ZM229 0 162 0L508 800H575ZM695 96 495 96V360H555V153H695V360H755V0H695Z" glyph-name="onequarter" horiz-adv-x="836" unicode="¼" /><glyph d="M338 440 38 440V497H278V591H85V648H221V743H38V800H281V648H338ZM318 0 251 0L597 800H664ZM783 96 583 96V360H643V153H783V360H843V0H783Z" glyph-name="threequarters" horiz-adv-x="924" unicode="¾" /><glyph d="M220 350 30 350V410H220V610H280V410H470V350H280V150H220Z" glyph-name="plus" horiz-adv-x="500" unicode="+" /><glyph d="M460 350 40 350V410H460Z" glyph-name="minus" horiz-adv-x="500" unicode="−" /><glyph d="M250 337 102 189L59 232L207 380L59 528L102 571L250 423L398 571L441 528L293 380L441 232L398 189Z" glyph-name="multiply" horiz-adv-x="500" unicode="×" /><glyph d="M309 586Q309 559 292.5 543Q276 527 248 527Q222 527 206 543Q190 559 190 586Q190 614 206 631Q222 648 248 648Q276 648 292.5 631Q309 614 309 586ZM470 350 30 350V410H470ZM309 186Q309 159 292.5 143Q276 127 248 127Q222 127 206 143Q190 159 190 186Q190 214 206 231Q222 248 248 248Q276 248 292.5 231Q309 214 309 186Z" glyph-name="divide" horiz-adv-x="500" unicode="÷" /><glyph d="M460 470 40 470V530H460ZM460 230 40 230V290H460Z" glyph-name="equal" horiz-adv-x="500" unicode="=" /><glyph d="M394 420 22 420V480H454V220H394Z" glyph-name="logicalnot" horiz-adv-x="500" unicode="¬" /><glyph d="M180 410Q193 410 209.5 407Q226 404 262 395Q297 386 313.5 383Q330 380 342 380Q369 380 393 393.5Q417 407 443 437L481 399Q448 358 414 339Q380 320 342 320Q327 320 308.5 323Q290 326 253 336Q220 345 205.5 347.5Q191 350 180 350Q153 350 129 336.5Q105 323 79 293L41 331Q74 372 108 391Q142 410 180 410Z" glyph-name="asciitilde" horiz-adv-x="500" unicode="~" /><glyph d="M172 380 408 179L364 127L71 383L364 632L408 579Z" glyph-name="less" horiz-adv-x="500" unicode="&lt;" /><glyph d="M136 127 92 179L328 380L92 579L136 632L429 383Z" glyph-name="greater" horiz-adv-x="500" unicode="&gt;" /><glyph d="M220 350 30 350V410H220V610H280V410H470V350H280V150H220ZM470 0 30 0V60H470Z" glyph-name="plusminus" horiz-adv-x="500" unicode="±" /><glyph d="M57 459 207 799H285L435 459L381 434L246 750L111 434Z" glyph-name="asciicircum" horiz-adv-x="500" unicode="^" /><glyph d="M252 230 214 68H147L185 230H40V290H199L240 470H40V530H254L292 692H359L321 530H460V470H307L266 290H460V230Z" glyph-name="notequal" horiz-adv-x="500" unicode="≠" /><glyph d="M180 530Q193 530 209.5 527Q226 524 262 515Q297 506 313.5 503Q330 500 342 500Q369 500 393 513.5Q417 527 443 557L481 519Q448 478 414 459Q380 440 342 440Q327 440 308.5 443Q290 446 253 456Q220 465 205.5 467.5Q191 470 180 470Q153 470 129 456.5Q105 443 79 413L41 451Q74 492 108 511Q142 530 180 530ZM180 320Q193 320 209.5 317Q226 314 262 305Q297 296 313.5 293Q330 290 342 290Q369 290 393 303.5Q417 317 443 347L481 309Q448 268 414 249Q380 230 342 230Q327 230 308.5 233Q290 236 253 246Q220 255 205.5 257.5Q191 260 180 260Q153 260 129 246.5Q105 233 79 203L41 241Q74 282 108 301Q142 320 180 320Z" glyph-name="approxequal" horiz-adv-x="500" unicode="≈" /><glyph d="M162 410 398 209L354 157L61 413L354 662L398 609ZM462 0 30 0V60H462Z" glyph-name="lessequal" horiz-adv-x="500" unicode="≤" /><glyph d="M146 157 102 209L338 410L102 609L146 662L439 413ZM470 60 470 0H38V60Z" glyph-name="greaterequal" horiz-adv-x="500" unicode="≥" /><glyph d="M483 401Q483 349 452.5 315.5Q422 282 373 282Q340 282 308 301Q276 320 249 357Q222 320 191 301Q160 282 127 282Q82 282 49.5 317Q17 352 17 401Q17 451 48.5 485Q80 519 127 519Q159 519 189.5 499Q220 479 252 436Q283 480 311.5 499.5Q340 519 374 519Q420 519 451.5 485Q483 451 483 401ZM69 401Q69 371 85 350.5Q101 330 127 330Q154 330 180.5 348.5Q207 367 224 397Q206 431 180 451Q154 471 127 471Q101 471 85 451.5Q69 432 69 401ZM277 397Q295 366 321 348Q347 330 373 330Q399 330 415 350Q431 370 431 401Q431 431 415 451Q399 471 373 471Q346 471 320.5 451.5Q295 432 277 397Z" glyph-name="infinity" horiz-adv-x="500" unicode="∞" /><glyph d="M378 800 632 400L378 0H295L40 400L295 800ZM336 37 565 400L336 763L107 400Z" glyph-name="lozenge" horiz-adv-x="674" unicode="◊" /><glyph d="M181 31 366 800H505V744H410L231 0H128L0 411H63Z" glyph-name="radical" horiz-adv-x="510" unicode="√" /><glyph d="M227 625 227 -18Q227 -102 192.5 -151Q158 -200 102 -200Q78 -200 54.5 -191Q31 -182 10 -165L39 -120Q54 -130 69.5 -135.5Q85 -141 99 -141Q131 -141 149 -107.5Q167 -74 167 -13V630Q167 714 201.5 763Q236 812 292 812Q316 812 339.5 803Q363 794 384 777L355 732Q340 742 324.5 747.5Q309 753 295 753Q263 753 245 719.5Q227 686 227 625Z" glyph-name="integral" horiz-adv-x="394" unicode="∫" /><glyph d="M479 214Q479 119 412 52Q345 -15 251 -15Q157 -15 89.5 52.5Q22 120 22 214Q22 309 89.5 376Q157 443 251 443Q283 443 314 433.5Q345 424 371 406L216 760H280L383 525Q432 413 455.5 336.5Q479 260 479 214ZM82 214Q82 143 131 93.5Q180 44 251 44Q322 44 370.5 93Q419 142 419 214Q419 286 370.5 335Q322 384 251 384Q180 384 131 334.5Q82 285 82 214Z" glyph-name="partialdiff" horiz-adv-x="499" unicode="∂" /><glyph d="M89 -75 89 800H609V-75H549V747H149V-75Z" glyph-name="product" horiz-adv-x="698" unicode="∏" /><glyph d="M201 0 141 0V498H9V550H696V498H565V175Q565 114 583 80.5Q601 47 633 47Q647 47 662.5 52.5Q678 58 693 68L722 23Q702 6 677.5 -3Q653 -12 628 -12Q573 -12 539 37Q505 86 505 170V498H201Z" glyph-name="pi" horiz-adv-x="715" unicode="π" /><glyph d="M104 63 104 -200H52V550H112V194Q112 128 153.5 86.5Q195 45 261 45Q327 45 369 86.5Q411 128 411 194V550H471V182Q471 99 485.5 72Q500 45 536 45Q553 45 569.5 50Q586 55 601 64L618 11Q600 0 579.5 -6Q559 -12 536 -12Q491 -12 466 8Q441 28 430 72Q401 33 356 10.5Q311 -12 261 -12Q214 -12 172.5 8Q131 28 104 63Z" glyph-name="mu" horiz-adv-x="623" unicode="μ" /><glyph d="M96 -17 510 -17V-74H7V-17H8L301 345L8 743H7V800H510V743H93L385 344Z" glyph-name="summation" horiz-adv-x="515" unicode="∑" /><glyph d="M296 0 53 0V57H236V112Q140 139 85 225.5Q30 312 30 437Q30 607 131.5 709.5Q233 812 400 812Q567 812 668 709Q769 606 769 437Q769 314 714 227Q659 140 564 113V57H746V0H503V160Q596 164 653 240Q710 316 710 437Q710 581 625 668Q540 755 400 755Q260 755 175 668Q90 581 90 437Q90 316 146.5 240Q203 164 296 160Z" glyph-name="Omega" horiz-adv-x="799" unicode="Ω" /><glyph d="M296 0 53 0V57H236V112Q140 139 85 225.5Q30 312 30 437Q30 607 131.5 709.5Q233 812 400 812Q567 812 668 709Q769 606 769 437Q769 314 714 227Q659 140 564 113V57H746V0H503V160Q596 164 653 240Q710 316 710 437Q710 581 625 668Q540 755 400 755Q260 755 175 668Q90 581 90 437Q90 316 146.5 240Q203 164 296 160Z" glyph-name="uni03A9" horiz-adv-x="799" unicode="" /><glyph d="M750 38 750 0H10V38L353 800H397ZM376 702 86 57H673Z" glyph-name="Delta" horiz-adv-x="760" unicode="Δ" /><glyph d="M750 38 750 0H10V38L353 800H397ZM376 702 86 57H673Z" glyph-name="uni0394" horiz-adv-x="760" unicode="" /><glyph d="M74 230 43 205L9 250L74 302V669Q74 733 109.5 772Q145 811 204 811Q268 811 301 765.5Q334 720 334 635Q334 538 288 452Q242 366 152 293L134 278V139Q134 96 151 71.5Q168 47 199 47Q233 47 252.5 71.5Q272 96 272 139V159H328V132Q328 66 293.5 28Q259 -10 199 -10Q141 -10 107.5 29Q74 68 74 132ZM204 754Q171 754 152.5 729.5Q134 705 134 662V351Q203 411 238.5 482.5Q274 554 274 635Q274 696 256.5 725Q239 754 204 754Z" glyph-name="uni2113" horiz-adv-x="357" unicode="ℓ" /><glyph d="M667 264 667 257H171Q169 257 168 256Q167 255 167 254V104Q167 99 168.5 94.5Q170 90 174 86Q211 48 260 27Q309 6 362 6Q419 6 470 29.5Q521 53 559 96H603Q560 46 496 17.5Q432 -11 361 -11Q234 -11 144.5 69.5Q55 150 55 264Q55 379 144.5 460Q234 541 361 541Q488 541 577.5 460Q667 379 667 264ZM555 276 555 427Q555 433 553 437.5Q551 442 547 446Q510 484 462.5 504Q415 524 362 524Q309 524 260 503Q211 482 175 443Q171 440 169 435Q167 430 167 424V276Q167 275 168.5 273.5Q170 272 171 272H552Q553 272 554 273Q555 274 555 276Z" glyph-name="estimated" horiz-adv-x="722" unicode="℮" /></font>
</defs>
</svg>
